<?xml version="1.0" encoding="UTF-8" standalone="no"?>
<!-- Generator: Adobe Illustrator 14.0.0, SVG Export Plug-In . SVG Version: 6.00 Build 43363)  -->

<svg
   xmlns:dc="http://purl.org/dc/elements/1.1/"
   xmlns:cc="http://creativecommons.org/ns#"
   xmlns:rdf="http://www.w3.org/1999/02/22-rdf-syntax-ns#"
   xmlns:svg="http://www.w3.org/2000/svg"
   xmlns="http://www.w3.org/2000/svg"
   xmlns:sodipodi="http://sodipodi.sourceforge.net/DTD/sodipodi-0.dtd"
   xmlns:inkscape="http://www.inkscape.org/namespaces/inkscape"
   version="1.1"
   id="Layer_1"
   x="0px"
   y="0px"
   width="299.99985"
   height="300"
   viewBox="0 0 299.99985 300"
   enable-background="new 0 0 751 424"
   xml:space="preserve"
   inkscape:version="0.48.3.1 r9886"
   sodipodi:docname="ANA.svg"><metadata
   id="metadata49"><rdf:RDF><cc:Work
       rdf:about=""><dc:format>image/svg+xml</dc:format><dc:type
         rdf:resource="http://purl.org/dc/dcmitype/StillImage" /><dc:title /></cc:Work></rdf:RDF></metadata><defs
   id="defs47"><filter
     id="filter3005"
     inkscape:label="Desaturate"
     x="0"
     y="0"
     width="1"
     height="1"
     inkscape:menu="Color"
     inkscape:menu-tooltip="Render in shades of gray by reducing saturation to zero"
     color-interpolation-filters="sRGB"><feColorMatrix
       id="feColorMatrix3007"
       type="saturate"
       values="0" /></filter><filter
     id="filter3009"
     inkscape:label="Desaturate"
     x="0"
     y="0"
     width="1"
     height="1"
     inkscape:menu="Color"
     inkscape:menu-tooltip="Render in shades of gray by reducing saturation to zero"
     color-interpolation-filters="sRGB"><feColorMatrix
       id="feColorMatrix3011"
       type="saturate"
       values="0" /></filter><filter
     id="filter3013"
     inkscape:label="Desaturate"
     x="0"
     y="0"
     width="1"
     height="1"
     inkscape:menu="Color"
     inkscape:menu-tooltip="Render in shades of gray by reducing saturation to zero"
     color-interpolation-filters="sRGB"><feColorMatrix
       id="feColorMatrix3015"
       type="saturate"
       values="0" /></filter><filter
     id="filter3017"
     inkscape:label="Desaturate"
     x="0"
     y="0"
     width="1"
     height="1"
     inkscape:menu="Color"
     inkscape:menu-tooltip="Render in shades of gray by reducing saturation to zero"
     color-interpolation-filters="sRGB"><feColorMatrix
       id="feColorMatrix3019"
       type="saturate"
       values="0" /></filter><filter
     id="filter3021"
     inkscape:label="Desaturate"
     x="0"
     y="0"
     width="1"
     height="1"
     inkscape:menu="Color"
     inkscape:menu-tooltip="Render in shades of gray by reducing saturation to zero"
     color-interpolation-filters="sRGB"><feColorMatrix
       id="feColorMatrix3023"
       type="saturate"
       values="0" /></filter><filter
     id="filter3025"
     inkscape:label="Desaturate"
     x="0"
     y="0"
     width="1"
     height="1"
     inkscape:menu="Color"
     inkscape:menu-tooltip="Render in shades of gray by reducing saturation to zero"
     color-interpolation-filters="sRGB"><feColorMatrix
       id="feColorMatrix3027"
       type="saturate"
       values="0" /></filter><filter
     id="filter3029"
     inkscape:label="Desaturate"
     x="0"
     y="0"
     width="1"
     height="1"
     inkscape:menu="Color"
     inkscape:menu-tooltip="Render in shades of gray by reducing saturation to zero"
     color-interpolation-filters="sRGB"><feColorMatrix
       id="feColorMatrix3031"
       type="saturate"
       values="0" /></filter><filter
     id="filter3033"
     inkscape:label="Desaturate"
     x="0"
     y="0"
     width="1"
     height="1"
     inkscape:menu="Color"
     inkscape:menu-tooltip="Render in shades of gray by reducing saturation to zero"
     color-interpolation-filters="sRGB"><feColorMatrix
       id="feColorMatrix3035"
       type="saturate"
       values="0" /></filter><filter
     id="filter3037"
     inkscape:label="Desaturate"
     x="0"
     y="0"
     width="1"
     height="1"
     inkscape:menu="Color"
     inkscape:menu-tooltip="Render in shades of gray by reducing saturation to zero"
     color-interpolation-filters="sRGB"><feColorMatrix
       id="feColorMatrix3039"
       type="saturate"
       values="0" /></filter><filter
     id="filter3041"
     inkscape:label="Desaturate"
     x="0"
     y="0"
     width="1"
     height="1"
     inkscape:menu="Color"
     inkscape:menu-tooltip="Render in shades of gray by reducing saturation to zero"
     color-interpolation-filters="sRGB"><feColorMatrix
       id="feColorMatrix3043"
       type="saturate"
       values="0" /></filter></defs><sodipodi:namedview
   pagecolor="#ffffff"
   bordercolor="#666666"
   borderopacity="1"
   objecttolerance="10"
   gridtolerance="10"
   guidetolerance="10"
   inkscape:pageopacity="0"
   inkscape:pageshadow="2"
   inkscape:window-width="1366"
   inkscape:window-height="744"
   id="namedview45"
   showgrid="false"
   fit-margin-top="0"
   fit-margin-left="0"
   fit-margin-right="0"
   fit-margin-bottom="0"
   inkscape:zoom="0.85752331"
   inkscape:cx="154.76111"
   inkscape:cy="38.448619"
   inkscape:window-x="0"
   inkscape:window-y="24"
   inkscape:window-maximized="1"
   inkscape:current-layer="Layer_1" />

<g
   id="Ducks"
   transform="matrix(0.39979991,0,0,0.39979991,-0.12493748,66.736802)">
<path
   d="m 453.9375,0 c -20.20646,0.00175781 -40.42625,1.15 -60.5,3.34375 -85.66,9.35 -168.8725,36.3835 -245.5625,75.3125 -19.01,9.83 -37.76375,20.22375 -55.59375,32.09375 40.42,-2.76 80.98875,-4.16875 121.46875,-1.96875 18.93,1.26 38.09125,2.895 56.28125,8.625 7.39,2.6 15.61125,5.88625 19.53125,13.15625 2.8,5.55 0.0675,11.85875 -3.3125,16.46875 -4.99,6.65 -11.39125,12.07 -18.03125,17 -14.37,10.478 -30.00125,19.0575 -45.78125,27.1875 -28.91,14.572 -58.6875,27.39625 -88.9375,38.90625 24.27,1.131 48.55,2.935 72.5,7.125 13.43,2.5 27.065,5.32075 39.375,11.46875 5.38,2.91 11.4775,7.02625 12.1875,13.65625 0.33,7.109 -4.23375,13.2375 -8.84375,18.1875 -9.1,9.22 -20.26875,16.04725 -31.46875,22.40625 -29.67,16.281 -61.355,28.46875 -93.125,39.96875 -40.74,14.49 -82.1225,27.17375 -123.8125,38.59375 31.57,13.442 64.9825,22.104 98.5625,28.875 66.32,12.88 134.53,15.8175 201.75,9.1875 78.119,-7.75 155.024,-26.945 227.875,-56.125 37.78,-15.27 74.54,-33.28275 109,-55.09375 26.44,-16.809 51.69125,-35.90875 73.28125,-58.71875 11.75,-12.67 22.555,-26.43125 30.125,-42.03125 5.29,-10.53 8.81125,-22.00125 9.78125,-33.78125 l 0,-11.625 c -1.32,-19.75 -8.47875,-38.895 -19.71875,-55.125 -16.33,-23.89 -39.6925,-42.03375 -64.5625,-56.34375 -34.75,-19.74 -73.104,-32.52625 -112.125,-40.65625 C 521.29375,3.1875 487.61494,-0.00292969 453.9375,0 z M 601.5,31.8125 c 2.7502,0.90183 5.48681,1.822688 8.21875,2.78125 1.92812,0.68625 3.86101,1.408962 5.78125,2.125 -1.92035,-0.716038 -3.853,-1.4075 -5.78125,-2.09375 -2.73187,-0.95875 -5.46861,-1.910505 -8.21875,-2.8125 z m -143.96875,2.15625 c 2.38098,-0.01191 4.74313,0.0063 7.125,0.03125 64.96,1.01 130.4285,16.688 186.6875,49.75 19.152,11.51 37.5415,24.9225 52.0625,42.0625 6.241,7.741 12.57125,16.45875 13.28125,26.71875 -0.8,8.37 -6.2275,15.32875 -10.9375,21.96875 -12.881,16.7 -28.615,30.92 -44.875,44.25 -30.84,24.899 -64.69625,45.85775 -99.90625,63.96875 -74.8,38.189 -156.14475,62.94 -239.09375,75.5 -59.58,9.032 -120.05875,11.7365 -180.21875,8.9375 36.53,-10.202 72.61125,-22.79725 106.28125,-40.40625 17.74,-9.42 35.085,-20.25125 49.125,-34.78125 10.1,-10.65 18.58625,-24.31875 18.40625,-39.46875 0.28,-8.609 -4.3075,-16.5825 -10.4375,-22.3125 -11.82,-11.22 -27.4975,-17.25625 -42.9375,-21.65625 15.44,-6.78 30.40375,-14.74 44.34375,-24.25 12.451,-8.6 24.36125,-18.41 33.28125,-30.75 6.84,-9.52 11.6325,-21.18375 10.5625,-33.09375 -0.702,-8.22 -5.33375,-15.66375 -11.59375,-20.84375 -7.972,-6.65 -17.7345,-10.6675 -27.5625,-13.6875 -16.011,-4.75 -32.66125,-6.9125 -49.28125,-8.0625 -12.16,-0.75 -24.35125,-1.16375 -36.53125,-0.59375 41.09,-13.77 83.16125,-24.61875 125.78125,-32.46875 35.11875,-6.35625 70.72274,-10.633862 106.4375,-10.8125 z m 0.3125,6.96875 c -21.47129,0.04297 -42.94375,1.65625 -64.25,4.28125 -42.58,5.33 -84.60925,14.51375 -125.90625,26.09375 14.96,1.19 29.91125,3.3725 44.28125,7.8125 13.679,4.33 27.57675,10.5325 36.96875,21.8125 6.85,8.15 9.41125,19.37125 7.53125,29.78125 -2.75,17.56 -14.28125,32.2175 -27.03125,43.9375 -14.62,13.31 -31.58375,23.7625 -49.09375,32.8125 11.628,4.83 23.05425,10.995 31.65625,20.375 6.369,6.94 10.564,16.199 10.125,25.75 -0.329,15.05 -7.95125,28.90625 -17.78125,39.90625 -10.75,12.15 -24,21.80225 -37.75,30.28125 -25.79,15.782 -53.9125,27.2675 -82.3125,37.4375 47.898,-0.04 95.84625,-3.601 143.15625,-11.25 82.39,-13.32 163.0975,-38.62 237.1875,-77.25 32.511,-17 63.8,-36.5275 92.5,-59.4375 13.718,-11.13 27.04125,-22.92625 38.53125,-36.40625 5.089,-6.13 10.11075,-12.5425 12.96875,-20.0625 2.23,-6.37 -1.07375,-12.9 -4.34375,-18.25 -7.83,-12.16 -18.73,-21.975 -30,-30.875 -15.36,-11.89 -32.165,-21.81125 -49.625,-30.28125 -40.142,-19.26 -83.8975,-30.67 -128.1875,-34.75 -12.83925,-1.2075 -25.74223,-1.744531 -38.625,-1.71875 z M 691,77.5 c 1.61454,1.268928 3.23375,2.556875 4.8125,3.875 0.82937,0.696875 1.65126,1.412551 2.46875,2.125 -0.81749,-0.712449 -1.63938,-1.396875 -2.46875,-2.09375 C 694.23388,80.088125 692.61443,78.768928 691,77.5 z M 445,90.21875 c 20.25369,-0.124207 40.50194,1.66425 60.4375,5.15625 48.428,8.5 95.06,29.47 131.75,62.5 -26.641,24.43 -56.99125,44.56625 -88.78125,61.65625 -37.189,19.861 -76.48075,35.60375 -116.71875,48.09375 -29.222,9.04 -58.96375,16.471 -89.09375,21.75 C 382.60375,269.665 422.64,250.01 462,229 c 22.989,-12.48 46.3,-24.68 67.75,-39.75 -60.16,1.73 -120.32075,3.82375 -180.46875,5.84375 63.44,-16.67 127.00875,-32.8675 190.46875,-49.4375 -15.96,-10.52 -33.71925,-17.92875 -51.53125,-24.71875 -29.46,-10.92 -59.74125,-19.53375 -90.28125,-26.84375 15.55312,-2.52 31.30963,-3.778395 47.0625,-3.875 z M 722.375,109.875 c 1.24719,1.77461 2.44195,3.59791 3.59375,5.4375 -1.1518,-1.83959 -2.34656,-3.66289 -3.59375,-5.4375 z m 18.53125,45.59375 c 0.49772,3.63073 0.78506,7.30411 0.84375,10.96875 -0.0587,-3.66464 -0.34603,-7.33802 -0.84375,-10.96875 z m -453.625,3.625 c -0.89085,0.9058 -1.79242,1.7865 -2.71875,2.65625 0.92086,-0.86461 1.83291,-1.75604 2.71875,-2.65625 z m 434.375,15.25 c 2.33,5.82 -0.38525,11.7505 -3.65625,16.5625 -7.77,11.6 -17.7025,21.54175 -27.8125,31.09375 -27.91,25.778 -59.26375,47.64375 -91.84375,67.09375 -71.74,42.43 -150.79125,72.33225 -232.53125,88.53125 -69.08,13.769 -140.11,17.1265 -210.25,11.1875 9.65,-2.731 19.35375,-5.35975 29.09375,-7.71875 89.781,2.731 180.055,-9.87 265.625,-37.25 74.12,-23.892 145.2925,-58.7775 206.5625,-107.1875 23.512,-18.651 45.4125,-39.3925 64.8125,-62.3125 z M 735.9375,196.875 c -1.25165,3.12199 -2.67062,6.19005 -4.21875,9.1875 -1.03208,1.9983 -2.10983,3.96467 -3.25,5.90625 1.14017,-1.94158 2.21792,-3.90795 3.25,-5.90625 1.54813,-2.99745 2.9671,-6.06551 4.21875,-9.1875 z m -15.65625,27.53125 c -0.37628,0.51971 -0.74428,1.04771 -1.125,1.5625 -1.19875,1.58619 -2.44614,3.16991 -3.6875,4.71875 1.24134,-1.54888 2.4575,-3.1325 3.65625,-4.71875 0.38513,-0.52076 0.77567,-1.03671 1.15625,-1.5625 z m -492.6875,82.8125 c -1.50225,0.91735 -3.02125,1.82613 -4.53125,2.71875 -3.205,1.83875 -6.4308,3.60549 -9.6875,5.34375 3.2567,-1.73826 6.4825,-3.53625 9.6875,-5.375 1.51,-0.8925 3.029,-1.77021 4.53125,-2.6875 z"
/>
</g>

</svg>
