<?xml version="1.0" encoding="UTF-8" standalone="no"?>
<svg
   xmlns:dc="http://purl.org/dc/elements/1.1/"
   xmlns:cc="http://creativecommons.org/ns#"
   xmlns:rdf="http://www.w3.org/1999/02/22-rdf-syntax-ns#"
   xmlns:svg="http://www.w3.org/2000/svg"
   xmlns="http://www.w3.org/2000/svg"
   xmlns:sodipodi="http://sodipodi.sourceforge.net/DTD/sodipodi-0.dtd"
   xmlns:inkscape="http://www.inkscape.org/namespaces/inkscape"
   version="1.1"
   id="Layer_8"
   x="0px"
   y="0px"
   width="300"
   height="300"
   viewBox="0 0 299.99999 299.99999"
   enable-background="new 0 0 226.979 226.979"
   xml:space="preserve"
   inkscape:version="0.48.3.1 r9886"
   sodipodi:docname="BOS.svg"><metadata
   id="metadata55"><rdf:RDF><cc:Work
       rdf:about=""><dc:format>image/svg+xml</dc:format><dc:type
         rdf:resource="http://purl.org/dc/dcmitype/StillImage" /><dc:title /></cc:Work></rdf:RDF></metadata><defs
   id="defs53" />
   <sodipodi:namedview
   pagecolor="#ffffff"
   bordercolor="#666666"
   borderopacity="1"
   objecttolerance="10"
   gridtolerance="10"
   guidetolerance="10"
   inkscape:pageopacity="0"
   inkscape:pageshadow="2"
   inkscape:window-width="930"
   inkscape:window-height="715"
   id="namedview51"
   showgrid="false"
   inkscape:zoom="0.73520986"
   inkscape:cx="153.63002"
   inkscape:cy="35.010333"
   inkscape:window-x="199"
   inkscape:window-y="24"
   inkscape:window-maximized="0"
   inkscape:current-layer="Layer_8"
   showguides="true"
   inkscape:guide-bbox="true"
   fit-margin-top="0"
   fit-margin-left="0"
   fit-margin-right="0"
   fit-margin-bottom="0" />

<g
   id="Boston"
   transform="matrix(1.3753581,0,0,1.3753581,-6.1031516,-6.1031516)">
<path
   d="M 113.5,4.4375 C 98.785,4.4375 84.48725,7.3079997 71.03125,13 58.04225,18.494 46.386,26.364 36.375,36.375 26.364,46.385 18.494,58.04325 13,71.03125 7.3099997,84.48625 4.4375,98.784 4.4375,113.5 c 0,14.715 2.8714997,28.9815 8.5625,42.4375 5.494,12.987 13.364,24.64625 23.375,34.65625 10.01,10.012 21.66825,17.881 34.65625,23.375 13.457,5.692 27.75375,8.59375 42.46875,8.59375 14.716,0 28.9815,-2.90175 42.4375,-8.59375 12.987,-5.494 24.64525,-13.364 34.65625,-23.375 10.011,-10.011 17.882,-21.66925 23.375,-34.65625 5.692,-13.456 8.59375,-27.7225 8.59375,-42.4375 0,-14.716 -2.90175,-29.01275 -8.59375,-42.46875 -5.493,-12.988 -13.364,-24.64625 -23.375,-34.65625 C 180.58275,26.364 168.9255,18.494 155.9375,13 142.4825,7.3089997 128.217,4.4375 113.5,4.4375 z m 0,16.25 c 2.04458,0 4.05081,0.05729 6.0625,0.1875 l 0,29.8125 -12.1875,0 0,-29.8125 c 2.0219,-0.131538 4.06984,-0.1875 6.125,-0.1875 z m -11.28125,0.65625 0,29.34375 -32.125,0 -3.59375,0 -10.25,-10.25 C 69.237095,30.246943 84.992613,23.427556 102.21875,21.34375 z m 22.5,0 c 17.23072,2.078602 33.0079,8.872711 46,19.0625 l -18.5,18.5 -5.8125,-5.6875 -2.5625,-2.53125 -3.625,0 -15.5,0 0,-29.34375 z m 50,22.375 c 3.05296,2.681426 5.91566,5.569043 8.59375,8.625 l -18.6875,18.6875 -1.59375,-1.5625 -7.125,-6.9375 18.8125,-18.8125 z M 52.25,43.75 l 9,9 0,6.78125 0,10.4375 L 43.65625,52.375 C 46.332633,49.319337 49.198897,46.431454 52.25,43.75 z m 13.78125,11.75 4.0625,0 70.125,0 1.65625,0 1.1875,1.15625 16.625,16.25 1.21875,1.1875 0,1.6875 0,28.0625 0,1.75 -1.25,1.1875 -7.09375,6.84375 7.125,6.875 1.21875,1.1875 0,1.71875 0,28.0625 0,1.71875 -1.21875,1.1875 -16.625,16.25 -1.1875,1.15625 -1.65625,0 -70.125,0 -4.0625,0 0,-4.0625 0,-11.4375 0,-1.75 1.25,-1.1875 6.875,-6.5625 0,-66.28125 -6.875,-6.5625 -1.25,-1.1875 0,-1.75 0,-11.46875 0,-4.03125 z M 186.625,56.34375 c 10.1647,12.990792 16.93459,28.751842 19,45.96875 l -39.90625,0 0,-25.0625 L 186.625,56.34375 z M 40.34375,56.375 69.375,85.40625 l 0,16.90625 -48.03125,0 c 2.064159,-17.207665 8.844775,-32.950702 19,-45.9375 z m 29.75,3.15625 0,11.46875 8.125,7.75 0,69.78125 -8.125,7.75 0,11.4375 70.125,0 16.625,-16.25 0,-28.0625 -10.15625,-9.78125 10.15625,-9.78125 0,-28.0625 -16.625,-16.25 -70.125,0 z m 24.34375,16.28125 36.9375,0 7.375,7.375 0.0312,15.125 -7.40625,7.40625 -36.9375,0 0,-29.90625 z m 4.0625,4.03125 0,21.8125 31.1875,0 5.03125,-5.03125 -0.0312,-11.75 -5,-5 L 98.5,79.84375 z m 4.8125,4.8125 24.40625,0 2.1875,2.1875 0,7.8125 -2.1875,2.1875 -24.40625,0 0,-12.1875 z m -82.4375,22.8125 48.5,0 0,12.1875 -48.5,0 c -0.134217,-2.04205 -0.1875,-4.08027 -0.1875,-6.15625 0,-2.02368 0.05993,-4.03979 0.1875,-6.03125 z m 144.84375,0 40.375,0 c 0.12758,1.99146 0.21875,4.00757 0.21875,6.03125 0,2.07602 -0.0845,4.11417 -0.21875,6.15625 l -40.375,0 L 163,117.03125 159.46875,113.625 163,110.25 l 2.71875,-2.625 0,-0.15625 z m -71.3125,14.09375 36.9375,0.0312 7.375,7.375 0,15.125 -7.375,7.375 -36.9375,0 0,-29.90625 z m -73.0625,3.25 48.03125,0 0,16.90625 -28.96875,29 C 30.234603,157.74985 23.435429,142.00682 21.34375,124.8125 z m 144.375,0 39.90625,0 c -2.09266,17.20152 -8.91488,32.9344 -19.09375,45.90625 l -20.8125,-20.84375 0,-25.0625 z m -67.25,0.8125 0,21.78125 0,0.0312 31.1875,0 5,-5.03125 0,-11.75 -5,-5 -31.1875,-0.0312 z m 4.78125,4.8125 24.40625,0 2.1875,2.1875 0.0312,7.8125 -2.21875,2.1875 -24.40625,0 0,-12.1875 z m 61.4375,25.75 18.53125,18.53125 c -2.6789,3.0486 -5.54129,5.91913 -8.59375,8.59375 L 156,164.6875 l 7.03125,-6.875 1.65625,-1.625 z m -103.4375,0.96875 0,10.5625 0,6.65625 -8.90625,8.90625 c -3.056004,-2.67935 -5.94376,-5.53946 -8.625,-8.59375 L 61.25,157.15625 z m 91.0625,11.15625 18.3125,18.3125 c -12.9753,10.1518 -28.71446,16.92596 -45.90625,19 l 0,-29.03125 15.5,0 3.625,0 2.5625,-2.53125 5.90625,-5.75 z m -85.96875,8.28125 3.75,0 32.125,0 0,29.03125 c -17.187644,-2.07933 -32.904514,-8.87815 -45.875,-19.03125 l 10,-10 z m 41.03125,0 12.1875,0 0,29.5 c -2.01169,0.13022 -4.01792,0.21875 -6.0625,0.21875 -2.05516,0 -4.1031,-0.0872 -6.125,-0.21875 l 0,-29.5 z"
 />
</g>
</svg>
