<?xml version="1.0" encoding="UTF-8" standalone="no"?>
<!-- Generator: Adobe Illustrator 13.0.1, SVG Export Plug-In . SVG Version: 6.00 Build 14948)  -->

<svg
   xmlns:dc="http://purl.org/dc/elements/1.1/"
   xmlns:cc="http://creativecommons.org/ns#"
   xmlns:rdf="http://www.w3.org/1999/02/22-rdf-syntax-ns#"
   xmlns:svg="http://www.w3.org/2000/svg"
   xmlns="http://www.w3.org/2000/svg"
   xmlns:sodipodi="http://sodipodi.sourceforge.net/DTD/sodipodi-0.dtd"
   xmlns:inkscape="http://www.inkscape.org/namespaces/inkscape"
   version="1.1"
   id="Layer_1"
   x="0px"
   y="0px"
   width="300"
   height="300"
   viewBox="0 0 300.00001 299.99999"
   enable-background="new 0 0 262.602 262.601"
   xml:space="preserve"
   inkscape:version="0.48.3.1 r9886"
   sodipodi:docname="BUF.svg"><metadata
   id="metadata314"><rdf:RDF><cc:Work
       rdf:about=""><dc:format>image/svg+xml</dc:format><dc:type
         rdf:resource="http://purl.org/dc/dcmitype/StillImage" /></cc:Work></rdf:RDF></metadata><defs
   id="defs312" /><sodipodi:namedview
   pagecolor="#ffffff"
   bordercolor="#666666"
   borderopacity="1"
   objecttolerance="10"
   gridtolerance="10"
   guidetolerance="10"
   inkscape:pageopacity="0"
   inkscape:pageshadow="2"
   inkscape:window-width="1366"
   inkscape:window-height="744"
   id="namedview310"
   showgrid="false"
   fit-margin-top="0"
   fit-margin-left="0"
   fit-margin-right="0"
   fit-margin-bottom="0"
   inkscape:zoom="1.7974036"
   inkscape:cx="125.9655"
   inkscape:cy="147.41119"
   inkscape:window-x="0"
   inkscape:window-y="24"
   inkscape:window-maximized="1"
   inkscape:current-layer="Layer_1" /><path
   style="fill:#000000"
   d="m 151.08203,-0.32577957 c -82.835563,0 -149.9817011,67.17103557 -149.9817011,150.01830957 0,82.84263 67.1461381,149.9817 149.9817011,149.9817 82.83676,0 150.01831,-67.14024 150.01831,-149.9817 0,-82.847274 -67.18155,-150.01830957 -150.01831,-150.01830957 z m 0,10.80190457 c 76.87382,0 139.21641,62.343796 139.21641,139.216405 0,76.86914 -62.34259,139.1798 -139.21641,139.1798 -76.862074,0 -139.179797,-62.31066 -139.179797,-139.1798 0,-76.872609 62.317723,-139.216405 139.179797,-139.216405 z m 0.0366,3.844746 c -51.400334,0 -96.201846,28.809976 -119.113878,71.109491 1.0487,-0.0539 2.187038,0.37554 3.14903,1.39143 0.490956,0.5472 45.010651,49.680848 115.964848,103.478578 42.4542,-32.20857 75.44431,-62.73336 95.20323,-82.16771 -0.21677,0.0117 -0.44233,0 -0.6591,0 -11.62475,0 -14.28605,-13.255208 -17.90553,-13.255208 -1.45763,0.1242 -6.9472,1.868318 -10.25265,3.295488 2.18176,0.75577 4.23874,-0.0105 6.81069,1.64775 3.316,-0.31754 5.82204,1.27689 5.82204,5.38264 0,4.09404 -0.89344,9.55694 -8.71475,9.55694 -10.65222,0 -10.92787,-10.47235 -18.19847,-10.47235 -2.21457,0 -9.8818,3.36873 -16.33101,3.36873 -8.19861,0 -13.44944,-5.9319 -20.39546,-5.9319 -2.66804,0 -3.36873,2.2884 -3.36873,3.5152 0,3.13204 3.80813,4.22878 3.80813,7.61626 0,1.08619 -0.45874,2.29103 -1.83083,3.11241 0.97253,0.69718 1.83083,1.58155 1.83083,3.03918 0,0.56126 -0.18602,1.08239 -0.40279,1.57452 1.51271,-1.17174 2.79751,-2.05053 4.32077,-2.05053 4.8826,0 7.067,8.27477 7.067,11.42438 0,5.13688 -4.84071,5.63896 -9.11754,5.63896 -3.97568,0 -12.73262,3.66167 -16.33101,3.66167 -3.60776,0 -8.96287,-3.05266 -9.55694,-6.92055 -1.41545,1.86892 -4.18191,3.14903 -7.61626,3.14903 -3.77063,0 -10.98352,-4.17429 -15.1959,-4.17429 -3.25155,0.30816 -9.11754,-0.11307 -9.11754,-7.83596 0,-0.46401 0.0492,-0.89843 0.14647,-1.28158 -4.77481,2.49579 -11.351155,0.4394 -11.351155,0.4394 -8.090809,3.99092 -9.239107,-0.50736 -9.227389,-2.197 -1.695497,1.28539 -3.827756,3.77151 -6.700843,3.77151 -4.699817,0 -5.897327,-4.6878 -8.641523,-7.28671 -1.10137,-1.10611 -4.0058,-2.22599 -5.529052,-3.91798 -2.593043,-2.60358 -5.058953,-6.91351 -13.841084,-13.95093 -2.430173,-1.95562 -4.503845,-8.913068 -4.503845,-15.195898 0,-11.666934 1.773724,-23.515782 22.958624,-28.890517 21.648905,-5.46613 17.557833,-33.138046 57.927497,-33.138046 11.36463,0 20.72912,2.152472 30.1721,5.565727 -2.57078,-1.300622 -3.72962,-2.718711 -3.22226,-4.577078 0.47572,-1.755255 1.88795,-5.089418 35.04211,4.027829 20.01787,5.497766 35.73197,10.734823 34.27316,16.038082 -1.71776,6.260564 -13.61787,-0.64211 -37.93482,-7.323325 -9.72303,-2.668034 -17.59854,-4.475138 -23.03186,-6.18821 16.88583,6.821824 35.21816,17.135702 66.56903,26.107654 10.97561,2.808641 17.97876,3.062907 17.97876,8.78799 0,1.264299 -0.52757,2.117319 -1.20835,2.782863 6.2758,-0.420652 8.52435,7.726109 -4.97986,7.726109 -7.63735,0 -13.18199,-2.93636 -13.18199,-7.030393 0,-2.069279 1.08122,-3.342365 2.45332,-4.174295 -3.11095,-0.879971 -6.99817,-1.712486 -10.32589,-1.977298 0.48627,1.668546 1.06188,3.84416 1.06188,6.554376 0,5.223582 -1.20366,7.642623 -1.64775,10.618822 2.29074,-0.420651 4.65178,-1.537898 6.44453,-1.537898 7.75569,0 3.34324,11.361698 12.92567,12.522888 3.6851,0.70772 3.58843,3.33211 3.58843,3.33211 3.58667,-0.67492 6.07836,-0.38579 6.07836,6.847308 0,0.46401 -0.0404,0.887 -0.0732,1.3182 8.89111,-8.950858 13.67822,-14.248848 13.84109,-14.426948 0.96082,-1.01589 2.11205,-1.44533 3.14903,-1.39143 C 247.28269,43.130847 202.49792,14.320871 151.11864,14.320871 z m 12.19334,8.238741 c -1.93492,0.04081 -2.78982,0.342731 -2.78286,0.695716 0.075,3.462468 9.40637,5.100842 30.42841,10.875137 22.86987,6.292201 34.96976,12.475431 36.104,8.348591 0.99362,-3.640572 -15.36961,-9.328452 -33.2479,-14.243867 -16.80007,-4.615086 -26.24484,-5.765351 -30.50165,-5.675577 z m -31.08751,0.732332 c -39.872869,0 -34.734833,27.263568 -57.56134,33.064813 -20.179564,5.120469 -21.860125,15.941122 -21.860125,27.499085 0,6.23947 2.096229,12.564478 3.954596,14.060788 4.719736,4.01318 7.944636,6.66129 13.950934,14.06078 1.092054,1.23735 4.247528,2.59978 5.565727,3.91798 2.744196,2.74419 3.831271,6.84731 7.579641,6.84731 3.316002,0 5.684658,-4.69455 10.179422,-5.9319 -1.059246,1.02644 -2.050531,2.23948 -2.050531,3.69828 0,3.29491 3.757159,2.44892 7.689491,0.58587 8.771585,2.26964 11.878145,-0.18631 14.243865,-3.0758 0.45346,-0.55188 0.3609,-1.34954 -0.14646,-1.86745 -2.852,-2.63053 -7.06701,-1.13335 -7.06701,-7.5064 0,-1.23735 1.10523,-4.65031 4.72354,-4.65031 2.04233,0 4.75958,1.66268 3.80813,4.83339 -0.60461,2.00366 1.46467,3.44138 1.46467,4.97986 0,5.68759 -4.28415,6.06957 -4.28415,9.66679 0,6.49257 4.79209,6.63142 7.57964,6.37129 4.47133,0 12.07529,4.1743 15.30575,4.1743 4.1163,0 7.21348,-1.90787 7.21348,-4.43061 0,-1.96617 -3.98125,-10.10619 -7.28671,-10.10619 -1.82556,0 -3.22607,2.27023 -4.28415,2.27023 -0.76748,0 -1.15327,-0.26891 -1.20834,-0.36617 0.9948,-1.58301 -0.51264,-2.58396 -0.51264,-4.43061 0,-1.32288 2.42549,-5.71219 7.76273,-5.71219 4.27682,0 8.86122,3.83303 8.86122,9.99634 0,5.46613 -1.61113,9.1067 -1.61113,10.39912 0,3.27264 5.13834,6.15159 8.23874,6.15159 3.3699,0 11.83742,-3.66166 16.33101,-3.66166 4.79708,0 7.65288,-0.7669 7.65288,-4.1743 0,-3.05236 -2.12464,-9.99634 -5.60234,-9.99634 -3.04651,0 -7.50788,6.88393 -13.25522,6.88393 0.28121,-0.75694 1.26752,-2.1308 1.72098,-2.4167 3.66283,-1.81501 6.15159,-3.35701 6.15159,-5.41926 0,-1.80329 -2.45829,-2.46005 -3.80813,-3.58843 2.49579,-0.24372 3.84475,-0.77627 3.84475,-2.56316 0,-2.57664 -3.84475,-3.71205 -3.84475,-7.61626 -0.002,-2.4911 1.64248,-4.97986 4.79678,-4.97986 7.44284,0 12.62131,5.93189 20.43208,5.93189 6.54646,0 13.64745,-3.36873 16.2944,-3.36873 8.28531,0 8.19919,10.47236 18.23508,10.47236 5.15327,0 7.25009,-2.35665 7.25009,-8.09228 0,-3.83976 -2.27287,-3.95459 -4.35738,-3.95459 -0.78975,0 -1.82292,-1.20835 -4.21091,-1.20835 -2.73248,0 -5.0238,-1.18579 -5.63896,-1.90406 2.04115,-1.55021 11.49146,-4.723548 13.2186,-4.723548 5.35833,0 6.54471,13.291838 17.94214,13.291838 3.05705,0 6.18821,-0.82637 6.18821,-6.77408 0,-4.569758 -0.88055,-5.989308 -3.14903,-5.638958 -1.70721,0.36675 -3.25888,0.58587 -3.25888,0.58587 0.8542,-1.68496 0.52025,-3.18975 -2.05053,-3.69828 -10.6733,-1.64629 -6.43691,-12.522889 -12.66935,-12.522889 -2.16067,0 -8.01904,2.980889 -8.01904,0.878799 0,-2.208715 1.7576,-5.679093 1.7576,-11.387772 0,-3.797583 -1.50128,-8.092274 -1.50128,-8.092274 5.43449,0.01054 13.19721,2.018894 16.69718,3.515196 -2.23567,0.411278 -5.45588,1.208641 -5.45588,4.174295 0,3.143758 5.1275,5.602345 11.71732,5.602345 10.6944,0 9.53849,-4.833396 5.63896,-4.833396 -4.06239,0 -5.55254,-0.361479 -6.11498,-0.659099 1.85837,-0.701867 5.19957,-0.800879 5.19957,-3.588429 0,-4.6881 -6.23684,-4.453168 -16.9535,-7.396559 C 185.75211,43.695606 165.04468,23.291944 132.22446,23.291944 z m 29.7327,0.32955 c 1.41783,-0.162256 16.70743,1.986086 31.45368,6.041743 15.72933,4.321348 32.79824,10.477628 32.25924,12.449652 -0.55188,1.976712 -12.90252,-3.481215 -34.34639,-9.373856 -21.45441,-5.898498 -27.797,-7.489418 -29.43977,-9.044306 -0.033,-0.03141 -0.0213,-0.06242 0.0732,-0.07323 z m -29.76932,1.135115 c 32.12772,0 49.92047,18.958331 101.06188,33.504212 10.28313,2.932845 15.92824,2.67858 15.92824,6.005127 0,2.257927 -5.4925,1.33431 -5.4925,3.478579 0,2.144271 4.73673,2.233615 7.83596,2.233615 3.08986,0 0.56185,1.904065 -5.63896,1.904065 -6.21252,0 -10.28927,-2.259392 -10.28927,-4.13768 0,-3.176565 7.14024,-2.476455 7.14024,-3.734896 0,-1.761113 -12.6673,-5.41926 -19.88283,-5.41926 -3.316,0 0.10979,3.538923 0.10979,9.556939 0,5.428636 -1.72098,8.865033 -1.72098,11.387772 0,4.56975 7.3286,0.585866 9.44709,0.585866 4.4186,0 1.08503,10.643424 12.44966,12.522884 2.4536,0.39956 0.43939,1.73182 0.43939,3.0758 0,1.361548 4.30993,0.1822 5.16295,0.0732 0.86357,-0.12303 1.61113,-0.57854 1.61113,4.137678 0,4.71036 -2.02153,5.30941 -4.72354,5.30941 -10.67214,0 -11.30341,-13.291828 -17.97877,-13.291828 -1.89,0 -14.86635,4.180738 -14.86635,6.005118 0,1.77166 3.83391,3.55181 7.32333,3.55181 2.37627,0 2.60095,1.20835 4.21091,1.20835 1.59824,0 2.92933,-0.25426 2.92933,2.48993 0,5.00681 -1.54405,6.62761 -5.82204,6.62761 -9.19341,0 -8.97723,-10.43574 -18.23508,-10.43574 -3.02541,0 -9.97408,3.33212 -16.2944,3.33212 -7.46511,0 -12.45961,-5.9319 -20.43208,-5.9319 -4.08348,-10e-4 -6.26144,3.26796 -6.26144,6.44453 0,4.4022 3.84474,5.96763 3.84474,7.61626 0,1.8361 -4.21091,0.29645 -4.21091,2.197 0,1.84782 4.1743,3.009 4.1743,3.95459 0,1.658 -4.58177,3.63149 -5.45588,4.13768 -0.86474,0.52376 -2.52655,2.92611 -2.52655,3.99121 0,1.04753 0.83984,1.17173 1.57452,1.17173 6.26642,0 11.11681,-6.88392 13.25522,-6.88392 2.12786,0 4.13768,5.60937 4.13768,8.53167 0,2.93285 -3.63413,2.70963 -6.8107,2.70963 -3.18711,0 -13.06159,3.69828 -15.70853,3.69828 -2.64694,0 -6.77407,-2.55232 -6.77407,-4.72354 0,-1.16119 1.61113,-4.53812 1.61113,-10.39912 0,-7.05852 -5.27104,-11.42439 -10.32589,-11.42439 -6.09301,0 -9.22739,4.87645 -9.22739,7.14024 0,1.87477 1.14244,3.01662 0.73233,3.7349 -0.73467,1.24789 0.4438,2.48993 2.45332,2.48993 1.80329,0 3.09718,-2.23362 4.28414,-2.23362 2.08451,0 5.82204,7.04914 5.82204,8.64153 0,1.58301 -2.53943,2.96594 -5.74881,2.96594 -2.63639,0 -10.35576,-4.17429 -15.37898,-4.17429 -2.13958,0.13475 -6.04174,0.59231 -6.04174,-4.90663 0,-2.73248 4.28414,-3.43903 4.28414,-9.66679 0,-2.06928 -1.93189,-3.41091 -1.57451,-4.54046 1.14478,-3.59136 -1.56573,-6.73746 -5.16295,-6.73746 -4.46195,0 -6.18821,4.07265 -6.18821,6.11498 0,7.42643 5.60586,6.62526 7.50641,8.53167 -4.20183,5.67235 -11.34588,2.45331 -13.181983,2.45331 -1.092054,0 -6.114976,3.16837 -6.114976,0.8788 0,-2.67975 6.631129,-5.45587 2.526547,-5.45587 -6.146906,0 -9.268108,6.22482 -12.120103,6.22482 -2.765288,0 -3.649653,-3.50084 -6.554376,-6.40791 -1.933241,-1.94976 -3.736243,-2.11351 -5.528993,-3.91798 -2.139583,-2.12317 -4.905164,-6.82387 -14.097401,-14.17063 -1.198682,-0.960818 -3.405346,-6.433098 -3.405346,-12.925668 0,-11.557963 1.770199,-21.248188 20.761626,-26.071037 C 99.022847,51.697657 92.67119,24.756609 132.18785,24.756609 z M 71.184491,65.291213 c -7.885756,0 -13.108752,4.426805 -13.108752,7.030393 0,2.166533 3.472721,-2.233614 8.604907,-2.233614 3.013695,0 6.041743,1.690224 6.041743,4.174296 0,1.993116 -2.48993,3.509923 -2.48993,5.19956 0,1.215086 0.853899,3.661664 3.771512,3.661664 4.548664,0 8.67814,-3.55943 8.67814,-8.458442 0,-4.899011 -3.924716,-9.373857 -11.49762,-9.373857 z m 10.142864,17.612599 c -1.879458,0 -2.489931,0.81377 -2.489931,1.24496 0,0.44292 2.08334,5.45588 3.36873,5.45588 1.695496,0 4.357378,-3.12296 4.357378,-4.43061 0,-1.31351 -3.356719,-2.27023 -5.236177,-2.27023 z m -49.139511,3.99121 c -1.006396,0.0288 -1.842549,0.83852 -1.977298,2.01392 -0.05507,0.29644 -1.716002,8.984248 5.199561,16.184538 0.517905,0.58939 44.728533,49.39114 104.870013,95.09338 -5.25053,3.86789 -11.38132,8.24167 -16.88026,12.1201 l 2.48993,13.4383 c 7.98301,-5.27045 17.59824,-11.96162 25.19224,-17.50274 7.60571,5.54112 17.25639,12.23229 25.22885,17.50274 l 2.52655,-13.4383 c -5.50949,-3.87843 -11.67807,-8.25221 -16.91688,-12.1201 60.12743,-45.70224 104.36265,-94.50517 104.87001,-95.09338 6.92494,-7.20146 5.27455,-15.888098 5.19956,-16.184538 -0.21677,-1.87946 -2.20315,-2.84702 -3.84474,-1.13512 C 267.64739,88.330392 222.66313,137.97023 151.08203,192.1312 79.502096,137.97023 34.552106,88.330392 34.055292,87.773822 c -0.60769,-0.64197 -1.26361,-0.89611 -1.867448,-0.8788 z m 0,1.42805 c 0.378238,-0.0339 0.805566,0.4394 0.805566,0.4394 0,0 45.072143,50.119958 118.08862,105.199558 73.02819,-55.0796 118.12523,-105.199558 118.12523,-105.199558 0,0 1.13922,-1.14068 1.35481,0.36617 0,0 1.63809,8.277698 -4.83339,15.012808 0,0 -44.76749,49.68261 -106.22483,96.08203 5.74735,4.23346 11.66225,8.4974 17.72245,12.74258 l -1.94068,10.32589 c -8.26423,-5.45324 -16.32457,-11.10685 -24.16698,-16.84365 -7.8424,5.7368 -15.92764,11.38924 -24.20359,16.84365 l -1.90406,-10.32589 c 6.06137,-4.24518 11.92794,-8.50912 17.68583,-12.74258 C 81.250027,153.82406 36.508606,104.14145 36.508606,104.14145 30.026584,97.40751 31.638594,89.128642 31.638594,89.128642 c 0.08481,-0.56507 0.322306,-0.78525 0.54925,-0.80557 z m -2.709631,3.0758 C 21.29015,108.82367 16.699011,128.25394 16.699011,148.7405 c 0,42.35811 19.53045,80.25368 50.091544,105.08972 -1.90055,-4.95057 0.488612,-9.11959 3.222263,-10.83853 3.910069,-2.47352 6.913218,-0.88348 9.959722,1.90407 0.323398,-2.80981 1.848114,-4.87206 4.137678,-5.2728 0.07616,-0.0117 0.181326,0.0471 0.256317,0.0366 1.608788,-2.51453 3.332113,-2.30684 3.332113,-2.30684 1.544342,-2.49462 3.368729,-2.34347 3.368729,-2.34347 1.554888,-2.50633 3.36873,-2.30685 3.36873,-2.30685 1.512706,-2.50633 3.368729,-2.34346 3.368729,-2.34346 1.523252,-2.47353 3.368734,-2.30685 3.368734,-2.30685 1.57832,-2.57195 3.33211,-2.34346 3.33211,-2.34346 1.50099,-2.4829 3.36873,-2.30685 3.36873,-2.30685 1.60996,-2.51454 3.36873,-2.34346 3.36873,-2.34346 0.73467,-1.25376 1.79802,-2.11381 3.14903,-2.34347 0.17224,-0.041 0.31431,-0.0498 0.47601,-0.0732 -0.99363,-5.6829 -0.84599,-10.64431 4.394,-13.95093 3.39334,-2.13842 7.13087,-1.30121 8.45844,0.80556 0.29176,0.46401 0.44819,0.9119 0.51263,1.35482 3.64057,-2.58133 7.40857,-5.34779 10.50897,-7.61626 C 79.282723,153.78686 35.772172,105.72798 35.26364,105.16672 30.62944,100.3427 29.584841,94.894142 29.478213,91.398872 z m 244.196277,0.91541 c -0.1078,3.49411 -1.15123,8.979278 -5.78543,13.804468 -0.52962,0.56126 -44.05566,48.58352 -103.5152,94.03149 3.1004,2.26965 6.90502,5.03494 10.54559,7.61626 0.0656,-0.44291 0.22087,-0.89081 0.51263,-1.35481 1.33929,-2.10678 5.03083,-2.94398 8.42183,-0.80557 5.24936,3.30546 5.38645,8.26803 4.39399,13.95093 0.15115,0.0234 0.34976,0.0322 0.51263,0.0732 1.33929,0.22849 2.3672,1.08854 3.11242,2.34346 0,0 1.78103,-0.17107 3.36873,2.34347 0,0 1.87828,-0.17606 3.36873,2.30684 0,0 1.77048,-0.22848 3.36873,2.34347 0,0 1.8194,-0.16668 3.33211,2.30684 0,0 1.85602,-0.16169 3.36873,2.34347 0,0 1.81267,-0.1617 3.36873,2.34346 0,0 1.82438,-0.1866 3.36873,2.30685 0,0 1.77048,-0.20886 3.36873,2.30685 0.075,0.0117 0.13416,-0.0471 0.2197,-0.0366 2.29073,0.40073 3.80256,2.46298 4.13768,5.27279 3.03595,-2.78755 6.07074,-4.37759 9.95972,-1.90406 2.74419,1.71893 5.12398,5.8903 3.22226,10.83852 30.55057,-24.83486 50.12816,-62.73043 50.12816,-105.08971 0.004,-20.48422 -4.5888,-39.91684 -12.7792,-57.341638 z m -194.690599,0.4394 c -3.414427,0 -1.979349,8.843938 -4.723545,12.559498 0,0 -0.568876,1.46467 1.537898,1.46467 3.046504,0 6.151593,-3.01926 6.151593,-4.94325 0,-3.009 -3.771512,-2.25675 -3.771512,-4.83339 0,-2.279018 2.728378,-4.247528 0.805566,-4.247528 z m -0.732333,8.202128 c 1.155328,0 1.208349,0.91834 1.208349,2.16038 0,0.31871 -0.459905,0.47601 -0.805566,0.47601 -0.594068,0 -1.428048,-1.13541 -1.428048,-1.46466 0,-0.31403 0.506188,-1.17173 1.025265,-1.17173 z m 33.174662,4.50384 c -2.51571,0 -3.2955,2.39121 -3.2955,3.18565 0,5.68758 4.37584,3.41091 6.95716,6.88392 0.91864,-2.37627 -1.42805,-3.38513 -1.42805,-6.00512 0,-0.76046 0.29294,-1.39671 0.29294,-1.90407 0.001,-1.37327 -1.23999,-2.16038 -2.52655,-2.16038 z m 25.55841,7.25009 c -4.46196,0 -6.25588,3.50231 -6.29806,4.24753 0,0.78389 0.67169,1.77488 0.76895,2.89271 0,0 1.73972,-1.83083 3.77151,-1.83083 3.89952,0 7.27763,6.39678 8.34859,9.84987 0.38901,-1.62636 0.80556,-3.7967 0.80556,-6.6276 -0.001,-5.26694 -3.84269,-8.53168 -7.39655,-8.53168 z m -51.885763,2.59978 c -0.89654,-0.008 -2.673014,0.63742 -2.673014,2.05053 0,0.82607 1.574515,1.9773 1.574515,1.9773 0,0 1.611132,-2.21574 1.611132,-3.80813 -2.93e-4,-0.14734 -0.213786,-0.217 -0.512633,-0.2197 z m 131.380453,9.70341 c 1.85558,-0.005 2.94935,0.56415 3.40535,1.79421 2.04232,5.53175 -19.48708,17.03142 -52.72794,29.32992 -19.91008,7.36785 -23.44783,3.36375 -24.49653,0.54925 -1.30648,-3.54918 -0.15965,-5.35921 19.29696,-12.5595 31.57269,-11.67613 47.89511,-19.09728 54.52216,-19.11388 z m 0.0732,1.50128 c -5.95569,0.0913 -24.75152,8.12095 -54.08275,18.96741 -16.2156,6.0063 -19.43289,7.92677 -18.41817,10.69206 0.71359,1.94507 3.81663,5.55459 22.59246,-1.39144 25.40901,-9.40315 53.47082,-23.11798 51.84914,-27.49908 -0.20762,-0.5628 -0.83777,-0.78585 -1.94068,-0.76895 z m 0.18309,1.13512 c 0.21838,0.0123 0.36638,0.0472 0.40278,0.14646 1.19868,3.23047 -33.43098,19.11329 -51.00696,25.63164 -17.65097,6.51483 -20.31608,3.33153 -20.72501,2.23361 -0.73468,-1.97437 4.55423,-3.97451 17.53936,-8.78799 27.2955,-10.10179 50.51405,-19.40768 53.78983,-19.22372 z m -37.49543,78.17649 c -1.16162,0.10546 -2.09857,0.60901 -2.56316,1.35481 -1.15533,1.81502 1.0654,3.41678 1.94068,4.54047 3.35935,4.27799 -14.36192,32.51556 11.42439,48.77334 19.68275,12.41333 30.39209,-0.25104 34.52947,-3.40534 1.99898,1.57715 6.14457,4.25455 9.37386,-0.8788 2.54969,-4.03193 1.87711,-8.8542 -1.61113,-11.05822 -4.07411,-2.58133 -7.20733,0.40102 -10.83852,4.13767 0.0434,-0.15115 0.0771,-0.33921 0.10979,-0.51263 0.60578,-3.48825 -0.62981,-6.39443 -2.8561,-6.77407 -0.25895,-0.0527 -0.53607,0.0392 -0.80556,0.0732 -1.16588,-3.06877 -3.33212,-2.30685 -3.33212,-2.30685 -1.10143,-3.0465 -3.36873,-2.30685 -3.36873,-2.30685 -1.19868,-3.0547 -3.36873,-2.34346 -3.36873,-2.34346 -1.10142,-3.06877 -3.36873,-2.30685 -3.36873,-2.30685 -1.22094,-3.12383 -3.36873,-2.34346 -3.36873,-2.34346 -1.14595,-3.06877 -3.33211,-2.30685 -3.33211,-2.30685 -1.10143,-3.0465 -3.40534,-2.34346 -3.40534,-2.34346 -1.18931,-3.14259 -3.36873,-2.30685 -3.36873,-2.30685 -0.49682,-1.32757 -1.38294,-2.24943 -2.52655,-2.45331 -0.75694,-0.11952 -1.5007,0.0803 -2.16038,0.51263 1.23266,-6.24533 1.7327,-11.56558 -3.25888,-14.71988 -1.30648,-0.8208 -2.68313,-1.13073 -3.84475,-1.02527 z m -57.15855,1.46466 c -0.66433,0.0648 -1.40286,0.29089 -2.16038,0.76895 -11.81926,7.45456 12.84687,31.74457 -12.30319,47.60162 -22.781977,14.37012 -28.534602,-14.60125 -36.98279,-9.26401 -2.041157,1.28656 -3.771512,4.82695 -1.135115,9.00769 2.937532,4.66584 6.46093,0.98133 7.909191,0.0732 1.782204,-1.13306 12.315789,17.42805 33.943614,3.77152 25.31175,-15.95548 6.67242,-42.91322 11.05822,-48.4438 1.03815,-1.29593 2.33643,-2.15306 1.90406,-2.8561 -0.27022,-0.41229 -1.12641,-0.76715 -2.23361,-0.6591 z m 29.00037,2.78287 c -6.67536,4.86034 -16.53929,11.64789 -24.05713,16.66056 1.83494,10.87953 1.82644,24.95789 -14.0974,35.0055 -19.531549,12.32662 -31.392133,0.38872 -35.335011,-2.81948 -0.983083,0.71358 -2.399707,1.45705 -3.954596,1.68436 21.961754,15.3743 48.666427,24.42329 77.444167,24.42329 28.80117,0 55.519,-9.04899 77.48078,-24.42329 -1.55606,-0.22614 -2.93607,-0.96961 -3.91798,-1.68436 -3.94405,3.2082 -15.84006,15.1461 -35.37166,2.81948 -15.92267,-10.04643 -15.92413,-24.12479 -14.0974,-35.0055 -7.53073,-5.0115 -17.40667,-11.80022 -24.09374,-16.66056 z m 33.65068,0.51263 c 0.35823,0.64932 0.61162,1.33098 0.76894,2.08715 -0.15873,-0.74291 -0.41521,-1.44766 -0.76894,-2.08715 z M 113.95274,222.523 c -0.97254,0.16287 -1.62871,1.35716 -1.7576,2.96595 -0.76749,-0.91747 -2.93753,-1.48488 -3.36873,2.30684 -0.77803,-0.92918 -2.90092,-1.43654 -3.33211,2.34347 -0.77803,-0.91747 -2.94808,-1.4755 -3.36873,2.30685 -0.76631,-0.91981 -2.94808,-1.42717 -3.368732,2.34346 -0.77803,-0.90809 -2.937532,-1.48488 -3.368729,2.30685 -0.77803,-0.91747 -2.948078,-1.43655 -3.36873,2.34346 -0.766312,-0.91746 -2.948077,-1.47316 -3.368729,2.30685 -0.77803,-0.91747 -2.937532,-1.44826 -3.36873,2.34346 -0.497986,-0.49915 -1.034346,-0.76572 -1.574515,-0.6591 -1.36038,0.23787 -2.127279,2.51776 -1.684364,5.08971 0.441743,2.57313 1.897327,4.48539 3.258879,4.24753 0.960821,-0.16052 1.653607,-1.39143 1.794215,-3.00256 0.766313,0.92918 2.899744,1.47433 3.332113,-2.30685 0.77803,0.90809 2.948078,1.44826 3.368729,-2.34346 0.77803,0.92918 2.936361,1.46261 3.36873,-2.30685 0.766313,0.90575 2.948083,1.43654 3.368733,-2.34346 0.76631,0.90575 2.94807,1.47316 3.36873,-2.30685 0.77803,0.92918 2.89974,1.47433 3.33211,-2.30685 0.77803,0.90809 2.93636,1.43655 3.36873,-2.34346 0.76631,0.90575 2.9469,1.43654 3.36873,-2.34347 0.50736,0.49682 1.07096,0.75753 1.61113,0.6591 1.36038,-0.23786 2.09066,-2.5201 1.64775,-5.08971 -0.44292,-2.57195 -1.8985,-4.44877 -3.25888,-4.21091 z m 86.01245,9.11754 c 0.0498,0.23035 0.11366,0.49212 0.14647,0.76895 -0.0105,0.0118 -0.0264,0.0247 -0.0366,0.0366 -0.0321,-0.28783 -0.0601,-0.56448 -0.10979,-0.80557 z m -15.52545,0.29293 c 0.50853,0.71124 1.16646,1.16705 1.9773,1.3182 0.2695,0.0434 0.52552,-0.0299 0.80557,-0.0732 1.16704,3.06876 3.33211,2.30685 3.33211,2.30685 1.10143,3.0465 3.36873,2.34346 3.36873,2.34346 1.19868,3.05705 3.36873,2.30685 3.36873,2.30685 1.09088,3.06642 3.36873,2.30684 3.36873,2.30684 1.23149,3.1215 3.33211,2.34347 3.33211,2.34347 1.14478,3.05705 3.36873,2.34346 3.36873,2.34346 1.10143,3.04651 3.36873,2.30685 3.36873,2.30685 1.19868,3.14493 3.40535,2.30685 3.40535,2.30685 0.47572,1.27836 1.322,2.17063 2.38008,2.4167 -4.89316,4.06239 -11.26914,6.50281 -21.16441,0.25631 -10.43545,-6.58865 -11.76361,-14.70582 -10.91176,-22.48261 z m -67.88722,2.6364 c -0.17225,0.041 -0.34976,0.0864 -0.51264,0.10979 -0.075,0.0211 -0.14353,-0.0234 -0.21969,0 -1.59942,2.51571 -3.36873,2.30685 -3.36873,2.30685 -1.53497,2.49462 -3.33212,2.34346 -3.33212,2.34346 -1.57832,2.51688 -3.40534,2.30685 -3.40534,2.30685 -1.50216,2.50634 -3.33212,2.34346 -3.33212,2.34346 -1.52325,2.48525 -3.368725,2.30685 -3.368725,2.30685 -1.598243,2.56961 -3.36873,2.34347 -3.36873,2.34347 -1.490443,2.49696 -3.368729,2.30684 -3.368729,2.30684 -1.587697,2.5286 -3.332113,2.34347 -3.332113,2.34347 -0.216771,0.36675 -0.451117,0.68634 -0.732333,0.98865 4.39751,2.89535 9.896449,3.913 17.86891,-1.0985 8.70832,-5.50831 10.71022,-12.03369 10.47236,-18.60125 z m 69.13219,0 c -0.23786,6.5453 1.76521,13.10231 10.47235,18.60125 7.97247,5.02321 13.47258,3.99384 17.86892,1.09849 -0.28122,-0.3023 -0.54164,-0.62189 -0.76895,-0.98864 -10e-4,-0.002 -1.74325,0.17341 -3.33212,-2.34347 0,0 -1.86774,0.1784 -3.36873,-2.30685 0,0 -1.77048,0.22615 -3.36873,-2.34346 0,0 -1.84547,0.16668 -3.36873,-2.30685 0,0 -1.8194,0.1617 -3.33211,-2.34346 0,0 -1.80212,0.19831 -3.36873,-2.30685 0,0 -1.8443,0.1784 -3.36873,-2.30685 0,0 -1.77048,0.19686 -3.36873,-2.34346 -0.0867,0 -0.15408,0.0483 -0.2197,0.0366 -0.16287,-0.0316 -0.32486,-0.10429 -0.47601,-0.14647 z m 9.30062,1.24497 c 0.001,0.0135 -0.001,0.0232 0,0.0366 -0.19451,0.22703 -0.48614,0.43107 -0.80557,0.54925 0.31773,-0.12107 0.61106,-0.35562 0.80557,-0.58586 z m 1.02527,2.63639 c 0.16162,0.13691 0.33966,0.2331 0.51263,0.29294 -0.1724,-0.0586 -0.3505,-0.15003 -0.51263,-0.29294 z m 28.59758,16.9535 c 0.0729,-0.002 0.12743,0.002 0.18308,0.0366 0.35585,0.22849 0.86045,0.66429 1.42805,1.06188 -0.58279,-0.40022 -1.06335,-0.79824 -1.42805,-1.02527 -0.11143,-0.0708 -0.25921,-0.0704 -0.4394,0 0.0902,-0.0358 0.18347,-0.0711 0.25632,-0.0732 z"
/>


</svg>
