<?xml version="1.0" encoding="UTF-8" standalone="no"?>
<!-- Generator: Adobe Illustrator 13.0.0, SVG Export Plug-In . SVG Version: 6.00 Build 14948)  -->

<svg
   xmlns:dc="http://purl.org/dc/elements/1.1/"
   xmlns:cc="http://creativecommons.org/ns#"
   xmlns:rdf="http://www.w3.org/1999/02/22-rdf-syntax-ns#"
   xmlns:svg="http://www.w3.org/2000/svg"
   xmlns="http://www.w3.org/2000/svg"
   xmlns:sodipodi="http://sodipodi.sourceforge.net/DTD/sodipodi-0.dtd"
   xmlns:inkscape="http://www.inkscape.org/namespaces/inkscape"
   version="1.1"
   x="0px"
   y="0px"
   width="300"
   height="300"
   viewBox="0 0 300.00001 300.00001"
   enable-background="new 0 0 232.568 144.898"
   xml:space="preserve"
   id="svg2"
   inkscape:version="0.48.3.1 r9886"
   sodipodi:docname="CAR.svg"><metadata
     id="metadata30"><rdf:RDF><cc:Work
         rdf:about=""><dc:format>image/svg+xml</dc:format><dc:type
           rdf:resource="http://purl.org/dc/dcmitype/StillImage" /></cc:Work></rdf:RDF></metadata><defs
     id="defs28" /><sodipodi:namedview
     pagecolor="#ffffff"
     bordercolor="#666666"
     borderopacity="1"
     objecttolerance="10"
     gridtolerance="10"
     guidetolerance="10"
     inkscape:pageopacity="0"
     inkscape:pageshadow="2"
     inkscape:window-width="937"
     inkscape:window-height="715"
     id="namedview26"
     showgrid="false"
     inkscape:zoom="1.2555468"
     inkscape:cx="116.284"
     inkscape:cy="104.30763"
     inkscape:window-x="0"
     inkscape:window-y="24"
     inkscape:window-maximized="0"
     inkscape:current-layer="svg2" /><path
     d="m 222.39419,59.582746 c -46.3496,0 -100.9424,11.33381 -142.477758,29.58045 -23.873201,10.48826 -42.768755,22.801874 -56.19438,36.615344 -15.3865812,15.83139 -23.22362022,33.28471 -23.22362022,51.87174 0,20.76903 10.02175522,36.17596 28.98714622,44.58257 6.099845,2.70547 12.183416,4.28603 17.121063,5.17022 l -4.788812,3.09366 -8.094364,5.29736 9.535245,1.73753 c 9.920046,1.79008 21.548807,2.66987 34.581157,2.66987 46.306203,0 100.886453,-11.11954 142.435373,-29.07191 24.06577,-10.39875 43.15254,-22.67303 56.70293,-36.44582 15.56966,-15.82597 23.4606,-33.31996 23.52027,-52.04125 0,-20.53172 -9.87089,-35.982374 -28.60574,-44.624954 -6.07679,-2.80446 -12.1312,-4.42198 -17.0363,-5.38212 l 4.83119,-3.13603 8.09436,-5.2126 -9.49286,-1.77992 c -10.31197,-1.93654 -22.38927,-2.92414 -35.8949,-2.92414 z m 0,3.85648 c 13.06896,0 25.01302,0.93403 35.17446,2.83938 l -13.68838,8.85719 c 0,0 52.76169,1.22864 52.76169,47.464334 -0.24003,74.9055 -134.58545,113.78726 -218.802093,113.78726 -12.639074,0 -24.14714,-0.91098 -33.903095,-2.66987 l 13.815511,-8.98432 c 0,0 -53.3973742,-0.29394 -53.3973742,-47.08292 C 4.3535088,103.3686 137.27979,63.439226 222.39419,63.439226 z m -3.89886,5.76352 c -68.92228,0 -206.68174,35.968154 -206.68174,107.091414 0,38.80548 38.242698,43.48071 59.1609,43.48071 36.14612,0 79.28578,-13.62226 96.62382,-23.39313 0,0 -64.70237,25.69482 -119.381272,7.16203 10.744569,1.72363 35.440261,-1.67922 45.175874,-5.80591 0,0 -27.249613,-4.47995 -27.249613,-32.46221 0,-69.845794 154.851371,-94.971054 172.185341,-94.971054 0,0 -6.80774,-1.10185 -19.83331,-1.10185 z m 11.65419,11.01851 c -36.14613,0 -79.28442,13.62498 -96.62382,23.393144 0,0 64.70372,-25.694824 119.38127,-7.162034 -10.74592,-1.72092 -35.44026,1.6765 -45.17587,5.805904 0,0 27.24961,4.47996 27.24961,32.46222 0.001,69.84444 -154.850011,94.97104 -172.185341,94.97104 0,0 6.806385,1.10185 19.83331,1.10185 68.922281,0 206.681741,-35.9722 206.681741,-107.0914 0,-38.806844 -38.24134,-43.480724 -59.1609,-43.480724 z M 185.8636,107.93704 c -24.63263,0 -69.92174,12.32818 -84.24919,28.60574 -8.257436,9.72476 -8.435427,17.99067 -15.6378,31.06371 17.75166,-24.35733 68.7609,-42.46227 96.28479,-42.46363 10.81321,0 18.28687,2.36907 21.52846,6.86538 -8.8509,-7.71126 -37.22957,-5.5587 -63.94971,3.68696 -32.28659,11.60299 -55.108462,30.01068 -50.981777,41.48891 4.125328,11.48095 36.231227,10.57607 65.899137,-0.21189 21.43171,-7.70144 38.85935,-18.49619 46.95579,-28.22433 -6.0476,9.75115 -19.39969,22.34619 -41.87032,37.46292 -0.10578,0 59.7542,-23.36906 59.7542,-52.08363 -0.13697,-10.11939 -8.86769,-26.19014 -33.73358,-26.19014 z m -23.77454,37.03913 c 4.93558,-0.0172 8.36534,1.11102 9.11145,3.34793 1.49223,4.47383 -8.29682,11.74707 -21.86749,16.27349 -13.57068,4.52641 -25.7574,4.55858 -27.24961,0.0848 -1.49222,-4.47383 8.29681,-11.74707 21.86749,-16.27349 6.78534,-2.26321 13.20257,-3.41545 18.13816,-3.43269 z"
/>
</svg>
