<?xml version="1.0" encoding="UTF-8" standalone="no"?>
<!-- Generator: Adobe Illustrator 13.0.0, SVG Export Plug-In . SVG Version: 6.00 Build 14948)  -->

<svg
   xmlns:dc="http://purl.org/dc/elements/1.1/"
   xmlns:cc="http://creativecommons.org/ns#"
   xmlns:rdf="http://www.w3.org/1999/02/22-rdf-syntax-ns#"
   xmlns:svg="http://www.w3.org/2000/svg"
   xmlns="http://www.w3.org/2000/svg"
   xmlns:sodipodi="http://sodipodi.sourceforge.net/DTD/sodipodi-0.dtd"
   xmlns:inkscape="http://www.inkscape.org/namespaces/inkscape"
   version="1.1"
   x="0px"
   y="0px"
   width="300"
   height="300"
   viewBox="0 0 300 300.00001"
   enable-background="new 0 0 307 264.701"
   xml:space="preserve"
   id="svg2"
   inkscape:version="0.48.3.1 r9886"
   sodipodi:docname="CBS.svg"><metadata
     id="metadata77"><rdf:RDF><cc:Work
         rdf:about=""><dc:format>image/svg+xml</dc:format><dc:type
           rdf:resource="http://purl.org/dc/dcmitype/StillImage" /></cc:Work></rdf:RDF></metadata><defs
     id="defs75"><filter
       id="filter3024"
       inkscape:label="Desaturate"
       x="0"
       y="0"
       width="1"
       height="1"
       inkscape:menu="Color"
       inkscape:menu-tooltip="Render in shades of gray by reducing saturation to zero"
       color-interpolation-filters="sRGB"><feColorMatrix
         id="feColorMatrix3026"
         type="saturate"
         values="0" /></filter></defs><sodipodi:namedview
     pagecolor="#ffffff"
     bordercolor="#666666"
     borderopacity="1"
     objecttolerance="10"
     gridtolerance="10"
     guidetolerance="10"
     inkscape:pageopacity="0"
     inkscape:pageshadow="2"
     inkscape:window-width="1366"
     inkscape:window-height="744"
     id="namedview73"
     showgrid="false"
     fit-margin-top="0"
     fit-margin-left="0"
     fit-margin-right="0"
     fit-margin-bottom="0"
     inkscape:zoom="1.7831441"
     inkscape:cx="109.04173"
     inkscape:cy="134.89298"
     inkscape:window-x="0"
     inkscape:window-y="24"
     inkscape:window-maximized="1"
     inkscape:current-layer="svg2" /><path
     style="fill:#000000"
     d="m 151.68193,27.527186 -34.24219,71.087194 -51.988637,14.738 48.101327,-19.707004 15.88729,-32.450647 0.0337,0 3.21126,-6.591537 3.04225,-6.219706 C 129.55271,49.344025 123.00227,50.457893 116.2904,52.00038 50.844032,67.042335 0.24559089,108.49292 0.24559089,152.09034 c 0,46.16753 40.72339411,60.82386 57.05904811,66.45621 L 35.806088,265.7014 86.239796,224.80006 c 34.663784,5.1986 76.696564,3.29239 99.718124,-1.38591 l 55.87596,49.69005 -20.92391,-57.59989 c 0,0 12.36721,-3.14258 25.04784,-9.09294 L 300.24504,81.408776 C 254.43122,106.94417 222.9065,119.87794 190.45369,131.70728 l -1.92676,-5.67886 99.00827,-68.75481 -109.96036,28.157696 61.41961,-24.811224 c 0,0 -29.5885,-16.89705 -80.9914,-14.332367 l -6.32112,-18.760529 z m 15.14364,23.661928 c 36.30902,0 54.0844,8.890124 54.0844,8.890124 0,0 -16.658,-4.05633 -41.64499,-4.05633 -5.90061,0 -11.79527,0.262309 -17.64504,0.743661 l -1.69014,-5.408441 c 2.37323,-0.113577 4.67073,-0.169014 6.89577,-0.169014 z m -17.07039,9.160546 11.0535,37.72388 -22.68165,14.67039 93.90405,-28.428114 -57.93792,36.033734 -35.96613,-7.60562 18.21968,29.07037 c -5.73186,1.39214 -11.88964,2.72315 -18.21968,3.85352 l 0,-32.92389 -23.12109,35.83092 c -3.06766,0.19687 -6.10856,0.30423 -9.09294,0.30423 -1.00056,0 -1.98787,-0.0164 -2.94084,-0.0337 l 8.28168,-16.19152 26.87319,-19.90982 -59.628064,8.21407 49.926674,-13.55491 9.70139,5.34084 11.62815,-52.394275 z M 41.755372,93.577766 c 0,0 -9.802798,12.319894 -9.802798,27.109814 0,21.3244 21.671909,48.47315 69.261846,48.47315 41.367,0 101.02859,-23.59946 101.27305,-23.69573 -18.62775,10.95209 -37.05674,20.07532 -51.41399,26.67037 -12.83747,3.55227 -34.69433,7.369 -56.416798,7.369 -38.282007,0 -71.154797,-18.30324 -71.154797,-51.6506 0,-20.48932 17.171799,-33.532074 17.30701,-33.633754 0.31369,-0.21633 0.629543,-0.42807 0.946477,-0.64225 z m 222.793958,18.997154 0.50704,4.32675 5.94928,-0.70986 -5.61125,3.38028 1.14929,5.23943 -4.63098,-3.17746 -6.1521,3.51548 3.44788,-5.03661 -4.12393,-2.02816 6.05069,-0.70986 3.41408,-4.79999 z m -29.27319,17.40842 0.81127,3.41408 4.76619,-0.91268 -4.09014,3.17746 1.58873,4.12394 -4.39435,-2.3662 -4.76619,3.24507 2.29858,-4.05633 -3.38027,-1.48732 4.9352,-1.01409 2.23098,-4.12393 z m -166.410959,1.55493 25.28446,7.06477 -4.225344,9.32956 c -16.749941,-2.22936 -21.870382,-8.02369 -21.870382,-12.67603 0,-1.73395 0.811266,-3.7183 0.811266,-3.7183 z m -57.430879,0.23661 c 0,14.69474 6.827123,64.22524 105.261778,64.22524 24.95779,0 45.29569,-3.21126 45.29569,-3.21126 11.97645,2.31048 25.95781,4.60988 40.76612,6.1859 0,0 -37.25009,10.37744 -81.93787,10.37744 -108.795067,0 -112.6040102,-56.43491 -112.6645847,-57.46468 0.01298,-7.01042 1.1598401,-13.74149 3.2788667,-20.11264 z m 245.340388,7.57182 0.23662,3.21126 4.63098,-0.43943 -4.66478,2.67041 0.74366,4.15774 -3.54929,-2.60281 -5.10421,2.73802 2.94084,-3.92111 -2.94084,-1.55493 4.83379,-0.57465 2.87323,-3.6845 z m -27.44783,8.31548 c 6.846,0 11.15491,4.93466 11.15491,11.0873 0,9.96559 -10.81283,19.94363 -21.12672,19.94363 -9.44422,0 -11.45914,-7.89443 -11.45914,-10.58027 0,-7.79897 8.25923,-20.45066 21.43095,-20.45066 z m -22.71545,0.81126 0.16901,2.63662 3.88732,-0.40563 -3.78591,2.19718 0.54084,3.41407 -2.90703,-2.16337 -4.15774,2.26478 2.39999,-3.17746 -2.4338,-1.3183 4.02253,-0.47324 2.26479,-2.97465 z m 21.73517,1.72395 c -9.74818,-0.001 -17.30701,10.11351 -17.30701,16.59715 0,4.62097 3.00114,8.99153 8.72111,8.99153 9.07104,0 17.47602,-8.54912 17.47602,-16.83377 0,-4.36245 -3.40488,-8.75491 -8.89012,-8.75491 z m 20.82249,11.39152 -0.0676,3.17746 4.63098,-0.54084 -4.59718,2.60281 0.64225,3.6845 -3.17745,-2.29859 -4.76619,2.56901 2.83943,-3.65069 -2.77183,-1.48733 4.46197,-0.47323 2.80562,-3.5831 z m -68.51818,2.73803 0.0337,2.56901 3.27887,-0.30423 -3.21126,1.82535 0.43943,3.00844 -2.5014,-1.85915 -3.54929,1.89296 2.06197,-2.70422 -2.12958,-1.2507 3.34648,-0.33803 2.23098,-2.83943 z m 18.32109,2.12957 0.0676,2.36619 3.00845,-0.27042 -2.94084,1.69014 0.40563,2.77182 -2.33239,-1.72394 -3.31267,1.75775 1.96056,-2.50141 -2.02817,-1.14929 3.10986,-0.30423 2.06196,-2.63661 z m -43.53794,9.97181 0.10135,2.4 3.27887,-0.30423 -3.14366,1.82535 0.40564,2.87324 -2.4338,-1.79155 -3.54929,1.82535 2.06197,-2.77183 -2.23099,-1.04788 3.38028,-0.43944 2.12957,-2.56901 z m 18.28729,3.98873 0,2.06197 3.21126,-0.13522 -3.07605,1.65634 0.30422,2.77183 -2.33239,-1.72395 -3.24506,1.62254 2.02816,-2.50141 -2.02816,-1.14929 3.24506,-0.33803 1.89296,-2.26478 z m 18.08447,2.60281 0.0676,2.09577 2.90703,-0.20282 -2.94084,1.65634 0.43944,2.67042 -2.36619,-1.75775 -3.27887,1.72394 1.96056,-2.43379 -1.79155,-1.25071 2.94084,-0.16901 2.06197,-2.33239 z m 48.30414,0.91267 -0.0676,3.17746 4.79999,-0.20281 -4.79999,2.5014 0.60845,4.19154 -3.51549,-2.73802 -5.03661,2.67042 3.00845,-3.88732 -3.07605,-1.52112 4.86759,-0.50705 3.21127,-3.6845 z m -25.28446,0.91268 -0.0676,2.39999 3.54929,-0.13521 -3.48168,1.85915 0.40563,3.07605 -2.60281,-1.99436 -3.75211,1.92676 2.19718,-2.73802 -2.19718,-1.25071 3.48169,-0.37183 2.4676,-2.77182 z m -1.92676,35.89852 9.46477,25.14925 -18.59151,-14.63659 c 0,0 -6.3e-4,-1.28121 0.54084,-2.97464 l 12.47322,9.93801 -9.26196,-14.80561 c 1.29649,-1.11151 3.01631,-2.07755 5.37464,-2.67042 z m -148.4617,0.47324 c 0.551174,-0.003 1.066342,0.0329 1.554927,0.10136 l -7.673225,15.00842 9.430968,-14.56893 c 4.227193,1.47735 5.476046,5.54188 5.476046,5.54365 L 54.262391,241.56623 64.43702,221.21697 z"
      /></svg>
