<?xml version="1.0" encoding="UTF-8" standalone="no"?>
<!-- Generator: Adobe Illustrator 13.0.1, SVG Export Plug-In . SVG Version: 6.00 Build 14948)  -->

<svg
   xmlns:dc="http://purl.org/dc/elements/1.1/"
   xmlns:cc="http://creativecommons.org/ns#"
   xmlns:rdf="http://www.w3.org/1999/02/22-rdf-syntax-ns#"
   xmlns:svg="http://www.w3.org/2000/svg"
   xmlns="http://www.w3.org/2000/svg"
   xmlns:sodipodi="http://sodipodi.sourceforge.net/DTD/sodipodi-0.dtd"
   xmlns:inkscape="http://www.inkscape.org/namespaces/inkscape"
   version="1.1"
   id="Layer_1"
   x="0px"
   y="0px"
   width="300"
   height="300"
   viewBox="0 0 299.99999 300"
   enable-background="new 0 0 103.5 88.833"
   xml:space="preserve"
   inkscape:version="0.48.3.1 r9886"
   sodipodi:docname="CGY.svg"><metadata
     id="metadata256"><rdf:RDF><cc:Work
         rdf:about=""><dc:format>image/svg+xml</dc:format><dc:type
           rdf:resource="http://purl.org/dc/dcmitype/StillImage" /></cc:Work></rdf:RDF></metadata><defs
     id="defs254" /><sodipodi:namedview
     pagecolor="#ffffff"
     bordercolor="#666666"
     borderopacity="1"
     objecttolerance="10"
     gridtolerance="10"
     guidetolerance="10"
     inkscape:pageopacity="0"
     inkscape:pageshadow="2"
     inkscape:window-width="1366"
     inkscape:window-height="744"
     id="namedview252"
     showgrid="false"
     fit-margin-top="0"
     fit-margin-left="0"
     fit-margin-right="0"
     fit-margin-bottom="0"
     inkscape:zoom="0.93927481"
     inkscape:cx="363.33518"
     inkscape:cy="64.076285"
     inkscape:window-x="0"
     inkscape:window-y="24"
     inkscape:window-maximized="1"
     inkscape:current-layer="Layer_1" /><pattern
     x="-306.833"
     y="332.333"
     width="69"
     height="69"
     patternUnits="userSpaceOnUse"
     id="Polka_Dot_Pattern"
     viewBox="2.125 -70.896 69 69"
     overflow="visible" /><path
     d="m 210.99292,21.305432 c -39.08814,0 -67.06955,26.59058 -83.74185,26.59058 -6.8515,0 -14.77254,-13.6646 -14.77254,-13.6646 -11.56099,6.66832 -9.04818,18.74266 -9.04818,18.74266 -9.061481,-5.3388 -23.913057,-5.17039 -23.913057,-5.17039 -12.985066,0.0857 -24.559353,8.40188 -24.559353,8.40188 -7.646269,5.60175 -10.340781,12.55667 -10.340781,12.55667 -8.63012,2.49656 -18.004037,11.26406 -18.004037,11.26406 -2.304517,2.31338 -3.231494,3.04684 -3.231494,3.04684 -5.776064,4.3579 -13.387617,4.61642 -13.387617,4.61642 0.614538,6.13356 3.970121,12.27967 3.970121,12.27967 5.779019,8.712848 16.342126,10.433108 16.342126,10.433108 0,0 -5.386808,5.62169 -14.495558,8.40189 -6.739235,2.05633 -16.1574701,3.6008 -16.1574701,3.6008 0.268861,2.22475 1.292598,3.8778 1.292598,3.8778 9.5194271,15.5673 31.3916551,14.68021 31.3916551,14.68021 3.728589,0.43727 9.971466,-0.6463 9.971466,-0.6463 -2.664967,3.7345 -5.72436,15.04953 -5.72436,15.04953 -1.332484,5.60175 -4.154778,7.75559 -4.154778,7.75559 -2.939736,2.39906 -10.894751,7.10928 -10.894751,7.10928 3.468593,4.53222 12.556662,6.55532 12.556662,6.55532 0.171362,7.38036 2.86218,17.81938 2.86218,17.81938 -12.323255,-2.5911 -18.742664,1.2926 -18.742664,1.2926 3.557228,3.11405 6.278331,7.29394 6.278331,7.29394 4.26631,5.15562 5.17039,15.32651 5.17039,15.32651 0.889307,12.08985 4.547728,20.66679 7.4786,25.11333 2.939736,4.44949 8.863526,8.7712 8.863526,8.7712 3.99745,3.38291 11.448721,5.07806 11.448721,5.07806 5.161527,1.42407 10.063795,0.36931 10.063795,0.36931 -3.323822,2.7536 -12.556661,6.27833 -12.556661,6.27833 2.585195,5.60766 10.156123,8.86353 10.156123,8.86353 6.136515,3.4745 16.526783,3.87779 16.526783,3.87779 11.469402,-0.0945 20.958544,-9.32517 20.958544,-9.32517 10.11033,-9.17079 16.29486,-12.21985 26.31359,-11.44872 14.68391,1.13158 25.01878,13.38762 53.18116,13.38762 56.8152,0 102.65809,-54.39398 109.77846,-101.74589 l -75.89394,0 c 0,0 -7.92104,27.79084 -27.3292,27.79084 -14.79323,0 -24.65169,-11.95394 -24.65169,-31.39165 0,-25.42355 21.14838,-69.800268 51.7039,-69.800268 14.29392,0 14.18829,17.306768 8.58654,33.884518 l 71.92382,-0.0922 C 311.26526,74.206652 275.85325,21.305432 210.99292,21.305432 z m 0.0923,2.95451 c 57.01907,0 95.79625,44.30286 82.63392,100.822608 l -64.90686,0 c 5.7022,-16.55412 3.19086,-34.253838 -12.92598,-34.253838 -34.21025,0 -55.21238,47.699068 -55.21238,72.939428 0,16.60434 6.8685,34.99247 28.34482,34.99247 20.74065,0 29.2681,-27.97551 29.2681,-27.97551 l 69.80027,0 c -4.84244,33.52481 -44.89155,95.83688 -106.45464,95.83688 -24.59629,0 -38.06589,-12.43479 -52.81184,-13.94159 -25.42946,-2.60588 -26.64746,22.37302 -49.580352,20.86622 -5.80561,-0.38113 -15.519296,-3.60893 -19.481292,-7.94024 0,0 16.87837,-6.80054 18.742665,-15.78816 0,0 -11.189463,9.62062 -27.421534,2.30821 -6.263558,-4.1629 -12.480583,-9.97885 -14.495558,-16.80377 -5.979926,-13.81233 -0.358234,-23.02005 -12.279677,-37.85464 0,0 10.789866,-2.29935 17.727052,2.86218 -1.920431,-5.76129 -4.886757,-20.17265 -4.801076,-26.12894 -3.462685,-0.61453 -7.12923,-1.9906 -10.340781,-3.6008 2.972236,-2.34884 8.395975,-4.19171 10.248452,-8.03257 4.815849,-8.53263 4.602386,-20.4814 13.941588,-27.05222 0,0 1.548162,-1.348 4.801076,-3.04684 -4.857212,2.20111 -14.735611,6.03975 -21.974158,5.26272 0,0 -21.20894,1.30294 -30.0990571,-12.92598 0,0 24.9427011,-2.31707 32.5919241,-17.08075 0,0 -19.422201,0.85976 -22.805114,-17.727048 0,0 5.134936,0.6751 14.033916,-5.72436 0,0 4.97687,-7.67951 19.388963,-13.01831 0,0 6.126174,-17.82086 30.837685,-20.21992 0,0 16.547464,-1.7114 31.299328,9.14051 0,0 -7.27622,-13.67715 2.67752,-21.1432 0,0 8.80961,12.42002 16.15747,12.09502 17.60592,-0.78294 46.71965,-26.86756 83.09555,-26.86756 z m 0.0923,6.73997 c -33.9473,-0.1625 -61.8386,26.95989 -83.92651,26.95989 -5.60765,0 -10.3585,-3.36075 -13.6646,-7.57093 0.98976,12.12235 12.2324,22.23047 22.98977,26.3136 -5.43925,0.36636 -10.13544,-1.74833 -14.9572,-2.86218 -14.46527,-3.95609 -24.707816,-17.79649 -41.270792,-16.43446 -11.623037,-0.37227 -21.918761,6.69861 -27.60619,16.34213 2.848146,-2.59997 6.200036,-4.24415 9.78681,-4.98573 8.526712,-1.48612 15.949176,2.4057 21.512516,8.21722 6.928323,11.0085 14.572376,21.59229 25.944276,29.268098 -8.1633,0 -15.354578,-3.06678 -22.528125,-5.5397 -14.719362,-4.207218 -32.077101,-2.390198 -43.209689,8.1249 -5.684475,9.27716 -15.256345,16.7949 -25.759623,19.01965 l 0,0.46164 3.139166,1.2926 c 12.125303,5.19993 25.406558,0.11877 35.546432,-6.186 7.049458,-2.2277 15.455774,-0.95283 20.404576,4.61642 3.456775,5.93265 9.919024,11.83797 15.603498,16.15747 -1.489072,0.62044 -2.98036,-0.55398 -4.708748,-0.55398 -9.767605,-4.81289 -24.454468,-11.43247 -34.346163,-2.40053 -9.268294,7.04945 -4.600909,20.65792 -14.495558,27.3292 6.925368,0.62045 10.908784,-4.47165 14.864872,-9.41749 9.894649,-7.29764 16.185537,5.86248 24.097711,8.95585 8.417395,4.08018 19.515271,2.70264 25.574961,11.35639 -6.434915,1.23499 -12.997618,2.38577 -18.558003,5.72436 -8.535576,5.31812 -21.006557,6.11731 -30.283714,1.66191 -4.818804,-2.59996 -8.147796,-6.16827 -11.356393,-10.61776 0,0.12409 0.04062,0.42692 -0.09233,0.55397 0.623401,18.30318 7.38701,38.1656 26.313593,44.59461 12.860976,5.93266 26.710235,-3.69092 39.331897,2.49287 -6.68014,1.48612 -12.841773,5.08914 -16.803769,10.89475 -6.547191,8.53853 -6.427533,20.21918 -14.587886,27.51386 -1.483163,1.36203 -3.78251,2.11765 -5.262719,3.2315 1.604299,0.74158 3.225585,1.1397 5.078062,1.38492 9.031933,1.48021 16.725474,-4.37045 21.789502,-11.17173 7.30361,-7.04651 18.40887,-11.30395 27.23694,-10.7101 17.82455,1.19953 31.12279,14.1329 54.65841,14.21858 46.85555,0.18908 88.15515,-44.45797 96.94481,-81.06434 l -55.30471,0 c 0,0 -10.00396,27.97551 -34.34616,27.97551 -30.39007,0 -35.73109,-28.38397 -35.73109,-42.47106 0,-33.08755 25.94207,-80.325708 62.59865,-80.325708 17.38728,0 27.64386,17.717448 21.97416,34.623148 l 49.94966,0 C 296.85316,77.215812 266.78734,31.268772 211.17758,30.999912 z m -152.988147,45.5179 c -3.135933,-0.0207 -6.325603,0.48749 -9.509824,1.66191 -10.639186,1.97657 -16.355422,14.27028 -27.236877,15.51117 -0.115226,0.36932 0.55397,0.55397 0.55397,0.92329 6.680144,7.666948 19.246408,7.184618 27.790847,3.97012 7.658087,-1.48317 12.766432,-9.22989 20.681561,-10.34078 4.446536,-1.11681 8.906366,0.67215 12.741319,1.29259 -0.127044,-0.37226 -0.646299,-0.46164 -0.646299,-0.83095 -6.118049,-7.14179 -14.966894,-12.12406 -24.374697,-12.18735 z m 2.123554,87.619648 c -0.329993,0.0372 -0.657931,0.0739 -1.015613,0.18466 -3.631091,2.28679 -6.002084,7.05462 -10.156123,8.40188 l 0.369313,0.73863 c 3.530638,4.47017 6.389125,7.90183 12.002692,9.04818 9.86215,2.80087 16.849563,-0.24375 24.374696,-4.98573 -3.21746,-1.56294 -5.103175,-1.85913 -8.217227,-3.41615 -10.220753,-3.22689 -12.407873,-10.52949 -17.357738,-9.97147 z m 1.200269,3.50848 c 2.270164,0.18052 2.208126,3.38291 10.617765,7.57093 3.524729,1.64566 4.012962,1.7823 6.739973,2.30821 -6.638781,3.30314 -10.710832,3.69904 -17.080753,1.84656 -5.737656,-1.66634 -8.309556,-5.72436 -8.309556,-5.72436 3.117007,-0.87453 4.673294,-5.39198 6.92463,-5.90901 0.451301,-0.10518 0.78363,-0.11818 1.107941,-0.0922 z M 35.93823,204.5773 c 0.995669,2.96632 2.374686,5.67782 2.86218,8.77119 0.623402,12.86393 4.07279,26.84689 15.695828,33.1459 4.824712,2.60292 11.762637,2.62582 16.711439,0.27684 9.522382,-4.94585 14.087836,-16.38202 24.467025,-20.21992 l 0,-0.46165 c -13.354379,-4.9488 -23.178859,9.66937 -36.285059,2.12356 C 47.76956,224.38417 47.691265,208.40915 35.93823,204.57715 z"
/></svg>
