<?xml version="1.0" encoding="UTF-8" standalone="no"?>
<!-- Created with Inkscape (http://www.inkscape.org/) -->

<svg
   xmlns:dc="http://purl.org/dc/elements/1.1/"
   xmlns:cc="http://creativecommons.org/ns#"
   xmlns:rdf="http://www.w3.org/1999/02/22-rdf-syntax-ns#"
   xmlns:svg="http://www.w3.org/2000/svg"
   xmlns="http://www.w3.org/2000/svg"
   xmlns:sodipodi="http://sodipodi.sourceforge.net/DTD/sodipodi-0.dtd"
   xmlns:inkscape="http://www.inkscape.org/namespaces/inkscape"
   width="300"
   height="300"
   id="svg3166"
   sodipodi:version="0.32"
   inkscape:version="0.48.3.1 r9886"
   sodipodi:docname="CHI.svg"
   inkscape:output_extension="org.inkscape.output.svg.inkscape"
   version="1.1">
  <defs
     id="defs3168" />
  <sodipodi:namedview
     id="base"
     pagecolor="#ffffff"
     bordercolor="#666666"
     borderopacity="1.0"
     inkscape:pageopacity="0.0"
     inkscape:pageshadow="2"
     inkscape:zoom="1.095627"
     inkscape:cx="169.17735"
     inkscape:cy="196.43093"
     inkscape:current-layer="layer1"
     inkscape:document-units="px"
     showgrid="false"
     inkscape:window-width="1280"
     inkscape:window-height="715"
     inkscape:window-x="0"
     inkscape:window-y="24"
     fit-margin-top="0"
     fit-margin-left="0"
     fit-margin-right="0"
     fit-margin-bottom="0"
     inkscape:window-maximized="0" />
  <metadata
     id="metadata3171">
    <rdf:RDF>
      <cc:Work
         rdf:about="">
        <dc:format>image/svg+xml</dc:format>
        <dc:type
           rdf:resource="http://purl.org/dc/dcmitype/StillImage" />
      </cc:Work>
    </rdf:RDF>
  </metadata>
  <g
     id="layer1"
     inkscape:label="Layer 1"
     inkscape:groupmode="layer"
     transform="translate(-65.131484,-167.89808)">
    <path
       style="fill:#000000;fill-opacity:1;fill-rule:nonzero;stroke:none"
       d="m 212.69828,185.19614 c -10.53253,0.0378 -19.96593,2.10062 -23.115,2.23575 -3.46074,0.25678 -10.45718,-2.00947 -23.46607,-1.01625 -22.15059,1.69089 -26.59855,20.6037 -22.74546,29.54508 -14.93544,10.4312 -58.68979,43.09715 -56.28161,54.02739 1.61642,7.328 2.6729,13.43495 -1.18254,17.90442 -1.43082,1.66182 -3.38409,7.96218 -14.94808,25.35075 -13.76776,20.70252 2.73984,27.18935 9.38643,27.0876 0,0 0.27871,1.98927 -0.22172,3.21504 -1.60703,3.90504 -2.40696,14.40514 -0.48041,16.88818 0.43699,0.56202 0.73089,0.85879 0.94234,1.01625 -0.13157,0.0606 -0.28573,0.18576 -0.46193,0.46193 -0.96563,1.48982 -4.56845,5.1341 -0.48041,11.4374 4.8657,7.5 -0.0334,11.19678 -0.51736,15.66868 -3.64165,33.8033 39.21329,21.54263 47.39407,22.52373 0.43934,3.85175 1.40429,10.26403 3.58458,16.31539 2.59848,7.21657 6.28461,10.65833 7.37241,15.48391 1.31569,5.84787 4.28777,11.88647 10.08856,10.47658 22.64398,-5.51357 51.07123,-18.88289 64.55941,-27.82669 4.81871,2.48788 23.60308,4.48541 33.24052,3.49219 9.63508,-0.99321 11.91002,4.80109 16.8697,3.9726 1.67046,-1.15067 2.70605,-4.04222 4.12042,-5.82032 10.58896,-13.28488 15.2286,-44.64195 13.80248,-59.34883 5.61518,11.02956 17.41655,28.47256 18.40331,39.30105 18.81438,-8.3188 25.49597,-46.59288 21.28576,-62.95189 15.90107,22.80039 30.37183,27.50119 45.78655,25.96049 -0.24669,-0.62984 -1.89104,-7.63672 -1.51513,-11.08633 6.11796,-56.77327 -47.17101,-97.20886 -67.29404,-115.20547 l 13.10035,-2.99331 -6.74418,-22.94871 c 0,0 -8.67089,5.96333 -13.00796,8.94298 l 0,-13.91335 -25.53552,0 c 0,0 -9.1564,-8.44314 -25.05511,-20.86078 -7.45363,-5.82191 -17.59095,-7.36884 -26.88436,-7.33546 z m -34.57088,18.0892 c 3.75455,0.0132 7.71501,1.60344 10.10704,3.0857 0.68369,0.41909 1.40734,0.89555 2.18031,1.40427 6.50562,4.27083 16.33458,10.72264 26.79197,2.36508 4.66366,-3.72578 8.61664,-4.99456 12.06563,-3.88022 5.83837,1.88712 8.32003,9.77482 10.73526,17.70118 l 0.14782,0.42498 c 1.04316,3.43023 2.91115,6.17 5.58012,7.5387 4.07629,2.09303 9.15051,0.32434 11.21567,-0.8869 0.92569,-0.54506 2.09749,-0.21295 2.62377,0.73909 0.52392,0.95445 0.20507,1.87788 -0.72061,2.42051 -3.22345,1.88711 -9.94096,3.49141 -14.83721,0.97929 -3.64165,-1.86773 -6.1851,-5.10718 -7.55718,-9.60815 l -0.12934,-0.42498 c -2.11921,-6.95009 -4.30349,-14.12941 -8.22237,-15.39152 -2.12625,-0.68799 -4.99585,0.38558 -8.53647,3.21504 -12.60479,10.07267 -24.26039,2.4118 -31.22651,-2.16184 -0.75182,-0.49419 -1.4697,-0.95639 -2.1064,-1.34884 -3.65574,-2.26259 -9.29005,-3.23011 -11.8439,-1.07168 -2.07221,1.75146 -2.09849,5.87847 -0.11086,11.62218 1.62112,4.67781 3.40042,8.19284 5.13667,11.60369 2.92036,5.73401 5.49455,10.80726 6.31921,19.17936 16.5965,-3.6846 44.55722,-6.27514 63.13666,-5.78337 1.0643,-0.0412 1.9556,0.80577 1.99554,1.90315 0.0423,1.09496 -0.78342,2.02584 -1.84772,2.06945 l 0,-0.31412 c -21.14973,-0.6468 -46.38872,1.77084 -63.06276,5.80185 0.19736,5.81153 -0.32337,13.08251 -1.95858,22.83785 -6.08977,36.36871 -7.12746,50.70957 5.13666,68.73526 2.71362,3.98498 5.04857,7.14126 7.11373,9.92226 7.69915,10.37307 11.21087,15.10359 12.17649,33.83179 0.64375,12.49516 4.51103,18.6664 7.63109,20.15865 1.35093,0.64438 2.63629,0.49557 3.80631,-0.42498 1.23581,-0.96899 2.41407,-2.96488 3.06722,-6.00509 -4.36762,-3.18799 -9.08195,-7.9938 -9.331,-14.19051 -0.21849,-5.34399 2.0408,-6.69426 3.7324,-6.87352 4.33003,-0.46512 8.6581,4.2854 9.38643,8.77668 0.61085,3.80087 0.7445,7.31158 0.42498,10.40267 0.65549,0.41667 1.24112,0.76977 1.73686,1.0532 0.52862,0.11871 2.73595,-0.48447 4.15737,-2.82701 2.88982,-4.75533 0.29205,-12.74883 -7.13221,-21.93246 -3.04958,-3.7718 -6.47112,-7.33714 -9.77445,-10.77222 -3.70508,-3.85901 -7.52699,-7.8478 -10.80917,-12.12106 -6.03808,-7.86095 -14.30624,-18.63053 -11.97324,-45.78655 l 1.29341,-15.46543 c 0.89983,-10.98838 0.96477,-11.87275 1.95858,-15.96432 1.09719,-4.52762 3.20648,-10.04875 6.98439,-10.60593 3.6252,-0.53779 6.04481,4.01848 6.83657,5.41383 2.06752,3.63615 3.73428,5.06342 4.30519,5.24753 0.20206,-0.25436 0.81293,-1.29419 1.09016,-4.74865 0.82466,-10.20591 2.44831,-14.72966 5.58012,-15.6502 3.07308,-0.90116 5.77662,2.25771 7.53871,4.71169 0.75652,1.05378 2.57667,3.59849 3.58458,4.48996 0.65549,-1.26938 1.54556,-4.69161 2.47595,-8.29627 l 0.4804,-1.82924 c 0.27489,-1.05863 1.33838,-1.98334 2.36509,-1.69991 1.0267,0.28585 1.63985,1.37795 1.36731,2.439 l -0.48041,1.81076 c -2.05811,7.96027 -2.83381,10.94474 -5.4323,11.45588 -2.44343,0.48208 -4.43166,-2.09198 -7.4648,-6.31921 -2.36119,-3.28246 -3.37428,-3.25441 -3.38133,-3.25199 -0.0752,0.017 -1.85498,0.60914 -2.79006,12.17649 -0.25844,3.22674 -0.95229,7.60648 -4.04651,8.33323 -2.60553,0.61046 -5.47076,-1.80822 -8.518,-7.16917 -1.49895,-2.63808 -2.58012,-3.23622 -2.97483,-3.17808 -0.83171,0.12355 -2.54294,2.57538 -3.76935,7.63109 -0.91629,3.78392 -0.97106,4.4204 -1.8662,15.3361 l -1.31188,15.48391 c -2.19909,25.5814 5.21143,35.21244 11.16024,42.95953 3.14825,4.10127 6.74908,7.85104 10.55049,11.80695 3.35971,3.49564 6.82239,7.1098 9.9777,11.01242 13.08642,16.19186 8.98308,24.80463 6.61484,27.75279 -2.34944,2.92636 -6.18957,4.32691 -8.38865,3.06721 -0.2373,-0.13323 -0.50148,-0.27235 -0.75757,-0.42497 -0.84345,3.00872 -2.2147,5.41733 -4.1389,6.92896 -2.29306,1.80232 -5.10823,2.10722 -7.74195,0.84995 -5.55645,-2.64777 -9.24424,-11.44453 -9.86684,-23.53998 -0.90454,-17.5 -3.98324,-21.64027 -11.40044,-31.633 -2.08866,-2.8125 -4.45022,-6.01728 -7.20612,-10.07009 -13.10757,-19.25872 -12.07519,-34.10772 -5.78337,-71.67313 4.40757,-26.313 0.62407,-33.76266 -4.17585,-43.18127 -1.7151,-3.36482 -3.66178,-7.17919 -5.37687,-12.12105 -2.65253,-7.65989 -2.21229,-13.04252 1.31188,-16.01975 1.73918,-1.47075 3.91866,-2.04039 6.17139,-2.0325 z m 90.98183,14.48614 16.74037,0 0,11.95476 -6.06053,0 -10.67984,-11.95476 z m -124.00062,3.65849 c 7.70854,5.96173 29.9157,12.8191 23.17043,63.48773 -1.79967,13.5126 -10.59806,42.39996 12.52756,79.6553 4.39816,-3.22433 19.1286,2.22037 10.12552,24.66709 2.88981,6.46076 14.31738,32.19657 15.28066,33.68397 -11.0847,6.95252 -31.99875,17.76938 -55.94903,24.68557 -5.90416,1.703 -7.07377,-3.65732 -8.88754,-8.59191 -1.35798,-3.69671 -4.5897,-7.82756 -6.33769,-13.22969 -2.02287,-6.25243 -3.14112,-15.29914 -3.14112,-15.29914 7.44305,-1.86289 19.73594,-5.4781 26.82892,-10.49506 5.06541,-3.84932 8.18769,-9.51772 9.55272,-15.72412 -4.31593,5.93024 -9.25235,12.13148 -16.75884,15.42848 -14.74983,5.56687 -31.03585,9.16519 -51.69926,7.81587 -5.85012,-0.38276 -20.26936,-5.64823 -14.00573,-19.9554 1.87956,-4.29506 1.1701,-11.1854 -0.27716,-13.17426 -1.44491,-1.98643 -4.05757,-6.50599 0.27716,-10.97547 6.26363,0.99322 20.31757,-0.48481 23.20739,-1.97706 2.89217,-1.48983 5.99717,1.49697 5.78337,3.47372 -0.48164,4.46705 4.82736,5.46299 3.86174,-0.99777 -0.29368,-1.96221 -1.45837,-5.47154 -2.90093,-5.96814 -1.44726,-0.49419 -2.88602,-2.48491 -2.40204,-4.97038 0.47929,-2.48062 -2.88617,-5.4647 -8.66581,-4.47148 -5.78434,0.99321 -3.85544,4.97052 0,4.47148 3.85309,-0.49661 4.3335,2.49898 0.48041,3.4922 -3.85545,0.99564 -13.84311,3.03322 -18.12616,1.82924 -5.3027,-1.48982 -3.79162,-9.29108 -1.38579,-17.23924 0.90924,-2.99904 -0.36116,-3.7059 5.00733,-4.17586 9.10881,-0.79457 23.80416,-5.06155 28.25167,6.46703 1.8866,4.88857 6.10613,5.47583 3.14113,-2.54985 -1.68926,-4.57123 -8.3665,-8.689 -9.81141,-9.18318 1.23581,-5.85998 -3.1042,-13.60051 -12.10258,-14.7633 -9.79719,-1.2718 -8.09623,9.19456 -3.27047,10.73526 6.94027,2.20688 6.39814,-3.31987 2.42052,-2.45747 -4.61667,-1.0998 -3.4738,-5.10916 -0.33259,-5.30296 3.55942,-0.2156 6.62718,1.86703 9.03536,5.46926 2.40818,3.60223 -0.69114,6.58221 -3.65849,6.83657 -8.96784,0.77277 -18.98106,2.66072 -24.27907,2.66072 -5.3027,0 -14.34678,-3.81902 -4.71169,-19.21631 9.63509,-15.40214 10.5074,-17.73317 12.91558,-21.21185 2.41053,-3.47626 6.24776,-9.54051 5.28448,-16.00127 -0.96327,-6.45591 -4.82225,-11.0254 7.70501,-22.44982 12.52725,-11.42443 34.69064,-30.00902 43.84644,-34.4785 z m 156.26185,3.88022 3.43676,12.52755 -11.25262,2.71616 -2.47595,-7.2246 c 2.47397,-3.41327 6.58203,-6.41301 10.29181,-8.01911 z m -157.44439,4.50844 c -0.61393,0.0301 -1.42802,0.40647 -2.75311,1.27493 0,0 -2.88087,2.32473 -8.01911,5.96814 -5.13824,3.64341 -0.64336,5.29501 2.56833,7.94521 0,0 4.44409,3.31337 7.83434,7.79738 2.75825,3.65068 4.19658,0.99404 2.29118,-2.19879 -1.97589,-3.31153 -7.09083,-7.0549 -10.6244,-10.69831 l 2.97483,-2.03249 c 0,0 14.07612,11.99721 20.01083,19.86301 1.72919,2.29167 4.19216,0.76238 2.95635,-1.27493 -4.29009,-7.07606 -15.19446,-16.57451 -20.01083,-20.87926 l 2.95636,-2.05097 c 0,0 6.17924,3.56773 10.6244,9.68206 2.41288,3.31638 5.18876,0.7641 1.97706,-2.54985 -1.77383,-1.82897 -6.91549,-6.86872 -9.75597,-8.90602 -1.51833,-1.09012 -2.00706,-1.99026 -3.03026,-1.94011 z m 136.14016,6.81809 c 2.80523,0 5.08123,2.33419 5.08123,5.22906 0,2.89486 -2.276,5.24753 -5.08123,5.24753 -2.80524,0 -5.08124,-2.35267 -5.08124,-5.24753 0,-2.89487 2.276,-5.22906 5.08124,-5.22906 z m -10.66136,4.9519 c 0.08,-0.003 0.15095,0.009 0.22173,0.0184 -0.002,0.0872 -0.0184,0.16905 -0.0184,0.25868 0,1.24031 0.21536,2.41965 0.59127,3.52915 -0.0352,0.0339 -0.0572,0.0721 -0.0924,0.11086 -13.8124,14.24177 -27.77803,79.23957 -28.19623,86.52882 -0.20911,3.68217 -2.33848,6.96447 -5.13667,9.12775 -2.5703,1.98643 -8.98711,9.03028 -17.01752,15.9828 -2.24842,1.66182 -1.99839,0.63375 -3.60306,-2.01402 -1.60702,-2.65262 -7.7108,-13.57183 -9.95922,-19.86301 -2.24842,-6.29603 -2.04944,-4.02918 0.31411,-9.60816 22.10831,-52.1221 57.49374,-80.45721 60.38356,-82.77794 1.15534,-0.9263 1.95318,-1.27221 2.5129,-1.29341 z m 21.2488,0.94234 c 6.74762,6.95494 62.96448,46.04186 70.67537,97.04236 1.65166,10.92297 -0.96808,23.83919 0.96082,28.47339 -6.27016,0.2713 -33.15392,3.37358 -59.38579,-61.21503 -2.84518,-9.86434 -6.59957,-20.85674 -11.45588,-33.0927 -2.67602,-6.73692 -5.68676,-13.85876 -9.07231,-21.37814 1.04315,-0.24225 2.02191,-0.64475 2.9194,-1.18254 0.8223,-0.49177 1.57789,-1.09704 2.23574,-1.79229 36.84639,104.38471 51.78207,107.7094 63.80184,110.36443 0.92569,0.20349 1.8146,0.40688 2.6792,0.64671 l 1.09016,0.29563 0.11086,-1.14559 c 4.55323,-44.719 -35.0581,-82.4396 -56.33704,-102.69639 -4.15853,-3.95833 -7.5099,-7.13632 -9.75598,-9.62663 0.72833,-1.3154 1.19409,-2.81085 1.33036,-4.39758 l 0.20325,-0.29563 z m -25.96049,4.91494 c -8.86682,9.14244 -45.05182,49.41121 -56.52182,82.51926 l -0.0924,0.24021 0.0554,0.27716 c 0.97972,5.39486 9.68039,21.7891 10.05161,22.48677 l 0.49888,0.92386 0.86843,-0.57279 c 3.54062,-2.36434 9.42235,-8.3558 13.7101,-12.7308 2.01348,-2.05184 4.08522,-4.1817 4.52692,-4.45301 l 0.40649,-0.24021 c 0.0446,-0.0242 0.0924,-0.49888 0.0924,-0.49888 1.6963,-12.93121 14.18917,-70.83674 26.40395,-87.95157 z m 6.52246,0.12934 c 0.53332,0.87694 1.1745,1.66347 1.92163,2.34661 -0.27958,0.81395 -0.6364,1.94726 -1.10864,3.52914 -2.57264,8.61193 0.12132,84.22434 4.82256,111.2883 4.43341,25.516 -7.46324,57.05928 -13.69162,63.17362 -1.18412,1.52616 -3.78669,1.2075 -5.08124,-1.31188 -34.28079,-57.9506 0.97656,-161.93518 13.13731,-179.02579 z m 5.96814,4.63778 c 0.23025,0.0678 0.46719,0.1339 0.70213,0.18477 -0.0306,0.5281 -0.0756,1.08156 -0.11086,1.66295 -1.4825,23.84449 -5.98616,96.41247 24.66709,135.47498 l 1.01625,1.29341 c 0.002,-0.01 0.62822,-1.55209 0.62822,-1.55209 l 0.72061,-1.81077 c 3.50741,-8.6223 10.98694,-26.99222 1.42275,-67.92226 3.02848,7.10464 7.28924,15.38719 10.90156,20.91622 2.96501,21.78295 -0.11173,47.45479 -16.83275,63.35838 -0.96327,-6.62548 -5.14777,-13.58888 -8.03759,-19.21631 -2.98145,-5.8091 -10.92534,-18.87121 -11.56674,-20.52819 -0.32187,-7.94573 -3.85152,-27.15105 -5.13667,-42.05415 -1.28514,-14.90311 -1.27973,-64.24716 -0.31411,-69.21567 l 1.94011,-0.59127 z m 14.00573,0.25868 c 0.14039,-0.0271 0.3393,0.0591 0.59127,0.27716 1.68691,1.6594 3.60779,3.488 5.78337,5.56164 5.71386,5.4409 12.76673,12.16561 19.91845,19.93692 l -11.49283,-2.90092 c -4.11624,-6.77326 -7.00431,-11.45944 -7.4648,-12.17649 -0.29603,-0.45785 -0.88632,-0.58239 -1.33036,-0.27716 -0.4417,0.30524 -0.57319,0.93037 -0.27716,1.3858 0.75417,1.16763 3.70294,5.94358 7.76043,12.61994 l -1.57056,8.73972 c -3.76147,-9.47432 -7.79979,-20.22063 -12.15801,-32.42752 -0.0705,-0.36186 0.006,-0.69388 0.2402,-0.73909 z m -178.91492,4.69322 c -2.27554,0.0589 -4.52423,0.49116 -6.54094,1.34883 -6.14615,2.61386 -3.2528,6.76631 -0.8869,8.72125 0,0 0.83876,1.75684 -2.86397,4.60083 -4.32769,3.32122 1.07583,4.41448 5.87575,6.13444 -1.9148,3.06686 -0.86089,8.71799 -0.35106,11.86237 -6.31767,0.28828 -9.5172,1.1118 -8.88755,2.53138 0.50748,1.15068 5.6506,1.96234 8.44409,1.38579 0.25374,1.57219 -1.45067,7.52826 1.01625,7.0583 2.5468,-0.48934 4.65559,-3.60726 5.37687,-7.33546 0,0 9.89447,-1.58713 16.44473,-3.21503 5.7209,-1.41958 6.03242,-3.67625 2.9194,-5.22906 -4.2572,-2.12451 -11.79987,-6.76093 -16.44473,-9.92226 -2.22728,-1.51405 -0.4395,-3.5173 0.55432,-6.30074 0.99617,-2.781 7.27021,0.61986 9.34947,1.94011 2.08396,1.31783 11.36396,6.13484 17.60879,3.54763 5.3403,-2.2093 7.35702,-6.60688 -1.55208,-5.33992 -5.5447,0.78973 -12.67273,-3.9312 -17.73814,-8.09302 -2.71067,-2.22717 -7.00601,-3.60805 -11.34501,-3.69544 -0.32542,-0.007 -0.65422,-0.008 -0.97929,0 z m 155.92926,1.18254 c -8.55199,21.86774 -15.49474,43.57544 -18.80981,65.11372 -5.82898,37.87792 -2.73525,71.21694 9.1647,99.11181 0.0282,0.54991 0.96338,1.46616 1.90315,1.77382 1.12304,0.36337 1.33408,-0.66764 2.06945,-1.75534 1.7433,-2.56541 16.81818,-26.46975 9.49729,-75.88594 -1.4496,-9.75534 -5.73723,-79.80429 -3.82478,-88.35807 z m 16.37082,5.76489 c 0.46594,0.0177 0.98057,0.43625 1.36731,1.36732 7.58402,18.01841 12.85979,33.47217 16.42625,46.74736 l -12.98949,-7.50175 c -0.34536,-2.27956 -0.6964,-4.55156 -1.03472,-6.79962 -1.701,-11.26938 -3.34945,-22.20945 -4.82255,-31.33736 -0.28546,-1.36674 0.19466,-2.31956 0.84995,-2.45747 0.0637,-0.0134 0.13668,-0.021 0.20325,-0.0185 z m -4.34215,1.29341 c 0.5994,-0.0772 1.21781,0.47346 1.38579,1.51513 1.47311,9.10853 3.12156,20.04708 4.82256,31.31889 0.31247,2.06637 0.62986,4.13954 0.94233,6.20834 l -7.74195,7.42785 c -1.37208,-16.69817 -1.16091,-32.38944 -0.66518,-44.21599 0.0846,-1.47651 0.65705,-2.17701 1.25645,-2.25422 z m -166.35041,1.10863 c 2.3013,-0.12517 0.59605,2.38038 -0.0185,3.82478 -0.65315,1.54313 -0.81306,3.11245 -2.30965,2.439 -1.49425,-0.67345 -6.01402,-2.83998 -5.48774,-3.60306 0.6367,-0.91812 4.24892,-2.07961 7.2985,-2.60529 0.19061,-0.0329 0.36395,-0.0471 0.51737,-0.0554 z m 132.3708,8.16693 c 0.90219,0.39002 -0.22074,3.4341 -0.96081,4.58235 -2.46927,3.81541 -5.84944,11.62377 -9.31252,20.56515 0.73773,2.94089 4.01654,8.0352 5.37687,10.07008 -0.25374,1.10223 -0.49945,2.20458 -0.73909,3.27047 -1.34624,-2.15843 -4.59487,-7.48752 -5.76489,-10.42115 -2.09806,5.53295 -4.18066,11.37067 -6.07901,16.8697 1.35329,4.68508 4.55204,11.48483 7.705,14.92959 -0.007,0.0533 -0.0299,0.113 -0.037,0.1663 -0.31718,0.25678 -0.75176,0.65325 -1.36732,1.25645 -2.96265,-3.23643 -6.09316,-8.4766 -7.57566,-12.63842 -3.05898,9.03344 -5.42629,16.70016 -6.18986,19.84454 -0.12923,0.53052 -0.66567,0.85385 -1.18255,0.72061 -0.51687,-0.13081 -0.83135,-0.6705 -0.70213,-1.20102 0.79411,-3.26793 3.31089,-11.74859 6.6518,-21.72921 -3.68629,2.50969 -11.7353,5.33933 -14.87416,6.39312 0.31468,-0.81628 0.63936,-1.63885 0.97929,-2.45747 3.01434,-1.09497 11.0972,-4.16363 14.81873,-6.70724 2.07221,-6.08527 4.41664,-12.56674 6.83657,-18.71742 l -11.60369,5.65403 c 0.72598,-1.22335 1.44931,-2.44725 2.19879,-3.65849 l 10.64287,-5.06276 c 3.83665,-9.43072 7.80022,-17.66913 11.17872,-21.72921 z m 61.19656,3.0857 12.43517,3.12265 c 6.70532,7.49757 13.37939,15.9063 18.99458,25.03663 l -17.6827,-5.37687 c -4.9174,-8.20737 -9.78353,-16.25867 -13.74705,-22.78241 z m -1.25645,1.60751 c 3.94002,6.49467 8.69987,14.40083 13.50684,22.43135 l -4.39758,12.30583 c -3.32212,-7.09787 -6.93194,-15.39003 -10.84612,-25.09207 l 1.73686,-9.64511 z m -191.22076,1.95859 c 0,0 9.90183,3.25725 12.47213,4.58235 2.57029,1.3251 2.57806,0.98385 -0.31412,1.97706 -2.88982,0.99322 -12.4906,2.06945 -12.4906,2.06945 0.32188,-1.3251 0.32188,-3.71605 0,-4.71169 -0.31952,-0.99322 0.33259,-3.91717 0.33259,-3.91717 z m 149.72092,7.2985 c 0.68719,0.0535 1.3631,1.26101 1.55208,3.21504 0.55213,13.82994 1.58519,29.56893 2.49443,40.90856 -2.26252,-1.38323 -6.01914,-4.16357 -8.46257,-6.55941 0.66255,-12.32316 1.68371,-24.76192 3.04874,-35.42083 0.29398,-1.5198 0.83284,-2.18499 1.36732,-2.14336 z m -4.28672,0.24021 c 0.6,-0.0627 1.07455,0.59415 0.90539,2.06944 -1.42142,10.2035 -2.48468,21.67494 -3.19656,33.05575 -1.15123,1.79748 -5.941,5.59118 -7.81587,7.03982 0.30073,-2.39825 0.62186,-4.82211 0.99777,-7.26154 1.83022,-11.89681 4.20644,-22.04273 7.44632,-32.66773 0.33715,-1.38929 1.06296,-2.17306 1.66295,-2.23574 z m -128.5645,5.85728 c -0.68997,0.0207 -1.49718,0.17214 -2.42051,0.46193 -7.38667,2.32073 -24.72468,9.27331 -11.23415,17.55335 -5.13824,4.96851 -3.35876,16.53564 18.62504,9.92227 7.70853,-2.31831 5.23286,-10.48597 -2.90093,-6.61484 -6.16495,2.93362 -12.49127,2.79165 -11.76999,-0.813 5.42018,-2.54845 9.38018,-3.76983 16.70341,-3.36285 11.88351,0.66376 12.09383,-4.76828 9.20166,-9.40491 -2.88982,-4.6342 -9.32012,-0.2093 -12.4167,1.75534 -3.8202,2.4249 -7.47013,3.094 -14.24593,3.51067 -0.6508,-1.44138 -0.218,-3.08707 1.60752,-3.60306 3.53121,-0.99322 5.15367,-2.00009 9.33099,-2.99331 3.65104,-0.86907 4.34943,-6.55636 -0.48041,-6.41159 z m 190.86969,8.3517 17.46097,5.32144 c 0.0634,0.017 0.12369,-0.005 0.18478,0 4.01755,6.86289 7.39274,14.11958 9.73749,21.69225 l -12.86014,-2.40203 c -4.10919,-7.10999 -9.29323,-15.8665 -14.5231,-24.61166 z m -1.71838,0.88691 c 5.34264,8.94137 10.6397,17.87729 14.78177,25.05511 l -4.45301,13.76552 c -4.25249,-5.8842 -9.13713,-14.23606 -14.85568,-26.20069 l 4.52692,-12.61994 z m -33.259,2.84549 c 0.8505,5.60804 1.71581,11.15616 2.54986,16.50015 l -8.22236,8.48105 c -0.96328,-5.82607 -1.69099,-11.66911 -2.21727,-17.40554 l 7.88977,-7.57566 z m 2.0325,0.4065 13.30359,7.68652 c 1.55534,6.04893 2.74723,11.62954 3.64002,16.77732 l -14.5231,-8.62887 c -0.80586,-5.17199 -1.61465,-10.51521 -2.42051,-15.83497 z m -128.45364,13.59923 c -10.32531,-0.0248 -22.47614,26.68781 -0.73909,33.31443 -4.60022,-5.1938 -11.55818,-20.19451 2.25422,-33.11118 -0.4947,-0.13615 -1.00733,-0.20203 -1.51513,-0.20325 z m 131.26217,4.76712 14.56005,8.64734 c 1.03846,6.5407 1.57678,12.36531 1.75534,17.53488 L 295.661,344.3774 c -0.98207,-5.65407 -2.02374,-12.04957 -3.0857,-18.79134 z m -1.92163,0.14782 c 1.05021,6.69574 2.07842,12.99942 3.04874,18.58808 l -6.83657,8.73973 c -1.81142,-6.16764 -3.24431,-12.50048 -4.3791,-18.88372 l 8.16693,-8.44409 z m -32.72315,1.29341 c -0.48634,8.54651 -0.77478,16.96664 -0.84996,24.70404 -1.95474,1.79021 -6.29852,4.91545 -8.61038,6.54094 0.0376,-7.97481 0.55624,-16.22294 1.53361,-24.70405 1.66341,-1.17733 6.04952,-4.3607 7.92673,-6.54093 z m -46.74737,0.35106 c -0.38246,0.99001 -0.74434,1.99427 -1.09016,2.97484 0.34772,-0.99322 0.7025,-1.97435 1.09016,-2.97484 z m 48.96463,1.34884 c 2.56795,2.41521 6.52324,5.27797 8.79516,6.70723 0.45579,5.44574 0.87273,9.59242 1.16406,11.56674 0.79177,5.33431 1.3068,10.34783 1.60752,15.09589 -3.26573,-1.92587 -9.169,-6.09185 -12.3243,-9.38643 0.0916,-7.4782 0.34171,-15.66705 0.75756,-23.98343 z m 78.38037,1.2195 12.21344,2.29117 c 2.34005,8.31638 3.40347,16.99732 2.64225,25.9605 -0.54038,-0.12839 -1.08061,-0.26448 -1.64448,-0.38803 -4.95968,-1.09738 -10.7618,-2.39934 -19.01306,-13.11882 l 4.34215,-13.39599 c 3.15296,5.50873 5.46807,9.71782 6.35616,11.67761 0.2232,0.49661 0.79095,0.71054 1.27493,0.4804 0.48164,-0.23255 0.70596,-0.83617 0.48041,-1.33036 -0.93508,-2.06879 -3.37432,-6.46427 -6.6518,-12.17648 z M 228.79194,342.3449 c -1.63615,1.64651 -3.34583,3.32096 -4.97037,4.84103 1.62158,-1.51572 3.33792,-3.19936 4.97037,-4.84103 z m 67.31251,4.52692 12.84167,7.18764 c 0.10573,7.31589 -0.52697,13.2715 -1.4597,18.12615 l -7.0583,-6.41159 c -1.08075,-2.06396 -2.59447,-9.17109 -4.32367,-18.9022 z m -1.95858,0.037 c 1.71274,9.64632 3.24368,16.79662 4.41605,19.45651 l -3.82478,7.11373 c -2.85458,-5.71464 -5.2235,-11.81801 -7.18764,-18.12616 l 6.59637,-8.44408 z m -37.08378,7.31697 c -0.0399,9.93218 0.2909,18.59394 0.97929,24.66709 -2.12155,2.05911 -6.09213,4.32823 -7.90825,5.32144 -1.06195,-7.69138 -1.59983,-15.66491 -1.64447,-23.928 l 8.57343,-6.06053 z m 2.30965,1.33036 c 3.49363,3.21948 10.12941,7.42679 12.4906,8.88755 0.4182,8.52229 0.10448,16.04392 -0.60975,22.61611 -4.10683,-1.96463 -8.45571,-4.75831 -11.17872,-7.57566 -0.54272,-5.46754 -0.77496,-13.9401 -0.70213,-23.928 z m -75.1099,10.69831 c -4.10829,0.1976 -8.39456,4.84915 -10.12552,11.38197 -1.97823,7.46851 0.11884,14.5647 4.69322,15.85346 4.57202,1.28876 9.88178,-3.71506 11.86237,-11.17872 1.97823,-7.46851 -0.11884,-14.58075 -4.69321,-15.87193 -0.5718,-0.1611 -1.14997,-0.213 -1.73686,-0.18478 z m 115.64892,1.69991 7.11373,6.44855 c -1.24286,5.51357 -2.8328,9.45699 -3.99108,12.30583 l -0.0924,0.22172 c -2.65252,-3.5344 -5.02678,-7.33823 -7.15068,-11.34501 l 4.12042,-7.63109 z m -198.92575,1.60752 c -0.3874,-0.009 -0.82112,0.12823 -1.33036,0.46193 -1.39087,1.0562 -2.69396,1.23245 -4.82256,1.99554 -2.03462,0.73159 -0.55431,3.06664 -0.55431,4.12042 0,2.66957 -0.17287,8.05395 -0.73909,10.97547 -1.00557,5.18895 6.39915,7.81411 7.81586,0.31411 4.18202,14.17151 17.33646,6.34389 7.77891,-4.74865 0.37356,0.16716 0.75558,0.30324 1.14559,0.38803 4.81872,1.04893 10.11117,-4.83019 1.95858,-7.88978 -3.1553,-1.18459 -6.18098,-2.22419 -8.88754,-4.00955 -0.53215,-0.34884 -1.20287,-1.58129 -2.36508,-1.60752 z m 82.63013,1.68142 c 0.35749,-0.0112 0.70839,0.0458 1.07167,0.14782 2.90157,0.8188 3.43492,4.90432 2.18032,9.64511 -1.25696,4.74079 -3.8218,8.3366 -6.72571,7.52023 -2.90392,-0.81637 -3.67747,-5.59282 -2.42052,-10.32877 1.09984,-4.15031 3.39179,-6.90632 5.89424,-6.98439 z m 75.38705,9.86684 c 2.5891,2.83915 10.13096,7.13011 11.99172,8.16693 -0.49103,3.85659 -1.11971,7.34342 -1.82924,10.49506 -2.32831,2.48789 -7.08799,-2.99689 -9.01689,-6.68875 l -0.6467,1.99554 c -2.96265,6.10707 -5.15361,5.25177 -6.74419,3.3259 -0.90453,-3.9002 -1.67327,-7.885 -2.29117,-11.95476 1.94769,-1.09012 6.5183,-3.70717 8.53647,-5.33992 z m -40.26186,5.11819 c -0.24938,-0.0112 -0.49266,0.0221 -0.75756,0.11086 -0.17151,0.21076 -0.61338,0.93021 -0.53584,2.82702 0.15741,3.90988 3.00517,7.26324 5.98662,9.75597 0.0446,-2.04215 -0.0968,-4.34237 -0.51737,-6.96591 -1.06077,-3.2219 -2.43018,-5.64954 -4.17585,-5.72794 z"
 />
  </g>
</svg>
