<?xml version="1.0" encoding="UTF-8" standalone="no"?>
<!-- Generator: Adobe Illustrator 12.0.0, SVG Export Plug-In . SVG Version: 6.00 Build 51448)  -->

<svg
   xmlns:dc="http://purl.org/dc/elements/1.1/"
   xmlns:cc="http://creativecommons.org/ns#"
   xmlns:rdf="http://www.w3.org/1999/02/22-rdf-syntax-ns#"
   xmlns:svg="http://www.w3.org/2000/svg"
   xmlns="http://www.w3.org/2000/svg"
   xmlns:sodipodi="http://sodipodi.sourceforge.net/DTD/sodipodi-0.dtd"
   xmlns:inkscape="http://www.inkscape.org/namespaces/inkscape"
   version="1.1"
   id="COLORADO_AVALANCHE"
   width="300"
   height="300"
   viewBox="0 0 300 300"
   overflow="visible"
   enable-background="new 0 0 243.823 200"
   xml:space="preserve"
   inkscape:version="0.48.3.1 r9886"
   sodipodi:docname="COL.svg"
   style="overflow:visible"><metadata
   id="metadata61"><rdf:RDF><cc:Work
       rdf:about=""><dc:format>image/svg+xml</dc:format><dc:type
         rdf:resource="http://purl.org/dc/dcmitype/StillImage" /></cc:Work></rdf:RDF></metadata><defs
   id="defs59"><filter
     id="filter3038"
     inkscape:label="Desaturate"
     x="0"
     y="0"
     width="1"
     height="1"
     inkscape:menu="Color"
     inkscape:menu-tooltip="Render in shades of gray by reducing saturation to zero"
     color-interpolation-filters="sRGB"><feColorMatrix
       id="feColorMatrix3040"
       type="saturate"
       values="0" /></filter></defs><sodipodi:namedview
   pagecolor="#ffffff"
   bordercolor="#666666"
   borderopacity="1"
   objecttolerance="10"
   gridtolerance="10"
   guidetolerance="10"
   inkscape:pageopacity="0"
   inkscape:pageshadow="2"
   inkscape:window-width="970"
   inkscape:window-height="620"
   id="namedview57"
   showgrid="false"
   inkscape:zoom="0.834386"
   inkscape:cx="197.90308"
   inkscape:cy="136.1881"
   inkscape:window-x="78"
   inkscape:window-y="65"
   inkscape:window-maximized="0"
   inkscape:current-layer="g3"
   showguides="true"
   inkscape:guide-bbox="true" /><g
   id="g3"
   style="filter:url(#filter3038)"
   transform="translate(0,100)">
	
<path
   d="m 150.77803,-72.389605 -33.10657,53.639547 C 42.324167,6.5613482 -7.3161374,60.672457 6.2396326,103.52504 9.7796116,114.70729 25.157666,130.74855 25.157666,130.74855 L 0.2796826,172.42975 C 61.441225,165.03972 112.51899,162.35551 112.51899,162.35551 l 3.30681,-13.22724 c 18.00382,-1.36579 37.09627,-4.99959 56.40805,-11.11242 5.27244,-1.66725 10.43352,-3.48246 15.45741,-5.42163 2.37845,7.61027 5.1694,16.45776 5.72925,17.76449 9.27137,21.90555 40.12468,29.79083 68.9047,17.61069 28.77756,-12.18383 44.57458,-39.80754 35.29829,-61.71432 -0.64106,-1.51959 -8.57433,-18.869433 -14.53459,-24.993333 -7.72717,-11.11704 -8.02155,-10.70392 -7.72871,-11.11243 13.24201,-18.66333 18.39048,-38.22027 12.80428,-55.869718 -9.51131,-30.051066 -47.65407,-46.742617 -95.85906,-46.218449 -1.68201,-2.703279 -3.80145,-5.33304 -6.38292,-7.728709 -6.43274,-5.976252 -14.08086,-9.112955 -20.57143,-9.112955 z m 0.61522,5.690791 12.72737,19.917767 c 12.68007,2.515601 28.55383,10.23298 24.26277,33.529523 -1.99506,-3.776603 -4.68631,-6.32237 -7.84407,-7.882514 l 45.94929,71.903905 c 0,0 3.76915,1.09787 -2.88384,0.65368 -0.43312,-0.93022 -1.08771,-2.052688 -1.99947,-3.422169 l -45.44942,-70.635016 c -20.46615,-4.43749 -53.29349,19.9946702 -53.29349,19.9946702 l 8.15168,-13.9578182 4.5757,-2.883846 5.34473,-16.4187 6.95968,-2.691591 1.88411,-9.343662 c 0,0 0.73017,-0.03365 1.96102,-0.03845 1.84791,-0.0073 4.91598,0.08062 8.45928,0.538318 l -8.61309,-13.381049 -74.134082,120.121824 -3.57597,5.88305 c -0.185796,-2.83617 0.450957,-5.96211 1.922565,-9.30521 -0.02953,1.59957 75.595237,-122.582711 75.595237,-122.582711 z m 18.41817,34.183195 3.76822,0.538318 c 7.50466,1.46106 9.45902,4.729508 9.45902,4.729508 -2.4198,-1.267825 -5.16276,-2.054964 -8.03632,-2.499333 l -1.4227,-2.230175 c 0,0 0.2659,0.04563 -3.76822,-0.538318 z m -0.80748,4.652606 c -7.61449,0.121617 -18.52788,2.650448 -33.68333,10.843263 l -2.03792,4.537252 c 0,0 21.91274,-14.748903 40.87372,-13.265694 l -1.26889,-1.961016 c -1.18684,-0.121974 -2.47695,-0.176271 -3.88358,-0.153805 z m 7.76716,0.845928 1.15354,1.807211 c 2.16565,0.445419 4.26948,1.154232 6.26756,2.153272 0,0 -2.10926,-2.578142 -7.4211,-3.960483 z m 18.91803,7.882514 c 44.68224,-0.964666 81.60256,23.4334462 83.01633,55.331404 0.44788,10.052705 -6.56932,28.912294 -8.61309,28.223244 -17.10682,-11.41726 -38.02709,-12.5748 -38.02832,-12.57357 L 193.3436,-8.4451128 c 1.05818,-2.6442182 1.89027,-6.3595352 2.34553,-10.6894582 z M 103.48294,-5.7919738 C 91.379466,0.8576112 80.578224,8.262403 71.299212,16.086809 c -0.06195,0.05224 -0.130435,0.101524 -0.192256,0.153805 -30.892433,28.829312 -38.280323,65.138873 -24.608825,87.245976 0.691508,1.1197 1.430388,2.19757 2.230175,3.22991 11.994341,15.66967 36.052543,22.50754 71.134884,10.95862 1.26243,-0.41466 2.55316,-0.87577 3.84513,-1.3458 1.80505,-0.64475 3.63933,-1.28981 5.49853,-2.03792 7.06028,-1.00527 33.25883,-12.12292 65.521,2.9992 12.10016,4.5391 13.11066,10.07547 13.11189,10.07424 -27.55819,-17.80941 -58.274,-17.87954 -85.55412,-6.92123 l -12.72738,36.18266 c 0,0 -58.983965,4.54033 -100.3194074,9.0745 1.1037064,-2.68113 15.4558794,-26.46217 34.6446114,-57.86918 -0.119353,-0.20795 -0.266391,-0.4122 -0.384513,-0.61523 -1.798948,-2.1011 -14.662467,-19.542553 -6.728976,-45.218713 -5.142805,14.70769 -4.418478,29.02535 3.345262,41.296683 0.107049,0.17473 0.232861,0.3313 0.346062,0.49987 l -6.84433,9.45902 c 0,0 -68.335925,-57.230283 69.865991,-119.0451938 z M 96.946221,4.3976182 C 63.639408,36.7816 62.951591,58.947997 69.876514,71.764277 c 4.396367,8.12952 11.847611,12.48436 15.957285,13.26569 2.016693,0 2.02992,-0.98804 3.037652,-1.99947 16.634339,5.04358 38.826879,1.51222 85.707919,-18.149 0,0 7.35374,-3.53506 19.14875,-6.15221 6.25956,-1.38655 13.74272,-2.53555 22.07104,-2.73004 0.86753,-0.0203 1.72969,-0.0392 2.61468,-0.0384 13.27486,0.0111 28.47174,2.47795 43.87292,9.92043 20.16693,13.10543 35.26783,36.292173 34.2601,60.483883 -2.01915,-11.0912 -7.04827,-22.15348 -15.11136,-30.222713 l -0.99973,13.073433 c 0,0 -2.01946,-4.02692 -4.03738,-5.03712 -1.00897,1.0102 -1.03019,1.03265 -2.03792,2.03792 l 0,30.22272 c -3.02443,-14.11686 -24.18586,-36.29802 -24.18586,-36.29802 l -5.03712,4.03738 c 0,0 -16.12555,-22.170393 -46.37225,-24.185863 -12.09524,-1.01142 -24.7168,0.49249 -39.33567,6.03686 22.68564,-3.02689 46.38948,4.04815 53.44729,7.07503 3.52398,1.51222 22.17562,11.097663 28.22324,22.186403 2.02039,-1.00896 7.07504,-4.03739 7.07504,-4.03739 0,0 13.10112,18.14901 10.07424,18.14901 0,0 -11.11242,-11.07951 -11.11242,-10.07424 l 4.03738,12.07371 -6.03685,-5.03712 -1.99947,2.03792 3.42217,7.38264 -7.45955,3.69133 c -13.60745,7.55983 -34.29855,8.08 -43.37306,-6.03686 2.01916,2.01547 18.16193,16.60789 44.37279,2.99921 0,-12.60711 -26.22562,-28.21125 -43.37305,-34.2601 -27.51267,-8.976073 -50.76801,1.03941 -73.98028,7.19039 -15.90469,4.22287 -31.770612,6.64832 -48.986946,-0.11529 -7.098415,-2.58393 -14.179297,-5.99779 -18.110556,-13.919373 -2.212334,-4.47019 -3.440314,-10.388 -3.076103,-18.37972 0,-1.01142 -3.037652,0 -3.037652,0 0,0 3.051802,-47.350758 47.410438,-72.5575758 z M 152.08537,24.238482 c 0,0 11.20963,29.835435 12.49667,29.338335 2.88908,-1.12955 7.72871,-2.96075 7.72871,-2.96075 0,0 24.64943,-7.075038 38.7589,-7.075038 -8.00525,0.727191 -23.03232,5.114021 -23.03232,5.114021 0,0 -5.35827,2.116977 -14.11163,5.306277 -0.66444,0.27439 -1.30027,0.53309 -1.96101,0.80748 l 0,-0.0769 c -10.86357,4.08629 -21.40537,9.05789 -32.22218,12.84273 -6.48443,1.44207 -12.47883,4.40867 -19.03339,5.9984 -5.20969,1.5848 -11.20871,2.9992 -15.76503,2.9992 7.05535,-1.01143 25.22405,-9.07451 25.22405,-9.07451 0,0 7.70779,-2.48118 7.88251,-2.9992 2.25294,-6.75881 14.03472,-40.220045 14.03472,-40.220045 z m 87.01527,35.106025 c 0,0 26.77901,17.43751 27.49267,22.57091 l -4.92177,5.88304 -1.6534,7.92097 -4.88332,-5.72924 c 0,0 -1.60295,0.25808 -2.42243,1.34579 -6.05008,-8.06923 -16.15815,-13.10543 -25.22404,-18.14901 -21.17344,-7.05658 -44.35249,-7.05658 -65.521,0 -22.18239,10.07978 -44.36079,20.18693 -68.558647,20.18693 -15.863712,-1.37477 -23.47202,-7.96282 -27.14661,-15.64967 l -5.07557,8.42083 c 3.118567,5.15988 8.475342,9.23946 17.110823,11.22778 28.225094,5.043573 54.435034,-7.05289 78.632884,-18.14901 12.60218,-4.79134 53.42976,-18.89004 87.70739,12.11215 3.0232,1.0102 4.01462,4.02139 7.03659,6.03686 1.00896,-1.00404 4.03738,-1.99947 4.03738,-1.99947 l 7.07504,8.074773 c 0,0 0.9905,-8.081233 1.99947,-12.112163 1.01019,-1.00527 2.03791,-1.99946 2.03791,-1.99946 l 2.99921,-5.03712 0,-2.03792 0,-1.99947 c -9.91121,-15.03722 -30.72258,-20.9175 -30.72258,-20.9175 z m -193.063924,51.832343 -30.761031,50.8326 92.090835,-8.42083 10.99707,-31.64541 c -9.22831,3.13516 -52.744402,16.12247 -72.326874,-10.76636 z m 116.930374,6.72897 c 15.13821,-0.17152 21.03285,4.38345 21.03285,4.38345 -31.25321,12.09524 -62.5218,12.0737 -62.5218,12.0737 l 3.53752,-9.0745 c 16.44623,-5.48207 28.86849,-7.27973 37.95143,-7.38265 z m 83.78535,32.37599 -1.99946,4.03738 c -29.57735,10.41815 -42.03188,-1.3298 -43.37306,-3.34526 21.50565,10.7516 45.37252,-0.69212 45.37252,-0.69212 z m 22.53246,0.34606 -0.69213,3.69132 c -43.68435,24.1954 -61.13754,4.38345 -61.13754,4.38345 0,0 22.51215,15.11659 61.82967,-8.07477 z m -99.47348,-183.143489 1.4996,2.38398 c -13.0354,-0.75656 -27.26197,4.229642 -27.26197,4.229642 l 1.3458,-4.037386 c 7.89758,-1.84843 14.21652,-2.635506 19.22564,-2.730041 1.91101,-0.03606 3.63933,0.02022 5.19093,0.153805 l 3.76822,0.538318 c -5.07818,-0.736441 -5.07818,-0.736441 -5.07818,-0.736441"
/>
</g>
</svg>
