<?xml version="1.0" encoding="UTF-8" standalone="no"?>
<!-- Generator: Adobe Illustrator 12.0.0, SVG Export Plug-In . SVG Version: 6.00 Build 51448)  -->

<svg
   xmlns:dc="http://purl.org/dc/elements/1.1/"
   xmlns:cc="http://creativecommons.org/ns#"
   xmlns:rdf="http://www.w3.org/1999/02/22-rdf-syntax-ns#"
   xmlns:svg="http://www.w3.org/2000/svg"
   xmlns="http://www.w3.org/2000/svg"
   xmlns:sodipodi="http://sodipodi.sourceforge.net/DTD/sodipodi-0.dtd"
   xmlns:inkscape="http://www.inkscape.org/namespaces/inkscape"
   version="1.1"
   id="DALLAS_STARS"
   width="300"
   height="300"
   viewBox="0 0 299.99999 300"
   overflow="visible"
   enable-background="new 0 0 200.225 125.388"
   xml:space="preserve"
   inkscape:version="0.48.3.1 r9886"
   sodipodi:docname="Dallas_Stars_logo.svg"
   style="overflow:visible"><metadata
     id="metadata35"><rdf:RDF><cc:Work
         rdf:about=""><dc:format>image/svg+xml</dc:format><dc:type
           rdf:resource="http://purl.org/dc/dcmitype/StillImage" /></cc:Work></rdf:RDF></metadata><defs
     id="defs33" /><sodipodi:namedview
     pagecolor="#ffffff"
     bordercolor="#666666"
     borderopacity="1"
     objecttolerance="10"
     gridtolerance="10"
     guidetolerance="10"
     inkscape:pageopacity="0"
     inkscape:pageshadow="2"
     inkscape:window-width="1366"
     inkscape:window-height="744"
     id="namedview31"
     showgrid="false"
     inkscape:zoom="1.4583593"
     inkscape:cx="292.10908"
     inkscape:cy="171.15502"
     inkscape:window-x="0"
     inkscape:window-y="24"
     inkscape:window-maximized="1"
     inkscape:current-layer="DALLAS_STARS" /><path
     style="fill:#000000"
     d="m 265.0732,64.31196 c -7.30171,0 -9.05884,2.23785 -9.29133,3.503799 -0.45598,2.497402 2.98498,2.888614 6.53834,3.316096 l 2.34629,0.281556 c 2.32641,0.281988 3.97564,0.522812 3.81664,1.407776 -0.22349,1.204452 -2.75273,1.470345 -4.97414,1.470345 -4.10384,0 -4.49353,-1.181494 -4.41103,-1.814468 l -4.50489,0 c -0.25649,1.409944 0.71274,3.785355 8.91592,3.785355 1.97542,0 8.91162,-0.305923 9.5416,-3.722787 0.37048,-2.044419 -2.31839,-2.655056 -5.31827,-3.034541 l -5.38084,-0.688246 c -0.92095,-0.110995 -2.32208,-0.303824 -2.15859,-1.188789 0.18449,-1.02596 2.37584,-1.345209 4.16077,-1.345209 4.10083,0 4.2529,1.183852 4.28589,1.689332 l 4.53617,0 c 0.22199,-1.391944 -1.21481,-3.660219 -8.10253,-3.660219 z m -99.88957,0.281555 -2.06474,11.387348 15.89223,0 0.37541,-2.064739 -11.19964,0 1.68933,-9.322609 -4.69259,0 z m 50.52354,0 -10.07343,11.387348 4.94286,0 1.97089,-2.346294 8.32152,0 1.00109,2.346294 5.09928,0 -5.8501,-11.387348 -5.41211,0 z m -65.44597,0.06257 -42.76512,67.698405 13.51465,-0.0938 21.24179,-34.06819 4.72387,33.91177 11.51248,-0.0626 -8.22767,-67.385566 z m -125.323395,0.15642 -2.064739,11.356064 9.7293,0 c 7.421705,0 9.975064,-3.537826 10.417547,-5.975229 0.391484,-2.150915 -0.588905,-5.380835 -8.165104,-5.380835 l -9.917004,0 z m 53.996051,0 -10.073423,11.356064 4.94286,0 1.970887,-2.346294 8.321524,0 1.001085,2.346294 5.09928,0 -5.850094,-11.356064 -5.412119,0 z m 41.451204,0 -2.06474,11.356064 15.89223,0 0.37541,-2.064739 -11.19965,0 1.72062,-9.291325 -4.72387,0 z m -91.192641,1.939603 4.504885,0 c 2.00542,0 5.11686,0.273569 4.504885,3.628935 -0.337487,1.865925 -1.967178,3.816639 -5.787526,3.816639 l -4.598737,0 1.376493,-7.445574 z m 188.673341,0.406691 0.0626,0 1.97089,4.504885 -5.72496,0 3.69151,-4.504885 z m -136.773313,0.187704 0.06257,0 1.970887,4.504885 -5.724958,0 3.691503,-4.504885 z M 42.488086,79.891356 c -24.13254,0.042 -32.019918,9.614783 -33.97434,15.047567 -3.8533467,10.724567 7.102966,12.487817 18.457514,14.296747 l 7.539426,1.18879 c 7.430704,1.20445 12.659942,2.23695 11.293496,6.0378 -1.852427,5.15679 -10.447844,6.30436 -17.800552,6.31935 -13.568461,0.024 -13.794726,-5.10609 -12.920261,-7.82098 l -14.9224307,0.0313 c -2.168914,6.03876 -1.171265,16.25157 25.9656557,16.20507 6.52474,-0.015 29.768704,-1.32716 35.037994,-15.98608 3.146875,-8.75965 -5.202392,-11.46424 -14.766011,-13.07668 L 29.317554,99.2561 c -2.933883,-0.46798 -7.404242,-1.271645 -6.037797,-5.067994 1.588437,-4.415824 9.143801,-5.866378 15.047567,-5.881377 13.568462,-0.024 12.946623,5.150024 12.576138,7.320438 l 14.922431,-0.03128 C 67.868812,89.62462 65.275181,79.844855 42.488086,79.891354 z m 89.691004,0 -60.503104,0.125135 -3.097108,8.603079 0.281555,0 -0.87595,2.440146 22.211586,-0.06257 -14.421889,40.606534 15.54811,-0.0313 14.42189,-40.57525 22.74341,-0.06257 3.09711,-8.603078 -0.28156,0 0.87595,-2.440146 z m 85.12356,0.969801 -38.94849,0.06257 -18.14467,50.836373 15.76709,-0.0312 7.10145,-19.89657 16.64305,-0.0313 c 11.90653,-0.0195 11.58452,2.66694 9.10362,9.60416 -1.86742,5.24079 -2.15259,7.85223 -1.9396,10.26113 l 17.80055,-0.0312 0.46926,-1.34531 c -3.12887,-0.84447 -2.46569,-2.70229 0.1877,-10.13599 3.38687,-9.48712 0.50643,-11.02477 -5.16184,-12.85769 8.22117,-1.71144 14.23844,-6.5106 16.23635,-12.106882 1.56594,-4.387325 1.37321,-14.370035 -19.11447,-14.328037 z m 58.21938,0 c -24.13254,0.048 -32.01992,9.619283 -33.97434,15.047567 -3.85485,10.724576 7.09696,12.455036 18.45751,14.265466 l 7.53943,1.22007 c 7.4337,1.20446 12.66294,2.20567 11.29349,6.00652 -1.85393,5.16129 -10.44934,6.33714 -17.80055,6.35063 -13.56696,0.0285 -13.79473,-5.13737 -12.92026,-7.85226 l -14.92243,0.0313 c -2.17042,6.03726 -1.20256,16.28885 25.93437,16.23635 6.52174,-0.007 29.7687,-1.35545 35.03799,-16.01736 3.15288,-8.75516 -5.1711,-11.43296 -14.73472,-13.0454 l -17.08103,-2.9094 c -2.93088,-0.46798 -7.40423,-1.26715 -6.03779,-5.067996 1.58694,-4.411324 9.1408,-5.836594 15.04756,-5.850093 13.56396,-0.0225 12.94213,5.11874 12.57614,7.289154 l 14.92243,-0.03128 c 2.04292,-5.971263 -0.55071,-15.715244 -23.3378,-15.673246 z m -64.47617,8.759499 c 9.43913,-0.0195 9.8476,3.941298 8.88463,6.632191 -1.79542,5.029303 -6.55576,6.961313 -14.92243,6.976313 l -18.8642,0.0313 4.84901,-13.60851 20.05299,-0.03128 z m -177.192137,48.083384 46.018651,40.10599 -45.111417,74.23675 85.811803,-46.04994 53.15138,45.45554 -8.00868,-69.20003 85.53024,-44.26675 -103.45593,-0.12514 1.59548,11.41863 52.86983,0 -50.49225,26.74776 5.94394,44.5483 -35.63238,-29.71972 c 0,0 -51.08665,26.74883 -51.08665,26.15335 1.190952,-1.18645 25.527681,-42.17072 25.527681,-42.17072 l -29.688443,-26.15336 43.953912,0 6.78861,-10.88681 -83.715777,-0.0938 z"
   /></svg>
