<?xml version="1.0" encoding="UTF-8" standalone="no"?>
<!-- Generator: Adobe Illustrator 13.0.2, SVG Export Plug-In . SVG Version: 6.00 Build 14948)  -->

<svg
   xmlns:dc="http://purl.org/dc/elements/1.1/"
   xmlns:cc="http://creativecommons.org/ns#"
   xmlns:rdf="http://www.w3.org/1999/02/22-rdf-syntax-ns#"
   xmlns:svg="http://www.w3.org/2000/svg"
   xmlns="http://www.w3.org/2000/svg"
   xmlns:sodipodi="http://sodipodi.sourceforge.net/DTD/sodipodi-0.dtd"
   xmlns:inkscape="http://www.inkscape.org/namespaces/inkscape"
   version="1.1"
   id="Layer_1"
   width="300"
   height="300"
   enable-background="new 0 0 385.248 359.438"
   xml:space="preserve"
   inkscape:version="0.48.3.1 r9886"
   sodipodi:docname="DET.svg"><metadata
   id="metadata256"><rdf:RDF><cc:Work
       rdf:about=""><dc:format>image/svg+xml</dc:format><dc:type
         rdf:resource="http://purl.org/dc/dcmitype/StillImage" /></cc:Work></rdf:RDF></metadata><defs
   id="defs254" /><sodipodi:namedview
   pagecolor="#ffffff"
   bordercolor="#666666"
   borderopacity="1"
   objecttolerance="10"
   gridtolerance="10"
   guidetolerance="10"
   inkscape:pageopacity="0"
   inkscape:pageshadow="2"
   inkscape:window-width="1366"
   inkscape:window-height="744"
   id="namedview252"
   showgrid="false"
   inkscape:zoom="1.3132196"
   inkscape:cx="206.97123"
   inkscape:cy="188.64258"
   inkscape:window-maximized="1"
   inkscape:current-layer="Layer_1"
   inkscape:window-x="0"
   inkscape:window-y="24" />
<g
   id="g236"
   transform="matrix(1.0507869,0,0,1.0507869,-56.959755,-21.938136)">
<path
   d="m 328.0625,57.75 c -0.67622,-0.0044 -1.35313,0.271875 -1.84375,0.78125 -10.954,11.423 -24.10375,19.45075 -39.09375,23.84375 -21.732,6.369 -44.3315,5.9465 -66.1875,5.5625 -5.762,-0.103 -11.72475,-0.2035 -17.59375,-0.1875 -10.334,0.039 -22.40725,0.76825 -33.65625,6.03125 -13.594,6.363 -24.20525,16.42125 -30.03125,28.40625 -3.592,-0.533 -7.25425,-0.8125 -10.90625,-0.8125 -40.794,0 -73.96875,33.202 -73.96875,74 0,40.796 33.17375,73.96875 73.96875,73.96875 15.164,0 29.74425,-4.5595 42.15625,-13.1875 11.708,-8.126 20.71225,-19.299 26.15625,-32.375 3.382,0.131 7.47575,0.1985 11.21875,-1.3125 0.2,-0.081 1.891,-0.7945 2.5,-2.4375 0.307,-0.835 0.25275,-1.73325 -0.15625,-2.53125 -0.273,-0.517 -0.68325,-1.1205 -1.15625,-1.8125 -0.103,-0.146 -0.1975,-0.30275 -0.3125,-0.46875 l 0.75,0 c 7.79,0.017 15.8155,0.0525 23.0625,-2.8125 0.614,-0.243 1.0915,-0.77825 1.3125,-1.40625 0.208,-0.631 0.1625,-1.309 -0.1875,-1.875 -1.292,-2.142 -3.375,-3.87225 -5.375,-5.53125 -0.533,-0.447 -1.0565,-0.8785 -1.5625,-1.3125 11.141,-0.081 21.7515,-0.561 31.9375,-5.75 0.818,-0.418 1.352,-1.14025 1.5,-2.03125 0.151,-0.875 -0.10375,-1.77025 -0.71875,-2.40625 -1.275,-1.33 -2.78375,-2.6885 -4.46875,-4.0625 12.195,-3.159 24.755,-8.96325 29,-12.78125 1.04,-0.934 1.50725,-2.5895 0.15625,-4.1875 -0.656,-0.784 -1.6725,-1.6525 -2.6875,-2.4375 10.987,-4.342 22.132,-9.70925 30.5,-19.65625 0.662,-0.78 0.842,-1.80825 0.5,-2.78125 -0.375,-1.054 -1.3375,-1.87575 -2.4375,-2.09375 -1.553,-0.299 -3.10425,-0.51625 -4.78125,-0.65625 6.77,-4.209 13.6265,-9.25375 19.6875,-16.34375 0.718,-0.841 0.926,-2.204 0.5,-3.25 -0.397,-0.946 -1.2875,-1.57425 -2.3125,-1.65625 -1.982,-0.154 -3.94775,-0.15 -5.84375,-0.125 -0.383,0.009 -0.75,0.0312 -1.125,0.0312 11.39,-9.917 23.51775,-25.252 23.71875,-45.625 0.01,-1.108 -0.75175,-2.126 -1.84375,-2.5 -1.033,-0.35 -2.1645,-0.01425 -2.8125,0.84375 -8.045,10.604 -17.92525,21.60525 -31.40625,25.78125 14.29,-10.809 23.14925,-24.138 26.40625,-39.75 0.218,-1.092 -0.343,-2.23125 -1.375,-2.78125 -0.3855,-0.20325 -0.78177,-0.309834 -1.1875,-0.3125 z m -0.125,2.28125 c 0.0321,-0.0089 0.0607,-3.2e-4 0.0937,0 0.19894,0.0019 0.40725,0.187 0.375,0.34375 -3.825,18.346 -15.2665,31.9845 -30.9375,42.1875 -0.631,0.41 -0.59225,1.857 0.21875,1.75 17.182,-2.094 29.444,-14.57525 39.75,-28.15625 0.175,-0.229 0.5625,0.0775 0.5625,0.3125 -0.184,18.853 -11.26025,34.74075 -26.15625,46.59375 -0.19,0.15 -0.351,1.11325 0.25,1.15625 3.758,0.294 7.491,-0.0803 11.25,0.21875 0.603,0.044 0.48725,0.9525 0.28125,1.1875 -6.795,7.934 -14.77725,13.42225 -23.78125,18.65625 -0.201,0.124 -0.0625,0.793 -0.0625,1.25 3.434,-0.047 6.766,0.11525 10.25,0.78125 0.479,0.098 1.018,0.73775 0.625,1.21875 -8.646,10.254 -20.55575,15.515 -32.59375,20.125 -0.11,0.056 -0.1597,0.682 0.0312,0.875 0.566,0.567 3.58475,2.61675 4.71875,3.96875 0.239,0.27 0.5458,0.6525 0.0937,1.0625 -4.282,3.842 -19.18175,10.63675 -32.71875,13.34375 2.741,1.94 5.66425,4.279 8.03125,6.75 0.234,0.244 0.24675,0.666 -0.15625,0.875 -10.703,5.451 -22.0345,5.456 -34.1875,5.5 -0.383,0 -1.5135,0.40925 -0.9375,1.15625 2.551,3.285 7.19275,5.75275 9.21875,9.09375 -8.001,3.159 -17.3615,2.59525 -26.0625,2.65625 -0.5,0.008 -0.40525,0.65775 -0.28125,0.96875 0.533,1.44 2.2495,3.59025 2.8125,4.65625 0.451,0.874 -0.7695,1.66875 -1.1875,1.84375 -3.469,1.391 -7.361,1.23475 -10.875,1.09375 l -1,0.0312 c -10.459,26.681 -36.4285,45.5625 -66.8125,45.5625 -39.608,0 -71.71875,-32.10475 -71.71875,-71.71875 1.5e-4,-39.61695 32.10975,-71.71875 71.71875,-71.71875 4.16,0 8.2295,0.34025 12.1875,1.03125 l 0.1875,-0.34375 c 5.87,-12.92 16.78,-22.546 29.5,-28.5 10.297,-4.824 21.55175,-5.80875 32.71875,-5.84375 28.199,-0.089 56.58725,2.69525 84.40625,-5.46875 15.445,-4.525 28.88475,-12.7375 40.09375,-24.4375 0.0261,-0.02725 0.0618,-0.05361 0.0937,-0.0625 z m -6.15625,9 c -0.05,-0.0021 -0.11967,0.0093 -0.1875,0.03125 -0.32558,0.10527 -0.85262,0.50275 -1.5625,1.1875 -12.153,11.678 -23.2145,15.826 -38.9375,20.125 -18.347,5.03 -51.466,3.71425 -78.25,4.28125 -26.233,0.559 -49.223,10.91975 -56.125,31.34375 l 5.6875,2.28125 c 7.696,-16.529 25.9485,-25.83025 50.4375,-26.78125 21.941,-0.857 60.23425,1.32775 80.28125,-4.28125 17.821,-4.978 30.757,-14.079 38.25,-26.5 0.65132,-1.075156 0.75634,-1.67283 0.40625,-1.6875 z m 11.9375,16.3125 c -0.10775,-0.01225 -0.28075,0.183 -0.46875,0.5625 -0.384,0.759 -2.3625,3.116 -2.9375,3.875 -7.888,8.719 -17.77275,14.9205 -29.59375,17.8125 -13.375,3.276 -26.47825,3.95825 -39.90625,4.40625 -1.142,0.035 -2.64625,0.006 -3.78125,0.0312 -9.55,0.269 -19.09975,0.30825 -28.71875,-0.34375 -7.89,-0.533 -15.71575,-1.19625 -23.59375,-0.90625 -10.037,0.375 -19.4025,3.5215 -28.3125,8.5625 -12.583,7.111 -21.74925,19.53375 -22.40625,33.96875 -0.286,6.262 0.8215,11.87475 -0.3125,18.96875 -1.126,7.06 -4.56875,13.9525 -7.84375,19.9375 7.404,-4.128 12.55425,-13.1785 13.40625,-23.4375 0.649,-7.746 0.41675,-15.49975 3.59375,-22.46875 3.75,-8.237 9.3755,-15.1625 17.3125,-20.1875 7.478,-4.726 15.437,-7.30975 23.875,-7.34375 23.037,-0.089 45.9995,0.76175 69.0625,-0.53125 12.945,-0.716 25.4985,-4.2375 37.1875,-10.1875 7.993,-4.091 15.80075,-9.072 20.71875,-17.125 0.482,-0.952 2.43575,-4.0935 2.71875,-4.9375 0.145,-0.4285 0.10775,-0.644 0,-0.65625 z m 1.375,1.03125 c -0.10818,0.04169 -0.23988,0.1845 -0.34375,0.46875 -0.29,0.759 -1.459,3.14175 -2.5,4.84375 -5.31,8.728 -12.933,14.35625 -22.125,18.53125 -0.451,0.201 -0.28925,1.6615 -1.15625,2.0625 -1.476,0.682 -3.168,0.67925 -4.75,1.15625 -0.602,0.175 -0.54125,0.97025 -1.03125,1.28125 -0.851,0.542 -2.006,0.0872 -2.625,0.53125 -3.792,2.789 -8.29,1.551 -12.5,2.25 0.06,3.169 -4.941,1.246 -7,2.625 -2.249,1.501 -1.94525,1.091 -5.28125,1.125 -1.04,0.018 -0.4725,1.52325 -1.3125,1.53125 -2.661,0.051 -6.10175,-0.79875 -8.09375,-0.21875 -0.351,0.103 -0.46125,1.78475 -1.15625,1.96875 -1.451,0.388 -2.989,0.552 -4.375,1 -1.074,0.333 0.34825,2.3605 -1.09375,2.8125 -2.436,0.781 -5.13275,0.23 -7.59375,1.625 -0.973,0.55 -2.39725,0.02 -3.65625,0.25 -1.066,0.192 -1.46475,1.3135 -0.59375,1.8125 0.788,0.444 2.098,0.34375 2.875,0.71875 1.809,0.892 3.309,2.1715 5.25,2.3125 8.437,0.602 16.473,-1.15275 24.875,-3.09375 11.052,-2.559 20.4005,-6.81575 29.6875,-13.59375 9.905,-7.235 19.066,-14.8245 23.25,-26.6875 0.567,-1.617 1.03125,-3.01225 1.40625,-4.53125 0.14875,-0.584375 0.024,-0.850732 -0.15625,-0.78125 z m -83.03125,35.40625 c -0.87662,0.002 -1.76675,0.2585 -2.65625,1.0625 -0.606,0.542 -1.7345,-0.628 -2.5625,-0.125 -0.673,0.405 -1.35175,1.473 -1.96875,1.75 -1.725,0.759 -3.39525,-1.00325 -5.28125,-0.78125 -0.55,0.068 -0.41775,1.27825 -0.96875,1.40625 -1.612,0.388 -3.05175,-1.37425 -3.96875,-0.78125 -1.4,0.9 -2.551,2.04925 -4.25,1.28125 -1.632,-0.733 -3.79725,-2.2815 -4.90625,-1.3125 -1.929,1.684 -4.294,-0.75075 -6,-0.0937 -1.434,0.567 -5.30525,1.50525 -2.65625,3.03125 4.679,2.725 12.30725,3.436 16.15625,3 7.972,-0.883 14.9,-2.046 21.875,-6.375 0.418,-0.265 0.099,-1.6325 -0.25,-1.6875 -0.825,-0.122 -1.68588,-0.37725 -2.5625,-0.375 z m -46.96875,2.34375 c -0.14466,-0.006 -0.291,0.0166 -0.4375,0.0312 -0.586,0.0585 -1.18225,0.26925 -1.78125,0.53125 -2.611,1.117 -5.97425,-0.78375 -8.65625,1.15625 -0.768,0.55 -1.16225,1.58675 -2.15625,1.84375 -1.233,0.32 -2.492,0.36425 -3.75,0.53125 -0.461,0.06 -1.31,0.354 -1.25,0.875 0.256,2.239 -1.81775,2.70625 -3.46875,3.28125 -1.608,0.572 -1.04275,2.70725 -1.09375,4.28125 10.669,0.132 21.73875,-1.37475 31.09375,-6.84375 -0.794,-3.177 -4.631,-3.7735 -7.25,-5.3125 -0.39375,-0.22875 -0.81603,-0.35803 -1.25,-0.375 z m 108.34375,3.21875 c -0.61081,0.003 -1.198,0.04 -1.6875,0.15625 -0.409,0.094 -0.6565,0.78375 -1.0625,0.84375 -2.512,0.414 -4.27575,1.6155 -6.84375,1.6875 -0.534,0.026 -1.70925,0.38575 -2.40625,0.71875 -0.925,0.444 -2.18025,-0.6315 -2.90625,0.1875 -0.472,0.524 0.32175,1.7825 -0.53125,2.1875 -2.24,1.044 -4.83825,-0.82225 -7.03125,0.59375 -0.626,0.418 0.7,1.8115 -0.125,2.0625 -3.151,0.99 -8.60525,-3.8885 -10.65625,1.1875 -0.323,0.793 -1.3235,0.408 -1.9375,0.25 -0.594,-0.159 -1.43125,-0.42 -1.78125,-0.125 -1.929,1.565 -3.07325,2.1965 -5.78125,1.4375 -0.691,-0.201 -0.674,1.828 -2,1.5 -1.531,-0.358 -3.00725,-1.46275 -4.40625,-0.84375 -0.645,0.29 -0.14675,2.00775 -1.09375,2.09375 -3.787,0.367 -7.6935,-0.21325 -11.1875,1.34375 -0.858,0.384 -0.95825,1.95625 -2.15625,2.15625 -2.666,0.435 -5.30625,0.1315 -7.78125,0.9375 -0.401,0.127 -0.32975,1.282 0.28125,1.375 1.6,0.239 3.396,-0.0143 4.625,0.71875 1.497,0.891 2.4705,3.44 3.9375,3.5 11.636,0.474 23.2115,-1.24475 34.4375,-4.96875 11.794,-3.911 22.62325,-9.29 32.15625,-17.625 0.584,-0.511 0.285,-0.73125 0,-0.90625 -0.177,-0.102 -2.23006,-0.47855 -4.0625,-0.46875 z m -183.40625,1.5 c -5.0944,0.0227 -10.243,0.6715 -15.53125,1.84375 -11.739,2.615 -21.6125,7.9185 -30.4375,15.9375 -6.846,6.228 -12.4305,13.0445 -16.6875,21.1875 -0.337,0.656 -0.89475,1.68 -0.34375,2.25 0.567,0.593 1.192,-1.08125 1.875,-0.53125 1.544,1.284 0.2945,3.5355 1.4375,5.0625 1.407,-9.729 8.81425,-16.90525 15.53125,-23.78125 17.587,-18.03 44.83125,-21.687 68.03125,-12.875 0.426,0.166 2.1605,-3.4365 1.5625,-3.6875 -8.5975,-3.7725 -16.94684,-5.4441 -25.4375,-5.40625 z m 92.625,2.75 c -0.67733,-0.005 -1.36425,0.0165 -2,0.0312 -3.093,0.073 -6.685,0.391 -8.625,2.75 -0.313,0.388 -0.15175,1.26725 -0.84375,1.53125 -2.257,0.866 -4.7475,-0.97775 -6.6875,1.53125 -1.169,1.522 -4.00275,-0.35625 -5.84375,0.71875 -0.409,0.239 -0.0115,1.27325 0.3125,1.40625 0.861,0.384 2.31075,0.27475 2.84375,0.71875 0.568,0.46 0.50625,1.13825 1.03125,1.53125 0.652,0.482 1.86525,0.6775 2.40625,1.4375 0.427,0.576 0.5745,1.74725 1.1875,1.78125 14.823,0.836 30.03075,0.822 44.09375,-4.625 -0.203,-0.441 0.299,-0.8965 -0.25,-1.4375 -1.344,-1.339 -3.099,-1.72675 -4.625,-2.46875 -5.494,-2.644 -10.9765,-3.5945 -17.1875,-4.5625 -1.67325,-0.21075 -3.78052,-0.33002 -5.8125,-0.34375 z M 181.34375,139 c -0.85114,-0.0151 -1.72675,0.0435 -2.59375,0.1875 -0.499,0.085 -0.875,0.88125 -1.25,1.40625 -0.934,1.318 -3.892,1.02525 -3.875,2.53125 0.047,2.733 -3.019,3.24275 -3.5,5.21875 -0.375,1.548 -1.1975,2.717 -1.3125,4.375 10.945,0.064 22.20225,-0.65275 31.90625,-6.21875 1.156,-0.674 -1.3725,-2.035 -2.5625,-2.5 -3.067,-1.203 -5.7,-3.008 -9.125,-3.75 -2.62725,-0.564 -5.13408,-1.20462 -7.6875,-1.25 z m -52.375,7.75 c -26.706,0 -48.375,21.63775 -48.375,48.34375 0,26.705 21.669,48.375 48.375,48.375 16.695,0 31.40075,-8.4565 40.09375,-21.3125 L 163.375,220.125 c -7.733,10.619 -20.26225,17.53125 -34.40625,17.53125 -23.49,0 -42.53125,-19.0735 -42.53125,-42.5625 0,-23.499 19.04125,-42.53125 42.53125,-42.53125 7.844,0 15.191,2.1185 21.5,5.8125 l 0,-6.6875 c -6.752,-3.14 -14.45,-4.9375 -21.5,-4.9375 z m 90.875,0.8125 c -4.01231,0.10073 -7.988,0.70575 -12.03125,1.125 -2.086,0.217 -4.20875,0.31675 -6.09375,1.09375 -0.807,0.341 -0.85025,1.97875 -1.78125,2.09375 -1.818,0.227 -3.63475,0.44475 -5.46875,0.59375 -0.593,0.051 -0.434,1.00625 -0.25,1.15625 1.189,0.951 1.5635,1.56325 2.0625,3.03125 0.042,0.149 1.27125,-0.007 1.53125,0.21875 1.191,1.032 2.03525,2.517 3.53125,2.875 7.188,1.728 14.133,2.17075 21.5,0.46875 0.784,-0.188 1.3555,-0.80825 2.0625,-0.90625 2.576,-0.329 5.28025,-0.49125 7.28125,-2.40625 1.417,-1.343 3.675,-0.942 5.25,-2 1.187,-0.802 2.68825,-0.8115 3.40625,-1.9375 0.583,-0.925 -0.61225,-1.33125 -1.28125,-1.53125 -5.233,-1.601 -10.2545,-3.36725 -15.6875,-3.78125 -1.35125,-0.1 -2.69381,-0.12733 -4.03125,-0.0937 z m 76.1875,1.375 c -0.95034,0.0532 -1.8495,0.5615 -2.8125,0.875 -1.202,0.401 -2.86525,-0.73675 -3.90625,0.0312 -1.548,1.138 -3.38075,0.916 -4.96875,0.75 -0.758,-0.082 -1.92075,-0.3375 -2.59375,0.1875 -0.427,0.337 0.17975,0.883 0.59375,1.25 -4.009,1.381 -8.43175,0.098 -12.21875,1.625 -0.29,0.125 -0.45725,1.489 -1.15625,1.625 -3.484,0.708 -6.7275,-0.6583 -10.1875,-0.0312 -0.874,0.166 -0.47725,2.04775 -1.40625,2.09375 -3.101,0.145 -6.12675,-0.117 -9.21875,-0.25 -3.685,-0.149 -7.0775,1.183 -10.5625,2.25 -1.032,0.311 -1.35975,1.959 -2.46875,2.125 -3.002,0.465 -6.03925,-0.0697 -8.78125,1.28125 -0.192,0.099 -0.201,1.018 0,1.125 3.361,1.892 7.213,3.22225 9.5,6.28125 23.388,-0.234 48.536,-3.289 68,-19.25 0.382,-0.316 -1.92325,-0.80375 -3.15625,-1.09375 -1.211,-0.277 -2.2205,-0.268 -3.6875,-0.75 -0.3275,-0.10675 -0.65197,-0.14273 -0.96875,-0.125 z M 174.375,154.96875 c -2.2773,-0.01 -4.47469,0.39181 -6.40625,1.5 -0.601,0.341 -1.07225,1.7675 -1.78125,2.8125 -0.521,0.789 0.4805,1.992 0.0625,2.5 -0.775,0.934 -1.73475,1.53325 -1.59375,2.53125 0.192,1.433 -0.173,3.62125 0.125,3.65625 10.314,1.126 20.7665,-0.71675 30.3125,-5.09375 0.132,-0.06 0.175,-0.692 0,-0.875 -3.161,-3.327 -7.60325,-4.33725 -11.90625,-5.53125 -2.80687,-0.78244 -5.88454,-1.4871 -8.8125,-1.5 z m -45.34375,0.9375 c -3.011,0 -5.94825,0.356 -8.78125,1 l -0.125,14.875 c 2.772,-1.065 5.77125,-1.65625 8.90625,-1.65625 2.001,0 3.95775,0.26275 5.84375,0.71875 l -1.59375,-14.6875 c -1.391,-0.149 -2.808,-0.25 -4.25,-0.25 z m 6.625,0.5625 1.65625,15.0625 c 0.286,0.094 0.56675,0.2015 0.84375,0.3125 l 11.6875,-9.96875 c -4.24,-2.666 -9.0615,-4.52225 -14.1875,-5.40625 z m -17.75,1.0625 c -4.794,1.412 -9.174,3.734 -13,6.75 l 12.28125,8.84375 c 0.201,-0.111 0.39375,-0.2095 0.59375,-0.3125 l 0.125,-15.28125 z m 86.5625,5.84375 c -0.70764,0.0108 -1.41925,0.0438 -2.125,0.0937 -0.995,0.073 -2.15725,0.14825 -3.03125,0.65625 -0.461,0.268 -0.9865,1.1965 -1.5625,1.5625 -0.9,0.584 -1.7205,0.31425 -2.3125,0.90625 -0.358,0.35 0.0242,1.288 -0.21875,1.625 -0.333,0.456 -1.057,0.52525 -1.5,0.78125 -0.465,0.242 -1.408,-0.14175 -2.125,0.15625 -0.717,0.295 -0.74575,0.98475 -1.21875,1.21875 -1.736,0.892 -4.26975,-0.155 -5.46875,-0.125 -0.618,0.009 -0.45,0.9965 -0.25,1.1875 0.776,0.768 3.0145,0.99 2.9375,2.125 -0.025,0.261 -0.672,1.1575 -1,1.0625 0.567,1.494 4.22125,2.29225 6.65625,2.90625 6.717,1.685 13.59825,0.2055 20.28125,-1.8125 2.436,-0.735 4.9705,-0.8465 7.3125,-2.0625 2.901,-1.501 6.381,-1.65525 8.5,-4.53125 -3.485,-2.128 -7.34925,-2.988 -11.28125,-4.125 -2.401,-0.698 -4.7505,-0.943 -7.1875,-1.25 -2.1495,-0.27525 -4.28333,-0.4073 -6.40625,-0.375 z m -53.6875,0.78125 -10.28125,8.75 c 2.223,1.155 4.27675,2.672 6.09375,4.5 L 147.75,178.5 c 1.907,-4.369 3.09125,-9.86875 3.03125,-14.34375 z m -47.71875,1.65625 c -3.493,3.119 -6.45525,6.84725 -8.65625,11.03125 l 11.25,9.8125 c 1.77,-4.983 5.096,-9.2535 9.375,-12.1875 L 103.0625,165.8125 z m 60.625,3.65625 c -1.583,4.299 -3.1965,8.577 -4.4375,13 2.132,0.847 4.35275,0.475 6.46875,0.125 5.792,-0.951 11.3965,-1.86325 16.4375,-4.90625 -2.261,-2.252 -5.32675,-3.41625 -8.21875,-4.78125 -3.319,-1.565 -6.642,-2.8615 -10.25,-3.4375 z m 108.46875,1.84375 c -0.22976,0.009 -0.44263,0.0715 -0.625,0.15625 -1.918,0.893 -4.15225,-0.119 -6.28125,0.375 -0.559,0.132 -0.1375,0.95125 -0.6875,1.03125 -2.089,0.299 -4.25275,-0.23575 -6.21875,0.53125 -1.531,0.593 -3.3775,-0.1005 -5.0625,-0.0625 -0.64,0.018 -0.646,0.90275 -0.75,1.59375 -0.089,0.604 -0.99,0.955 -1.25,0.875 -2.099,-0.619 -4.10775,-0.8745 -6.21875,-1.1875 -5.328,-0.781 -10.58675,-2.46275 -15.59375,-0.96875 -1.636,0.491 -3.8115,0.88125 -5.0625,2.15625 -0.485,0.49 -0.984,1.48175 -1.625,1.71875 -3.062,1.101 -6.3925,1.33125 -9.4375,2.40625 -0.931,0.333 -2.68425,1.60625 -2.03125,1.78125 12.784,3.259 25.2925,3.612 38.5625,1.125 9.726,-1.817 18.64,-4.58025 27,-9.28125 -0.55212,-0.69825 -3.11045,-2.31125 -4.71875,-2.25 z m -143.125,1.40625 c -3.126,0 -6.12525,0.655 -8.90625,1.875 l 0,0.65625 6.75,4.90625 c 0.571,-0.076 1.165,-0.13825 1.75,-0.15625 l 6.625,-5.65625 -0.0937,-0.75 c -1.966,-0.568 -4.017,-0.875 -6.125,-0.875 z m 9.3125,2.0625 -0.625,0.53125 0.875,8.09375 c 0.478,0.4 0.948,0.81625 1.375,1.28125 l 5.21875,-0.375 1.53125,-3.125 -1.96875,-1.96875 c -1.89,-1.884 -4.04725,-3.3535 -6.40625,-4.4375 z m -21.0625,1.3125 c -1.415,0.883 -2.7315,1.92 -3.9375,3.125 -2.508,2.518 -4.34025,5.5375 -5.40625,8.8125 l 8.875,-1.71875 c 0.281,-0.393 0.559,-0.768 0.875,-1.125 l 0.0625,-8.75 -0.46875,-0.34375 z m 18.28125,1.03125 -3.65625,3.125 c 1.476,0.285 2.87225,0.78775 4.15625,1.46875 l -0.5,-4.59375 z m -15.46875,1 -0.0625,4.875 c 1.169,-0.882 2.476,-1.58575 3.875,-2.09375 l -3.8125,-2.78125 z M 93.375,179.03125 c -1.727,3.851 -2.858,8.0445 -3.25,12.4375 l 14.3125,-2.78125 -11.0625,-9.65625 z m 94.46875,1.03125 c -0.547,-0.0207 -1.0685,0.0517 -1.53125,0.28125 -0.568,0.29 -0.65075,0.84275 -0.71875,1.09375 -0.618,0.243 -2.52575,0.26375 -2.96875,0.59375 -1.075,0.789 -0.87425,2.07825 -1.15625,2.15625 -2.443,0.609 -5.46925,-0.925 -7.78125,0.125 -0.623,0.285 -0.58725,2.03275 -1.40625,2.09375 -1.676,0.124 -3.525,-0.882 -5.125,-0.375 -0.29,0.09 -1.15075,0.2045 -1.71875,0.5625 -0.878,-0.451 -1.357,-0.5355 -2.5,-0.8125 -0.849,-0.21 -1.6515,0.3635 -2.6875,0.1875 -0.973,-0.166 -2.074,-1.491 -3,-1 -1.292,0.686 -2.70675,2.5445 -1.59375,3.4375 4.829,3.923 11.31825,4.0055 17.28125,4.4375 10.135,0.726 21.66525,-0.17125 29.03125,-7.65625 0.461,-0.474 -1.67975,-1.785 -3.09375,-2.25 -1.827,-0.602 -3.63475,-1.2595 -5.46875,-1.5625 -1.95825,-0.31575 -3.9215,-1.2503 -5.5625,-1.3125 z m 22.5625,5.09375 c -0.28211,-0.004 -0.559,0.0362 -0.8125,0.1875 -1.094,0.653 -1.42225,1.464 -2.53125,2.125 -0.758,0.457 -2.5185,0.385 -3.3125,0.875 -0.605,0.367 -0.7465,1.31275 -1.4375,1.59375 -1.282,0.542 -2.81825,0.1335 -4.03125,0.8125 -0.14,0.089 -0.23175,0.77025 0.28125,0.90625 8.632,2.375 16.87025,4.99175 25.65625,4.96875 8.617,-0.007 17.162,0.0203 25.625,-2.59375 0.674,-0.2 0.803,-0.58775 0.25,-1.21875 -1.188,-1.386 -2.824,-2.81425 -4.625,-2.28125 -1.459,0.427 -2.5965,-0.61725 -3.8125,-0.15625 -0.276,0.116 -0.4495,0.5535 -0.6875,0.5625 -2.277,0.034 -3.82725,-2.434 -6.15625,-2.25 -0.58,0.051 -0.5755,1.0755 -1.0625,1.1875 -1.441,0.34 -2.709,-1.40825 -4,-0.78125 -0.917,0.448 -1.57775,0.41725 -2.46875,0.15625 -1.144,-0.332 -1.98375,-1.326 -3.09375,-1.5 -0.968,-0.158 -1.93025,0.78575 -3.03125,0.46875 -2.75,-0.801 -4.89675,-3.39925 -7.84375,-2.78125 -1.09425,0.23625 -2.05992,-0.27056 -2.90625,-0.28125 z m -65.875,0.84375 -3.5625,0.125 c 0.802,1.145 1.6015,1.9695 2.0625,3.3125 l 1.5,-3.4375 z m -15.5,0.875 c -4.444,0 -8.03125,3.6165 -8.03125,8.0625 0,4.457 3.58625,8.0625 8.03125,8.0625 4.457,0.001 8.0625,-3.6055 8.0625,-8.0625 0,-4.445 -3.6055,-8.0625 -8.0625,-8.0625 z M 115.3125,189 l -5.71875,1.09375 4.5,3.90625 c 0.124,-1.774 0.54475,-3.446 1.21875,-5 z M 104.53125,191.0625 90,193.84375 c -0.017,0.376 -0.03125,0.751 -0.03125,1.125 0,4.074 0.63025,8.02975 1.78125,11.71875 l 14.90625,-1.0625 c -1.578,-3.3 -2.4375,-6.9145 -2.4375,-10.6875 0,-1.319 0.1195,-2.617 0.3125,-3.875 z m 2.65625,0.0312 c -0.218,1.267 -0.375,2.53475 -0.375,3.84375 0,3.634 0.874,7.119 2.5,10.25 l 5,-7.4375 c -0.025,-0.174 -0.0687,-0.34925 -0.0937,-0.53125 l -7.03125,-6.125 z m 45.0625,0 c -0.31177,0.1202 -0.286,0.68513 -0.125,0.875 12.562,14.861 30.00925,26.0115 49.15625,25.5625 0.447,-0.008 1.376,0.044 0.625,-0.875 -0.589,-0.732 -1.27325,-2.32225 -2.03125,-2.53125 -1.216,-0.342 -2.28925,-1.00975 -3.40625,-1.46875 -0.691,-0.282 -1.35175,0.78275 -2.09375,0.34375 -1.502,-0.9 -2.77075,-2.20625 -3.96875,-3.15625 -0.951,-0.761 -2.8655,-2.65625 -3.6875,-2.28125 -0.312,0.146 -0.75425,1.92975 -1.53125,1.34375 -1.873,-1.396 -3.09375,-2.9115 -4.84375,-4.4375 -0.793,-0.691 -1.5475,1.612 -2.5625,1.125 -2.333,-1.14 -3.29475,-3.66775 -5.09375,-5.46875 -2.094,-2.081 -4.08475,-4.491 -6.96875,-5.25 -0.482,-0.132 -0.19925,0.54625 -0.65625,0.90625 -2.2,1.719 -4.64025,-1.2105 -6.78125,-2.1875 -1.958,-0.908 -3.675,-2.342 -5.875,-2.5 -0.0593,-0.003 -0.11171,-0.0172 -0.15625,0 z m -74.375,1.2813 c -1.484,1.941 -0.592,4.9495 -3.125,6.0625 -0.691,0.311 -1.518,0.20425 -2,-0.59375 -0.474,-0.776 -0.2475,-2.01875 -1.0625,-2.21875 -1.352,-0.332 -1.3735,1.68125 -3.0625,1.28125 -0.167,-0.043 -0.4185,0.4595 -0.6875,0.5625 -0.874,0.306 -1.592,-1.27125 -2.25,-0.53125 -0.46,0.519 -0.75275,1.08775 -1.46875,0.84375 -0.593,-0.208 -1.0625,-1.34525 -1.0625,-1.28125 -0.461,31.448 24.634,60.0335 56.125,64.6875 4.551,0.674 9.027,0.95225 13.625,0.53125 9.844,-0.908 18.91,-3.54475 27.625,-8.59375 13.726,-7.951 23.25425,-20.3325 30.15625,-34.0625 -5.225,-1.774 -10.4135,-3.514 -14.6875,-5.125 0.358,4.426 4.70825,7.8765 6.78125,10.8125 0.077,0.106 -0.70475,0.332 -0.96875,0.375 -1.36,0.191 -2.73275,0.191 -4.09375,0 -2.482,-0.35 -5.0975,-1.193 -7.1875,-1.625 -14.49,21.849 -45.269,29.587 -68.375,15 -8.274,-5.218 -14.63975,-11.93 -18.71875,-20.5 -2.299,-4.823 -3.564,-9.7525 -4.75,-15.0625 -0.789,-3.562 -0.1475,-7.0605 -0.8125,-10.5625 z m 110.21875,1.78125 c -0.32915,0.0399 -0.66525,0.16884 -0.9375,0.375 -1.322,0.977 -2.8795,0.4535 -4.3125,0.4375 -0.567,-0.008 -1.059,1.18025 -1.75,1.40625 -1.962,0.631 -4.1305,-0.74125 -6.0625,0.21875 -0.052,0.026 -0.3285,0.4285 -0.3125,0.5625 0.133,1.217 1.484,1.3955 2.375,1.9375 3.314,2.026 6.70375,3.3865 10.21875,4.8125 5.255,2.128 10.65,3.735 16.375,4.25 6.436,0.576 15.1445,1.4712 20.4375,-0.0937 0.27,-0.086 -0.16075,-1.10875 -0.96875,-1.71875 -0.826,-0.64 -2.0465,-0.892 -2.5625,-1.25 -1.196,-0.849 -1.8445,-1.6555 -2.9375,-1.8125 -0.559,-0.086 -1.42925,0.68375 -1.90625,0.59375 -1.484,-0.268 -2.65975,-1.6105 -4.46875,-2.5625 -0.743,-0.384 -1.1025,1.3525 -1.6875,1.3125 -2.989,-0.169 -7.30175,-3.3395 -9.96875,-4.9375 -0.481,-0.277 -3.3395,0.30725 -3.8125,0.40625 -1.711,0.338 -3.894,-2.6815 -5.25,-3.3125 -0.63188,-0.29313 -1.41358,-0.61156 -2.15625,-0.625 -0.1114,-0.002 -0.20278,-0.0133 -0.3125,0 z m -40.5625,0.21875 c -0.99281,0.0865 -2.31975,1.211 -2.8125,2.1875 -1.071,2.133 -1.017,4.83025 0.625,6.65625 8.045,8.986 18.4765,16.43925 30.4375,18.40625 -0.893,-1.277 -1.833,-3.528 -2.375,-4.5 -0.427,-0.784 -1.52225,-0.3595 -2.28125,-0.8125 -0.563,-0.332 -0.824,-1.4895 -1.375,-1.9375 -0.418,-0.35 -1.44475,0.428 -1.96875,0.125 -0.734,-0.438 -1.29,-1.356 -1.875,-2 -0.64,-0.708 -1.21675,-1.50675 -1.84375,-2.21875 -0.597,-0.675 -1.249,-1.26275 -2,-1.71875 -0.409,-0.235 -1.2015,0.27925 -1.6875,0.15625 -0.874,-0.235 -1.37775,-1.748 -2.09375,-2.375 -0.41,-0.367 -1.03925,-0.4 -1.40625,-0.75 -0.367,-0.359 -0.45075,-1.04275 -0.84375,-1.46875 -0.508,-0.567 -1.2625,-0.76275 -1.8125,-1.21875 -0.764,-0.611 -1.32225,-2.16625 -1.90625,-3.03125 -0.576,-0.854 -1.442,-0.9355 -2,-1.6875 -0.7,-0.941 -1.0895,-2.549 -1.9375,-3.5 -0.21325,-0.24225 -0.51281,-0.34133 -0.84375,-0.3125 z m -32.34375,6.3125 -3.09375,4.59375 5.6875,-0.40625 c -1.092,-1.241 -1.96275,-2.6515 -2.59375,-4.1875 z m 26,3.125 0.65625,9.28125 c 1.659,-1.182 2.43475,-2.15075 3.71875,-3.71875 -1.52,-1.289 -3.117,-3.7975 -4.375,-5.5625 z M 139,206.1875 c -1.407,1.242 -3.04375,2.226 -4.84375,2.875 L 139.46875,212.5 139,206.1875 z m -18.84375,0.875 -9.3125,0.625 c 0.733,1.048 1.582,2.05175 2.5,2.96875 2.401,2.402 5.23375,4.158 8.34375,5.25 l -1.3125,-8.6875 c -0.072,-0.055 -0.14575,-0.10725 -0.21875,-0.15625 z m -12.65625,0.875 -14.96875,1.03125 c 1.586,4.141 3.8765,7.933 6.6875,11.25 L 107.5,207.9375 z m 15.46875,0.75 0.9375,6.09375 4.1875,-4.84375 c -1.818,-0.106 -3.543,-0.542 -5.125,-1.25 z m -13.84375,1 L 100.84375,222 c 2.935,3.066 6.35625,5.67125 10.15625,7.65625 l 9.8125,-11.3125 c -3.468,-1.216 -6.6385,-3.17275 -9.3125,-5.84375 -0.874,-0.874 -1.65,-1.8405 -2.375,-2.8125 z m 22.09375,0.25 -6,6.875 c 1.25,0.213 2.5285,0.34375 3.8125,0.34375 3.515,0 6.83725,-0.82225 9.78125,-2.28125 l -7.59375,-4.9375 z m 16.90625,1.15625 -1.53125,1.40625 c -0.973,0.968 -2.025,1.84 -3.125,2.625 L 156,223.25 c 1.546,-1.484 2.674,-2.857 3.625,-4 l -11.5,-8.15625 z m -6,5.9375 1.03125,14.40625 c 4.069,-1.565 7.7865,-3.83475 11.0625,-6.59375 l -12.09375,-7.8125 z m -2.34375,0.28125 c -3.31,1.6 -6.958,2.46875 -10.75,2.46875 -1.501,0 -2.9865,-0.1725 -4.4375,-0.4375 l 2.25,14.65625 c 0.725,0.034 1.4535,0.0625 2.1875,0.0625 4.125,0 8.0935,-0.6335 11.8125,-1.8125 l -1.0625,-14.9375 z m -17.4375,2.8125 -9.15625,10.5625 c 3.511,1.569 7.283,2.61875 11.25,3.09375 L 122.34375,220.125 z"
/>
</g></svg>
