<?xml version="1.0" encoding="UTF-8" standalone="no"?>
<!-- Generator: Adobe Illustrator 15.0.2, SVG Export Plug-In . SVG Version: 6.00 Build 0)  -->

<svg
   xmlns:dc="http://purl.org/dc/elements/1.1/"
   xmlns:cc="http://creativecommons.org/ns#"
   xmlns:rdf="http://www.w3.org/1999/02/22-rdf-syntax-ns#"
   xmlns:svg="http://www.w3.org/2000/svg"
   xmlns="http://www.w3.org/2000/svg"
   xmlns:sodipodi="http://sodipodi.sourceforge.net/DTD/sodipodi-0.dtd"
   xmlns:inkscape="http://www.inkscape.org/namespaces/inkscape"
   version="1.1"
   id="Layer_1"
   x="0px"
   y="0px"
   width="300"
   height="300"
   viewBox="0 0 299.99999 300"
   enable-background="new 0 0 2000 2000"
   xml:space="preserve"
   inkscape:version="0.48.3.1 r9886"
   sodipodi:docname="EDM.svg"><metadata
     id="metadata33"><rdf:RDF><cc:Work
         rdf:about=""><dc:format>image/svg+xml</dc:format><dc:type
           rdf:resource="http://purl.org/dc/dcmitype/StillImage" /></cc:Work></rdf:RDF></metadata><defs
     id="defs31" /><sodipodi:namedview
     pagecolor="#ffffff"
     bordercolor="#666666"
     borderopacity="1"
     objecttolerance="10"
     gridtolerance="10"
     guidetolerance="10"
     inkscape:pageopacity="0"
     inkscape:pageshadow="2"
     inkscape:window-width="1366"
     inkscape:window-height="744"
     id="namedview29"
     showgrid="false"
     fit-margin-top="0"
     fit-margin-left="0"
     fit-margin-right="0"
     fit-margin-bottom="0"
     inkscape:zoom="1.3350176"
     inkscape:cx="139.45369"
     inkscape:cy="158.57933"
     inkscape:window-x="0"
     inkscape:window-y="24"
     inkscape:window-maximized="1"
     inkscape:current-layer="Layer_1"
     showguides="true"
     inkscape:guide-bbox="true" /><path
     style="fill:#000000"
     d="M 141.6335,0.5421096 C 62.867211,5.0701196 0.3888908,70.37847 0.3888908,150.27329 c 0,82.8507 67.1558502,150.00782 149.9973692,150.00782 82.84181,0 150.00251,-67.15712 150.00261,-150.00782 C 300.38897,70.37847 237.91087,5.0701196 159.14423,0.5421096 L 176.51927,27.95907 c 7.4178,11.7126 8.6745,21.49069 8.6745,26.85329 0,20.63701 -18.29449,34.24379 -34.80751,34.24379 -16.50851,0 -34.80227,-13.60694 -34.80227,-34.24379 0,-5.36243 1.2515,-15.14069 8.66925,-26.85329 L 141.6335,0.5421096 z m 8.75276,2.69837 C 140.43452,28.04508 125.02569,37.53936 125.02569,55.30818 c 0,12.14351 10.02452,23.9618 25.36057,23.9618 15.33171,0 25.36056,-11.81829 25.36056,-23.9618 0,-17.76882 -15.40882,-27.2631 -25.36056,-52.0677004 z M 115.28127,18.50693 c -5.76194,8.01934 -13.24136,19.58522 -13.24136,35.77306 0,25.19108 21.30187,48.72213 48.34635,48.72213 27.04465,0 48.34631,-23.53122 48.34631,-48.72213 0,-16.18784 -7.4742,-27.75372 -13.2361,-35.77306 58.2833,15.48536 101.2335,68.61287 101.2335,131.76636 0,75.30084 -61.0427,136.34891 -136.34371,136.34891 -75.296669,0 -136.343689,-61.04807 -136.343689,-136.34891 0,-63.15349 42.95126,-116.28067 101.238699,-131.76636 z m -64.380029,91.48383 c -10.63684,0 -13.49188,9.78359 -13.49188,17.16627 l 0,50.78376 c 1.85757,26.01231 11.50851,46.85838 26.57666,64.19735 4.95374,5.70465 10.77263,3.26882 10.77263,-6.0022 l 0,-113.27439 c 0,-11.32596 -8.41259,-12.87079 -13.55974,-12.87079 l -10.29767,0 z m 26.77499,0.17224 0,20.25087 c 2.51646,0 4.97399,1.85753 4.97399,6.00741 l 0,45.28783 c 0,2.76254 -2.19949,5.91347 -5.03662,5.91347 l 0,51.7702 c 0,2.23075 -1.01037,6.24375 -3.93535,7.96987 -2.75829,1.62491 -5.21408,0.75686 -5.21408,0.75679 6.57014,7.17147 13.95206,13.10374 22.26552,17.85522 3.60124,2.05465 7.369649,-0.83834 7.369649,-5.64728 l 0,-72.7048 c -2.257739,0 -4.123239,-2.78869 -4.123239,-6.01263 l 0,-45.18867 c 0,-3.59655 2.625599,-6.00741 4.979209,-6.00741 l 0,-20.25087 -21.279079,0 z m 24.024429,0 0,20.25087 c 2.3496,0 4.80175,2.03202 4.80175,6.00219 l 0,45.19389 c 0,3.29826 -2.97128,6.01263 -5.82996,6.01263 l 0,74.77165 c 0,5.23483 -5.062709,6.15356 -5.062709,6.15356 10.127439,5.43241 19.618789,9.41033 31.472359,11.26322 5.49387,0.85704 9.80184,-2.66019 9.80184,-8.33 l 0,-104.85565 -9.78097,0 0,14.70275 c 0,4.43615 -0.54639,6.34666 -4.66605,6.34666 -4.22921,0 -4.36538,-2.6772 -4.43118,-6.69113 -0.0307,-1.71728 0,-42.67911 0,-44.56758 0,-3.97017 4.20542,-6.00219 6.69114,-6.00219 l 0,-20.25087 -22.99622,0 z m 78.68612,0 0,20.25087 c 1.91499,0 4.97399,2.63086 4.97399,6.17965 l 0,45.01643 c 0,3.44307 -2.7667,6.01263 -5.4855,6.01263 0,2.7446 -0.0174,75.11006 0,77.51177 0.0836,11.32634 -3.90398,13.91461 -3.90403,13.91466 7.35183,-1.70847 16.65583,-5.13709 23.45033,-8.05338 3.6014,-1.54141 4.9948,-6.20273 4.9949,-11.52942 0,-1.53728 -0.01,-70.32828 -0.01,-71.70272 -2.8594,0 -6.3415,-2.55197 -6.3415,-6.15354 l 0,-16.0128 c 0,-2.91613 0.9709,-6.00219 4.5721,-6.00219 2.9471,0 4.6034,2.74647 4.6034,6.68591 l 0,91.12892 c 0.1409,8.24337 -0.8935,9.82577 -1.2578,10.12022 7.1714,-4.13702 11.2946,-6.78258 16.9471,-11.92087 1.8928,-1.71677 2.5064,-4.20052 2.6775,-12.78205 l 0,-55.20451 c -2.8898,-1.7e-4 -4.807,-2.71345 -4.807,-6.06482 l 0,-20.93461 c 0,-4.98013 -4.2902,-7.04082 -4.2903,-7.04082 0,0 -0.5152,0.17286 2.4009,-2.23386 2.9206,-2.40238 2.2286,-8.23367 2.2286,-10.46469 l 0,-18.8782 c 0,-8.93243 -4.379,-11.16148 -10.5534,-11.84258 l -30.20409,0 z m 57.49059,0 c -6.5174,0 -8.6607,4.46609 -8.8363,8.58574 l 0,31.57675 c 0,3.43438 0.6863,4.80682 1.8894,5.66293 1.1992,0.86035 16.1299,12.87025 17.1662,13.72676 1.023,0.86064 1.023,1.37429 1.023,3.26727 l 0,11.32589 c 0,4.45736 -9.4372,5.14609 -9.6087,-0.86642 l 0,-16.12761 -11.3259,0 0,83.74881 c 13.9001,-15.45028 21.6218,-27.96677 28.3147,-43.93081 6.7811,-16.17013 6.0074,-31.75223 6.0074,-36.56116 0,-5.83247 -3.0923,-7.37872 -4.4625,-8.92502 0,0 -12.3569,-9.94976 -14.7549,-11.84257 -1.5112,-1.18132 -2.5784,-2.22346 -2.5784,-3.94057 l 0,-10.47513 c 0,-6.70174 9.4365,-6.52153 9.4365,0.16702 l 0,8.07425 13.2205,0 0,-23.00144 c 0,-7.72506 -3.3463,-9.78393 -9.5304,-10.46469 l -15.9606,0 z m -102.92457,0.1357 0,20.11517 c 5.84945,0 8.23605,2.43119 8.23605,6.00219 0.12292,3.08699 0,45.19389 0,45.19389 0,3.44323 -1.32725,6.01263 -3.77356,6.01263 l 0,84.3334 c 0,7.81308 -5.82473,9.21728 -5.82473,9.21728 4.66396,0.55333 11.66012,0.84031 16.50863,0.84031 5.53797,0 10.53572,-0.22915 16.31553,-1.16912 6.06941,-0.98846 10.75694,-5.28365 10.75698,-11.63382 l 0,-102.46001 -11.15365,0 c 0,0 0.004,7.48718 0,14.00859 -0.005,5.16485 -0.54631,7.16609 -4.66084,7.16609 -4.24224,0 -4.37113,-2.84885 -4.44161,-7.16609 -0.009,-0.70269 -0.005,-10.70269 -0.005,-18.4189 l 10.69435,0 0,-14.76017 -10.69435,0 c 0.004,-5.17354 0.005,-9.76059 0.005,-10.34465 0,-3.94829 0.73237,-6.99386 5.37066,-6.99386 3.77677,0 4.28504,3.43576 4.28504,6.35189 l 0,6.64938 10.77262,0 0,-32.9442 -42.39112,0 z m -79.176739,19.9064 c 2.52052,0.0265 5.02297,1.75241 5.25062,5.24539 l 0,46.79101 c 0,7.56288 -10.63693,7.91123 -10.63693,0.34445 l 0,-46.7962 c 0,-3.60558 2.5405,-5.49381 5.14101,-5.57943 0.0813,-0.003 0.164,-0.006 0.2453,-0.005 z m 146.991109,0.34447 c 2.0751,-0.0675 4.2039,1.4437 4.4103,4.60342 0.2331,3.56198 0,2.9821 0,8.47614 0,6.04303 -8.5075,6.31965 -8.5075,0.27662 l 0,-8.48657 c 0,-3.15772 2.022,-4.80213 4.0972,-4.86961 z"

/></svg>
