<?xml version="1.0" encoding="UTF-8" standalone="no"?>
<!-- Created with Inkscape (http://www.inkscape.org/) -->

<svg
   xmlns:dc="http://purl.org/dc/elements/1.1/"
   xmlns:cc="http://creativecommons.org/ns#"
   xmlns:rdf="http://www.w3.org/1999/02/22-rdf-syntax-ns#"
   xmlns:svg="http://www.w3.org/2000/svg"
   xmlns="http://www.w3.org/2000/svg"
   xmlns:sodipodi="http://sodipodi.sourceforge.net/DTD/sodipodi-0.dtd"
   xmlns:inkscape="http://www.inkscape.org/namespaces/inkscape"
   id="svg2403"
   sodipodi:version="0.32"
   inkscape:version="0.48.3.1 r9886"
   width="300"
   height="300"
   xml:space="preserve"
   sodipodi:docname="Florida_Panthers.svg"
   inkscape:output_extension="org.inkscape.output.svg.inkscape"
   version="1.0"><metadata
     id="metadata2408"><rdf:RDF><cc:Work
         rdf:about=""><dc:format>image/svg+xml</dc:format><dc:type
           rdf:resource="http://purl.org/dc/dcmitype/StillImage" /></cc:Work></rdf:RDF></metadata><defs
     id="defs2406" /><sodipodi:namedview
     inkscape:window-height="715"
     inkscape:window-width="1280"
     inkscape:pageshadow="2"
     inkscape:pageopacity="0.0"
     guidetolerance="10.0"
     gridtolerance="10.0"
     objecttolerance="10.0"
     borderopacity="1.0"
     bordercolor="#666666"
     pagecolor="#ffffff"
     id="base"
     showgrid="false"
     inkscape:zoom="1.7071594"
     inkscape:cx="295.87475"
     inkscape:cy="150.81251"
     inkscape:window-x="0"
     inkscape:window-y="24"
     inkscape:current-layer="svg2403"
     showguides="true"
     inkscape:guide-bbox="true"
     inkscape:window-maximized="0" /><path
     style="fill:#000000;fill-opacity:1;fill-rule:nonzero;stroke:none"
     d="m 151.36086,1.3781356 -5.65803,5.327641 c -10.40399,0.83749 -22.14542,5.5695924 -27.7946,8.5077074 -3.2929,0.170326 -16.31332,2.395374 -16.31332,2.395374 L 78.921457,16.782867 c 0,0 7.556868,17.980977 14.909136,31.635453 l -2.106277,1.81718 c 0.449289,4.391417 0.9774,8.36783 1.073788,12.348561 l -14.000546,-5.451537 0.247797,2.230175 13.835348,5.410242 c 0.07283,2.4825 0.106322,4.78551 -2.147576,7.68171 l 6.897024,-1.48678 c -0.428565,1.95036 -0.935229,3.4903 -1.445484,4.74945 l -14.454841,-3.63436 0.412995,2.31277 13.133256,3.26267 c -0.950837,1.75752 -1.734581,2.47797 -1.734581,2.47797 l 3.510462,3.88216 c -1.160785,0.5829 -2.186441,1.20807 -3.097466,1.85848 l -9.085901,-1.28029 0.660793,2.31278 6.194932,0.86729 c -4.581333,4.53769 -4.642446,9.84381 -3.716959,12.926749 -4.116255,0.0851 -8.151047,1.915 -12.513763,6.27754 -0.312206,-0.88007 -5.007816,-16.779139 -5.699337,-17.263209 -1.195855,-0.83698 -13.124629,-2.02577 -14.991736,-1.61069 -1.365669,0.30352 -12.261403,8.58465 -12.72026,10.57269 -0.10237,0.44352 1.174327,3.441189 1.445484,3.799559 0,0 -9.736683,0.26858 -10.985679,0.94988 -1.923315,1.04904 -9.746694,10.01902 -9.746694,11.56388 0,1.24899 2.064978,4.66685 2.064978,4.66685 0,0 -9.1842,1.91548 -10.490085,3.22136 -0.468906,0.46891 -5.5341386,10.33243 -5.5341386,12.26597 0,1.3626 3.0148656,5.53414 3.0148656,5.53414 -3.7744106,0.97119 -7.5865666,2.65724 -7.8882126,3.22136 -0.489686,0.9155 -2.973567,8.68665 -2.973567,10.73788 0,0.18583 11.5435156,19.68639 12.3898636,20.81497 0.702422,0.93645 7.261361,1.52145 7.599116,1.44549 3.534253,4.57035 8.683848,8.10806 17.924004,9.95319 -1.476211,-0.90835 -8.053449,-11.01205 -8.507707,-12.88546 l 14.826538,-0.78469 c 5.546306,1.32003 11.439099,1.75977 19.699883,-0.4543 0.681301,0.34066 3.226737,0.62189 3.964757,0.5369 2.023807,2.71669 4.64927,4.93687 8.21861,6.52533 2.839324,1.26347 10.821076,2.93916 25.316623,9.41629 l -0.0413,-2.18887 c 0,0 2.29227,0.34086 2.97357,0.45429 1.93047,3.29308 11.55393,13.86781 13.71145,21.02147 0,1.36261 -0.3717,0.97125 -0.3717,4.37775 0,6.80809 1.34008,18.18107 5.20374,24.73843 2.1461,3.64207 4.50165,4.83205 4.50165,4.83205 0.30097,0.6021 0.26165,1.41944 -1.03248,7.02092 -0.6188,2.67752 -1.02564,4.6643 -1.36289,5.45154 -0.6813,1.58965 -1.94108,2.54162 -1.94108,4.54295 0,4.85428 1.98238,5.78194 1.98238,5.78194 0,0 0.008,1.02629 0.66079,1.69328 0,0 0.36913,-0.80676 0.4543,-1.44548 0,0 0.43331,0.11458 0.78469,0.0826 0.35121,-0.0318 0.78469,-0.3304 0.78469,-0.3304 0,0 0.26784,0.57363 0.74339,0.94989 0.47555,0.37625 1.07379,0.3717 1.07379,0.3717 0,0 -0.0657,1.21719 0.74339,1.94107 0,0 -0.038,-0.62874 0.5369,-1.69328 0.38323,0.19162 1.36805,-0.0106 1.65198,-0.12383 0.2681,-0.10718 0.58612,-0.82599 1.23898,-0.82599 1.70326,0 0.33068,0.80313 1.69329,2.02368 0,0 0.34601,-1.53343 0.74339,-1.81718 0,0 0.90036,-0.0533 1.40419,-0.2891 0.50398,-0.2359 0.47459,-0.64758 0.90859,-0.78469 0.26026,-0.0821 0.79788,0.003 0.82599,0.33039 0.0851,0.99351 0.66079,1.48679 0.66079,1.48679 0,0 0.11366,-1.29078 0.45429,-1.85848 0.34066,-0.5677 1.96183,-0.72313 2.18888,-2.31278 0.22705,-1.58964 -1.32137,-7.14482 -0.86729,-7.14482 0.45425,0 1.32158,1.52809 1.32158,1.52809 0.51081,-2.72538 -1.78361,-5.16522 -1.98237,-5.53414 0,-1.81669 -1.57095,-7.53371 -2.89097,-9.2511 2.49817,-1.33433 2.71295,-5.50766 3.13876,-2.27148 0.42582,3.23618 4.07384,13.49578 7.31002,18.8326 -0.5677,2.44127 -1.91796,8.5678 -2.23017,12.05946 -1.44777,1.90186 -3.03309,4.38841 -3.79956,6.77313 -3.44909,1.63922 -3.30396,4.70815 -3.30396,4.70815 0,0 1.69584,-1.59907 1.61068,-1.07379 -0.34065,1.24899 -0.99119,3.24884 -0.99119,5.07984 0,1.83101 1.19769,3.05617 1.19769,3.05617 -0.1278,1.08583 0.005,2.40219 0.74339,3.09747 0,-1.42392 0.55424,-1.3811 0.70209,-1.52809 0.4684,-0.466 0.94825,-0.54691 1.15639,-0.0826 0.36909,0.82319 1.52812,1.65972 1.98238,1.85848 -0.0213,1.93746 0.78469,2.39538 0.78469,2.39538 0,0 0.22009,-1.21848 0.45429,-1.89978 0.55356,0 1.40807,0.238 1.73458,-0.5782 0.53227,0.89422 1.53656,0.90988 1.94108,0.8673 -0.1278,1.25615 0.70209,1.81718 0.70209,1.81718 0,0 0.17037,-1.14357 0.4543,-1.56939 0.9109,0 1.61862,-0.46164 2.18888,-0.99119 0,0 1.06866,0.0349 1.23898,0.2478 0,0.93679 0.78469,1.52808 0.78469,1.52808 l 0.413,-1.77588 c 0.65252,-0.30811 3.09746,-0.95549 3.09746,-3.46916 0,-2.04391 0.6467,-14.54541 1.11509,-15.65253 0,0 5.14385,4.83205 12.72026,4.83205 3.3302,0 10.59907,-1.86801 16.39592,-7.59912 3.25952,-3.22238 5.53636,-7.70333 7.10353,-12.63766 1.20828,-3.80439 1.65198,-12.1355 1.65198,-17.8414 l -0.90859,0.66079 0.66079,-6.69053 -0.99119,0.7847 -0.61949,-5.32765 -1.03249,0.7021 -0.99119,-3.67566 -1.03249,0.57819 -0.94989,-3.55176 -1.03249,0.86729 -1.36288,-3.51046 -1.36289,1.77588 -1.69328,-2.56057 -0.86729,4.08865 -1.28029,-0.49559 -0.0826,4.54295 -1.61069,-0.5369 0.0826,4.21256 -1.11509,-0.2065 1.98238,5.78194 -1.19768,0.0826 c 0.62986,1.05737 1.25759,2.06637 1.69328,3.30396 1.27777,3.62895 1.98238,9.9781 1.98238,13.54625 0,13.2428 -9.40079,15.52863 -13.58756,15.52863 -6.13172,0 -12.05946,-6.64923 -12.05946,-6.64923 0,0 0.2919,-4.64694 1.11508,-8.5077 0.24238,-0.46601 1.48134,-2.44162 3.05617,-4.87335 1.51897,-2.34555 3.33566,-5.12918 4.79075,-8.01211 1.0831,-2.1461 1.94229,-4.28228 2.47797,-5.98844 0.54998,-1.7518 0.76891,-3.05339 1.07379,-3.55176 3.61278,-5.90365 4.57058,-10.67189 4.99724,-18.62609 0.26759,-4.99139 -0.0106,-8.78211 0.12384,-9.2924 0.34184,-0.62238 0.91672,-1.22256 1.40418,-1.98238 4.09053,-6.3746 4.14175,-6.35521 10.24229,-14.20704 l 5.03854,-0.0826 0.0412,1.36288 c 0.54181,-0.32055 4.18419,-2.12729 11.48127,-4.66685 5.03329,-1.7518 11.71941,-3.71238 14.53744,-5.03854 2.45593,-1.15549 5.80767,-3.07797 11.35738,-7.84692 1.27744,-0.11365 2.55664,-0.33039 2.64317,-0.33039 4.20124,1.70309 8.1135,2.39537 11.60517,2.39537 3.49167,0 8.38381,-1.23898 8.38381,-1.23898 6.15301,-0.0426 15.15693,0.61949 15.15693,0.61949 0.63873,0.63872 -4.8314,9.75519 -8.5077,13.13325 13.86738,-2.66832 18.1718,-9.95319 18.1718,-9.95319 2.16125,0.22755 6.68274,-0.57041 7.84691,-1.73458 0.22445,-0.22438 11.8531,-20.2149 11.8531,-20.77374 0,-0.22823 0.008,-0.70066 -0.12383,-1.36288 -0.56889,-2.86028 -2.20706,-8.77369 -2.60187,-9.1685 -1.00067,-1.00066 -6.90756,-3.0123 -7.92951,-3.09747 0.0284,-0.65286 3.01486,-4.53644 3.01486,-5.57543 0,-1.53294 -3.94708,-11.27506 -5.90583,-12.63767 -1.95875,-1.3626 -10.20099,-2.89096 -10.20099,-2.89096 0.0673,-0.11815 2.10628,-4.38332 2.10628,-4.87335 0,-1.47161 -8.7314,-10.93225 -9.5815,-11.35738 -1.70326,-0.85163 -9.49404,-1.05506 -11.02698,-0.99119 0,0 0.37089,-1.054 0.74339,-2.10627 0.23131,-0.653879 0.5369,-1.297269 0.5369,-1.693279 0,-1.6416 -11.16939,-10.12873 -12.43116,-10.61399 -1.66068,-0.63872 -14.8286,0.91913 -15.44604,1.94108 -0.61743,1.02196 -4.12995,12.348569 -4.12995,12.348569 -3.20774,-4.811699 -7.59879,-7.678879 -13.09196,-6.401429 -0.55989,-3.26198 -2.17241,-6.0344 -4.21255,-8.21861 l 6.56663,-0.90859 0.57819,-2.23018 -9.0859,1.28029 c -1.0045,-0.79787 -2.07592,-1.45634 -3.13876,-1.98238 l 3.30396,-3.92346 c -0.5255,-0.77476 -1.04271,-1.45652 -1.56938,-2.31277 l 13.29845,-3.30397 0.2891,-2.23017 -14.62004,3.63436 c -0.52729,-1.19046 -1.02891,-2.72879 -1.56939,-4.91465 l 6.93833,1.32159 c -1.34457,-1.32454 -1.87392,-4.11235 -1.98238,-7.26872 l 14.00055,-5.451543 0.24779,-2.312775 -14.24841,5.575438 c 0.0981,-5.288376 1.04441,-10.932352 1.19769,-12.513761 l -2.14758,-1.775881 c 5.19493,-8.771759 13.60582,-27.61995 14.82654,-31.594153 l -22.71475,0.619493 c 0,0 -13.32436,-2.104995 -16.35462,-2.147577 -8.65833,-5.152345 -25.01378,-8.6941954 -27.75329,-8.6729044 l -5.41025,-5.286342 z m -0.0826,2.767069 4.46035,4.253854 c 0.50042,0.02658 17.86699,2.9469914 26.30781,7.8469144 1.70326,3.179465 15.28083,24.366732 15.28083,24.366732 l 6.73183,-3.014867 -5.24505,5.905835 5.98844,-0.702092 -2.14758,3.593061 6.02974,4.54295 c 0,0 -1.14035,6.63946 -1.15639,12.637659 l -29.44658,11.52258 c -0.94792,-1.14931 -1.69328,-1.85848 -1.69328,-1.85848 l -2.80837,-1.77588 -3.75826,4.00605 c 1.53294,1.07867 5.28634,4.00718 5.28634,9.4576 0,5.22337 -2.2334,8.97319 -6.31883,10.24229 -1.37742,0.42769 -2.96715,0.45429 -4.74944,0.45429 -7.0685,0 -11.31608,-2.93227 -11.31608,-2.93227 l 0,-1.56938 c 0,0 10.09044,-7.92776 11.93557,-11.64647 l 7.72301,-8.83811 -5.45154,-4.46035 2.18888,-1.69328 -3.75826,-4.00605 13.38105,-4.377756 3.51047,-7.764315 6.02973,-2.72577 0,-1.77588 -25.11012,5.534139 -1.77589,5.327642 -3.88215,0.495594 5.32764,3.840858 -7.64042,5.368938 0.3304,0.6608 7.35132,-2.68447 1.98238,2.06497 -7.97082,5.78194 0.6195,0.61949 7.02092,-2.76707 3.79956,3.55176 -3.67566,2.89097 -13.33975,4.87335 -13.33976,-4.95595 -2.64317,-1.61068 4.87335,-4.17125 4.74945,2.18887 0.70209,-0.61949 -6.69053,-5.07984 2.14758,-2.27148 5.78193,2.18888 0.4956,-0.6608 -7.72302,-5.286339 5.32764,-3.840858 -3.92345,-0.536894 -1.85848,-5.41024 -27.7946,-6.153633 -1.32159,-5.49284 6.81443,-4.790747 1.69328,2.106277 -4.87334,3.840858 0.70209,2.601871 22.79735,1.651982 4.29515,4.832047 1.36289,-1.651982 -5.12115,-8.342508 3.01487,-11.109578 -1.48678,-2.064978 5.36894,-6.40143 3.42786,6.194932 -3.63436,5.905836 4.12996,3.510461 1.44548,18.956492 -2.06498,2.147577 3.18007,5.534134 3.34526,-5.534134 -2.10628,-2.188876 0.7021,-19.823783 -2.68447,-3.510461 2.72577,-6.277532 c -1.04325,-0.809045 -1.94108,-2.106021 -1.94108,-3.716959 0,-1.192277 0.24779,-1.141042 0.24779,-2.106277 0,-0.965064 -0.35094,-1.445728 -0.12383,-2.354074 0.22705,-0.908345 3.54695,-1.156387 5.53414,-1.156387 1.36891,0 5.2858,0.25851 7.97081,0.412995 1.21254,0.06983 2.14831,0.04717 2.51928,0.0826 -2.35629,-2.072349 -12.80286,-4.171254 -12.80286,-4.171254 l -3.84093,-3.8408584 -2.35407,0.536894 2.93227,-2.808369 z m -35.35242,16.6437184 -6.40143,10.200988 -3.18006,-1.115088 9.58149,-9.0859 z M 83.918692,22.8539 c 3.860766,3.250321 11.432972,9.171909 21.269268,13.174555 l -0.90859,1.486784 -9.994492,-4.419051 -1.445484,1.858479 4.790747,5.368941 -4.419051,-0.578193 3.551761,6.194932 -1.362885,1.115087 C 93.35607,44.24507 83.87612,23.535201 83.918702,22.8539 z m 134.595228,0 c -0.80905,2.480449 -8.89023,20.116289 -11.27478,24.118935 l -1.52808,-1.115087 3.59306,-6.153633 -4.46035,0.619493 4.74945,-5.327641 -1.36289,-1.899779 -10.03579,4.50165 -1.03249,-1.528083 c 11.4118,-4.68395 19.36468,-11.470019 21.35187,-13.215855 z m -55.2588,1.734581 -1.40418,2.106277 2.97357,11.192177 -5.12115,8.342509 1.36289,1.651981 4.50165,-4.708148 11.15088,-2.271475 -4.50165,-3.758259 -8.96201,-12.555062 z m 17.38711,4.749448 -1.32158,1.81718 9.49889,7.681716 -0.74339,2.643171 3.96476,-0.454295 0.37169,-3.303964 -11.77037,-8.383808 z m -69.54844,16.189422 3.05617,0.0826 6.07103,2.80837 3.38657,7.681715 13.58755,4.419056 -3.88216,4.00605 2.23018,1.56938 c -1.50517,1.26842 -3.43483,3.03065 -5.24505,4.37776 -0.0669,0.0498 -0.1019,0.0777 -0.16519,0.12383 l 9.2924,9.0446 c 3.71871,5.98984 10.36618,11.56387 10.36618,11.56387 l -0.0412,1.52809 c -0.38323,0.38323 -4.77727,2.93226 -11.39868,2.93226 -2.00813,0 -3.72302,-0.16317 -5.07984,-0.70209 -4.95818,-1.96948 -5.90584,-6.99429 -5.90584,-9.95319 0,-4.5562 2.71017,-7.27954 5.28634,-9.66409 l -3.71696,-3.96476 c -0.5711,0.35064 -0.9709,0.56937 -1.40418,0.86729 -0.82977,0.57049 -1.92388,1.51356 -3.01487,2.72577 l -4.00605,-1.56938 c 0.0359,-0.0584 0.0865,-0.10837 0.1239,-0.1652 2.10777,-3.20314 4.95882,-5.32945 6.69052,-7.55782 l -0.0413,-1.77588 -4.74945,-1.65198 -4.04735,-10.572683 -5.03855,-3.138766 -7.72301,7.764315 2.27147,7.970814 -1.85848,-0.70209 -4.12995,-8.259913 9.0859,-9.787993 z m 83.30119,1.238987 -3.51046,1.982378 5.94714,7.475218 -3.55177,10.861777 1.89978,-0.90859 c 0.17033,-0.87292 5.32765,-10.985676 5.32765,-10.985676 l -6.11234,-8.425107 z m -66.78137,2.72577 1.40419,0.289097 c -0.29824,0.505519 -0.4956,1.063413 -0.4956,1.693281 0,2.265502 2.12483,4.129955 4.70815,4.129955 1.66238,0 3.03514,-0.79496 3.79956,-1.941079 l 0.4956,1.610682 c -1.06625,0.91056 -2.54098,1.486784 -4.29516,1.486784 -3.3629,0 -6.07103,-2.370198 -6.07103,-5.286342 0,-0.712467 0.15929,-1.362396 0.45429,-1.982378 z m 47.28799,0.0826 c 0.27047,0.597845 0.41299,1.218819 0.41299,1.899779 0,2.916144 -2.46575,5.286342 -6.07103,5.286342 -1.70037,0 -3.2319,-0.59478 -4.33645,-1.569383 l 0.49559,-1.569383 c 0.82812,1.180864 2.31353,1.982379 4.00606,1.982379 2.58333,0 4.46035,-1.864625 4.46035,-4.129955 0,-0.503656 -0.19914,-1.038132 -0.5369,-1.569383 l 1.56939,-0.330396 z m -3.59306,2.354074 c 0.41542,0 0.74339,0.245366 0.74339,0.660793 0,0.415427 -0.32797,0.743392 -0.74339,0.743392 -0.41543,0 -0.7434,-0.327965 -0.7434,-0.743392 0,-0.415427 0.32797,-0.660793 0.7434,-0.660793 z m -36.50881,0.330396 c 0.41543,0 0.7434,0.245366 0.7434,0.660793 0,0.415427 -0.32797,0.743392 -0.7434,0.743392 -0.41542,0 -0.74339,-0.327965 -0.74339,-0.743392 0,-0.415427 0.32797,-0.660793 0.74339,-0.660793 z m 50.01376,2.354075 -4.70815,7.557819 -4.91465,1.73458 0.99119,1.23899 6.44273,-0.4543 4.70815,-7.020923 -2.51927,-3.056166 z m -89.909119,8.796799 25.564419,9.99449 -0.1652,0.3717 -0.70209,1.48678 3.55176,1.40419 c -1.03496,1.46138 -1.95093,3.18938 -2.43667,5.16244 l -2.97357,-0.74339 -0.49559,2.02368 3.13876,0.78469 c -0.0265,0.33392 -0.0413,0.6881 -0.0413,1.03249 0,1.63292 0.20774,3.25036 0.6195,4.79075 l -3.26267,-0.4543 0.413,2.10628 3.59306,0.49559 c 1.92477,4.39561 6.03227,7.68172 13.21585,7.68172 0.0685,0.24322 0.20945,1.127118 0.4956,2.395368 0.19566,0.867 0.44653,1.89152 0.82599,3.01487 0.95598,2.81076 2.61555,6.1408 5.49284,8.5903 0.2873,0.24483 0.55466,0.4763 0.86729,0.7021 0.32703,0.23811 0.63531,0.44673 0.99119,0.66079 0,0 -1.80644,-6.80042 -0.3304,-13.67015 0.76647,2.55487 1.16457,3.83365 2.72577,5.90583 l 1.69329,-3.88215 1.73458,2.35407 1.77588,-2.35407 2.02367,2.51927 1.23899,-2.39537 1.69328,3.67566 c 0,0 2.15294,-1.7872 2.89097,-5.98844 0.11339,1.19228 1.93026,8.21204 -0.45429,13.91795 0.96523,-1.16383 5.6999,-1.73448 8.4251,-13.17456 l 0.413,-2.312768 c 0,0 9.74274,0.768568 13.38105,-7.59912 l 16.72632,-2.31277 -20.31938,22.260448 c 0.005,0.33929 -0.13366,1.31234 -0.41299,2.68447 -0.20826,1.02358 -0.51697,2.31991 -0.86729,3.71696 -0.004,0.0151 0.004,0.0263 0,0.0412 -0.1089,0.43371 -0.2088,0.82163 -0.3304,1.28028 -0.12634,0.47954 -0.27324,0.98531 -0.413,1.48679 -0.14693,0.52448 -0.29331,1.02771 -0.45429,1.56938 -0.0378,0.1278 -0.044,0.2432 -0.0826,0.37169 l -0.0412,0 c -1.55807,5.17184 -3.70736,10.91066 -6.23624,14.33095 l -1.89977,-2.56058 c -0.49684,1.34847 -2.70039,6.33086 -4.46036,7.76432 0,0 -1.26183,-1.1472 -2.56057,-3.51046 -0.36194,1.23486 -2.43232,4.36956 -3.26266,5.32764 l -2.31278,-3.38656 -2.97356,4.95594 -2.80837,-5.03854 c -0.51796,0.55356 -2.51928,3.59306 -2.51928,3.59306 l -3.05616,-5.16244 c 0,0 -2.19607,3.09233 -2.64317,3.26266 -0.68131,-0.78776 -2.35513,-2.68097 -4.37776,-7.59912 -1.32009,1.38397 -2.02374,2.43674 -2.02374,2.43674 -0.66001,-0.92248 -1.39961,-2.09404 -2.02368,-3.42786 -2.9187,-6.23835 -5.29407,-16.05191 -5.49284,-18.337 l 1.73458,3.34526 0.82599,-2.84966 3.09747,5.45154 0.94989,-2.27148 -4.46035,-14.24834 c 0,0 -4.71769,-2.74512 -7.14482,-8.961998 -0.86723,-0.7929 -2.08652,-2.43035 -2.97357,-4.74945 l -12.96806,-1.77588 -2.27147,-2.47798 14.53744,2.06498 c -0.2668,-1.167 -0.413,-2.43567 -0.413,-3.84086 0,-0.75395 0.0388,-1.52542 0.1239,-2.27147 l -19.699885,-4.91465 0.86729,-1.94108 19.204295,4.79075 c 0.44048,-2.03188 1.16541,-3.98786 2.10627,-5.78194 l -24.614528,-9.66409 0.0413,-2.14758 z m 112.706469,2.35408 c 0.0702,1.34257 0.20208,2.64195 0.45429,3.71696 l -5.98843,-1.11509 c 0.33974,2.59418 1.33313,5.58793 2.31277,7.88821 l -22.59085,5.61674 c -0.5082,-1.91373 -1.46578,-3.6589 -2.43667,-5.07984 l 28.24889,-11.02698 z m -45.4708,11.97687 c 0,0.45425 -1.38842,2.26921 -3.18007,4.25385 -0.37795,-0.9063 -1.40418,-0.90859 -1.40418,-0.90859 -1.19228,0 -3.55176,2.04218 -3.55176,4.17125 0,0.38937 0.21354,0.79744 0.49559,1.11509 -0.56701,0.46227 -1.08464,0.82315 -1.56938,1.11509 l -1.52809,-4.87335 -1.48678,4.87335 c -0.47418,-0.28768 -0.97588,-0.66969 -1.52808,-1.11509 0.46294,-0.1722 0.45429,-0.72855 0.45429,-0.99119 0,-2.7407 -2.83994,-4.17125 -3.88215,-4.17125 0,0 -0.91115,0.0501 -0.99119,0.94989 -1.88601,-2.03454 -3.34527,-3.92409 -3.34527,-4.33645 l 10.82048,4.04735 10.69659,-4.12995 z m 43.15802,0.45429 c 0.46543,0.8983 0.87454,1.53294 1.11509,1.69328 l -6.69053,7.31002 -18.1718,2.60187 c 0.39678,-1.49711 0.6195,-3.21247 0.6195,-5.20374 0,-0.20885 -0.0279,-0.41247 -0.0412,-0.61949 l 23.16905,-5.78194 z m 42.91023,12.84416 c 0.42582,0.0851 9.33114,7.25847 9.4163,7.59912 0.0288,0.11498 -1.05062,3.554098 -2.72577,7.970808 -3.28677,8.66632 -8.08446,20.13395 -8.42511,22.17786 l -3.38656,1.36288 c 0,0 2.9525,-7.83606 0.90859,-17.8001 -6.89818,0.6813 -14.20705,9.17676 -14.20705,11.64647 0,1.44777 1.20282,2.88612 1.03249,4.41905 -0.59614,-1.19228 -1.81718,-2.4785 -1.81718,-4.74945 -0.73802,-1.87358 5.48199,-12.03151 15.44603,-13.87664 l 1.36289,5.86453 c 0,0 0.79491,-6.52564 0,-8.34251 -1.02196,-0.59614 -7.43392,-0.70209 -7.43392,-0.70209 l -1.23899,-2.68447 3.67566,-11.646468 c 0,0 6.96681,-1.32415 7.39262,-1.23899 z m -191.795096,2.80837 13.091956,1.36289 c 0,0 7.759187,24.454728 7.929513,25.647008 0.170326,1.19229 -3.812939,6.31398 -6.112333,7.84692 -0.08516,-1.53294 0.991189,-4.37775 0.991189,-4.37775 -0.385787,-1.49904 -0.348963,-2.85011 -4.336452,-6.73183 -2.090745,-2.03522 -4.742102,-4.10878 -9.787993,-5.41024 -1.958743,8.09045 0.578194,16.68502 0.578194,16.68502 0,0 -6.106079,-8.88678 -0.825991,-19.61729 6.245323,1.39105 10.94438,5.90584 10.94438,5.90584 0,0 -0.720796,-1.13665 -1.81718,-2.64317 -1.777347,-2.44214 -4.773171,-5.91685 -9.1272,-7.26872 -0.255488,-1.02196 -3.923457,-9.787998 -3.923457,-9.787998 l 2.395374,-1.61068 z m 94.865066,0.0826 c 0,0 1.83056,2.28201 4.12995,3.30396 l -1.44548,0 c -0.18242,-0.21392 -0.54341,-0.37169 -0.99119,-0.37169 -0.44778,0 -0.85007,0.15777 -1.03249,0.37169 l -1.52808,0 c -0.18242,-0.21392 -0.54341,-0.37169 -0.99119,-0.37169 -0.44778,0 -0.85007,0.15777 -1.03249,0.37169 l -1.48679,0 c 2.29939,-0.80905 4.37776,-3.30396 4.37776,-3.30396 z m -5.90584,4.12995 c 0.66001,0 2.14758,0.44867 2.14758,1.32159 0,0.681298 -1.30749,4.155868 -1.77588,4.666848 -0.40453,0 -1.23899,-4.404948 -1.23899,-4.873348 0,-0.46839 0.20728,-1.11509 0.86729,-1.11509 z m 11.48127,0 c 0.12965,-0.0188 0.26467,-0.0106 0.3717,0 0.28542,0.0272 0.4543,0.18689 0.4543,0.4956 0,2.363258 -0.60411,5.534138 -1.11509,5.534138 -0.72389,-2.42713 -1.94108,-3.98555 -1.94108,-4.666848 0,-0.44711 1.32242,-1.232 2.23017,-1.36289 z m 6.64923,0.0412 c 1.44777,0 2.47797,0.30988 2.47797,0.99119 0,1.476208 -1.56485,8.849158 -4.91464,12.142058 0.56786,-5.93294 -0.82599,-11.672388 -0.82599,-12.183358 0,-0.48254 2.09866,-0.94989 3.26266,-0.94989 z m -24.40803,0.0827 c 2.68262,0 2.97357,0.5951 2.97357,0.94989 0,0.35479 -1.46856,10.224618 -0.7021,12.183368 -3.06585,-3.8749 -4.91464,-9.82011 -4.91464,-12.183368 0,-0.22705 0.85474,-0.94989 2.64317,-0.94989 z m 10.32489,0.3304 c 0.66001,-0.0346 1.32158,0.10982 1.32158,0.57819 0,0.936798 -0.85575,3.964758 -1.23898,3.964758 -0.44711,0 -1.40419,-3.094398 -1.40419,-3.882158 0,-0.39387 0.66157,-0.62619 1.32159,-0.66079 z m 3.38656,0 c 0.64583,0.004 1.32158,0.19368 1.32158,0.61949 0,0.85163 -0.72929,3.923458 -1.19768,3.923458 -0.55356,0 -1.40419,-3.071828 -1.40419,-3.923458 0,-0.42581 0.63446,-0.62302 1.28029,-0.61949 z m -26.63821,1.28028 0.1652,1.734588 3.34526,3.01486 c 1.87358,4.54207 5.94713,17.42841 5.94713,17.42841 0,0 -0.20649,1.32058 -0.20649,2.72577 0,0.80002 0.14108,2.03206 0.28909,3.34526 0.38255,3.39595 1.81269,7.02093 8.92071,7.02093 3.71872,0 4.30726,-0.5369 6.64923,-0.5369 2.34196,0 3.04135,0.5369 6.27753,0.5369 3.1614,0 4.64207,-0.40446 6.27753,-1.44549 2.80237,-1.78365 3.18006,-4.74896 3.18006,-8.5903 0,-2.00831 -0.1652,-2.39538 -0.1652,-2.39538 l -0.12383,-0.45429 c 0,0 5.09038,-15.60129 6.11234,-17.75881 l 3.18006,-2.72577 0.3304,-1.899778 -8.38381,2.725768 c 0,0 -3.0823,18.41483 -4.04736,20.85628 0,0 -1.09995,-5.83943 -2.51927,-8.96201 -1.29157,7.67879 -3.88216,13.62885 -3.88216,13.62885 l -1.77588,-2.35407 -1.61068,1.94108 -1.32158,-1.85848 -1.61069,1.89978 -1.56938,-1.73458 -1.23899,1.69328 -1.69328,-1.69328 -1.77588,2.02368 c 0,0 -2.06803,-4.62725 -3.79956,-12.80286 -1.35511,2.19992 -2.38427,5.90439 -2.64317,8.21861 0,0 -3.05999,-14.49607 -3.96476,-20.89757 l -8.34251,-2.684478 z m 143.30943,6.318838 c 0,0 7.34106,7.85744 7.68171,8.8794 0.34066,1.02195 -12.88545,25.35792 -12.88545,25.35792 0,0 -2.20454,0.67105 -3.05617,0.3304 0,0 2.30993,-6.45468 1.03249,-14.28965 -8.43111,1.10712 -14.04185,8.42511 -14.04185,8.42511 l 0.5782,-2.31277 c 3.66199,-4.68395 9.21092,-8.75807 14.66133,-8.67291 0.42582,1.53293 0.9086,6.11233 0.9086,6.11233 0,0 0.78469,-0.33465 0.78469,-8.4251 -2.98052,-1.39105 -7.51652,-0.99119 -7.51652,-0.99119 l -0.86729,-1.81718 5.41024,-11.89427 7.31002,-0.70209 z m -115.34964,1.03248 -2.72577,3.55177 -3.13876,-3.42787 c 0,2.15752 1.47653,4.97189 1.81718,7.18612 0.34065,2.21424 -0.11313,7.39832 1.36288,9.95319 1.07884,-2.21423 0.94477,-8.84867 1.11509,-10.32488 0.17033,-1.47621 1.56938,-3.81558 1.56938,-6.93833 z m -109.030802,0.826 c 0,0 8.000576,20.23449 8.383808,21.68226 0.383232,1.44777 3.097466,1.98238 3.097466,1.98238 0,0 0.06152,2.07067 -1.982379,4.62554 -1.405185,-4.25813 -10.485801,-9.56739 -14.743937,-10.03579 -1.092979,10.21953 0.86729,13.71145 0.86729,13.71145 0,0 -0.539647,-0.5744 -1.073788,-1.85848 -0.880242,-2.11612 -1.941079,-5.72294 -1.941079,-8.7968 0,-1.66068 1.073788,-5.86453 1.073788,-5.86453 0,0 4.438405,0.0885 10.655283,4.00605 -0.93679,-1.57551 -6.221975,-6.91268 -12.183366,-7.76431 l -3.097466,-7.06223 -0.90859,-1.65198 1.693282,-2.60187 10.159688,-0.37169 z m 14.57874,6.56662 c 3.832323,0.9935 9.958392,5.7209 10.696582,9.5815 -2.21423,7.21056 -0.397258,17.4603 1.362885,21.88876 C 56.23572,132.15606 59.214626,115.99381 59.675868,114.53889 z m 182.874392,0 c 0.46141,1.45492 3.48146,17.65847 -12.01816,31.51156 1.75996,-4.42846 3.32932,-14.67838 1.11508,-21.88876 0.73803,-3.86076 7.07076,-8.6293 10.90308,-9.6228 z m -181.883203,1.81718 c -0.93679,17.07513 7.764315,24.90363 7.764315,24.90363 -6.543393,-8.82848 -6.218249,-18.0711 -6.360131,-24.16024 l -1.404184,-0.74339 z m 80.203723,3.67566 c 0.85163,4.4426 3.71696,10.65533 3.71696,11.10958 0,0.45426 -0.31501,0.5369 -0.82599,0.5369 -0.79491,0 -2.82399,-0.50613 -3.22137,-1.52809 -0.39737,-1.02195 -0.49559,-4.21279 -0.49559,-5.12114 0,-0.90835 0.10216,-3.57793 0.82599,-4.99725 z m 20.69107,0 c 0.4684,1.10712 0.82599,3.42558 0.82599,4.87335 0,1.44777 -0.30711,4.9793 -0.61949,5.57544 -0.63872,0.93679 -2.59162,1.19769 -2.93227,1.19769 -0.34065,0 -1.03249,-0.14982 -1.03249,-0.6608 0,0 2.86405,-5.91849 3.75826,-10.98568 z m 73.1828,2.10628 -1.07379,0.90859 c 0.18447,4.3433 1.62422,13.01717 -1.56938,19.61728 0,0 5.70902,-6.34628 2.64317,-20.52587 z m -208.10842,2.56057 9.664095,17.80011 c 0,0 2.405909,0.79494 3.427862,0.45429 0.567695,2.27112 0.330396,6.60793 0.330396,6.60793 0,0 -1.011979,2.04443 -1.693281,2.27147 0.1986,-0.6813 0.113432,-1.70381 0,-2.72577 0,0 -2.279324,-4.60543 -10.98568,-7.14482 -1.537527,-0.44829 -3.326577,-0.7426 -5.286342,-1.03249 0.567866,8.17562 2.973567,13.50496 2.973567,13.50496 0,0 -5.298878,-5.46148 -3.510461,-16.10683 6.25946,0.17033 11.316076,3.51046 11.316076,3.51046 0,0 -5.438848,-6.22084 -12.720261,-6.73182 l -3.59306,-5.98844 1.073788,-2.31277 9.003301,-2.10628 z m 252.83583,0.2065 7.39262,0.61949 c 0,0 3.9802,7.71304 4.37775,9.4163 l -7.97081,13.79405 -3.46916,6.36013 c 0,0 -0.51688,0.66079 -3.01487,0.66079 0,0 3.20061,-8.12696 2.97357,-14.82654 -12.06484,1.50466 -16.10683,8.13601 -16.10683,8.13601 l 0,2.02368 c 0,0 -0.45429,-0.72565 -0.45429,-1.77588 0,-1.05039 0.70209,-2.76707 0.70209,-2.76707 l 3.01487,-3.01487 c 0,0 6.55285,-5.58056 14.33094,-5.41024 0.39755,2.32785 0.49559,6.56663 0.49559,6.56663 0,0 1.02245,-0.88949 1.81718,-8.38381 -3.12257,-1.64636 -7.39261,-1.89977 -7.39261,-1.89977 l -0.2065,-1.98238 3.51046,-7.51652 z m -54.7219,0.94989 c 0,0 1.25404,2.35343 6.23623,6.02973 0,0 0.17943,1.17407 -0.1652,4.12996 -1.06948,-0.38698 -2.15852,-0.76763 -3.30396,-1.11509 -0.79474,1.58964 -1.58989,14.4035 -0.90859,15.19823 0.053,0.0619 0.39604,0.26559 0.90859,0.4956 -0.0819,0.27631 -0.12066,0.501 -0.2065,0.78469 0.10731,-0.0899 0.52249,-0.42689 0.70209,-0.57819 3.13927,1.36737 10.52795,4.29726 11.56388,5.20374 0.40571,0.35496 1.25566,2.20221 2.18887,4.12995 -0.37366,0.67795 -0.78953,1.46284 -1.07379,2.02368 0.44115,-0.26687 1.09235,-0.6415 1.61069,-0.94989 0.88875,1.8252 1.73904,3.48854 2.18887,3.88216 0.58087,0.50815 7.36881,1.56141 12.38987,2.23017 l -2.56057,3.34527 c 0,0 -3.84143,1.52808 -6.56663,1.52808 -1.62814,0 -3.98861,-0.13303 -6.23623,-0.70209 -3.12871,-0.79184 -3.80013,-1.41985 -6.52533,-2.27148 l -13.83535,-12.01817 -1.73458,-4.17125 c 0,0 -3.94938,0.87755 -4.46035,0.53689 -0.51098,-0.34065 2.04503,-10.42456 5.45154,-18.0892 -5.36526,-0.6813 -15.07682,0.59559 -14.08315,10.07709 l -1.65198,-2.47797 2.18888,-8.7968 6.36013,-4.87335 7.47521,2.76707 0.3304,-1.11509 1.19769,0.4543 2.51927,-5.65804 z m -147.356787,0.0826 2.849669,6.48403 8.672905,-2.97357 6.112333,4.87335 2.188876,8.9207 -1.197687,1.81718 c 0.354788,-10.58862 -12.328338,-10.04989 -14.372242,-9.5815 4.343298,9.49565 5.962516,17.46975 5.45154,17.92401 -0.510977,0.45425 -4.377752,-0.4543 -4.377752,-0.4543 l -1.85848,4.08866 c 0,0 -3.790809,3.33375 -7.599116,6.69052 -3.371933,2.97235 -6.767051,5.98684 -7.846914,6.56663 -2.299394,1.23486 -10.036072,1.98238 -11.398675,1.98238 -1.362604,0 -6.112333,-1.52808 -6.112333,-1.52808 l -2.849669,-3.55176 c 4.311859,-0.40868 11.732741,-1.30333 12.885459,-2.39538 0.50263,-0.47606 1.109477,-1.93111 1.81718,-3.55176 -0.333522,-0.18014 -0.688332,-0.42005 -1.032489,-0.61949 0.790875,0.45834 1.546115,0.88457 2.271475,1.23898 -0.246113,-0.49995 -0.524295,-1.07286 -0.784691,-1.61068 0.753009,-1.68417 1.578743,-3.36698 2.436673,-4.17125 1.047502,-0.9821 7.739008,-3.68051 11.109578,-5.28634 0.529082,0.42749 1.197687,0.94988 1.197687,0.94988 -0.137952,-0.40415 -0.271604,-0.88455 -0.412995,-1.32158 0.577725,-0.29593 0.994556,-0.55372 1.115087,-0.70209 0.425814,-2.46972 -1.244151,-13.84056 -1.528083,-14.57874 -0.885321,0.40966 -1.887142,0.79245 -2.932268,1.19768 -2.05e-4,-10e-4 -0.0411,0.001 -0.0413,0 -0.291247,-2.61701 -0.206498,-4.46035 -0.206498,-4.46035 3.633553,-2.38455 5.363887,-4.47109 6.442729,-5.94713 z m 78.345247,2.23017 c 0.36909,0 0.99119,2.40385 0.99119,2.80837 0,0.40299 -0.36926,0.61371 -0.94989,0.6195 -0.52342,0.005 -1.28029,-0.14838 -1.28029,-0.6195 0,-0.78775 0.89833,-2.80837 1.23899,-2.80837 z m -8.962,0.0412 c 0.46839,0 1.07378,2.25096 1.07378,2.93226 0,0.68131 -2.23017,0.3858 -2.23017,-0.0826 0,-0.4684 0.92219,-2.84967 1.15639,-2.84967 z m 3.05616,0 c 0.25549,0 1.03249,2.20582 1.03249,3.01486 0,0.80905 -2.14758,0.53484 -2.14758,-0.0826 0,-0.61743 0.8596,-2.93226 1.11509,-2.93226 z m 2.89097,0 c 0.22705,0 1.03249,1.82771 1.03249,2.84967 0,1.02195 -2.23018,0.69416 -2.23018,0.0412 0,-0.65286 0.8286,-2.89097 1.19769,-2.89097 z m -111.302272,0.2892 c 3.832323,0.9935 11.014161,5.84964 11.439974,8.17731 -0.823182,9.65183 2.535181,17.91944 4.295153,20.81497 C 39.158988,146.7882 41.109262,130.11624 41.421468,128.49814 z m 219.218002,0 c 0.31238,1.6181 2.46931,18.16633 -15.52863,28.86838 1.76014,-2.89552 5.12619,-11.11026 4.04735,-20.69107 0.42582,-2.32767 7.64896,-7.18381 11.48128,-8.17731 z m -218.226813,1.77588 c 1.575511,16.73447 11.398675,23.66464 11.398675,23.66464 -5.882699,-5.53081 -8.80093,-13.63338 -10.035789,-23.08645 l -1.362886,-0.57819 z m 200.674503,2.39537 c 0,0 0.83709,4.68536 4.58425,6.81443 0.0416,2.06151 -0.10613,3.98137 -0.3717,5.78194 -2.47312,-2.05225 -5.36381,-4.05875 -8.7555,-5.86454 1.38761,-2.03528 2.59895,-4.21421 3.38656,-6.44273 l 1.15639,-0.2891 z m -184.319882,0.0826 1.569382,0.2065 c 0.894209,2.66134 2.261266,5.17323 3.799559,7.43392 -0.191029,-0.27991 -0.393262,-0.53868 -0.578194,-0.82599 -2.725548,1.35084 -5.637625,3.10239 -8.631605,5.61674 -0.584627,-3.37829 -0.619493,-5.69934 -0.619493,-5.69934 3.008968,-1.53293 4.322388,-5.35304 4.460351,-6.73183 z m 48.609562,1.73458 14.78524,20.52588 57.81937,-0.2478 15.81773,-20.27808 -16.02423,30.97466 -1.69328,-5.98843 -7.97081,16.14812 -2.14758,-4.79074 -8.30121,14.20704 -1.65198,-4.70815 -6.44273,10.90308 -6.48403,-10.77918 -1.56938,4.46035 -8.30121,-14.08314 -2.23018,4.70814 -7.80561,-16.14812 -1.77588,6.23623 -16.02423,-31.13986 z m 144.83752,0.5369 -1.19769,0.90859 c -0.79491,5.39369 -0.23561,13.72795 -4.29515,18.66739 0,0 6.23086,-4.30341 5.49284,-19.57598 z m -166.726275,2.35407 c 1.27352,-0.0545 3.182564,0.24201 4.914646,1.03249 1.107455,0.50552 2.36849,1.28514 2.932267,2.10628 0.721158,1.05108 0.828214,3.5542 0.743392,6.19493 -0.12859,4.0081 -0.945255,10.01993 -4.50165,14.28964 0,-9.42445 -1.14677,-12.95468 -5.121144,-23.45814 0.259746,-0.0835 0.607982,-0.14704 1.032489,-0.1652 z m 131.167365,0.0412 c 0.4245,0.0181 0.77274,0.0817 1.03249,0.16519 -3.97438,10.50346 -5.07985,14.03352 -5.07985,23.45815 -3.5564,-4.26972 -4.41436,-10.28154 -4.54295,-14.28965 -0.0848,-2.64072 0.0636,-5.14385 0.78469,-6.19493 0.56378,-0.82114 1.82481,-1.64206 2.93227,-2.14757 1.73209,-0.79048 3.59983,-1.04567 4.87335,-0.99119 z m -6.52533,4.29515 -1.28029,1.65198 c 0,0 0.68186,9.83531 2.72577,14.20704 0,0 -1.72924,-7.74011 -1.44548,-15.85902 z m -118.034108,0.0412 c 0.227044,9.2543 -1.445484,16.02423 -1.445484,16.02423 2.384556,-5.16649 2.643171,-14.41355 2.643171,-14.41355 l -1.197687,-1.61068 z m -67.937755,1.32159 c 4.14453,0.45425 11.964051,4.23879 12.389865,6.56663 -0.05689,9.80785 5.168633,19.61066 7.020923,21.88876 -17.884173,-8.09026 -19.467506,-25.33261 -19.410788,-28.45519 z m 253.703123,0.0414 c 0.0568,3.12258 -1.66586,19.84601 -18.5848,27.79459 1.8523,-2.27809 6.50954,-10.80193 6.11233,-21.02146 0.42582,-2.32767 8.32811,-6.31888 12.47247,-6.77313 z m -235.613921,1.07389 c 1.280989,2.8502 3.383411,5.61914 5.823236,8.13601 0.0067,0.007 -0.0067,0.0344 0,0.0412 -2.323484,2.94416 -4.652944,6.46661 -6.897024,10.73788 -1.163733,-2.95189 -2.17489,-6.073 -2.147576,-6.31883 0.04258,-0.38323 0.494312,-2.21479 0.536894,-2.72577 1.916161,-1.66067 3.056166,-3.75725 3.056166,-5.16244 0,-1.40519 -0.371696,-4.70815 -0.371696,-4.70815 z m 217.524721,0 c 0.0638,0.9155 -0.76134,4.74203 -0.1652,6.36013 0.30403,0.82557 1.89882,2.05554 2.80837,3.51046 0.42581,0.6813 0.49559,2.21223 0.49559,2.80837 0,0.36735 -0.81901,3.72928 -1.77588,6.60793 -1.12585,-2.14577 -3.13136,-6.48957 -7.02092,-11.31608 2.08908,-2.22243 4.05384,-4.84004 5.65804,-7.97081 z m -234.00324,0.41299 c 3.590971,17.8203 13.298454,23.04515 13.298454,23.04515 -5.882699,-5.53081 -8.754835,-12.43058 -10.242287,-17.18061 -1.032003,-3.29545 -1.486784,-5.57544 -1.486784,-5.57544 l -1.569383,-0.2891 z m -12.018168,0.2478 c 0,0 5.534383,9.13802 6.442729,11.52257 1.476211,2.29939 6.607927,1.98238 6.607927,1.98238 0,0 2.58649,4.24104 3.097467,4.66685 0.212907,0.72389 0.495594,5.78194 0.495594,5.78194 0,0 -0.565375,0.94604 -0.991189,1.07379 -0.425813,0.12779 -0.123898,-3.18007 -0.123898,-3.18007 0,0 -5.321922,-5.70446 -15.115635,-5.53414 0.638721,8.2182 4.832047,13.75275 4.832047,13.75275 0,0 -1.96187,-1.32443 -2.643171,-2.60187 -0.681302,-1.27745 -4.070428,-7.30862 -3.303964,-13.29845 5.280089,-0.19877 10.861781,1.89977 10.861781,1.89977 -0.68062,-1.19415 -4.445895,-3.46067 -5.864536,-4.00605 -1.272331,-0.48917 -3.45471,-0.7378 -6.442729,-1.28029 l -4.2125536,-6.52533 0.825991,-2.35407 5.5341396,-1.89978 z m 276.665668,0.74339 c 0.6813,0 4.70073,0.65054 6.31883,0.99119 0.22722,0.79474 1.93467,5.90355 2.14758,7.35132 -2.64004,5.06718 -10.07609,17.69215 -11.48128,19.90638 -0.80905,0.38324 -2.99055,0.89813 -4.25385,0.78469 0,0 3.82568,-3.85312 4.79075,-13.50495 -8.17545,-0.36909 -13.62141,4.10453 -14.78524,5.41024 0,0 -0.21697,1.31902 -0.3304,1.40419 0,0 -0.31221,-0.40539 0,-1.56939 0,0 0.53357,-0.77122 1.44549,-1.65198 2.51213,-2.4256 8.88697,-6.64895 14.57874,-5.28634 0.73802,1.09298 0.34453,5.61802 0.33039,5.57544 0.53942,-0.63872 2.50517,-5.56571 2.97357,-8.17731 -3.4915,-1.64654 -6.27753,-1.94108 -6.27753,-1.94108 l -0.12383,-2.02368 c 0.34065,-0.56786 3.98554,-7.26872 4.66685,-7.26872 z m -192.373293,0.86729 4.336453,4.95595 -2.725771,-0.2478 11.605171,12.92676 -3.92345,8.25991 -6.44273,5.86453 -11.109583,-4.62554 3.014867,-3.75826 -9.0859,1.19768 2.477973,-3.59306 -10.07709,0.5782 c 0,0 7.054095,-7.19622 11.439975,-12.34857 0.766464,1.95875 -0.123899,10.57269 -0.123899,10.57269 l 3.63436,-4.08866 c 4.215555,-6.08914 4.459069,-11.21168 4.501651,-11.93557 0.596139,-0.25549 2.477973,-3.75826 2.477973,-3.75826 z m 106.015943,0 1.94108,3.42787 0.61949,0.41299 c 0.2342,2.06877 0.38862,5.03239 2.93227,9.2924 1.15616,1.93625 2.84405,3.95545 5.20374,6.60793 -0.56786,-5.56402 -0.2891,-10.20099 -0.2891,-10.20099 l 3.59306,-0.1652 1.15639,2.80837 7.55782,6.56663 -6.89703,-1.73458 2.27148,3.38656 -5.53414,-0.1652 2.97357,2.10628 -6.77313,2.56057 -10.61398,-3.13877 3.96475,5.20375 -9.87059,-1.15639 4.33645,4.33645 -6.27753,3.01487 -3.38656,-4.62555 -2.80837,-7.10352 13.91795,-17.26321 -1.98238,0 3.96476,-4.17126 z m 64.30339,2.10628 -1.40418,1.15639 c 0,0 -0.38436,13.50735 -5.45154,18.91519 0,0 6.47249,-4.10358 6.85572,-20.07158 z m -193.034084,5.74064 c -1.226044,0.12105 -5.515366,1.41589 -9.911891,3.42786 -1.362604,2.81036 -2.650862,6.21828 -2.395374,6.81442 0.379656,0.88553 3.190601,0.13929 4.212554,-0.37169 0.483724,-0.24186 1.923118,-1.57579 3.469162,-2.93227 1.720116,-1.50891 3.53411,-3.03135 3.758259,-3.34526 0.425813,-0.59614 1.538337,-3.33757 1.197686,-3.59306 -0.04258,-0.032 -0.155246,-0.0173 -0.330396,0 z m 151.404144,0.0412 c -0.0944,0.001 -0.13327,0.009 -0.1652,0.0412 -0.55526,0.55527 0.91376,3.11309 1.19769,3.51047 0.28393,0.39737 3.29961,3.03058 5.69933,5.03854 0.56326,0.47129 0.99004,0.92338 1.36289,1.15639 1.36261,0.85163 3.57768,0.87242 4.08865,0.70209 0.51098,-0.17033 -1.63403,-6.30345 -2.23017,-6.81443 -0.55889,-0.47903 -8.53821,-3.66055 -9.95319,-3.63436 z m -210.1321,8.63161 c 2.561844,0.06 10.338682,2.64985 10.737883,4.83204 0.965234,7.89186 6.035924,14.57212 7.888213,16.85022 -15.669941,-5.22313 -19.09581,-18.51832 -19.039091,-21.6409 0.120872,-0.0196 0.242206,-0.0453 0.412995,-0.0412 z m 268.81875,0.0412 c 0.17079,-0.004 0.33343,-0.0196 0.4543,0 0.0568,3.12275 -3.36915,16.45906 -19.03909,21.68226 1.85229,-2.2781 6.92298,-8.95835 7.88821,-16.85021 0.3992,-2.18219 8.13474,-4.77188 10.69658,-4.83205 z m -268.116657,1.52808 c 5.280088,15.1591 14.57874,17.80024 14.57874,17.80024 -2.228538,-1.18393 -4.256906,-2.92558 -5.988435,-4.99725 -4.620758,-5.52876 -7.310019,-12.72026 -7.310019,-12.72026 l -1.280286,-0.0826 z m 260.930537,2.39538 -1.40418,0.53689 c 0,0 -3.06498,11.81764 -8.25991,15.73513 0,0 6.55566,-3.0718 9.66409,-16.27202 z m -96.64094,8.3012 -21.93006,29.65308 4.83205,-0.74339 -8.05341,9.78799 1.98238,-0.1652 -7.84692,10.03579 -9.0033,-11.06828 3.46916,0.82599 -8.17731,-9.45759 4.29516,0.49559 -9.08591,-9.62279 7.43392,3.38656 -9.74669,-11.68777 9.4576,6.52533 -6.07104,-10.94425 10.86179,12.34856 1.81718,-3.67566 5.16244,7.47522 5.78194,-7.59911 1.65198,3.88215 10.40748,-12.55506 1.11509,3.67566 11.64647,-10.57268 z m -9.1272,31.0161 c 0,0 2.07183,6.06299 -2.27147,29.65307 l -11.43998,20.85627 -2.47797,-0.86729 c 1.03626,-2.19992 4.08866,-13.54625 4.08866,-13.54625 l 1.65198,-0.90859 c 0,0 -3.97708,-8.01161 -4.25386,-8.7142 l 3.22137,-0.0826 -2.56057,-5.16245 3.84086,0 -2.97357,-4.95594 c 2.46971,-3.74716 13.17455,-16.27202 13.17455,-16.27202 z m -38.49118,7.84691 5.24505,6.69053 3.75826,6.97962 -3.05617,10.61398 -2.51927,3.79956 -1.69329,-0.2065 -4.58425,-13.13325 2.64318,0.74339 -3.09747,-5.78194 4.00606,1.28029 -3.09747,-5.82324 3.63436,1.65199 -1.23899,-6.81443 z m 57.94327,11.35738 1.03249,4.91464 1.65198,-1.65198 -0.0826,3.92346 2.10628,-1.44549 -0.4543,6.60793 1.77588,-1.69328 -1.03249,6.93832 1.23899,-0.78469 -0.49559,9.2511 -1.32159,3.67566 c -0.11339,-0.96523 0.2065,-9.74669 0.2065,-9.74669 l -2.27148,1.81718 0.6608,-12.05947 -1.65199,1.61068 -0.20649,-3.34526 -1.28029,1.56938 0.12383,-9.58149 z m -42.24944,0.28909 0.5782,17.38711 c 0,0 -2.82403,-7.08385 -3.67566,-11.85297 l 3.09746,-5.53414 z m 40.26706,1.11509 c 0,0 0.91885,8.3613 0.5782,11.85297 l 1.73458,-2.10628 -0.0826,6.97963 -0.86729,-4.12996 -2.14758,2.97357 0,-10.03579 -1.61068,2.56057 2.39537,-8.09471 z m 0.5782,17.09801 0.74339,3.88216 1.52808,-1.48678 -0.0412,3.79956 1.61068,-1.07379 -1.11509,6.31883 -0.0412,-3.46916 -1.73458,1.44548 0.0412,-3.84086 -1.36288,1.36289 0.37169,-6.93833 z m -52.45043,3.75826 c 0.42582,0.68131 3.71696,12.80286 3.71696,12.80286 l -2.02368,0.99119 -1.77588,-1.65198 -0.12383,2.72577 -2.68447,0.53689 -1.19769,-1.77588 -1.07379,2.39538 -2.60187,-0.1652 -0.61949,-2.51927 -1.56939,1.77588 -1.94108,-0.7847 0,-1.36288 11.06828,-5.16244 -1.15638,-5.41024 1.98238,-2.39538 z m 58.97575,7.88822 c -0.28375,2.46971 -1.40941,4.9263 -2.68447,7.47521 -1.93081,3.85992 -4.19902,6.77785 -6.60792,8.92071 l -2.35408,0.66079 0.3304,-1.19769 c 2.41095,-2.23739 4.54295,-6.02973 4.54295,-6.02973 l 0.45429,-3.63436 1.03249,2.89097 0.3304,-7.80562 1.52808,4.70815 1.15639,-5.82324 0.57819,3.79956 1.69328,-3.96475 z m -38.61507,13.33975 0,18.62609 -1.98238,1.07379 -1.61068,-1.69328 -0.6195,2.31278 -2.56057,0.12389 -0.82599,-2.39537 -1.19769,2.31278 -2.31277,-0.2065 -0.413,-2.89097 -1.56938,1.89978 -1.65198,-1.36289 0,-1.28028 12.01817,-4.25386 -0.413,-7.64041 3.13877,-4.62555 z"
  /></svg>
