<?xml version="1.0" encoding="UTF-8" standalone="no"?>
<!-- Generator: Adobe Illustrator 13.0.1, SVG Export Plug-In . SVG Version: 6.00 Build 14948)  -->

<svg
   xmlns:dc="http://purl.org/dc/elements/1.1/"
   xmlns:cc="http://creativecommons.org/ns#"
   xmlns:rdf="http://www.w3.org/1999/02/22-rdf-syntax-ns#"
   xmlns:svg="http://www.w3.org/2000/svg"
   xmlns="http://www.w3.org/2000/svg"
   xmlns:sodipodi="http://sodipodi.sourceforge.net/DTD/sodipodi-0.dtd"
   xmlns:inkscape="http://www.inkscape.org/namespaces/inkscape"
   version="1.1"
   id="Layer_1"
   x="0px"
   y="0px"
   width="300"
   height="300"
   viewBox="0 0 299.99999 300"
   enable-background="new 0 0 214.908 216"
   xml:space="preserve"
   inkscape:version="0.48.3.1 r9886"
   sodipodi:docname="FLA.svg"><metadata
     id="metadata410"><rdf:RDF><cc:Work
         rdf:about=""><dc:format>image/svg+xml</dc:format><dc:type
           rdf:resource="http://purl.org/dc/dcmitype/StillImage" /></cc:Work></rdf:RDF></metadata><defs
     id="defs408" /><sodipodi:namedview
     pagecolor="#ffffff"
     bordercolor="#666666"
     borderopacity="1"
     objecttolerance="10"
     gridtolerance="10"
     guidetolerance="10"
     inkscape:pageopacity="0"
     inkscape:pageshadow="2"
     inkscape:window-width="978"
     inkscape:window-height="604"
     id="namedview406"
     showgrid="false"
     inkscape:zoom="0.77257964"
     inkscape:cx="87.075208"
     inkscape:cy="117.17084"
     inkscape:window-x="0"
     inkscape:window-y="24"
     inkscape:window-maximized="0"
     inkscape:current-layer="Layer_1" /><path
     d="m 170.99638,0.8573656 c -9.41693,0.03333 -19.75566,1.913137 -30.98669,5.268629 15.00792,5.4336534 24.33393,9.8675174 24.33393,9.8675174 l -6.16162,1.51808 21.16382,13.305521 -4.06309,0.714391 c 8.01974,6.856719 15.04684,17.056071 15.04684,17.056071 l -4.24169,-0.625092 6.56346,15.984482 c -7.00674,-9.214204 -14.24959,-16.99963 -18.2616,-18.752744 -0.90871,-0.394344 -2.18282,-0.658311 -3.7059,-0.848339 L 166.39749,25.86103 152.37758,45.149571 c -13.11335,1.931712 -28.44667,6.369505 -36.92506,13.037625 -11.42739,2.720399 -22.104665,7.263209 -31.79037,13.305519 L 54.327494,32.737038 56.783211,30.817113 44.14743,14.520082 20.572547,32.826337 33.252976,49.123368 35.485447,47.382041 64.954051,86.271665 C 45.235447,105.74595 33.029729,132.81134 33.029729,162.71144 c 0,21.90035 6.559176,42.26584 17.815112,59.24975 0,0 -18.517,14.02742 -48.3999518,29.42396 -2.116024,10.54011 10.7087128,33.55063 29.4686048,31.61177 l 44.917298,-33.75494 c 17.81261,13.11335 39.811908,20.85127 63.625398,20.85127 19.35284,0 37.49228,-5.10182 53.17744,-14.06456 l 22.77119,30.04904 75.14495,0.2679 6.60811,-37.37155 -74.07336,8.17084 -11.34095,-15.0022 c 21.57888,-19.64573 35.09443,-47.94952 35.09443,-79.43128 0,-5.82657 -0.44649,-11.5717 -1.33948,-17.14537 1.51594,4.01773 3.438,14.33246 3.438,14.33246 l 3.43801,-3.7952 c 0.68867,7.07389 0.0446,28.88816 0.0446,28.88816 l 5.35792,-5.17933 c 0,3.47765 -2.59573,17.23574 -4.06309,24.69112 l -3.03616,-3.5273 -7.90295,17.72581 23.30699,0.0893 -10.44796,-12.09999 c 7.85115,-7.44824 28.97746,-29.32001 28.97746,-49.11434 0,-26.56247 -9.16598,-45.26842 -12.01069,-51.48075 -2.84613,-6.209485 -15.67194,-10.228295 -25.6734,-13.171575 l 2.85756,0.0893 -1.78598,-3.1701 c 8.01975,1.67881 18.8867,7.2332 18.8867,7.2332 l -0.66974,-3.39336 17.94906,13.484125 -0.71439,-5.49187 16.25238,17.4579 C 299.14976,90.800915 288.34817,76.897805 285.34345,73.278705 281.7072,68.895205 257.7619,53.945513 241.72098,53.945513 c -5.3665,0 -15.53799,7.992242 -15.53799,7.992242 0,0 3.17011,-10.616198 3.17011,-16.654226 0,-10.685851 -18.77918,-27.919806 -27.05754,-34.647935 C 193.6182,3.8291496 183.10391,0.8145136 170.9964,0.8573756 z m -3.03616,5.402577 c 7.05085,-0.05869 14.74414,0.502752 17.45792,1.116235 15.34082,3.4605074 37.69267,30.1683504 38.75568,36.5678594 0.7001,4.209189 -3.10653,19.074228 -8.26014,32.861958 9.91574,-8.82129 21.23168,-16.8564 25.00366,-17.63651 5.7137,-1.180175 35.33804,8.9138 43.22062,20.67267 2.2289,3.32334 8.57626,17.40005 9.37638,23.619525 0,0 -8.41874,-9.317425 -15.76124,-13.796655 l 0.71439,5.80442 c -6.00945,-4.64354 -15.33439,-10.68299 -18.84205,-13.39482 l 1.25019,6.16162 c -6.22806,-2.81327 -16.89069,-5.0761 -21.38707,-4.95609 l 2.32177,4.2417 c -8.16548,-0.31148 -14.89682,0.0814 -21.83355,2.32177 l 3.438,2.63431 c 18.45699,3.23905 39.72546,9.931095 43.89036,13.707365 5.52367,4.99501 17.66437,43.28063 11.65349,60.36599 -1.69596,4.83356 -11.24307,22.03966 -16.96677,27.59333 0,0 3.12617,-15.76053 2.14317,-26.74499 l -5.31328,5.17933 c 0.1886,-9.73715 -0.73653,-23.97066 -0.62509,-29.64721 l -5.35793,5.98302 c -1.84027,-8.56411 -7.59861,-21.30991 -11.1177,-25.852 l -2.50036,5.62583 c -5.84229,-8.6527 -9.85609,-14.73645 -17.36862,-20.18153 l -0.0893,5.67047 -6.56346,-7.1439 c 6.95816,15.23794 13.16586,34.71044 12.81438,39.78261 -0.46293,6.61669 -18.41663,35.37126 -31.92432,39.87192 -3.82199,1.27447 -20.58588,2.75933 -26.78964,1.47343 0,0 11.28129,-5.89372 17.63651,-12.32324 l -5.75977,-1.20553 c 6.14947,-4.92358 14.54284,-12.97583 18.12765,-15.85054 l -6.25091,-0.80369 c 4.44493,-5.79085 9.57997,-16.59314 10.71585,-21.52101 l -4.68818,1.07159 c 2.57752,-8.75986 4.05559,-16.20416 3.83984,-24.51252 l -3.6166,2.90221 0.75904,-4.10775 c -3.28476,6.64812 -6.11697,11.4749 -6.11697,11.4749 l -0.93763,-1.56273 c 0,0 -8.07976,12.12963 -10.53726,16.52028 l -0.53579,-2.45572 c 0,0 -8.43088,12.9969 -11.92139,17.23467 l -1.11624,-2.50037 c -4.06202,7.12676 -10.60727,14.146 -12.32323,17.45792 l 0.17859,-3.57195 c 0,0 -1.62488,2.10138 -4.33099,5.49187 l 69.60842,92.02242 70.63535,-7.81365 -4.91143,27.68263 -69.11728,-0.2679 -75.72538,-99.92535 c -0.57723,0.6901 -1.1916,1.38698 -1.78598,2.09852 -0.72725,0.87441 -0.10544,-2.44143 -0.84834,-1.56273 -5.16504,6.12232 -11.94068,15.65265 -16.29703,20.22618 -1.18589,1.24161 0.74654,-3.25441 -0.2679,-2.27712 -3.56623,3.42621 -13.50269,15.92269 -18.84204,20.94057 -0.91585,0.86298 1.2066,-3.60232 0.26789,-2.72362 -4.54209,4.25348 -10.89731,11.96033 -15.180794,15.89519 -1.047297,0.96586 1.475573,-3.62803 0.491143,-2.72361 -5.32078,4.85642 -13.675219,12.84795 -15.761239,14.51105 l -0.04465,-2.41107 c -6.242343,7.40395 -15.238305,12.63507 -18.6188,16.29703 l 0.669741,-3.48265 c -8.642695,8.82701 -20.940212,17.00321 -26.611043,21.52101 -14.526415,1.70168 -22.9054998,-18.61594 -22.4139998,-23.44093 0,0 25.9777368,-12.76437 29.2453578,-15.85054 l -2.18782,-0.80369 c 8.382658,-4.27205 22.503299,-12.18929 22.503299,-12.18929 l -3.616602,-0.53579 c 3.390497,-2.15889 12.348596,-7.35572 22.101454,-13.79666 1.098732,-0.72582 -1.51808,-1.29484 -1.51808,-1.29484 5.817996,-3.96058 14.870394,-9.04775 20.494075,-13.84131 0.892988,-0.76297 -1.294833,-0.98229 -1.294833,-0.98229 1.118736,-1.01015 11.818521,-8.64805 15.671941,-12.27858 0.70867,-0.66439 -1.38413,-1.20554 -1.38413,-1.20554 4.92358,-4.62353 11.87174,-9.65784 15.53799,-12.94832 0.95157,-0.85013 -2.24819,-0.65331 -1.33948,-1.47343 1.44307,-1.30877 3.74126,-3.07188 6.34021,-5.00074 L 36.333785,40.997177 l -2.277119,1.785976 -7.143904,-9.153127 16.430979,-12.769729 7.099255,9.153127 -2.455717,1.919924 92.111711,121.714262 c 1.93029,-1.40592 3.4848,-2.54787 4.28635,-3.25941 l -1.83063,-0.71439 c 5.68369,-4.16204 11.36596,-8.74414 14.82361,-12.50183 l -1.56273,-0.49114 c 5.39364,-4.64497 10.96482,-8.13191 14.51105,-11.87674 l -1.65203,-0.71439 c 3.2962,-2.76755 9.73107,-7.90152 12.63578,-12.01069 l -1.65202,-0.62509 c 6.841,-5.44652 8.83879,-9.07954 14.51105,-16.922125 l -13.35017,-3.92914 4.77749,-2.18782 c -6.94959,-4.02917 -14.26495,-6.00374 -23.39629,-7.5011 l 3.9738,-4.10775 c -4.9293,-1.14731 -17.49042,-1.0723 -25.27156,0.62509 l 3.3487,-6.51881 c -4.7507,2.19318 -17.00214,6.72777 -25.13762,10.49261 l 2.67897,-6.20627 c -9.55426,3.2762 -21.833559,11.6535 -21.833559,11.6535 2.870419,-6.66955 14.372469,-20.77162 17.904409,-23.93208 12.49326,-11.170211 48.53569,-15.5805 54.47227,-12.992978 4.59068,2.003151 17.35255,17.250388 25.89666,31.165278 l -1.69668,-5.75977 4.24169,2.58967 c -0.45435,-8.08405 -2.74826,-15.23652 -6.34021,-23.574887 l 5.31328,0.75904 c -1.67311,-4.709262 -8.29658,-14.853606 -13.70737,-20.18153 l 6.92066,-1.205533 c -4.21919,-2.546088 -14.20637,-9.832156 -21.43171,-14.19851 l 6.25091,-1.51808 C 170.20341,12.187597 157.19972,7.1975796 157.19972,7.1975796 c 2.5343,-0.625806 6.53,-0.902418 10.7605,-0.937637 z m 25.18227,7.4118014 -7.72435,2.366418 13.35017,3.304055 -5.62582,-5.670473 z m 6.9653,7.501099 -7.72434,2.366418 13.35017,3.304056 -5.62583,-5.670474 z m -75.14494,3.304056 -7.54575,22.3247 19.28854,-2.187821 -11.74279,-20.136879 z m 82.11025,4.241693 -7.72435,2.321768 13.35017,3.304056 -5.62582,-5.625824 z M 85.13558,35.326703 84.465839,58.856937 102.28095,51.132591 85.13558,35.326703 z m 128.90283,0.848339 -7.6797,2.366418 13.30552,3.304055 -5.62582,-5.670473 z m -164.845597,0.357195 -5.849072,10.269362 1.785976,2.455717 4.063096,-12.725079 z m 170.471417,10.046115 -10.13541,0.446494 8.21549,6.206267 1.91992,-6.652761 z m -162.255928,0.848339 -5.849071,10.269362 1.741327,2.455712 4.107744,-12.725074 z m 115.061508,7.143904 -8.26014,1.205534 -3.438,7.724346 11.69814,-8.92988 z m -10.6712,1.205534 -8.30479,1.205533 -3.43801,7.679693 11.7428,-8.885226 z m 46.88187,0.178597 6.47416,9.688919 1.96457,-6.65276 -8.43873,-3.036159 z m -57.55308,0.982287 -8.30479,1.205534 -3.43801,7.724348 11.7428,-8.929882 z m 25.09296,0.491143 -6.60811,8.528039 10.49261,-2.94686 -3.8845,-5.581179 z m -35.76417,0.714391 -8.30479,1.205538 -3.438,7.67969 11.74279,-8.885228 z m -74.832398,0.178597 -5.849071,10.269361 1.741326,2.45572 4.107745,-12.725081 z m 178.329708,4.554241 7.6797,11.3856 -0.44649,-8.0369 -7.23321,-3.3487 z m -4.46494,1.65203 -5.58117,4.10774 8.66198,5.53653 -3.08081,-9.64427 z m -31.70107,0.35719 3.9738,11.83209 1.91992,-6.60811 -5.89372,-5.22398 z m 45.63169,1.91993 7.63504,11.38559 -0.44649,-8.03689 -7.18855,-3.3487 z m -69.20657,0.17859 -8.17084,5.04539 12.05533,0.53579 -3.88449,-5.58118 z m -110.373328,2.18782 -5.849072,10.31402 1.741327,2.45571 4.107745,-12.76973 z m 189.000918,1.60738 7.6797,11.3856 -0.4465,-8.03689 -7.2332,-3.34871 z m -34.11214,0.4465 -5.58118,4.10774 11.34095,2.72361 -5.75977,-6.83135 z m 43.57781,3.48265 7.6797,11.3856 -0.44649,-8.0369 -7.23321,-3.3487 z m -68.13498,0.31255 3.92914,11.83209 1.91993,-6.65276 -5.84907,-5.17933 z m -13.61807,1.38413 -8.12619,1.69667 12.01069,3.8845 -3.8845,-5.58117 z m -158.907222,0.13387 10.403311,21.11917 12.144636,-15.1808 -22.547947,-5.93837 z m 187.840032,1.69668 -5.53652,4.15239 12.45718,-0.40184 -6.92066,-3.75055 z m -137.430858,1.83063 -5.849072,10.31401 1.741327,2.45571 4.107745,-12.76972 z m 113.945278,5.40257 -8.12619,1.69668 12.01069,3.8845 -3.8845,-5.58118 z m -105.729789,5.49188 -5.849071,10.269365 1.741326,2.50037 4.107745,-12.769735 z m 122.428659,1.65203 9.33173,12.948325 -1.07159,-10.046115 -8.26014,-2.90221 z m -17.68116,3.3487 c -1.21018,3.18618 -9.7725,13.965625 -12.09999,15.270095 0.43578,0.8044 2.29355,0.25039 2.00923,0.58044 -4.82071,5.62225 -9.13456,8.5734 -12.72508,11.51955 1.1173,0.39148 1.65202,1.02693 1.65202,1.02693 -3.16475,3.30906 -11.01411,8.98775 -14.60035,11.69814 0,0 1.39663,0.0936 2.58967,1.33949 -4.84357,3.56623 -11.14307,8.9831 -15.71659,13.08227 l 2.27712,0.66974 c -1.67739,1.63739 -3.90522,3.38728 -6.29557,5.13468 l 4.64354,6.16162 c 4.34921,-4.3735 8.34979,-8.44409 8.57268,-8.57268 0,0 -2.02601,-2.80792 -4.46494,-3.7952 0,0 3.17047,-0.38685 6.42952,2.00922 0.45149,-1.15874 -0.93443,0.62509 1.78597,-2.94686 2.51466,-3.28191 9.28708,-7.8583 9.28708,-7.8583 -0.22575,-2.92614 -3.8845,-4.06309 -3.8845,-4.06309 4.77784,-0.35862 5.75977,2.72361 5.75977,2.72361 3.47194,-6.31378 10.76051,-11.69814 10.76051,-11.69814 0,0 -1.92707,-3.1326 -4.0631,-4.37564 1.33163,0.24861 4.50102,0.20074 5.93837,1.87527 2.20461,-2.69182 6.54489,-9.4846 8.70664,-12.18928 0,0 -1.66989,-2.54395 -3.17011,-2.76827 1.74311,-0.76297 4.86678,0.71439 4.86678,0.71439 3.82628,-10.5944 3.42122,-4.22703 6.51882,-14.198505 0.51293,-1.6631 -3.90022,-0.1093 -4.77749,-1.33948 z m 30.80809,0.3572 9.33172,12.948325 -1.02693,-10.046115 -8.30479,-2.90221 z m -17.85976,3.21475 -3.30406,12.010685 5.62583,-5.49187 -2.32177,-6.518815 z m 31.83502,1.473445 5.22398,13.97525 3.03616,-11.07304 -8.26014,-2.90221 z m 14.68965,6.56346 0.40185,13.17156 7.90294,-10.26936 -8.30479,-2.9022 z m -218.782066,1.11623 -23.351637,0.3572 15.716589,17.50255 7.635048,-17.85975 z m 176.588386,2.18788 -3.12546,13.66272 5.53653,-6.20627 -2.41107,-7.45645 z m 55.40991,3.17011 -6.42952,16.34168 8.08154,-6.29556 -1.65202,-10.04612 z m -51.21287,9.28708 -5.84907,11.34094 8.21549,-3.88449 -2.36642,-7.45645 z m 53.84718,3.57195 -6.42951,16.34168 8.12619,-6.29557 -1.69668,-10.04611 z m -50.45382,10.44796 -7.769,7.45645 10.18006,0 -2.41106,-7.45645 z m -194.939292,1.51808 -22.3693498,6.65276 19.8689828,12.63578 2.500367,-19.28854 z m 248.027422,0.89299 -6.38486,16.34168 8.08154,-6.29557 -1.69668,-10.04611 z m -50.36452,10.49261 -13.08227,4.33099 7.85829,2.32177 5.22398,-6.65276 z m 52.99884,2.36641 -6.38487,16.34168 8.08155,-6.29556 -1.69668,-10.04612 z m -59.473,6.51882 -13.08228,4.37564 7.8583,2.27712 5.22398,-6.65276 z m -86.3073,5.22398 c -0.31576,0.18431 -0.68367,0.40184 -0.98229,0.58044 -0.82154,1.1916 -3.17296,1.33912 -3.88449,2.72361 0.98728,0.17003 2.03994,0.0414 2.45571,0.89299 -3.43764,3.54195 -13.69165,9.48996 -15.67194,13.03763 0,0 1.72347,0.37826 2.18782,1.02693 -3.68196,4.81356 -13.20836,8.76129 -17.056067,12.68043 1.495933,0.41006 2.321768,1.20553 2.321768,1.20553 -4.204901,4.5521 -17.261458,10.18828 -20.226178,13.70737 0.728678,0.68439 2.107094,1.19625 1.741327,1.47343 -4.703547,3.5691 -16.573144,8.36337 -20.985219,13.12693 1.161599,0.0671 2.195322,0.54758 2.589665,1.11623 -5.340782,2.89042 -18.211597,8.72056 -21.654959,11.16235 0.84441,0.74297 1.944571,0.98729 2.857562,1.60738 -8.23835,5.81514 -19.707531,9.28993 -26.298497,15.35939 8.304074,-2.25461 13.23051,6.97102 15.537991,12.32324 1.238753,-3.90057 3.781626,-7.25107 6.384865,-10.53726 2.461789,-3.11474 11.658851,-8.33765 12.501832,-8.66199 0,0 7.14e-4,-5.25541 -4.018446,-7.72434 4.554953,0.48293 4.614962,1.75168 6.608111,6.78671 3.35192,-3.6534 12.60649,-7.95117 15.761238,-11.96604 0.667241,-0.84584 -0.870127,-8.88523 -3.929147,-8.88523 0.251465,-0.12002 3.739477,-1.3677 6.831358,5.67047 1.02015,-1.39878 1.666316,-1.53272 2.902211,-2.27712 3.579096,-2.17317 2.813627,-2.83827 6.116968,-5.62582 2.480364,-2.09317 5.731912,-3.94665 5.849072,-4.50959 0.404345,-1.92028 -2.008866,-5.50117 -4.107745,-7.00996 0.735822,0.33434 5.469373,0.25897 6.250916,5.40258 -0.160023,-0.02 2.134956,-2.11853 4.152394,-3.7059 4.182042,-3.30477 11.0309,-8.72949 13.12692,-9.77822 -1.18017,-5.2322 -3.81984,-6.14411 -4.55423,-6.29557 6.12804,0.74011 6.65276,3.83985 6.65276,3.83985 2.28033,-1.88027 1.93207,-2.1746 4.33099,-3.92914 0.64581,-0.4715 7.85829,-7.18856 7.85829,-7.18856 0.84013,-2.30176 -1.71132,-7.09925 -5.67047,-7.99224 5.0736,0.40149 7.06175,1.75954 7.94759,5.09003 1.21161,-2.34177 4.04095,-5.1011 4.50959,-5.75977 2.07602,-2.92186 2.27248,-4.93072 5.44723,-5.53653 -0.25432,-3.56623 -4.28634,-7.18855 -4.28634,-7.18855 4.45351,0.64152 6.16161,4.68819 6.16161,4.68819 0.0443,0.0171 0.27362,-0.1811 0.6251,-0.49115 l -6.38487,-8.43873 z m 79.87778,3.66125 -13.12692,4.37564 7.85829,2.27712 5.26863,-6.65276 z M 22.715718,170.88228 2.9806822,183.25016 25.52863,190.08152 22.715718,170.88228 z m 180.517532,5.98302 -13.08227,4.37564 7.85829,2.32177 5.22398,-6.69741 z m -173.99872,25.40551 -15.671939,17.27932 23.530234,0.44649 -7.858295,-17.72581 z m 162.38988,22.68189 -8.48339,6.47417 1.51808,2.00922 8.52804,-6.42951 -1.56273,-2.05388 z m 3.30405,4.42029 -8.48338,6.42952 1.51808,2.00922 8.52803,-6.42951 -1.56273,-2.00923 z m 42.23833,0.22325 -12.41253,14.9129 22.414,6.42951 -10.00147,-21.34241 z m -38.93427,4.10775 -8.48339,6.47416 1.51808,2.00922 8.52804,-6.42951 -1.56273,-2.05387 z m 3.3487,4.42029 -8.52803,6.42951 1.51808,2.00922 8.52803,-6.42951 -1.51808,-2.00922 z m -122.339361,25.18226 -1.205534,23.30699 18.529502,-14.55571 -17.323968,-8.75128 z m 200.073971,1.69668 -4.64354,13.61806 4.19705,0 0.44649,-13.61806 z m -6.16162,0.40184 -4.46494,13.21622 4.24169,0.0446 0.22325,-13.26087 z m -6.16162,0.40185 -4.28634,12.81437 4.2417,0.0446 0.0446,-12.85903 z m -6.11696,0.35719 -4.10775,12.50183 4.19705,0 -0.0893,-12.50183 z m -6.16162,0.40184 -3.92915,12.09999 4.19705,0 -0.2679,-12.09999 z m -6.16162,0.3572 -3.75055,11.74279 4.19705,0.0446 -0.4465,-11.78744 z m -6.11697,0.40184 -3.6166,11.3856 4.19705,0 -0.58045,-11.3856 z m -6.16161,0.40185 -3.43801,10.98375 4.2417,0 -0.80369,-10.98375 z m -6.16162,0.35719 -3.25941,10.62656 4.2417,0.0446 -0.98229,-10.67121 z m -39.69332,1.16089 -18.21695,6.69741 16.20773,16.78817 2.00922,-23.48558 z m -81.75306,6.78671 5.13469,22.77119 13.93061,-19.02064 -19.0653,-3.75055 z m 51.12357,2.81291 -19.33319,1.51808 11.07305,20.49407 8.26014,-22.01215 z"
 /></svg>
