<?xml version="1.0" encoding="UTF-8" standalone="no"?>
<!-- Generator: Adobe Illustrator 13.0.2, SVG Export Plug-In . SVG Version: 6.00 Build 14948)  -->

<svg
   xmlns:dc="http://purl.org/dc/elements/1.1/"
   xmlns:cc="http://creativecommons.org/ns#"
   xmlns:rdf="http://www.w3.org/1999/02/22-rdf-syntax-ns#"
   xmlns:svg="http://www.w3.org/2000/svg"
   xmlns="http://www.w3.org/2000/svg"
   xmlns:sodipodi="http://sodipodi.sourceforge.net/DTD/sodipodi-0.dtd"
   xmlns:inkscape="http://www.inkscape.org/namespaces/inkscape"
   version="1.1"
   id="Layer_1"
   x="0px"
   y="0px"
   width="300"
   height="300"
   viewBox="0 0 300 300"
   enable-background="new 0 0 422 470"
   xml:space="preserve"
   inkscape:version="0.48.3.1 r9886"
   sodipodi:docname="LOS.svg"><metadata
   id="metadata402"><rdf:RDF><cc:Work
       rdf:about=""><dc:format>image/svg+xml</dc:format><dc:type
         rdf:resource="http://purl.org/dc/dcmitype/StillImage" /></cc:Work></rdf:RDF></metadata><defs
   id="defs400" /><sodipodi:namedview
   pagecolor="#ffffff"
   bordercolor="#666666"
   borderopacity="1"
   objecttolerance="10"
   gridtolerance="10"
   guidetolerance="10"
   inkscape:pageopacity="0"
   inkscape:pageshadow="2"
   inkscape:window-width="1366"
   inkscape:window-height="744"
   id="namedview398"
   showgrid="false"
   fit-margin-top="0"
   fit-margin-left="0"
   fit-margin-right="0"
   fit-margin-bottom="0"
   inkscape:zoom="1.0042553"
   inkscape:cx="90.030347"
   inkscape:cy="226.88185"
   inkscape:window-x="0"
   inkscape:window-y="24"
   inkscape:window-maximized="1"
   inkscape:current-layer="Layer_1" />
<path
   id="rect304"
   style="fill:#000000"
   d="m 175.8286,39.722051 69.18993,0 0,24.378583 -69.18993,0 z m 92.15226,75.851119 H 245.01107 V 81.018122 H 175.8286 v 34.555048 h -22.97352 c 0,0 7.96104,-12.20534 7.96104,-46.380575 0,-34.164044 -7.96104,-46.385048 -7.96104,-46.385048 h 115.12578 c 0,0 -7.96104,12.221004 -7.96104,46.385048 0,34.175235 7.96104,46.380575 7.96104,46.380575 m -132.40889,0 H 34.568476 c 0,0 7.953577,-12.20534 7.953577,-46.380575 0,-34.164044 -7.953577,-46.385048 -7.953577,-46.385048 h 30.923368 c 0,0 -7.95358,12.221004 -7.95358,46.385048 V 98.66687 h 47.888606 c 27.04321,0 38.5628,-12.012818 38.5628,-12.012818 -7.5e-4,17.462198 -8.4177,28.919118 -8.4177,28.919118 M 275.41957,1.3308734 H 27.122304 V 137.04312 H 275.41957 V 1.3308734 z M 104.74038,205.51448 l 1.91247,-0.832 c 0,0 7.51184,10.02723 8.90944,11.90239 3.08099,-3.77047 8.95719,-8.44905 16.91823,-11.07039 -0.62828,-1.54012 -3.51527,-8.55948 -3.51527,-8.55948 0,0 4.43457,1.79159 6.34033,2.5624 -0.20147,-0.38727 -0.39772,-0.78499 -0.39772,-0.78499 0,0 6.79625,0.35742 7.87299,0.41264 0.54397,-0.95586 4.2525,-7.52228 4.75245,-8.40949 -0.43801,-0.77007 -1.84755,-3.23024 -1.99306,-3.49364 -0.24102,-0.20072 -1.9744,-1.67891 -1.9744,-1.67891 l 2.25571,-4.30026 4.8002,0.33578 c 0,0 0.0836,2.249 0.0985,2.65418 l 0.55068,0.91258 0.55442,-0.91258 c 0.0157,-0.40518 0.0992,-2.65418 0.0992,-2.65418 l 4.79647,-0.33578 2.2587,4.30026 c 0,0 -1.73338,1.47819 -1.9744,1.67891 -0.14924,0.2634 -1.55505,2.72283 -2.00425,3.49364 0.51188,0.88646 4.21594,7.45288 4.76364,8.40949 1.07674,-0.0545 7.86926,-0.41264 7.86926,-0.41264 0,0 -0.20073,0.39772 -0.39324,0.78499 1.90501,-0.77007 6.33958,-2.5624 6.33958,-2.5624 0,0 -2.87953,7.01861 -3.51527,8.55948 7.96104,2.62134 13.83798,7.29992 16.91823,11.07039 1.39835,-1.87591 8.90944,-11.90239 8.90944,-11.90239 l 1.91247,0.832 -9.20194,52.79775 c 0,0 -13.11046,3.34067 -37.33235,3.34067 -24.21815,0 -37.32861,-3.34067 -37.32861,-3.34067 l -9.20194,-52.79775 z m 170.68292,6.09185 V 172.0623 H 27.122304 v 39.54403 L 151.27093,301.33125 275.4233,211.60633 z"
/>
</svg>
