<?xml version="1.0" encoding="UTF-8" standalone="no"?>
<!-- Created with Inkscape (http://www.inkscape.org/) -->

<svg
   xmlns:dc="http://purl.org/dc/elements/1.1/"
   xmlns:cc="http://creativecommons.org/ns#"
   xmlns:rdf="http://www.w3.org/1999/02/22-rdf-syntax-ns#"
   xmlns:svg="http://www.w3.org/2000/svg"
   xmlns="http://www.w3.org/2000/svg"
   xmlns:sodipodi="http://sodipodi.sourceforge.net/DTD/sodipodi-0.dtd"
   xmlns:inkscape="http://www.inkscape.org/namespaces/inkscape"
   id="svg2403"
   sodipodi:version="0.32"
   inkscape:version="0.48.3.1 r9886"
   width="300"
   height="300"
   xml:space="preserve"
   sodipodi:docname="MIN.svg"
   version="1.0"
   inkscape:output_extension="org.inkscape.output.svg.inkscape"><metadata
     id="metadata8"><rdf:RDF><cc:Work
         rdf:about=""><dc:format>image/svg+xml</dc:format><dc:type
           rdf:resource="http://purl.org/dc/dcmitype/StillImage" /></cc:Work></rdf:RDF></metadata><sodipodi:namedview
     inkscape:window-height="715"
     inkscape:window-width="1280"
     inkscape:pageshadow="2"
     inkscape:pageopacity="0.0"
     guidetolerance="10.0"
     gridtolerance="10.0"
     objecttolerance="10.0"
     borderopacity="1.0"
     bordercolor="#666666"
     pagecolor="#ffffff"
     id="base"
     showgrid="false"
     inkscape:zoom="1.337969"
     inkscape:cx="86.886364"
     inkscape:cy="156.91141"
     inkscape:window-x="0"
     inkscape:window-y="24"
     inkscape:current-layer="g2412"
     inkscape:window-maximized="0" /><defs
     id="defs2406" /><g
     inkscape:label="Minnesota Wild"
     inkscape:groupmode="layer"
     id="g2412"
     transform="translate(0,153)">
<path
   d="m 163.63435,-99.18127 c -30.48969,0 -40.32205,28.040303 -40.32205,28.040303 0,0 -36.204739,5.929831 -81.998704,32.375039 l 9.75315,7.450323 c 0,0 -21.070248,9.822936 -52.0167989,33.6844886 3.05484,8.1476754 8.695723,17.3318134 14.0878829,24.6989494 1.66133,1.48374 18.445015,10.21555 31.652583,15.21672 1.407834,-0.1962 5.783901,-2.16995 6.547254,-2.66405 0.763352,0 10.464427,4.33473 22.983116,4.33473 4.432599,0 7.811551,-0.47028 7.811551,-1.39976 0,-0.76048 -1.814772,-1.7004 -2.664055,-2.07706 -2.553578,-1.13571 -5.960258,-2.11963 -5.960258,-4.87657 0,-2.75552 5.037901,-6.4118 27.859689,-6.4118 14.37623,0 23.84104,0.81277 23.84104,0.81277 l 0,1.58037 c -7.35712,0 -14.95674,1.09625 -20.04815,2.34798 -3.23386,0.79486 -8.308235,2.27343 -8.308235,3.8832 0,2.95745 13.139665,3.00897 13.139665,8.89523 0,4.78062 -4.88399,9.97892 -23.028275,9.97892 -9.809004,0 -17.704338,-3.16075 -18.377462,-3.16075 -0.674557,0 -0.812763,0.18153 -0.812763,0.40639 0,0.33227 0.566388,1.4712 1.580372,2.84466 1.420723,1.92486 3.855509,4.3569 8.217931,5.91511 l -5.824798,3.34136 c 6.648182,6.79283 22.758861,11.4354 26.098707,12.37205 0,0 55.306968,-14.45588 80.960178,16.8874 l 70.21365,-72.922861 -16.61648,-0.09031 66.64652,-75.812678 c 0,0 -12.76901,-4.617907 -25.64717,-7.134248 l 8.80493,-6.818175 c 0,0 -44.34382,-9.241702 -80.37318,-6.321486 0,0 -6.72051,-25.376255 -38.19984,-25.376255 z m -0.45153,10.114376 c 11.31995,0 21.16643,6.280908 26.27932,15.532793 -20.48162,1.594017 -42.7241,5.804071 -56.08062,10.746527 1.76033,-0.270145 3.55571,-0.522636 5.37327,-0.767609 3.638,-0.491692 7.37987,-0.933802 11.24321,-1.309451 5.79502,-0.563474 11.85644,-0.971758 18.1517,-1.219144 4.19684,-0.164924 8.49774,-0.270921 12.91389,-0.270921 59.06313,0 99.06672,16.797092 99.06672,16.797092 l -22.93797,28.401533 -11.10775,-19.686913 -20.63514,28.401533 6.95364,0 -12.9139,18.6483836 5.86996,0 -10.92714,16.8422444 -6.95364,-14.4039574 6.05057,0 -8.80493,-14.7200316 4.83142,0 -13.72665,-28.040305 -13.27512,26.595394 6.09571,0 -9.75315,16.1197896 6.63756,0 -12.10113,19.5062994 -7.04394,-15.532794 5.01204,0 -7.1794,-12.9138934 4.42504,0 -10.70138,-21.4478986 -12.37205,21.4478986 5.41842,0 -8.53401,12.9138934 5.59903,0 -8.17277,11.649595 -8.39855,-15.1715664 4.24442,0 -5.46357,-9.256461 3.56713,0 -7.81155,-15.6682546 -8.89524,15.3070266 4.37989,0 -5.64418,8.669466 3.74774,0 -4.19928,5.3732634 -10.15953,1.851293 -2.43829,-5.3281104 3.65744,0 -8.03732,-15.307027 -9.482232,15.307027 4.650807,0 L 89.266582,16.09554 75.043239,11.489886 56.485162,22.86856 C 40.288633,23.909756 34.179348,22.055798 34.179348,22.055798 L 39.823532,15.237624 33.637506,6.1166226 C 81.857587,-14.519662 116.31351,-20.659386 116.31351,-20.659386 c 0,0 -8.3039,-3.973505 -22.080046,-3.973505 18.015276,-4.872076 34.470246,-8.643426 49.397896,-11.649596 -0.016,-0.01373 -0.0292,-0.03132 -0.0451,-0.04515 2.1925,-0.442186 4.24554,-0.811734 6.36664,-1.219144 0.95328,-0.18314 1.90598,-0.365499 2.84467,-0.541842 2.62316,-0.492706 5.16865,-0.958338 7.67609,-1.399757 2.33961,-0.41197 4.6265,-0.804217 6.86333,-1.17399 0.65696,-0.108629 1.29361,-0.210965 1.9416,-0.316075 2.92768,-0.474825 5.79249,-0.948237 8.534,-1.354604 1.12185,-0.166221 2.20609,-0.29615 3.29621,-0.451535 2.7719,-0.395282 5.42912,-0.754276 7.99216,-1.083683 27.38281,-3.519277 42.80549,-3.476817 42.80549,-3.476817 0,0 -14.11327,-5.42769 -38.92229,-8.037318 -1.74125,-0.182973 -3.57311,-0.344035 -5.41842,-0.496688 -0.23276,-0.0192 -0.48806,-0.02649 -0.72245,-0.04515 -0.46782,-0.03729 -0.97061,-0.05521 -1.44491,-0.09031 -1.65531,-0.122326 -3.32389,-0.268104 -5.05719,-0.361227 -2.14887,-0.115507 -4.37135,-0.206935 -6.63756,-0.270921 -0.0879,-0.0025 -0.18291,0.0025 -0.27092,0 -2.36349,-0.06424 -4.78237,-0.09031 -7.26971,-0.09031 -2.80528,0 -5.57867,0.05141 -8.35339,0.13546 -2.47139,0.07486 -4.92141,0.181111 -7.36002,0.316075 -0.61926,0.03427 -1.23447,0.09756 -1.85129,0.13546 -2.40845,0.147975 -4.81304,0.297243 -7.1794,0.496688 -2.08539,0.175765 -4.13905,0.37567 -6.18603,0.586995 -0.19752,0.02042 -0.38986,0.02443 -0.587,0.04515 -0.38849,0.04079 -0.78701,0.0935 -1.17399,0.13546 -42.203227,4.585752 -75.270906,16.119789 -75.270906,16.119789 0,0 26.700859,-16.560979 75.180526,-24.021646 1.83749,-14.814476 14.48985,-26.27932 29.8013,-26.27932 z m 2.84467,41.089658 c -26.87631,3.140772 -53.05538,9.240509 -73.419551,14.720032 0.272114,2.023671 0.520438,4.023632 0.632149,5.59903 -0.239175,0.09023 -4.786268,-2.528594 -4.786268,-2.528594 l -6.592407,5.960258 c 1.005391,-2.50202 2.306129,-5.228573 3.612278,-7.766397 -12.631832,3.561833 -22.210455,6.715733 -27.046929,8.398546 7.878425,-4.219204 19.771332,-9.242299 29.349756,-12.688126 1.934876,-3.501681 3.431664,-6.005411 3.431664,-6.005411 0,0 0.412507,2.301833 0.857915,5.237802 0.0085,-0.0014 0.03656,0.0029 0.04515,0 37.858253,-9.406562 61.201343,-10.5204 73.916243,-10.92714 z"
 />
</g></svg>
