<?xml version="1.0" encoding="UTF-8" standalone="no"?>
<!-- Generator: Adobe Illustrator 13.0.0, SVG Export Plug-In . SVG Version: 6.00 Build 14948)  -->

<svg
   xmlns:dc="http://purl.org/dc/elements/1.1/"
   xmlns:cc="http://creativecommons.org/ns#"
   xmlns:rdf="http://www.w3.org/1999/02/22-rdf-syntax-ns#"
   xmlns:svg="http://www.w3.org/2000/svg"
   xmlns="http://www.w3.org/2000/svg"
   xmlns:sodipodi="http://sodipodi.sourceforge.net/DTD/sodipodi-0.dtd"
   xmlns:inkscape="http://www.inkscape.org/namespaces/inkscape"
   version="1.1"
   id="H_Stroke_White"
   x="0px"
   y="0px"
   width="300"
   height="300"
   viewBox="0 0 300 300"
   xml:space="preserve"
   inkscape:version="0.48.3.1 r9886"
   sodipodi:docname="MON.svg"><metadata
   id="metadata17"><rdf:RDF><cc:Work
       rdf:about=""><dc:format>image/svg+xml</dc:format><dc:type
         rdf:resource="http://purl.org/dc/dcmitype/StillImage" /></cc:Work></rdf:RDF></metadata><defs
   id="defs15"><filter
     id="filter2994"
     inkscape:label="Desaturate"
     x="0"
     y="0"
     width="1"
     height="1"
     inkscape:menu="Color"
     inkscape:menu-tooltip="Render in shades of gray by reducing saturation to zero"
     color-interpolation-filters="sRGB"><feColorMatrix
       id="feColorMatrix2996"
       type="saturate"
       values="0" /></filter></defs><sodipodi:namedview
   pagecolor="#ffffff"
   bordercolor="#666666"
   borderopacity="1"
   objecttolerance="10"
   gridtolerance="10"
   guidetolerance="10"
   inkscape:pageopacity="0"
   inkscape:pageshadow="2"
   inkscape:window-width="1012"
   inkscape:window-height="587"
   id="namedview13"
   showgrid="false"
   inkscape:zoom="1.2977778"
   inkscape:cx="112.5"
   inkscape:cy="137.86684"
   inkscape:window-x="0"
   inkscape:window-y="24"
   inkscape:window-maximized="0"
   inkscape:current-layer="H_Stroke_White" />
<g
   id="g3"
   transform="matrix(1.3333333,0,0,1.3333333,-0.2020548,44.651175)">
	<path
   d="M 109.125,0 C 52.648,9.9999999e-4 0,30.2795 0,76.0625 c 0,43.547 41.703,76.375 109.125,76.375 C 171.194,152.4375 225,112.75 225,112.75 l -25.59375,-38.15625 17.625,-18.875 -8.375,-39 -37.75,-11.34375 -3.78125,3.78125 c 0,0 -30.88,-9.15625 -58,-9.15625 z m -2.75,7.6875 c 36.224,0 62.84375,10.6875 62.84375,10.6875 L 173,14.59375 201.5,22.5625 208.65625,53.625 187.6875,75.40625 c 0,0 -14.3105,-18.20225 -51.1875,-25.15625 l 0,52.3125 c 19.467,-3.664 37.295,-11.482 56,-24 l 21.8125,32.28125 c 0,0 -48.029,33.71875 -108.875,33.71875 C 48.2265,144.5625 8,114.623 8,76.25 8,41.021 48.657,7.6875 106.375,7.6875 z m -0.15625,5.71875 c -50.011,0 -92.4375,26.57175 -92.4375,62.21875 0,39.213 41.59225,63.40625 90.03125,63.40625 61.23,0 102.3125,-30.0625 102.3125,-30.0625 L 191.03125,86.3125 c 0,0 -33.96675,24.34375 -83.59375,24.34375 -48.3,0 -65.09375,-20.625 -65.09375,-35.25 0,-14.626 18.68125,-33.53125 63.03125,-33.53125 56.302,0 81.46875,26 81.46875,26 l 15.5,-15.53125 -5.03125,-25.15625 -22.625,-6.71875 -4.21875,4.625 c 0,0 -22.205,-11.6875 -64.25,-11.6875 z M 103.5,47.59375 c -1.004,0.01687 -1.9665,0.06225 -2.9375,0.09375 l 0,21.4375 21.59375,0 0,-20.875 c -4.875,-0.436 -10.08375,-0.65625 -15.59375,-0.65625 -1.042,0 -2.0585,-0.01687 -3.0625,0 z M 85.34375,48.9375 c -32.371,4.636 -37.4375,19.9325 -37.4375,27.4375 0,0 -0.5945,20.881 37.4375,27 l 0,-54.4375 z m 21.03125,4.53125 c 8.981,-0.021 8.8165,0.191 10.0625,0.375 l 0,9 -10.0625,0 0,-9.375 z m -29,4.96875 0,35.8125 c 0,0 -21.53125,-7.87325 -21.53125,-17.78125 0,-12.424 21.53125,-18.03125 21.53125,-18.03125 z m 67.3125,1.46875 c 22.018,6.5 34.1875,18.03125 34.1875,18.03125 0,0 -16.7835,9.85575 -34.1875,14.46875 l 0,-32.5 z m -44.125,22.96875 0,22 c 2.534,0.111 5.1545,0.15625 7.9375,0.15625 4.668,0 9.22625,-0.1915 13.65625,-0.5625 l 0,-21.59375 -21.59375,0 z m 5.8125,6.375 10.0625,0 0,9 c -4.333,0.643 -10.0625,0.375 -10.0625,0.375 l 0,-9.375 z"
 />
</g>
</svg>
