<?xml version="1.0" encoding="UTF-8" standalone="no"?>
<!-- Generator: Adobe Illustrator 12.0.0, SVG Export Plug-In . SVG Version: 6.00 Build 51448)  -->

<svg
   xmlns:dc="http://purl.org/dc/elements/1.1/"
   xmlns:cc="http://creativecommons.org/ns#"
   xmlns:rdf="http://www.w3.org/1999/02/22-rdf-syntax-ns#"
   xmlns:svg="http://www.w3.org/2000/svg"
   xmlns="http://www.w3.org/2000/svg"
   xmlns:sodipodi="http://sodipodi.sourceforge.net/DTD/sodipodi-0.dtd"
   xmlns:inkscape="http://www.inkscape.org/namespaces/inkscape"
   version="1.1"
   id="Layer_1"
   width="300"
   height="300"
   viewBox="0 0 300 300.00001"
   overflow="visible"
   enable-background="new 0 0 158.83 160.241"
   xml:space="preserve"
   inkscape:version="0.48.3.1 r9886"
   sodipodi:docname="NJD.svg"
   style="overflow:visible"><metadata
     id="metadata23"><rdf:RDF><cc:Work
         rdf:about=""><dc:format>image/svg+xml</dc:format><dc:type
           rdf:resource="http://purl.org/dc/dcmitype/StillImage" /></cc:Work></rdf:RDF></metadata><defs
     id="defs21"><filter
       id="filter2988"
       inkscape:label="Desaturate"
       x="0"
       y="0"
       width="1"
       height="1"
       inkscape:menu="Color"
       inkscape:menu-tooltip="Render in shades of gray by reducing saturation to zero"
       color-interpolation-filters="sRGB"><feColorMatrix
         id="feColorMatrix2990"
         type="saturate"
         values="0" /></filter><filter
       id="filter2992"
       inkscape:label="Desaturate"
       x="0"
       y="0"
       width="1"
       height="1"
       inkscape:menu="Color"
       inkscape:menu-tooltip="Render in shades of gray by reducing saturation to zero"
       color-interpolation-filters="sRGB"><feColorMatrix
         id="feColorMatrix2994"
         type="saturate"
         values="0" /></filter><filter
       id="filter2996"
       inkscape:label="Desaturate"
       x="0"
       y="0"
       width="1"
       height="1"
       inkscape:menu="Color"
       inkscape:menu-tooltip="Render in shades of gray by reducing saturation to zero"
       color-interpolation-filters="sRGB"><feColorMatrix
         id="feColorMatrix2998"
         type="saturate"
         values="0" /></filter><filter
       id="filter3000"
       inkscape:label="Desaturate"
       x="0"
       y="0"
       width="1"
       height="1"
       inkscape:menu="Color"
       inkscape:menu-tooltip="Render in shades of gray by reducing saturation to zero"
       color-interpolation-filters="sRGB"><feColorMatrix
         id="feColorMatrix3002"
         type="saturate"
         values="0" /></filter><filter
       id="filter3004"
       inkscape:label="Desaturate"
       x="0"
       y="0"
       width="1"
       height="1"
       inkscape:menu="Color"
       inkscape:menu-tooltip="Render in shades of gray by reducing saturation to zero"
       color-interpolation-filters="sRGB"><feColorMatrix
         id="feColorMatrix3006"
         type="saturate"
         values="0" /></filter><filter
       id="filter3008"
       inkscape:label="Desaturate"
       x="0"
       y="0"
       width="1"
       height="1"
       inkscape:menu="Color"
       inkscape:menu-tooltip="Render in shades of gray by reducing saturation to zero"
       color-interpolation-filters="sRGB"><feColorMatrix
         id="feColorMatrix3010"
         type="saturate"
         values="0" /></filter></defs><sodipodi:namedview
     pagecolor="#ffffff"
     bordercolor="#666666"
     borderopacity="1"
     objecttolerance="10"
     gridtolerance="10"
     guidetolerance="10"
     inkscape:pageopacity="0"
     inkscape:pageshadow="2"
     inkscape:window-width="1366"
     inkscape:window-height="744"
     id="namedview19"
     showgrid="false"
     fit-margin-top="0"
     fit-margin-left="0"
     fit-margin-right="0"
     fit-margin-bottom="0"
     inkscape:zoom="1.0414203"
     inkscape:cx="142.72682"
     inkscape:cy="134.55149"
     inkscape:window-x="0"
     inkscape:window-y="24"
     inkscape:window-maximized="1"
     inkscape:current-layer="Layer_1" /><path
     style="fill:#000000;fill-rule:evenodd;stroke:none;filter:url(#filter3008)"
     d="m 132.18715,139.76091 c 0.507,0.581 1.1875,1.4375 1.1875,1.4375 1.234,1.886 1.85976,2.475 3.59376,5.25 2.178,3.48301 -0.7185,7.09376 -4.56251,7.09376 0,0 -18.76102,-0.0312 -21.25002,-0.0312 -1.02178,0 -1.96441,-0.10666 -2.78126,-0.3125 -0.009,-0.004 -0.0224,0.004 -0.0312,0 -0.54537,-0.2332 -1.10393,-0.43646 -1.65625,-0.65625 -0.0212,-0.0121 -0.0416,-0.0189 -0.0625,-0.0312 -1.38789,-0.81763 -2.1063,-2.13663 -1.90625,-3.875 0.253,-2.21201 3.72425,-5.72526 5.03126,-7.03126 0,0 0.7825,-0.82425 1.4375,-1.40625 0,0 -4.50351,0.27175 -9.68751,1.71875 -3.628007,1.014 -7.550262,2.7215 -10.656266,4.8125 -0.626175,0.4215 -1.226783,0.84155 -1.781302,1.28126 -2.744262,-0.32922 -5.537431,-0.5 -8.37501,-0.5 -38.753042,0 -70.187582,31.39828 -70.187582,70.15633 0,13.36754 3.761838,25.86406 10.250012,36.50004 -0.795108,0.42784 -1.718149,0.76332 -2.906253,0.9375 -3.733005,0.545 -5.365257,-4.617 -5.656257,-11.00001 -6.1670067,7.32701 -10.6810122,17.65202 -11.87501363,29.00003 -0.87000101,8.27001 0.00325,15.88627 4.53125533,26.90628 2.8280032,-3.627 10.4062623,-8.98476 18.5312713,-12.46876 8.35001,-3.578 23.037027,-4.09576 24.125029,-4.09376 -1.015002,-0.433 -6.386008,-2.849 -11.500014,-6.875 -1.853002,-1.46201 -3.158254,-4.24151 -2.406253,-5.93751 0.117792,-0.26469 0.226715,-0.49103 0.343751,-0.6875 12.414579,11.11664 28.77562,17.90627 46.750054,17.90627 38.755048,0 70.156328,-31.43154 70.156328,-70.18758 0,-13.91651 -4.04425,-26.87519 -11.03126,-37.7813 4.53862,-1.18053 9.61245,-3.34325 13.09377,-6.46875 4.507,-4.04801 6.3915,-11.15752 5.8125,-15.43752 -0.847,-6.24601 -1.73475,-7.91951 -6.59375,-12.56252 -5.19401,-4.962 -14.06602,-5.65625 -16.75002,-5.65625 l -3.18751,0 z m -51.500058,15.12501 c 0.873011,0 1.729411,0.0272 2.593754,0.0625 -1.525615,3.06955 -2.093753,6.3909 -2.093753,9.90627 0,9.28501 8.71326,15.37501 17.781271,15.37501 l -8.71876,22.93753 c 0,0 -9.580762,-12.86501 -15.093768,-18.87502 -6.089007,-6.64001 -10.734513,-9.48951 -18.562522,-7.81251 -8.125009,1.74 -10.169512,8.69176 -14.812517,19.71877 l -18.625022,46.68756 c -3.393521,-7.72256 -5.281256,-16.24646 -5.281256,-25.21878 0,-34.67804 28.139535,-62.78133 62.812573,-62.78133 z m 53.968808,30.68754 c 5.59447,9.38999 8.81252,20.36813 8.81252,32.09379 0,34.67704 -28.10829,62.81257 -62.781328,62.81257 -14.755697,0 -28.307587,-5.09855 -39.031295,-13.62501 2.298638,0.1062 5.251675,0.66779 9.00001,2.03125 8.02701,2.92 12.180265,5.09375 21.031275,5.09375 5.222006,0 14.348767,-1.151 23.343777,-6.375 9.191011,-5.33601 12.499511,-11.07402 17.562521,-23.75003 l 22.06252,-58.28132 z m -67.031323,41.5313 7.250009,13.21876 c 0,0 -3.344504,3.40701 -6.687508,6.75001 -5.168006,5.16901 -16.72127,1.96875 -24.031278,1.96875 -6.594079,0 -11.622222,0.32435 -16.71877,1.93751 -0.615842,-0.98187 -1.187955,-1.9827 -1.750002,-3.00001 3.803637,-1.25104 10.910545,-2.84375 17.28127,-2.84375 3.263004,0 10.782013,0.35475 16.87502,2.09375 l 7.781259,-20.12502 z"
     transform="matrix(1.8720717,0,0,1.8720717,1.8801361,-261.29048)" /></svg>





