<?xml version="1.0" encoding="UTF-8" standalone="no"?>
<!-- Generator: Adobe Illustrator 13.0.2, SVG Export Plug-In . SVG Version: 6.00 Build 14948)  -->

<svg
   xmlns:dc="http://purl.org/dc/elements/1.1/"
   xmlns:cc="http://creativecommons.org/ns#"
   xmlns:rdf="http://www.w3.org/1999/02/22-rdf-syntax-ns#"
   xmlns:svg="http://www.w3.org/2000/svg"
   xmlns="http://www.w3.org/2000/svg"
   xmlns:sodipodi="http://sodipodi.sourceforge.net/DTD/sodipodi-0.dtd"
   xmlns:inkscape="http://www.inkscape.org/namespaces/inkscape"
   version="1.1"
   id="Layer_1"
   x="0px"
   y="0px"
   width="300"
   height="300"
   viewBox="0 0 300 299.99999"
   enable-background="new 0 0 437.904 253.71"
   xml:space="preserve"
   inkscape:version="0.48.3.1 r9886"
   sodipodi:docname="NSH.svg"><metadata
     id="metadata308"><rdf:RDF><cc:Work
         rdf:about=""><dc:format>image/svg+xml</dc:format><dc:type
           rdf:resource="http://purl.org/dc/dcmitype/StillImage" /></cc:Work></rdf:RDF></metadata><defs
     id="defs306" /><sodipodi:namedview
     pagecolor="#ffffff"
     bordercolor="#666666"
     borderopacity="1"
     objecttolerance="10"
     gridtolerance="10"
     guidetolerance="10"
     inkscape:pageopacity="0"
     inkscape:pageshadow="2"
     inkscape:window-width="1366"
     inkscape:window-height="744"
     id="namedview304"
     showgrid="false"
     fit-margin-top="0"
     fit-margin-left="0"
     fit-margin-right="0"
     fit-margin-bottom="0"
     inkscape:zoom="1.470642"
     inkscape:cx="174.4147"
     inkscape:cy="124.85021"
     inkscape:window-x="0"
     inkscape:window-y="24"
     inkscape:window-maximized="1"
     inkscape:current-layer="Layer_1" /><g
     id="g272"
     transform="matrix(0.7023705,0,0,0.7023705,-4.1959823,60.341058)"><path
   style="fill:#000000"
   clip-path=""
   d="m 282.96875,5.40625 -87,17.375 c -23.494,-1.942 -44.53125,1.125 -44.53125,1.125 l 7.3125,6.3125 -139.6875,27.875 -13.6875,18 c 0,0 99.09375,12.784511 99.09375,74.9375 0,22.923 -15.46875,44.6875 -15.46875,44.6875 L 143.15625,205.5 c 0,0 13.465,12.28125 34.625,12.28125 24.619,0 26.1875,-10.2925 26.1875,-14.3125 10.827,-3.497 25.5,-15.38775 25.5,-21.96875 0,-2.637 -2.74375,-4.34375 -4.71875,-4.34375 -1.637,0 -3.85525,1.31575 -5.65625,2.09375 1.029,-2.297 -0.43175,-6.34375 -4.34375,-6.34375 -3.278,0 -8.83575,4.65525 -19.59375,5.65625 0,0 8.21325,-21.9355 38.40625,-31.9375 30.511,-10.107 73.375,-17.96875 73.375,-17.96875 C 288.7825,199.83325 205.71875,235.875 205.71875,235.875 L 236.375,228.96875 C 222.161,236.47375 195.9375,248 195.9375,248 c 77.281,-6.575 133.528,-33.16575 173,-84.09375 l 2.6875,1.46875 14.59375,0 c 17.446,-9.726 29.09375,-9.03125 29.09375,-9.03125 8.287,-16.865 17.1875,-25.5625 17.1875,-25.5625 L 420.5625,101.59375 397.03125,90.25 389,84.0625 377.46875,69.75 l -3.6875,-16.53125 -16.8125,-9.53125 -10.6875,-10.75 -63.3125,-27.53125 z m -1.03125,8.0625 61.65625,24.9375 11.03125,10.3125 16.03125,7.78125 2.53125,13.25 2.71875,4.125 -3.84375,6.53125 6.6875,-2.9375 1.71875,1.96875 -4.96875,7.53125 7.9375,-4.09375 2.25,2.5625 -3.65625,5.46875 5.875,-3.125 6.125,5.09375 c 0,0 -16.3985,7.4755 -34.3125,-6.0625 0,0 -6.127,4.4375 -14.125,4.4375 -16.529,0 -22.53125,-14.5625 -22.53125,-14.5625 -18.565,-3.368 -36.82,-5.33675 -54.5,-6.21875 -0.869,-3.104 -1.4375,-6.5245 -1.4375,-10.3125 -10e-4,-26.631 24.5625,-36.09375 24.5625,-36.09375 L 281.28125,18.96875 247.875,26.375 c 0,0 6.90625,7.91825 6.90625,21.40625 0,7.818 -3.082,15.296 -8.25,22.125 -10.563,-0.021 -20.89075,0.29925 -30.84375,0.90625 7.595,-5.73 17.5955,-10.338 30.3125,-10.875 5.923,-11.64 1.375,-22.09375 1.375,-22.09375 0,0 -11.85525,-7.46425 -26.15625,-10.90625 L 281.9375,13.46875 z m 91.25,56.28125 c -3.452,7.97 -11.098,6.869 -14.5,5.375 -0.231,-5.432 0.64975,-15.4505 -19.53125,-21.6875 L 315.0625,46 c 0,0 18.625,16.62825 18.625,20.40625 0,6.593 5.3375,11.9375 11.9375,11.9375 2.323,0 4.4825,-0.6645 6.3125,-1.8125 l 0.46875,4.90625 c 8.456,0.66 18.26925,-0.6595 20.78125,-11.6875 z M 177.8125,26.78125 c 2.99389,-0.02456 6.32575,0.038 9.90625,0.1875 l -6.125,14.34375 10.15625,-14.125 c 3.221,0.202 6.57425,0.48525 10.03125,0.90625 l -8.21875,19.1875 13.28125,-18.5 c 2.824,0.44 5.67025,0.97375 8.53125,1.59375 l -9.78125,22.84375 15.375,-21.46875 c 7.845,2.114 15.55,5.08475 22.375,9.21875 L 224.9375,43.8125 211.4375,57.875 195.03125,59 C 179.23625,59 170.375,43.9375 170.375,43.9375 l -3.875,-13.375 -3.53125,-3.03125 c -7.5e-4,0 5.86208,-0.676313 14.84375,-0.75 z M 164.15625,39.625 166,45.9375 c 0,0 10.9725,20.72325 35.3125,17.15625 l -3.90625,9.1875 c -16.542,1.613 -31.92325,3.915 -45.78125,6.5 9.199,-7.217 18.82675,-11.1945 24.96875,-12.4375 l 0.25,-2.4375 c -13.236,-7.998 -16.3125,-17.96875 -16.3125,-17.96875 L 82.9375,63.28125 c 0,0 -9.06775,9.46325 -12.71875,21.65625 C 54.91175,77.1315 38.117,72.301 22.875,71.25 L 164.15625,39.625 z M 343.25,50.71875 c 15.364,9.046 20.5625,14.06975 20.5625,22.84375 l 3,-11.59375 -23.5625,-11.25 z m -0.65625,7.5625 c 0,0 2.4105,1.44775 4.8125,4.84375 -1.918,0.5 -3.25,2.26275 -3.25,4.21875 0,2.302 1.66,4.375 4.375,4.375 1.036,0 1.91725,-0.362 2.53125,-0.75 0.22,0.808 0.3995,1.64325 0.5625,2.53125 10e-4,-0.001 -1.83275,1.1875 -4.34375,1.1875 -4.521,0 -8.875,-3.703 -8.875,-8.875 0,-5.167 4.1875,-7.53125 4.1875,-7.53125 z m -230.78125,0.875 c 0,0 -10.68625,13.2195 -15.90625,33.1875 -3.395,1.047 -6.358,2.00475 -8.875,2.84375 -2.769,-2.008 -5.63575,-3.8965 -8.59375,-5.6875 1.838,-3.971 11.21,-22.05775 33.375,-30.34375 z M 138.75,63.8125 c 0,0 -5.943,7.97 -11.125,20 -6.344,1.489 -12.18675,2.96825 -17.46875,4.40625 C 121.80025,70.65375 138.75,63.8125 138.75,63.8125 z M 252.46875,90.25 c -5.919,7.346 -8.56925,14.98675 -8.28125,21.71875 4.937,0.113 9.6795,0.884 14.1875,2.25 l 12.125,-13.3125 c 18.51253,-0.35153 37.84375,0.4375 37.84375,0.4375 L 301,115.125 c 6.36,-5.419 12.006,-9.85075 18.5,-13.09375 87.685,7.712 98.668,27.16175 92.875,48.71875 -3.452,0.268 -15.27925,1.70075 -28.65625,9.21875 l -2.9375,0.125 c 0,0 1.99225,-39.6875 -58.09375,-39.6875 -21.185,0 -63.311,10.58025 -90.875,19.65625 -23.592,7.778 -45.5625,25.96675 -45.5625,43.46875 0,10.774 9.125,15.81225 9.125,19.53125 0,4.926 -10.149,5.78125 -17.875,5.78125 -24.424,0 -35.78125,-16.53125 -35.78125,-16.53125 l -30.09375,-6.125 c 0,0 9,-13.501 9,-35 0,-4.513 -0.57925,-8.9325 -1.65625,-13.1875 0.84734,-0.93141 1.97464,-2.0795 3.3125,-3.34375 3.06,11.996 8.25,19.0625 8.25,19.0625 -3.398,-14.536 4.53125,-28.78125 4.53125,-28.78125 0,0 18.28625,-11.6845 47.78125,-17.1875 -0.865,1.03 -1.575,2.19 -2.125,3.5 l -8.78125,20.5 c -26.445,11.263 -30.73525,34.9295 -28.65625,48.3125 0.699,-19.286 20.6005,-46.76175 53.4375,-40.84375 0,0 4.659,-9.32325 15,-17.03125 -2.5,-5.67 -2.9615,-12.26975 -1.3125,-19.34375 0.129,6.904 1.86675,12.7155 4.71875,17.0625 2.93,-1.811 6.02925,-3.37175 9.28125,-4.59375 -0.944,-7.067 0.939,-14.42 5.5,-21.375 -2.578,7.489 -2.7555,14.37375 -1.0625,19.96875 3.246,-0.896 6.6195,-1.51425 10.0625,-1.78125 0.995,-8.399 5.7255,-15.967 13.5625,-21.875 z M 396.875,94.21875 418.71875,104.5 c -6.401,11.608 -20.6875,2.5625 -20.6875,2.5625 0,0 -8.29075,-3.76725 -18.84375,-6.65625 5.548,-0.797 11.5705,-2.6495 17.6875,-6.1875 z m -294.59375,10.8125 c -0.27627,0.91958 -0.50925,1.85738 -0.75,2.8125 0.52462,0.55512 1.02375,1.09106 1.53125,1.65625 -0.50275,-0.55922 -1.04311,-1.10666 -1.5625,-1.65625 0.24087,-0.95575 0.50477,-1.89184 0.78125,-2.8125 z M 348.1875,132.4375 c 6.684,0 20.875,8.2485 20.875,16.8125 0,23.082 -62.434,79.306 -145.125,91.25 97.087,-49.56 96.709,-108.0625 124.25,-108.0625 z M 224.78125,181.875 c -10.099,15.024 -25.3125,18.15625 -25.3125,18.15625 -0.562,-3.274 -6.40875,-5.743 -8.34375,-14.5 0,0 13.99325,6.23875 33.65625,-3.65625 z"
   transform="translate(0.00110587,0.001)"
/>
</g></svg>
