<?xml version="1.0" encoding="UTF-8" standalone="no"?>
<!-- Generator: Adobe Illustrator 13.0.2, SVG Export Plug-In . SVG Version: 6.00 Build 14948)  -->

<svg
   xmlns:dc="http://purl.org/dc/elements/1.1/"
   xmlns:cc="http://creativecommons.org/ns#"
   xmlns:rdf="http://www.w3.org/1999/02/22-rdf-syntax-ns#"
   xmlns:svg="http://www.w3.org/2000/svg"
   xmlns="http://www.w3.org/2000/svg"
   xmlns:sodipodi="http://sodipodi.sourceforge.net/DTD/sodipodi-0.dtd"
   xmlns:inkscape="http://www.inkscape.org/namespaces/inkscape"
   version="1.1"
   id="Layer_1"
   x="0px"
   y="0px"
   width="300"
   height="300"
   viewBox="0 0 300.00001 299.99999"
   enable-background="new 0 0 288.46 278.286"
   xml:space="preserve"
   inkscape:version="0.48.3.1 r9886"
   sodipodi:docname="NYI.svg"><metadata
     id="metadata562"><rdf:RDF><cc:Work
         rdf:about=""><dc:format>image/svg+xml</dc:format><dc:type
           rdf:resource="http://purl.org/dc/dcmitype/StillImage" /></cc:Work></rdf:RDF></metadata><defs
     id="defs560" /><sodipodi:namedview
     pagecolor="#ffffff"
     bordercolor="#666666"
     borderopacity="1"
     objecttolerance="10"
     gridtolerance="10"
     guidetolerance="10"
     inkscape:pageopacity="0"
     inkscape:pageshadow="2"
     inkscape:window-width="1366"
     inkscape:window-height="744"
     id="namedview558"
     showgrid="false"
     fit-margin-top="0"
     fit-margin-left="0"
     fit-margin-right="0"
     fit-margin-bottom="0"
     inkscape:zoom="1.0401844"
     inkscape:cx="235.84994"
     inkscape:cy="94.172518"
     inkscape:window-x="0"
     inkscape:window-y="24"
     inkscape:window-maximized="1"
     inkscape:current-layer="Layer_1" /><path
     style="fill:#000000"
     d="m 151.27338,6.9808053 c -19.87055,0 -38.83282,3.7395967 -56.189418,10.4772557 l 24.347508,47.054438 0,-45.00373 c 0,-1.271886 1.03266,-2.311707 2.31171,-2.311707 l 55.36913,0 c 0.90559,0 1.71454,0.522595 2.08799,1.342282 L 211.0795,87.25672 237.66414,33.304445 C 213.24415,16.749634 183.45116,6.9808053 151.27338,6.9808053 z M 55.300217,40.276854 C 22.277706,66.683413 1.2733705,106.42899 1.2733705,150.90325 c 0,79.48934 67.1448285,143.95974 150.0000095,143.95974 82.8361,0 150,-64.4704 150,-143.95974 -0.002,-3.06637 -0.13512,-6.11156 -0.33557,-9.13497 -14.07666,4.94198 -31.61461,10.70365 -45.19015,15.36167 -4.57569,-0.73975 -7.72379,1.84907 -10.96197,3.98956 -4.84057,2.09754 -10.92827,1.24086 -15.69724,3.28113 -4.46115,3.67726 -11.06011,5.2349 -16.51753,2.90828 -1.47233,-1.67397 -3.3912,-3.69903 -5.7047,-3.16928 -3.6343,0.36033 -4.38538,6.93035 -8.87397,3.50485 -2.78121,1.45086 -5.20269,3.48069 -8.27741,4.21327 l -4.62341,1.15586 -1.71514,3.72856 -1.60328,3.3557 -1.044,2.23714 -13.12453,-6.67412 0.41014,-0.89486 c -3.20477,-0.20045 -7.90813,2.21984 -10.29083,2.75914 -3.64265,1.09769 -9.15287,-0.77077 -10.47726,4.02684 -2.13094,1.57853 -5.62505,2.03371 -8.12826,0.82029 -2.96256,-4.55422 -8.17032,-0.76689 -11.59582,-0.70843 -5.45862,0.82565 -9.78703,-3.71961 -14.87697,-1.11857 -6.58255,3.96361 -14.44772,-3.45921 -19.985082,2.79642 -3.529307,0.27323 -6.831022,-1.37628 -10.626399,-1.11857 -5.558837,-0.0155 -10.362715,1.72021 -15.548099,2.64728 -5.854735,3.85623 -13.904251,1.98777 -20.656227,1.49143 -3.390903,1.37211 -7.582998,0.98821 -11.260254,1.08128 l 0,37.02461 c 0,2.1918 -1.148397,2.79642 -2.908278,0.261 l -7.009694,-10.1044 0,-26.54736 c -2.2956,-1.19194 -4.249664,1.73572 -6.375839,2.64728 -2.126174,1.01298 -3.980015,-0.71528 -4.884415,-2.46085 0,-0.93303 -0.640119,-1.78523 -1.565995,-2.27442 -1.107234,-0.16465 -3.0216261,0.50082 -4.6979865,1.15585 -0.707532,-2.58672 -1.358688,-5.20149 -1.901566,-7.82997 1.412677,-0.88412 3.1400444,-2.09724 2.6472778,-3.69128 -0.9413868,-1.93885 -3.4788968,-1.73632 -4.1387028,-4.06413 0.280388,-2.32066 0.93393,-5.34586 3.6912755,-5.89113 2.0438479,-1.93169 1.7917969,-5.85264 1.1558539,-8.5384 -1.8457864,-2.40895 -4.3266224,-4.34064 -3.3184194,-7.75541 0,-0.91275 -0.948546,-2.0346 0,-2.87099 2.2263984,-0.91275 4.4292324,1.19195 6.0029835,2.68456 1.486651,0.30903 1.880089,-1.37062 2.498135,-2.19985 0.560776,-1.18478 -0.372856,-2.58344 -1.565995,-2.87099 -1.012976,0.26488 -1.93915,-0.49098 -1.976137,-1.41685 0.367487,-1.55944 0.8695,-3.03326 2.647278,-3.46756 1.920954,-0.66935 3.809694,0.0925 5.369128,1.11856 1.838627,1.66205 1.644742,4.34482 3.504847,5.74199 2.399403,-2.21685 0.568531,-6.75615 3.355705,-8.87398 3.971961,-1.74914 7.850857,-4.74123 12.677106,-3.98956 1.300522,2.51753 0.423266,7.16272 4.58613,7.34527 1.138255,-1.0094 1.221178,-3.60358 3.355705,-2.57271 1.867263,0.75764 1.729456,3.99911 3.952274,3.54213 2.234751,-4.15451 -2.002982,-7.58657 -1.454138,-11.55853 2.981655,-1.94959 6.941387,-0.26518 9.060403,2.0507 0.947352,1.93528 -2.798509,3.02938 -0.223714,4.62342 3.705891,-1.39001 5.378673,2.8871 8.650261,2.05071 2.105892,-3.87174 6.662491,-4.34929 10.439971,-3.31842 5.570768,-0.0716 8.768084,8.26875 14.578673,4.95898 3.174944,-2.12498 9.365254,0.81671 10.328114,-4.25055 -0.37703,-2.21566 1.17584,-4.2446 3.05742,-4.84713 3.12483,-0.95452 6.0698,5.52572 8.68755,0.63385 4.85966,1.95794 10.60463,1.8616 15.95824,2.72185 8.23863,4.36331 19.07741,3.78136 28.37435,4.06413 8.08829,4.2953 19.56898,-1.84519 28.82178,-0.37285 l 4.36241,-8.79941 -36.27889,-78.076059 0,72.595079 c 0,1.27069 -1.03983,2.31171 -2.31171,2.31171 l -35.23491,0 c -0.81133,0 -1.56808,-0.42894 -1.97613,-1.11857 l -23.154369,-38.62789 0,37.43475 c 0,1.27188 -1.041014,2.31171 -2.311707,2.31171 l -31.431769,0 c -1.281432,0 -2.311708,-1.03983 -2.311708,-2.31171 l 0,-83.743476 z M 24.651447,188.077 c 3.026995,-0.81133 6.758538,0.21924 9.917972,-0.63385 l 0,-10.02983 -9.917972,-8.68755 0,19.35123 z M 247.39568,40.425996 204.96466,130.73174 c 6.43341,-2.2097 15.46637,-4.78926 19.79866,-10.29083 6.35704,-1.93647 12.17867,-5.36197 17.48695,-10.14169 4.73915,-1.55824 10.23206,-2.4513 15.32438,-1.71513 l 0.48471,0.67114 c -0.36032,1.93169 -2.77136,3.3903 -4.43698,4.3997 -3.60567,0.0716 -7.95228,-0.55153 -10.73826,2.19985 -3.89321,4.06145 -8.81909,6.81312 -12.45339,10.77554 0.28635,1.28859 1.75779,2.3487 0.93214,3.80313 -2.77882,1.9651 -7.20686,0.47099 -8.68755,4.43699 -1.22058,7.59911 -10.74661,1.6874 -14.46682,6.59955 -1.80999,2.38509 -7.23251,5.30321 -11.29753,6.37584 l -3.87771,8.31469 c 4.5387,1.60239 10.78509,4.00835 14.95153,3.35571 9.71096,-3.11052 13.46995,-17.88636 24.83222,-17.00224 6.39165,1.11678 12.02744,-0.81849 16.48024,-5.07084 4.35257,-1.65489 4.67979,5.36674 8.68754,4.62341 0.34482,-2.56047 0.56734,-5.74109 3.50485,-6.82326 1.38524,-0.55243 3.65548,-0.34721 3.84042,1.49142 -3.07472,4.34899 3.59582,5.72558 2.64728,9.80612 0.5393,1.75272 2.55033,1.74645 3.95227,1.30499 2.32782,-4.4349 7.13438,-4.78538 11.55854,-5.03356 3.45414,-5.06845 11.63758,-0.33527 13.53468,-7.45712 l 3.20656,-1.08128 C 295.705,96.68402 276.13841,63.473872 247.39568,40.425996 z M 271.7059,175.06433 c 1.84098,-0.20791 3.20656,1.1305 3.20656,4.6607 l 0,6.07755 c 0,1.06786 -0.13423,2.63505 -1.11857,3.65399 l -5.77927,5.9657 c -0.66935,0.68963 -1.08128,0.25503 -1.08128,-0.48471 l 0,-3.61671 c 0,-1.79448 -0.66339,-1.81059 -1.64057,-0.82028 l -0.93214,0.93214 c -1.34228,1.39836 -1.34228,3.41476 -1.34228,4.17599 l 0,2.53542 c 0,1.57852 0.42953,2.73259 2.08799,3.02013 l 4.58613,0.783 c 2.18464,0.37942 5.21999,1.8434 5.21999,5.36913 0,2.95779 -0.005,8.07099 -3.8777,13.1991 l -9.47055,12.49068 c -3.92065,5.14959 -7.75541,3.7047 -7.75541,-3.72856 l 0,-4.1387 c 0,-1.31961 0.33558,-2.14407 1.08129,-2.83371 l 6.33855,-6.45041 c 1.07741,-1.09172 1.78971,-1.11439 1.78971,0.59657 l 0,2.05071 c 0,2.39821 1.84191,0.46861 2.64728,-0.33557 0.82446,-0.80418 1.26771,-1.26771 1.26771,-3.20656 l 0,-1.19314 c 0,-1.28024 -0.96316,-1.7736 -2.72185,-2.16257 l -5.48098,-1.23042 c -4.26786,-0.89128 -4.92171,-3.83207 -4.92171,-7.12155 l 0,-4.6607 c 0,-3.53528 0.61238,-6.59747 3.16928,-9.47055 l 9.95526,-11.03654 c 1.59575,-1.76279 3.34068,-2.85844 4.77256,-3.02013 z m -104.95899,2.23713 -0.783,1.67786 13.19911,6.71141 0,0.0372 -1.08129,2.23714 -13.23639,-6.7487 1.08128,-2.23713 0.82029,-1.6778 z m 34.93661,7.04698 c 11.6355,0 21.06637,3.18539 21.06637,7.12155 l 0,11.70769 c 0,3.93497 -9.43087,7.08426 -21.06637,7.08426 -11.64862,0 -21.10365,-3.15048 -21.10365,-7.08426 l 0,-11.70769 c 0,-3.93616 9.45503,-7.12155 21.10365,-7.12155 z m -38.47875,0.22372 13.27368,6.74869 -1.044,2.27442 -13.34824,-6.78598 1.11856,-2.23713 z m -2.75913,5.55555 13.42282,6.82327 -12.71439,27.06935 c -0.80537,1.69665 -2.32871,2.92498 -4.13871,3.35571 l -20.50708,4.88441 c 0.1038,0.099 0.20253,0.22103 0.261,0.33557 l 13.57196,28.15064 0,-25.72707 c 0,-0.36033 0.13333,-0.68994 0.41014,-0.93214 0.27323,-0.23983 0.64877,-0.37853 1.00671,-0.33557 l 7.34527,0.89485 c 0.64668,0.0704 1.15585,0.58494 1.15585,1.23042 l 0,46.49516 c 0,0.68248 -0.54675,1.25966 -1.23042,1.305 l -8.20284,0.48471 c -0.50589,0.0346 -0.96047,-0.25384 -1.19314,-0.70843 L 133.6,252.17097 l 0,29.7912 c 0,0.36629 -0.16704,0.72602 -0.44743,0.96942 -0.2768,0.2434 -0.64041,0.38569 -1.00671,0.33557 l -7.38255,-1.00671 c -0.63236,-0.0931 -1.08128,-0.67502 -1.08128,-1.30499 l 0,-45.63759 -8.61298,2.08799 6.82327,43.10217 c 0.0501,0.34482 -0.10321,0.71022 -0.37286,0.93214 -0.28038,0.23624 -0.63176,0.28665 -0.96942,0.18643 l -8.24013,-2.68457 c -0.36629,-0.1217 -0.65234,-0.41074 -0.70842,-0.78299 l -1.52871,-9.80612 -10.81283,-3.50485 -2.013422,8.05369 c -0.07159,0.27323 -0.273826,0.49068 -0.521999,0.63386 -0.2434,0.12767 -0.547054,0.15928 -0.820283,0.0746 l -7.867264,-2.57271 c -0.51305,-0.16465 -0.803579,-0.69828 -0.671141,-1.23042 l 7.04698,-27.51678 -6.823266,1.64057 c -0.624012,0.14317 -1.297241,0.0224 -1.826995,-0.33557 -0.53572,-0.35914 -0.912453,-0.93483 -1.006711,-1.566 L 80.57986,214.47525 c -0.09426,-0.60254 0.04385,-1.23431 0.410142,-1.71514 0.366294,-0.49635 0.917823,-0.80657 1.52871,-0.89486 l 68.903808,-9.50783 c 2.02834,-0.28039 3.75988,-1.52304 4.6607,-3.3557 l 4.36242,-8.87398 z m -118.493671,0.18643 c 0.175081,-0.0147 0.338041,-0.007 0.521999,0 1.337879,0.0523 2.890754,0.71365 4.623415,2.27442 l 14.317674,12.90082 c 0.891276,0.80537 2.199851,2.57241 2.199851,5.51827 l 0,8.01641 c 0,1.72289 -1.106338,3.15078 -3.318419,1.15585 l -5.219985,-4.69798 c -1.101268,-1.00463 -1.379568,-1.85802 -1.379568,-3.02014 l 0,-2.01342 c 0,-1.20626 -0.477256,-2.19568 -1.193139,-2.87099 l -2.796421,-2.53542 c -1.712155,-1.53796 -2.087994,0.59657 -2.087994,0.59657 l 0,1.49142 c 0,1.67278 0.969426,2.98285 0.969426,2.98285 l 10.924683,14.16853 c 2.212081,2.8862 4.101417,7.14959 4.101417,11.37211 l 0,8.53841 c 0,7.42013 -3.146607,10.55361 -6.748695,7.34526 L 42.063826,238.15158 c -3.031767,-2.72991 -4.362416,-6.78061 -4.362416,-8.79941 l 0,-7.71812 c 0,-2.52707 0.507084,-3.32766 1.491424,-2.38628 l 6.450411,5.92842 c 0.987919,0.79701 1.976137,2.4346 1.976137,3.3557 l 0,1.71514 c 0,1.37807 -0.103803,2.96734 0.894855,3.72856 l 2.79642,2.38628 c 1.02968,0.93303 2.386279,1.07621 2.386279,-0.44743 l 0,-1.86428 c 0,-1.1478 -0.270544,-2.10768 -1.006711,-3.05742 L 39.714833,214.06507 c -1.156152,-1.495 -2.013423,-2.9915 -2.013423,-5.55555 l 0,-13.31096 c 0,-2.06865 1.624363,-4.66425 4.250559,-4.88442 z m 205.145431,10.8874 c 2.36641,-0.0496 3.98956,1.70171 3.98956,5.74198 l 0,12.1924 c 0,7.87949 -5.81656,12.19239 -5.81656,12.19239 l 8.61298,11.26025 c 0.17181,0.22312 0.23057,0.53274 0.18642,0.82029 -0.0418,0.27323 -0.18105,0.51484 -0.41014,0.67114 l -5.77927,3.91499 c -0.45816,0.31021 -1.04906,0.21297 -1.37956,-0.22372 l -8.65027,-11.29754 -1.60328,1.11857 0,17.74795 c 0,0.33885 -0.17539,0.65593 -0.44742,0.85757 l -7.90455,5.33184 c -0.30903,0.21477 -0.7135,0.24639 -1.044,0.0746 -0.3305,-0.18613 -0.55928,-0.52141 -0.55928,-0.89486 l 0,-46.08501 c 0,-0.33647 0.16703,-0.62461 0.44742,-0.82029 l 15.47353,-10.70097 c 1.76957,-1.22058 3.46457,-1.87179 4.88442,-1.90156 z M 69.133178,211.23137 c 0.222073,0.001 0.468308,0.0684 0.671141,0.18643 l 7.345265,4.36241 c 0.39135,0.23744 0.633856,0.63505 0.633856,1.08128 l 0,39.18718 7.829978,4.6607 c 0.391349,0.22312 0.633855,0.62908 0.633855,1.08128 l 0,6.45041 c 0,0.46652 -0.228188,0.8883 -0.633855,1.11857 -0.39493,0.23028 -0.910068,0.20612 -1.304997,-0.0372 l -15.809098,-9.35869 c -0.38777,-0.23863 -0.633855,-0.67353 -0.633855,-1.11857 l 0,-46.30873 c 0,-0.46771 0.235346,-0.88829 0.633855,-1.11857 0.201044,-0.11155 0.411782,-0.18806 0.633855,-0.18642 z m 171.662952,3.05742 c -0.2782,0.0229 -0.57152,0.15033 -0.89486,0.37285 l -3.24385,2.19985 c -0.28158,0.18733 -0.41014,0.51156 -0.41014,0.85757 l 0,8.20284 c 0,0.3818 0.1915,0.71588 0.522,0.89485 0.3305,0.17897 0.77107,0.14258 1.08128,-0.0746 l 2.19986,-1.52871 c 1.19194,-0.82565 2.16256,-2.76301 2.16256,-4.43699 l 0,-4.77255 c 0,-1.03267 -0.58229,-1.78382 -1.41685,-1.71514 z m -18.64281,1.75242 c 0.25235,-0.0513 0.52021,0.008 0.74571,0.14914 0.30187,0.18613 0.48472,0.5044 0.48472,0.85757 l 0,6.82327 c 0,0.38777 -0.24579,0.75794 -0.59657,0.93214 l -9.50783,4.6607 c -0.35079,0.16465 -0.55929,0.53005 -0.55929,0.93214 l 0,9.39597 c 0,0.36033 0.14676,0.70873 0.44743,0.89486 0.30187,0.18732 0.69172,0.20313 1.00671,0.0372 l 7.71812,-3.76578 c 0.31738,-0.1563 0.70366,-0.15839 1.00671,0.0372 0.29948,0.1921 0.48472,0.5056 0.48472,0.85757 l 0,6.63684 c 0,0.40209 -0.25325,0.76749 -0.63386,0.93214 l -9.43326,4.25056 c -0.36748,0.15988 -0.59657,0.52409 -0.59657,0.93214 l 0,8.83669 c 0,0.32811 0.16227,0.67025 0.44743,0.85757 0.2959,0.18613 0.65324,0.2261 0.96943,0.0746 l 7.79269,-3.50485 c 0.31499,-0.14317 0.68307,-0.1211 0.96942,0.0746 0.28755,0.19329 0.48472,0.50679 0.48472,0.85757 l 0,6.56227 c 0,0.41044 -0.25444,0.77345 -0.63386,0.93214 l -18.53095,8.35198 c -0.31618,0.15033 -0.68068,0.10678 -0.96942,-0.0746 -0.30187,-0.19329 -0.48471,-0.49844 -0.48471,-0.85757 l 0,-46.56973 c 0,-0.38777 0.23743,-0.75197 0.59657,-0.93214 l 18.53094,-9.0604 c 0.0787,-0.0382 0.17689,-0.0947 0.261,-0.1118 z m -31.39448,13.60925 c 6.64467,-0.18579 6.63684,4.36241 6.63684,4.36241 l 0,36.2789 c 0,1.2707 5.9e-4,7.25608 -9.91797,9.02312 l -20.09695,3.57942 c -0.36748,0.0561 -0.7481,-0.0175 -1.04399,-0.261 -0.28755,-0.25295 -0.44743,-0.63326 -0.44743,-1.00671 l 0,-46.23416 c 0,-0.61804 0.40298,-1.15197 1.00671,-1.26771 l 20.58166,-4.10142 c 1.23981,-0.24682 2.33189,-0.34632 3.28113,-0.37285 z m -85.19762,10.3654 -4.10142,16.14467 7.0097,2.3117 -2.90828,-18.45637 z m 78.37435,0.18643 c -0.2368,0.018 -0.51357,0.058 -0.78299,0.11179 l -7.34527,1.49143 0,31.09619 7.79269,-1.37956 c 3.85623,-0.68844 3.87771,-5.07085 3.87771,-5.07085 l 0,-22.96793 c 0.001,-0.001 0.01,-3.55077 -3.54214,-3.28113 z"
 /></svg>
