<?xml version="1.0" encoding="UTF-8" standalone="no"?>
<!-- Created with Inkscape (http://www.inkscape.org/) -->

<svg
   xmlns:dc="http://purl.org/dc/elements/1.1/"
   xmlns:cc="http://creativecommons.org/ns#"
   xmlns:rdf="http://www.w3.org/1999/02/22-rdf-syntax-ns#"
   xmlns:svg="http://www.w3.org/2000/svg"
   xmlns="http://www.w3.org/2000/svg"
   xmlns:sodipodi="http://sodipodi.sourceforge.net/DTD/sodipodi-0.dtd"
   xmlns:inkscape="http://www.inkscape.org/namespaces/inkscape"
   id="svg2"
   sodipodi:version="0.32"
   inkscape:version="0.48.3.1 r9886"
   width="300"
   height="300"
   xml:space="preserve"
   sodipodi:docname="NYR.svg"
   version="1.0"
   inkscape:output_extension="org.inkscape.output.svg.inkscape"><sodipodi:namedview
   inkscape:window-height="715"
   inkscape:window-width="791"
   inkscape:pageshadow="2"
   inkscape:pageopacity="0.0"
   guidetolerance="10.0"
   gridtolerance="10.0"
   objecttolerance="10.0"
   borderopacity="1.0"
   bordercolor="#666666"
   pagecolor="#ffffff"
   id="base"
   showgrid="false"
   inkscape:zoom="0.8140969"
   inkscape:cx="101.69131"
   inkscape:cy="38.840135"
   inkscape:window-x="0"
   inkscape:window-y="24"
   inkscape:current-layer="svg2"
   fit-margin-top="0"
   fit-margin-left="0"
   fit-margin-right="0"
   fit-margin-bottom="0"
   inkscape:window-maximized="0" /><metadata
   id="metadata7"><rdf:RDF><cc:Work
       rdf:about=""><dc:format>image/svg+xml</dc:format><dc:type
         rdf:resource="http://purl.org/dc/dcmitype/StillImage" /></cc:Work></rdf:RDF></metadata><defs
   id="defs5" />
<g
   id="g11"
   transform="matrix(1.3333339,0,0,1.3333339,-0.3344649,8.510431)">
<path
   d="M 73.4375,0 71.125,2.15625 64.8125,8.0625 59.34375,2.75 57.03125,0.5 l -3.25,0 L 13.9375,0.5 0,0.5 l 17.03125,30.0625 0.0625,145.78125 c 0,1.401 0.15025,3.6175 0.78125,6.1875 0.945,3.844 2.975,8.52025 7.125,12.28125 4.145,3.768 10.391,6.48075 19.375,6.46875 l 18.5,0 25.71875,0 c 4.559,0.001 8.29,1.17775 11.25,2.71875 2.956,1.541 5.1255,3.438 6.5625,4.875 1.455,1.455 2.62125,2.83775 3.40625,3.84375 0.392,0.504 0.70725,0.93775 0.90625,1.21875 0.099,0.139 0.16975,0.2425 0.21875,0.3125 0.023,0.035 0.0203,0.0465 0.0312,0.0625 0.01,0.017 0.0312,0.0312 0.0312,0.0312 l 1.34375,2.0625 1.5,-1.96875 c 0.001,0 0.20125,-0.2615 0.53125,-0.6875 0.495,-0.639 1.25725,-1.64175 2.03125,-2.59375 0.768,-0.946 1.581,-1.86625 2,-2.28125 0.593,-0.597 2.67975,-2.53525 5.84375,-4.28125 3.17,-1.753 7.38825,-3.3145 12.28125,-3.3125 l 44.25,0 c 4.499,-0.001 8.42975,-0.5955 11.84375,-1.6875 5.115,-1.631 9.045,-4.43775 11.625,-8.09375 2.584,-3.653 3.8155,-8.08475 3.8125,-12.84375 l 0,-148.28125 10.125,-17.875 6.8125,-12 -13.78125,0 -39.84375,0 -3.25,0 -2.34375,2.25 L 160.3125,8.0625 154,2.15625 151.6875,0 151,0 148.53125,0 112.5625,0 76.625,0 73.4375,0 z m 0.6875,1.75 2.5,0 35.9375,0 35.96875,0 2.46875,0 1.8125,1.6875 7.53125,7.03125 L 167,4 l 1.84375,-1.75 2.53125,0 39.84375,0 10.78125,0 -5.3125,9.375 -10.375,18.3125 0,148.71875 c 0,11.909 -8.13125,20.875 -25.53125,20.875 l -44.25,0 c -10.54,0 -17.99,6.741 -19.375,8.125 -1.384,1.385 -4.71875,5.71875 -4.71875,5.71875 0,0 -1.74425,-2.68175 -4.78125,-5.71875 -3.037,-3.036 -9.3315,-8.125 -19.0625,-8.125 l -44.21875,0 c -23.065,0 -25.53125,-18.1315 -25.53125,-23.1875 L 18.75,30.09375 3,2.25 l 10.9375,0 39.84375,0 2.53125,0 1.84375,1.75 6.65625,6.46875 7.5,-7.03125 L 74.125,1.75 z m 2.5,6.28125 -11.90625,11.125 -10.9375,-10.625 -39.84375,0 11.1875,19.75 0,150.375 c 0,9.804 7.424,14.59375 19.25,14.59375 l 44.21875,0 c 16.391,0 23.96875,11.09375 23.96875,11.09375 0,0 7.57875,-11.09375 23.96875,-11.09375 l 44.25,0 c 11.826,0 19.25,-4.78975 19.25,-14.59375 l 0,-150.375 11.1875,-19.75 -39.84375,0 -10.96875,10.625 -11.875,-11.125 -35.96875,0 -35.9375,0 z m -4.25,20 4.53125,0 3.1875,18.71875 3.0625,-18.71875 4.75,0 3.1875,18.53125 2.96875,-18.53125 4.78125,0 -5,29.84375 -5.53125,0 -2.75,-15.78125 -2.75,15.78125 -5.59375,0 L 72.375,28.03125 z m 79.34375,0 7.71875,0 c 4.232,0 5.31075,0.15625 6.84375,1.40625 1.78,1.409 2.3095,2.952 2.3125,4.625 l 0,3.53125 c 0,1.499 -0.796,3.2225 -1.75,4.0625 -1.193,1.051 -2.62275,1.3915 -2.71875,1.4375 l 5.28125,14.71875 -4.84375,0 -5.125,-14.6875 -2.9375,0 0,14.6875 -4.78125,0 0,-29.78125 z M 31.625,28.0625 l 4.75,0 8.09375,18.78125 0,-18.78125 4.625,0 0,29.8125 -4.59375,0 -8.25,-19.21875 0,19.21875 -4.625,0 0,-29.8125 z m 79.40625,0 4.8125,0 4.09375,10.96875 3.96875,-10.96875 4.90625,0 -6.46875,17.53125 0,12.21875 -4.90625,0 0,-12.34375 -6.40625,-17.40625 z m 28.03125,0 c 2.651,0 5.0705,0.83625 6.3125,2.65625 1.492,2.197 1.25,3.17975 1.25,6.96875 l 0,10.53125 c 0,4.082 -0.0383,4.9155 -1.15625,6.5625 -0.982,1.439 -3.68325,3.03125 -6.40625,3.03125 -2.649,0 -5.03925,-1.054 -6.28125,-2.875 -1.118,-1.647 -1.25,-3.46875 -1.25,-6.71875 l 0,-10.53125 c 0,-3.424 0.082,-5.12625 1.375,-7.03125 1.372,-2.01 3.35125,-2.59375 6.15625,-2.59375 z m 35.6875,0 4.71875,0 0,10.125 6.3125,-10.125 4.8125,0 -5.84375,9.53125 9.0625,20.21875 -4.84375,0 -7.09375,-15.78125 -2.40625,3.6875 0,12.09375 -4.71875,0 0,-29.75 z m -119.125,0.03125 12,0 0,4.75 -7.25,0 0,7.5625 7.21875,0 0,4.65625 -7.21875,0 0,7.96875 7.25,0 0,4.71875 -12,0 0,-29.65625 z m 100.84375,4.71875 0,5.9375 1.96875,0 c 2.269,0 3.64375,0.12525 4.46875,-0.34375 0.877,-0.498 0.9375,-1.57225 0.9375,-2.65625 0,-1.055 0.0312,-2.03325 -0.84375,-2.53125 -0.826,-0.469 -2.2935,-0.40625 -4.5625,-0.40625 l -1.96875,0 z m -17.375,0.0625 c -1.03,0 -2.0115,0.50525 -2.4375,1.40625 -0.355,0.82 -0.34375,1.6415 -0.34375,3.8125 l 0,9.78125 c 0,2.171 -0.0122,2.98375 0.34375,3.84375 0.426,0.902 1.4075,1.34375 2.4375,1.34375 1.029,0 2.0115,-0.473 2.4375,-1.375 0.39,-0.86 0.375,-1.6005 0.375,-3.8125 l 0,-9.78125 c 0,-2.212 0.0462,-2.92125 -0.34375,-3.78125 -0.426,-0.902 -1.43975,-1.4375 -2.46875,-1.4375 z m -109.25,29.90625 165.375,0 0,3.9375 -165.375,0 0,-3.9375 z m 49.5,9.96875 5.625,0 110.25,78.5625 0,4.0625 -115.875,-82.625 z m 17.0625,0 98.8125,0 0,70.4375 L 96.40625,72.75 z m -26.28125,0.34375 6.21875,4.5625 c 3.413,2.504 4.1905,3.30475 4.6875,5.21875 0.601,2.189 0.113,3.7115 -0.875,5.0625 L 77.25,91.78125 c -0.886,1.208 -2.5465,2.137 -3.8125,2.25 -1.584,0.141 -2.9575,-0.4175 -3.0625,-0.4375 L 66.78125,107.5625 62.875,104.6875 66.5625,91 64.1875,89.28125 56.375,99.9375 52.5,97.125 70.125,73.09375 z m 0.9375,6.6875 -4.1875,5.75 1.5625,1.15625 c 1.827,1.34 2.84775,2.2765 3.84375,2.3125 1.058,0.038 1.857,-0.955 2.625,-2 0.746,-1.017 1.478,-1.97075 1.125,-2.96875 -0.333,-0.94 -1.547,-1.75375 -3.375,-3.09375 L 71.0625,79.78125 z m -41.25,8.15625 139.53125,100.5625 -5.6875,0 -133.84375,-96.53125 0,-4.03125 z m 63.46875,1.6875 3.65625,2.90625 -10.75,29 -3.84375,-2.8125 2.125,-6.0625 -6.5,-4.8125 -5.15625,3.9375 L 69,109 93.28125,89.625 z m -2.65625,7.78125 -9.3125,7.875 L 86,108.625 90.625,97.40625 z m 16.21875,2.1875 3.875,2.78125 -4.3125,20.03125 10.9375,-15.28125 3.8125,2.71875 -17.40625,24.3125 -3.78125,-2.71875 4.46875,-20.5 -11.21875,15.6875 -3.78125,-2.71875 17.40625,-24.3125 z m -77.03125,0.5 122.8125,88.40625 -16.46875,0 c -15.595,0 -23.59375,10 -23.59375,10 0,0 -7.7355,-10 -25.1875,-10 l -42.09375,0 c -10.661,0 -15.46875,-4.8525 -15.46875,-11.4375 l 0,-76.96875 z m 98.90625,16.46875 c 1.52944,0.0462 2.916,0.81375 4.78125,2.15625 3.058,2.203 3.78125,4.197 3.78125,6.125 0,2.657 -1.30725,3.826 -3.78125,7.25 l -3.84375,-2.8125 c 1.743,-2.406 3.79225,-4.4255 1.28125,-6.4375 -1.058,-0.849 -1.4615,-1.15625 -2.1875,-1.15625 -1.157,0 -1.58825,0.247 -3.03125,2.25 l -5.875,8.03125 c -1.271,1.766 -2.78125,3.7495 -2.78125,4.4375 0,1.349 0.74875,1.8445 2.09375,2.8125 2.202,1.585 3.214,0.225 5.625,-3.125 l 0.6875,-1 -3.8125,-2.6875 2.125,-3.09375 7.8125,5.5 -9.25,12.5 -2.15625,-1.5625 0.0937,-1.25 c -1.681,-0.072 -2.36825,-0.1995 -4.78125,-1.9375 -2.326,-1.674 -3.4425,-4.61975 -3.3125,-6.09375 0,-1.36533 0.66186,-2.74677 1.4375,-4 0.14519,-0.24407 0.28619,-0.49186 0.4375,-0.71875 0.0299,-0.0438 0.0637,-0.0817 0.0937,-0.125 0.16635,-0.24514 0.33533,-0.46369 0.5,-0.6875 0.0154,-0.0208 0.0159,-0.0419 0.0312,-0.0625 0.35503,-0.48019 0.71525,-0.9055 1,-1.28125 l 4.71875,-6.5625 c 3.288,-4.567 3.96175,-5.59525 6.71875,-6.28125 0.55775,-0.1515 1.08394,-0.20291 1.59375,-0.1875 z m 16.59375,10.5625 9.59375,7.1875 -2.84375,3.8125 -5.78125,-4.34375 -4.5,6.0625 5.75,4.28125 -2.8125,3.78125 -5.75,-4.3125 -4.78125,6.375 5.8125,4.3125 -2.84375,3.8125 -9.625,-7.1875 17.78125,-23.78125 z m 15.40625,11.125 6.21875,4.5625 c 3.413,2.504 4.1905,3.2725 4.6875,5.1875 0.601,2.188 0.112,3.74375 -0.875,5.09375 l -2.9375,3.84375 c -0.887,1.209 -2.5455,2.10475 -3.8125,2.21875 -1.583,0.141 -2.92625,-0.4175 -3.03125,-0.4375 l -3.625,14 -3.90625,-2.875 3.71875,-13.6875 -2.375,-1.75 -7.8125,10.6875 -3.875,-2.84375 17.625,-24 z m 0.9375,6.6875 -4.21875,5.71875 1.59375,1.15625 c 1.827,1.341 2.84775,2.2765 3.84375,2.3125 1.058,0.038 1.857,-0.955 2.625,-2 0.746,-1.017 1.478,-1.9395 1.125,-2.9375 -0.333,-0.939 -1.547,-1.75375 -3.375,-3.09375 l -1.59375,-1.15625 z m 18.40625,7.5 c 2.05414,-0.0312 4.23988,0.74231 6.28125,2.53125 5.788,5.073 1.9615,9.1055 -0.0625,12.3125 l -3.875,-2.875 c 2.739,-2.583 2.294,-5.15975 0.5,-6.34375 -1.645,-1.087 -3.6895,-1.53375 -5.3125,0.53125 -0.631,0.805 -0.90325,1.98425 -0.65625,3.15625 0.204,1.144 -0.049,1.4205 1.5,5.3125 1.183,3.117 1.25,4.7355 1.25,6.3125 0,0.373 -0.0725,3.6395 -1.4375,5.0625 -3.704,3.86 -7.4445,4.47675 -12.5625,0.34375 -7.75,-6.255 -0.11325,-12.6695 0.21875,-13.3125 l 3.15625,2.25 c -1.586,2.428 -4.45875,5.6785 0.28125,8.3125 1.292,0.717 3.60675,1.4565 5.09375,-0.4375 0.941,-1.199 1.1055,-2.9465 -0.5625,-7.3125 -1.967,-5.175 -1.8735,-5.51975 -2.0625,-7.34375 -0.173,-1.76 0.34275,-3.5025 1.46875,-4.9375 1.69931,-2.16337 4.14021,-3.52235 6.78125,-3.5625 z"
 />
</g></svg>
