<?xml version="1.0" encoding="UTF-8" standalone="no"?>
<!-- Generator: Adobe Illustrator 14.0.0, SVG Export Plug-In . SVG Version: 6.00 Build 43363)  -->

<svg
   xmlns:dc="http://purl.org/dc/elements/1.1/"
   xmlns:cc="http://creativecommons.org/ns#"
   xmlns:rdf="http://www.w3.org/1999/02/22-rdf-syntax-ns#"
   xmlns:svg="http://www.w3.org/2000/svg"
   xmlns="http://www.w3.org/2000/svg"
   xmlns:sodipodi="http://sodipodi.sourceforge.net/DTD/sodipodi-0.dtd"
   xmlns:inkscape="http://www.inkscape.org/namespaces/inkscape"
   version="1.1"
   id="Layer_2"
   x="0px"
   y="0px"
   width="300"
   height="300"
   viewBox="0 0 300.00001 300"
   enable-background="new 0 0 212.204 250"
   xml:space="preserve"
   inkscape:version="0.48.3.1 r9886"
   sodipodi:docname="OTT.svg"><metadata
     id="metadata33"><rdf:RDF><cc:Work
         rdf:about=""><dc:format>image/svg+xml</dc:format><dc:type
           rdf:resource="http://purl.org/dc/dcmitype/StillImage" /></cc:Work></rdf:RDF></metadata><defs
     id="defs31"><filter
       id="filter3010"
       inkscape:label="Desaturate"
       x="0"
       y="0"
       width="1"
       height="1"
       inkscape:menu="Color"
       inkscape:menu-tooltip="Render in shades of gray by reducing saturation to zero"
       color-interpolation-filters="sRGB"><feColorMatrix
         id="feColorMatrix3012"
         type="saturate"
         values="0" /></filter></defs><sodipodi:namedview
     pagecolor="#ffffff"
     bordercolor="#666666"
     borderopacity="1"
     objecttolerance="10"
     gridtolerance="10"
     guidetolerance="10"
     inkscape:pageopacity="0"
     inkscape:pageshadow="2"
     inkscape:window-width="1037"
     inkscape:window-height="611"
     id="namedview29"
     showgrid="false"
     inkscape:zoom="1.3350176"
     inkscape:cx="222.53776"
     inkscape:cy="162.18698"
     inkscape:window-x="275"
     inkscape:window-y="67"
     inkscape:window-maximized="0"
     inkscape:current-layer="Layer_2"
     showguides="true"
     inkscape:guide-bbox="true" /><g
     id="g3"
     style="filter:url(#filter3010)"
     transform="matrix(1.2715232,0,0,1.2715232,18.398613,-8.3968759)"><path
       style="fill:#000000"
       d="M 72.125,7.03125 C 42.421012,17.03525 40.83175,61.633512 43.46875,91.8125 l 7.3125,-2.84375 c 0,0 -4.8605,10.968 -2.5625,16.875 -3.392,7.978 -2.25475,15.5535 1.03125,21.3125 l -3.6875,5.1875 0.8125,23.4375 c 0,0 -0.45,0.63775 -0.875,1.21875 -0.99,1.354 -3.47375,3.45975 -12.34375,5.09375 -9.815,1.809 -12.04025,3.84375 -13.03125,7.96875 -0.995,4.14 -9.94075,7.1565 -10.84375,7.4375 0,0 -0.9375,2.735 -0.9375,5.875 0,12.522 15.7575,20.559 34.0625,27.625 19.338,7.466 42.97825,13.53875 51.03125,24.21875 9.89,4.968 21.24425,7.75 33.65625,7.75 43.724,0 76.75,-36.2055 76.75,-77.1875 0.001,-34.127 -22.26025,-62.62075 -53.28125,-72.96875 l -23.5,-32.1875 -7.6875,3.59375 c 0,0 -2.8125,-1.6145 -13.9375,-3.1875 l 5.53125,-5.53125 0,-12.71875 -3.9375,0 c 2.504,-3.346 2.90625,-8.504 2.90625,-12.875 0,-4.37 -0.088,-14.373 12.75,-22.875 l -50.5625,0 z m 4.40625,6.71875 33.125,0.03125 c -3.624,2.3 -4.82625,5.119 -5.53125,8.25 -1.491,6.613 -0.30025,15.19975 -3.03125,19.84375 L 75.8125,41.84375 48.75,81.4375 c 0,0 -3.796488,-55.177 23.0625,-66.375 l 3.875,24.8125 0.84375,-26.125 z m 3.1875,33.375 25.25,0 0,6.71875 -23.1875,0 -14.3125,16.78125 16.1875,-12.96875 19,0 -3.625,3.78125 C 73.697261,61.3115 60.50575,79.392 58.34375,82.875 l -1.125,-5.0625 22.5,-30.6875 z m 15.8125,18.59375 c 11.335,0 23.875,5.0625 23.875,5.0625 l 5.53125,-1.96875 24.75,34.5625 0.5,8.65625 c -0.8,0.263 -1.79575,0.53125 -2.46875,0.53125 -1.274,0 -4.40625,-1.0625 -4.40625,-1.0625 l -0.875,0.71875 c 0,0 4.588,3.03125 7,3.03125 0.338,0 0.6605,-0.0765 0.9375,-0.1875 l 0.53125,8.75 -22.5625,-19.71875 L 71.125,127.0625 69,120.5 c 0,0 0.0405,8.54475 -8.5625,11.34375 4.757,1.411 8.47925,-1.5045 9.28125,-2.0625 0,0 -0.375,1.359 -0.375,4 0,2.641 0.12275,12.84925 18.46875,13.03125 -1.315,6.067 -2.03275,11.577 -2.71875,16.875 -1.492,11.519 -3.7865,28.57225 16.1875,42.65625 C 78.24626,204.34175 65.3125,190.125 65.3125,190.125 c 0,0 -0.26,-5.3725 -0.5,-12.3125 -0.415,-11.984 -1.3715,-30.625 -4.9375,-30.625 -1.313,-0.04 -2.1875,1.05075 -2.1875,11.71875 C 57.6875,164.73325 58,185.5 58,185.5 l -16.15625,-7.875 c 11.112,3.291 11.57275,-11.8405 9.96875,-44.0625 l 3.8125,-5.28125 c 0,0 -3.25,-3.71975 -3.25,-10.59375 0,-7.907 4.934,-11.29175 7,-11.34375 4.78,0 7.375,5.71875 7.375,5.71875 L 99.9375,79.3125 67,104.03125 55,103.1875 C 55,84.0675 76.73725,65.71875 95.53125,65.71875 z M 79.28125,73.25 C 58.69426,82.912 57.8125,97.996 57.8125,99.75 L 65.375,100 78.96875,90.9375 c -9.184,2.118 -13.751,0.82775 -13.75,-2.65625 0,-2.834 5.62075,-8.2875 9.34375,-11.3125 1.518,-1.233 3.00775,-2.57375 4.71875,-3.71875 z m 41.375,5.71875 c 0,0 -5.0625,2.48725 -5.0625,8.90625 0,5.497 5.038,11.90625 9.75,11.90625 3.585,0 4.75,-2.96875 4.75,-2.96875 0,0 -2.25825,0.4375 -2.90625,0.4375 -4.315,0 -8.15625,-4.54975 -8.15625,-11.84375 0,-4.746 1.625,-6.4375 1.625,-6.4375 z m -12.53125,9.0625 c -0.757,0.533 -3.6995,3.61475 -4.1875,4.59375 -0.377,0.758 -1,2.40225 -1,3.15625 0,0.754 0.0625,0.9335 0.0625,1.8125 0,0.879 -1.3095,2.09375 -1.3125,2.09375 l 0.53125,0.09375 c 0,0 0.987,-0.75 1.75,-0.75 0.762,0 0.5485,0.375 2.5625,0.375 1.578,0 3.4975,-0.88525 5.0625,-1.78125 1.821,-1.041 3.1875,-2.09375 3.1875,-2.21875 0,-0.234 -0.37225,-0.34375 -0.53125,-0.34375 -0.558,0 -2.4675,1.8125 -5.4375,1.8125 -1.152,0 -1.573,-0.71875 -2.5,-0.71875 0,0 0.15625,-0.2725 0.15625,-0.5625 -0.034,-0.947 -0.4375,-1.2205 -0.4375,-1.9375 0,-0.899 0.5895,-2.182 1.1875,-3.125 0.485,-0.766 1.0185,-1.296 1.0625,-1.375 0.178,-0.318 0.0427,-1.256 -0.15625,-1.125 z m 28.59375,2.4375 c -0.13717,0.08561 -0.27087,0.909625 -0.15625,1.25 0.032,0.096 1.2245,3.0255 1.1875,4.0625 -0.029,0.827 -0.3715,1.287 -0.4375,2.375 -0.012,0.335 0.0625,0.59375 0.0625,0.59375 -0.696,0 -0.957,0.3125 -1.625,0.3125 -1.172,0 -3.1795,-2.21875 -3.3125,-2.21875 -0.296,0 -0.40525,0.12175 -0.40625,0.21875 -0.006,0.144 1.92725,2.68375 2.78125,3.46875 0.854,0.785 1.42925,1.09375 2.90625,1.09375 1.366,0 2.1875,1.125 2.1875,1.125 l 0.1875,-0.53125 c 0,0 -0.56725,-1.01725 -0.53125,-2.03125 0.036,-1.014 0.125,-1.59425 0.125,-2.78125 0,-2.503 -2.31425,-6.2275 -2.90625,-6.9375 -0.0195,-0.02213 -0.0429,-0.01223 -0.0625,0 z m -36,3.375 c -0.0207,-9.15e-4 -0.0376,0.01488 -0.0625,0.03125 -0.834,0.587 -4.4965,3.14125 -5.4375,5.03125 -0.378,0.758 -0.7945,1.1605 -1.0625,2.1875 -0.338,1.295 -0.46075,3.16675 -0.59375,3.46875 -0.238,0.542 -0.96975,1.40725 -0.96875,1.40625 l 0.34375,0.4375 c 0,0 0.488,-0.46875 1.25,-0.46875 0.762,0 2.0485,0.78125 4.0625,0.78125 3.414,0 9.4375,-3.67325 9.4375,-3.90625 0,-0.233 -0.68475,-0.375 -0.84375,-0.375 -0.557,0 -3.78,1.8125 -6.75,1.8125 -0.908,0 -1.893,-1.21875 -3.25,-1.21875 0,0 0.1875,-0.68925 0.1875,-1.53125 0,-1.102 0.144,-2.20625 0.625,-3.15625 1.059,-2.09 2.97175,-3.5935 3.09375,-3.8125 0.15487,-0.27825 0.11338,-0.681095 -0.0312,-0.6875 z m 40.46875,3 c 0,0 -0.125,0.07425 -0.125,0.53125 0,0.432 2.59375,2.6985 2.59375,6.6875 0,0.956 0.46875,2.3125 0.46875,2.3125 -1.82,-0.137 -1.46025,0.59375 -2.78125,0.59375 -1.321,0 -3.2785,-1.9375 -3.6875,-1.9375 -0.411,0 -0.71875,0.21875 -0.71875,0.21875 2.504,2.822 4.816,4.28125 6,4.28125 1.184,0 1.6985,-0.46875 2.0625,-0.46875 0.364,0 1.40625,0.59375 1.40625,0.59375 l 0.28125,-0.59375 c 0,0 -0.875,-1.27925 -0.875,-2.78125 0,-5.588 -4.454,-9.4375 -4.625,-9.4375 z m -52.4375,3.9375 c -0.05608,-0.0183 -0.108,-0.003 -0.15625,0.0312 -0.173,0.122 -2.82525,1.999 -3.28125,2.625 -1.125,1.547 -1.89475,4.5675 -2.21875,5.0625 -0.324,0.495 -2.3125,1.84375 -2.3125,1.84375 l 0.1875,0.21875 c 0,0 1.34925,-0.25 1.65625,-0.25 2.322,-0.034 3.67875,2.09375 7.84375,2.09375 4.609,0 9.5625,-2.28125 9.5625,-2.28125 l -1.5,-1 c 0,0 -4.82525,0.78125 -5.78125,0.78125 -5.023,0 -4.2635,-2.5 -6.8125,-2.5 0,0 0.35475,-0.47325 0.59375,-1.03125 0.239,-0.558 0.306,-1.89875 0.875,-3.09375 0.569,-1.195 1.272,-1.68375 1.5,-1.96875 0.17025,-0.213 0.01198,-0.47645 -0.15625,-0.53125 z M 158,103.125 c 23.491,11.948 38.876,35.251 38.875,62.75 0,34.461 -23.6575,62.15125 -57.9375,69.28125 -3.141,-6.323 0.41175,-15.96625 4.59375,-22.90625 C 163.11225,204.66 176,187.084 176,165.875 c 0,-15.319 -6.86725,-28.811 -18.03125,-38 L 158,103.125 z m -81.78125,4.40625 c -0.04794,-0.003 -0.095,0.01 -0.15625,0.0625 -1.127,1.059 -3.169,1.17325 -3.875,4.78125 -0.279,1.424 -1.4375,1.71875 -1.4375,1.71875 0,0 -0.3135,0.0775 -0.3125,0.3125 0,0.235 0.161,0.3125 0.375,0.3125 0.214,0 0.24675,-0.125 0.46875,-0.125 2.219,0 2.368,2.125 7.25,2.125 2.953,0 3.8655,-0.909 6.5625,-1.25 -1.16,-1.178 -2.2435,-1.40625 -2.6875,-1.40625 -0.444,0 -0.73425,0.125 -1.65625,0.125 -3.851,0 -3.255,-1.875 -5.875,-1.875 0,0 1.09375,-0.885 1.09375,-1.875 0,-0.359 -0.1875,-1.10475 -0.1875,-1.34375 0,-0.239 0.2385,-0.87775 0.5625,-1.21875 0.10425,-0.11025 0.01881,-0.33588 -0.125,-0.34375 z m -12.34375,4.6875 c 0,0 0.8125,1.51975 0.8125,5.09375 0,5.751 -4.3415,9.375 -5.9375,9.375 -2.222,0 -3.90625,-2.625 -3.90625,-2.625 0,0 1.71,5.59375 5.375,5.59375 2.215,0 6.84275,-3.702 6.84375,-10.125 0,-3.434 -3.1875,-7.3125 -3.1875,-7.3125 z m 60.53125,0.34375 21.9375,12.84375 0.1875,2 c 0,0 -0.827,-0.68975 -2.25,-1.46875 -2.288,-1.254 -6.05825,-2.8125 -10.15625,-2.8125 -2.481,0.011 -4.93475,1.37825 -6.71875,3.03125 -2.129,1.971 -3.40625,4.1875 -3.40625,4.1875 0,0 -2.78525,-6.96875 -15.28125,-6.96875 -11.745,0 -27.5625,4.125 -27.5625,4.125 l 43.25,-14.9375 z m 34.1875,2.5625 c 0,0 5.029,7.84375 8.125,7.84375 0.91,0 1.53125,-0.54675 1.53125,-1.59375 0,-2.732 -9.65625,-6.25 -9.65625,-6.25 z m 13.09375,5.28125 c -1.109,1.203 0.51575,4.414 -0.78125,5.375 -1.587,1.179 -4.0605,-0.77675 -5.5625,-0.0937 0,0 3.02975,3.82675 5.59375,4.34375 2.026,0.41 2.249,0.2205 3,0.3125 0.751,0.091 1.75,1.03125 1.75,1.03125 0,0 -0.71875,-0.838 -0.71875,-2.5 0,-0.545 0.25,-1.15525 0.25,-1.65625 0,-2.176 -1.07075,-3.687 -1.96875,-5 -0.805,-1.176 -1.5625,-1.8125 -1.5625,-1.8125 z m -36.375,6.03125 c 4.56511,-0.15244 8.71875,3.8125 8.71875,3.8125 l 0.59375,6.3125 -3.96875,-1.78125 -14,5.40625 -1.9375,6 5.03125,19.71875 -4.59375,2.21875 -6.0625,-2.375 -9.625,3.4375 12.25,2.03125 0.40625,4.53125 2.21875,-0.9375 1.96875,1.90625 -3.6875,0.875 -4.46875,-1 -20.3125,3.78125 0.75,0.65625 16.6875,-0.46875 L 123,181.75 126.34375,181.15625 126.75,186.5 c 0,0 -5.5465,-0.65625 -8.6875,-0.65625 -3.634,0 -5.9065,0.35475 -7.3125,0.84375 -1.66,0.578 -2.125,1.3125 -2.125,1.3125 l -1.84375,6.03125 c 0,0 3.419,-3.09375 11.75,-3.09375 8.331,0 8.9375,3.65775 8.9375,5.84375 0,0.301 -0.23025,2.149 -0.90625,2.875 -0.586,0.63 -2.94525,1.65 -4.15625,2 -2.436,0.703 -5.994,1.5 -11.375,1.5 -0.623,0 -1.40375,-0.2665 -2.21875,-0.8125 -0.387,-0.259 -0.9955,-0.61925 -1.6875,-1.15625 -0.909,-0.705 -1.98425,-1.65875 -3.03125,-2.59375 -3.572,-3.188 -7.98525,-7.52925 -9.03125,-8.65625 -1.25,-1.259 -1.78125,-3.833 -1.78125,-4.75 0,-12.884 7.6875,-29.0625 7.6875,-29.0625 L 91.125,154.75 93.71875,143.15625 c 0,0 -2.6285,0.0937 -4.3125,0.0937 -1.684,0 -12.21875,-0.048 -12.21875,-6.375 0,-2.026 1.125,-3.3125 1.125,-3.3125 0,0 5.34075,-2.09625 12.46875,-3.78125 5.771,-1.366 10.649,-2.06375 14.75,-1.96875 8.581,0.201 14.8095,3.7245 17.5625,9.3125 0,0 5.77825,-7.271 7.65625,-8.875 1.47525,-1.261 3.0408,-1.76169 4.5625,-1.8125 z m 43.375,2 c -1.301,0.993 -0.2455,4.43325 -1.6875,5.15625 -1.767,0.886 -3.8395,-1.4745 -5.4375,-1.0625 0,0 2.28375,4.295 4.71875,5.25 1.925,0.755 2.18125,0.62475 2.90625,0.84375 0.724,0.221 1.5625,1.3125 1.5625,1.3125 0,0 -0.56925,-0.95675 -0.28125,-2.59375 0.094,-0.538 0.44425,-1.10075 0.53125,-1.59375 0.377,-2.144 -0.4045,-3.802 -1.0625,-5.25 -0.588,-1.298 -1.25,-2.0625 -1.25,-2.0625 z m -76.625,5.1875 -22.625,3.71875 19.46875,2.53125 c 0,0 1.07625,4.09375 4.78125,4.09375 2.783,0 4.34375,-2.65625 4.34375,-2.65625 l 5.46875,1.5625 -4.28125,3.375 8.09375,1.09375 3.1875,-6.25 -18.4375,-7.46875 z m 82.0625,3.90625 c -1.445,0.77 -0.99125,4.3325 -2.53125,4.8125 -1.887,0.588 -3.5435,-2.05425 -5.1875,-1.90625 0,0 1.5635,4.6015 3.8125,5.9375 1.776,1.055 2.071,0.94825 2.75,1.28125 0.679,0.334 1.3125,1.5625 1.3125,1.5625 0,0 -0.424,-1.057 0.125,-2.625 0.18,-0.516 0.61625,-0.99575 0.78125,-1.46875 0.719,-2.054 0.2275,-3.80775 -0.1875,-5.34375 -0.372,-1.376 -0.875,-2.25 -0.875,-2.25 z m -41.59375,4.53125 -1,3.5625 c 0,0 3.34375,6.46475 3.34375,8.84375 l -4.0625,6.71875 -4.90625,16.28125 -1.125,-2.625 -3.40625,-3.90625 4.46875,-3.71875 -2.6875,-5.65625 -3.0625,-9.84375 1.84375,-6.65625 c 0,0 1.21575,1.90625 3.09375,1.90625 2.834,0 3.71875,-4.125 3.71875,-4.125 l 3.78125,-0.78125 z m 45.5,5.28125 c -1.55,0.527 -1.651,4.11775 -3.25,4.34375 -1.958,0.276 -3.19775,-2.60175 -4.84375,-2.71875 0,0 0.8075,4.78875 2.8125,6.46875 1.584,1.327 1.884,1.28075 2.5,1.71875 0.617,0.439 1.03125,1.75 1.03125,1.75 0,0 -0.2315,-1.1025 0.5625,-2.5625 0.261,-0.479 0.761,-0.8725 1,-1.3125 1.039,-1.912 0.8505,-3.76175 0.6875,-5.34375 -0.146,-1.419 -0.5,-2.34375 -0.5,-2.34375 z M 186.4375,162.25 c -1.999,0 -3.625,1.6465 -3.625,3.6875 0,2.042 1.626,3.71875 3.625,3.71875 1.999,0 3.625,-1.67775 3.625,-3.71875 0,-2.041 -1.626,-3.6875 -3.625,-3.6875 z M 46.25,163.375 c 2.003,12.041 -15.15625,12.375 -15.15625,12.375 l 28.21875,15.59375 c 13.703,13.134 29.53125,17.34375 29.53125,17.34375 3.414,3.961 4.125,7.53125 4.125,7.53125 0,0 -16.9585,-10.464 -25.5625,-11.625 0,0 5.3865,2.65125 11.6875,6.03125 10.13,5.434 22.892,13.51375 21.25,21.09375 -14.331,-20.292 -85.09375,-26.6335 -85.09375,-47.3125 0,-5.578 7.702,-5.6 8.75,-7.375 l 2.3125,4.34375 -2.09375,2.1875 33.84375,15.5 c -22.966991,-14.659 -32.90625,-20.57 -32.90625,-26.625 0,-5.702 13.54875,-3.6685 21.09375,-9.0625 z m 103.3125,0.3125 c 1.65,5.895 6.9375,6.75975 6.9375,9.59375 0,2.04 -3.34025,6.18025 -6.03125,9.40625 -1.949,2.335 -3.5,4.25 -3.5,4.25 0,0 15.40625,-8.95375 15.40625,-11.34375 0,-2.39 -6.96875,-8.15625 -6.96875,-8.15625 1.229,0.341 12.18375,4.72125 12.59375,6.15625 0,13.603 -9.15275,20.48325 -19.09375,27.78125 -10.864,7.974 -19.54825,14.8195 -23.53125,27.0625 -0.105,-19.373 13.0105,-31.7605 13.6875,-32.3125 L 146.5,197 143.8125,178.28125 c 0,-1.986 1.43125,-6.12375 2.90625,-9.34375 1.397,-3.054 2.84375,-5.25 2.84375,-5.25 z m 36.875,8.4375 c 0,0 -0.392,1.33025 -1,1.78125 -0.608,0.45 -0.90875,0.394 -2.46875,1.75 -1.973,1.718 -2.6875,6.53125 -2.6875,6.53125 1.643,-0.148 2.81825,-3.0525 4.78125,-2.8125 1.602,0.195 1.78375,3.78325 3.34375,4.28125 0,0 0.3185,-0.954 0.4375,-2.375 0.132,-1.586 0.325,-3.4205 -0.75,-5.3125 -0.248,-0.435 -0.76125,-0.8375 -1.03125,-1.3125 -0.821,-1.445 -0.625,-2.53125 -0.625,-2.53125 z m -1.96875,9.65625 c 0,0 -0.579,1.24475 -1.25,1.59375 -0.672,0.349 -0.96575,0.24975 -2.71875,1.34375 -2.22,1.385 -3.6875,6.03125 -3.6875,6.03125 1.646,0.113 3.25625,-2.57725 5.15625,-2.03125 1.551,0.446 1.163,4.013 2.625,4.75 0,0 0.4715,-0.865 0.8125,-2.25 0.381,-1.544 0.85675,-3.336 0.0937,-5.375 -0.176,-0.47 -0.6215,-0.9255 -0.8125,-1.4375 -0.584,-1.555 -0.21875,-2.625 -0.21875,-2.625 z m -45.65625,2 1.53125,7.75 -4.28125,-0.65625 2.75,-7.09375 z m 42.28125,7.875 c 0,0 -0.8365,1.0995 -1.5625,1.3125 -0.727,0.213 -1.0065,0.0453 -2.9375,0.78125 -2.444,0.933 -4.78125,5.21875 -4.78125,5.21875 1.594,0.427 3.70875,-1.901 5.46875,-1 1.436,0.735 0.36425,4.1825 1.65625,5.1875 0,0 0.648,-0.7695 1.25,-2.0625 0.671,-1.442 1.483,-3.104 1.125,-5.25 -0.082,-0.494 -0.44125,-1.05475 -0.53125,-1.59375 -0.272,-1.639 0.3125,-2.59375 0.3125,-2.59375 z m -5.3125,8.84375 c 0,0 -0.999,0.9655 -1.75,1.0625 -0.751,0.096 -0.977,-0.0803 -3,0.34375 -2.56,0.536 -5.5625,4.375 -5.5625,4.375 1.507,0.673 3.9675,-1.293 5.5625,-0.125 1.302,0.953 -0.3055,4.179 0.8125,5.375 0,0 0.7645,-0.66075 1.5625,-1.84375 0.89,-1.319 1.9525,-2.823 1.9375,-5 -0.003,-0.501 -0.27825,-1.11125 -0.28125,-1.65625 -0.011,-1.661 0.71875,-2.53125 0.71875,-2.53125 z m -6.65625,8.15625 c 0,0 -1.1815,0.7335 -1.9375,0.6875 -0.755,-0.046 -0.934,-0.25575 -3,-0.21875 -2.616,0.048 -6.28125,3.28125 -6.28125,3.28125 1.355,0.942 4.11975,-0.53875 5.46875,0.90625 1.102,1.18 -1.0615,4.02125 -0.1875,5.40625 0,0 0.871,-0.488 1.875,-1.5 1.121,-1.129 2.45075,-2.4215 2.84375,-4.5625 0.09,-0.493 -0.0677,-1.11925 0.0312,-1.65625 0.299,-1.634 1.1875,-2.34375 1.1875,-2.34375 z m -59.875,1.28125 9.53125,1.3125 -2.875,9.875 -10.78125,-7.5 4.125,-3.6875 z m 44.9375,5.375 c -2.5258,0.20547 -5.71875,2.15625 -5.71875,2.15625 1.166,1.168 4.14775,0.214 5.21875,1.875 0.875,1.357 -1.77125,3.76425 -1.15625,5.28125 0,0 0.958,-0.33825 2.125,-1.15625 1.304,-0.912 2.7965,-1.962 3.5625,-4 0.177,-0.469 0.183,-1.113 0.375,-1.625 0.584,-1.555 1.5625,-2.09375 1.5625,-2.09375 0,0 -1.29625,0.554 -2.03125,0.375 -0.736,-0.179 -0.8965,-0.45125 -2.9375,-0.78125 -0.32275,-0.0521 -0.63917,-0.0606 -1,-0.0312 z M 148.375,220 c -3.36137,0.30296 -9.125,4.625 -9.125,4.625 0,0 10.288,0.1195 11.25,-2.4375 0.368,-0.981 -0.0532,-1.71125 -0.90625,-2.03125 C 149.41269,220.08813 149.2138,220.01915 149,220 c -0.20044,-0.018 -0.40091,-0.0202 -0.625,0 z"
       transform="translate(0,-3.0919679e-6)"
 /></g></svg>
