<?xml version="1.0" encoding="UTF-8" standalone="no"?>
<!-- Created with Inkscape (http://www.inkscape.org/) -->

<svg
   xmlns:dc="http://purl.org/dc/elements/1.1/"
   xmlns:cc="http://creativecommons.org/ns#"
   xmlns:rdf="http://www.w3.org/1999/02/22-rdf-syntax-ns#"
   xmlns:svg="http://www.w3.org/2000/svg"
   xmlns="http://www.w3.org/2000/svg"
   xmlns:sodipodi="http://sodipodi.sourceforge.net/DTD/sodipodi-0.dtd"
   xmlns:inkscape="http://www.inkscape.org/namespaces/inkscape"
   id="svg2"
   sodipodi:version="0.32"
   inkscape:version="0.48.3.1 r9886"
   width="300"
   height="300"
   xml:space="preserve"
   sodipodi:docname="PHI.svg"
   version="1.0"
   inkscape:output_extension="org.inkscape.output.svg.inkscape"><metadata
     id="metadata7"><rdf:RDF><cc:Work
         rdf:about=""><dc:format>image/svg+xml</dc:format><dc:type
           rdf:resource="http://purl.org/dc/dcmitype/StillImage" /></cc:Work></rdf:RDF></metadata><sodipodi:namedview
     inkscape:window-height="715"
     inkscape:window-width="1280"
     inkscape:pageshadow="2"
     inkscape:pageopacity="0.0"
     guidetolerance="10.0"
     gridtolerance="10.0"
     objecttolerance="10.0"
     borderopacity="1.0"
     bordercolor="#666666"
     pagecolor="#ffffff"
     id="base"
     showgrid="false"
     inkscape:zoom="1.4784"
     inkscape:cx="185.7875"
     inkscape:cy="149.69009"
     inkscape:window-x="0"
     inkscape:window-y="24"
     inkscape:current-layer="svg2"
     inkscape:window-maximized="0" /><defs
     id="defs5" /><path
     style="fill:#000000;fill-opacity:1;fill-rule:nonzero;stroke:none"
     d="m 204.84957,49.534632 c -23.13797,0 -197.5739259,0.1652 -199.3333359,0.16667 l -3.208334,0 -0.04167,3.16666 c -0.118003,5.1023 -0.452864,18.6574 6,32.125 1.9926349,4.15859 4.6828149,8.177478 7.9999999,11.958338 l -10.8333339,0 -3.291666,0 0,3.29166 c 0,0.0632 0.0041,0.23238 0,0.41667 -0.235352,10.58789 0.976527,20.15069 3.541666,27.625 2.203928,6.42177 5.1360479,11.27568 8.8749999,15.95833 l -9.9166659,0 -3.291667,0 0,3.25 c 0,11.91784 1.241626,21.5525 3.666667,28.625 0.158592,0.46219 0.309724,0.92378 0.458333,1.375 0.345335,1.05008 0.68572,2.16276 1.125,3.25 0.841899,2.08396 1.930074,4.19531 3.125,6.16667 1.5418989,2.54387 3.1552509,4.60693 4.5416669,6.16667 l -9.1666669,0 -3.333333,0 0.08333,3.33333 0,0.25 c 0.176759,7.02619 0.695472,28.42679 15.1666669,44.83333 6.062029,6.87202 13.902632,11.87026 23.291666,14.875 8.165801,2.61326 15.884105,3.16667 20.916674,3.16667 l 37.458333,0 1.875,0 0.91667,-1.625 30.79166,-52.58333 c 3.08986,3.70164 8.50369,9.45458 16.25001,15.25 7.42454,5.5545 15.49156,9.99006 23.95833,13.16666 10.59001,3.97366 21.81372,6 33.41667,6 12.88216,0 25.36902,-2.52609 37.125,-7.45833 5.65761,-2.37381 11.14918,-5.28624 16.25,-8.70833 5.05597,-3.39215 9.80666,-7.28972 14.125,-11.58334 4.32144,-4.29721 8.21026,-9.04994 11.625,-14.08333 3.45024,-5.08544 6.43972,-10.52215 8.83333,-16.16667 4.98135,-11.74778 7.5,-24.25586 7.5,-37.16666 0,-12.58527 -2.45657,-24.85114 -7.33333,-36.45834 -2.36138,-5.61997 -5.30244,-11.04677 -8.70834,-16.125 -3.39426,-5.061208 -7.28349,-9.798318 -11.58333,-14.124998 -4.32765,-4.3545 -9.08909,-8.30842 -14.16667,-11.75 -5.15696,-3.49541 -10.71676,-6.49146 -16.45833,-8.91666 -12.01391,-5.07447 -24.88552,-7.66667 -38.25,-7.66667 z m 0,3.29167 c 53.11703,0 93.20833,42.324618 93.20833,91.749998 0,51.03192 -41.2922,91.875 -92.16666,91.875 -49.14108,0 -74.00001,-37 -74.00001,-37 l -33.20833,56.79166 -37.458333,0 c -10.2982,0 -28.898936,-2.34744 -41.75,-16.91666 -13.8649749,-15.71883 -14.2110069,-36.58003 -14.3749999,-43 l 16.9166669,0 c 0,0 -0.903219,-0.92352 -2.833334,-2.83334 -1.77103,-1.75253 -4.268302,-4.29337 -6.666666,-8.25 -1.013257,-1.67152 -2.033266,-3.66653 -2.8749999,-5.75 -0.578069,-1.4306 -1.009097,-2.86348 -1.541667,-4.41666 -2.436334,-7.10491 -3.458333,-16.64586 -3.458333,-27.58334 l 17.0833329,0 C 15.459919,140.7329 11.569275,135.24712 8.8079001,127.2013 c -4.038461,-11.76727 -3.375,-25.649 -3.375,-26.95834 l 18.6666669,-0.0416 c -5.856956,-5.22668 -10.128192,-10.892098 -12.875,-16.624998 -5.8117839,-12.12929 -5.8564509,-24.216 -5.7083329,-30.625 0,0 175.9290859,-0.12493 199.3333359,-0.12493 z m -191.208336,6.5 c 0,14.93192 7.514157,27.97249 12.25,32.708328 6.077905,6.07791 15.181628,11 28.625,11 0,0 72.973736,0.0416 73.249996,0.0416 0.50115,0 1.75,1.11955 1.75,1.95833 0,0.83879 -1.13625,2.125 -1.75,2.125 l -113.33333,0 c 0,1.84828 -0.182992,20.65035 11.708334,32.54167 11.828805,11.8288 23.837752,10.69052 29.333333,11.79167 l 43.583333,0 c 0.490999,0 2.04167,1.63402 2.04167,2.20833 0,0.81685 -1.468838,1.91667 -2.04167,1.91667 l -85.833333,-0.0416 c 0,2.4725 0.550941,16.89529 8.375,28.375 8.264648,12.12602 22.421985,16 30.666667,16 0,0 16.516502,0.0416 17.416666,0.0416 0.900164,0 2.375,1.4097 2.375,2.16666 0,0.77742 -1.330878,2.04167 -2.333333,2.04167 -1.002455,0 -56,-0.0416 -56,-0.0416 0,2.48855 -0.02952,16.94223 11.833333,30 12.571686,13.83879 25.377755,14.75 31.291667,14.75 l 38.125,0 74.791673,-125.95833 c 7.38854,-12.21523 20.81184,-20.41667 36.16666,-20.41667 23.31703,0 42.25,18.84536 42.25,42.08333 0,23.23764 -18.93297,42.08334 -42.25,42.08334 -23.13764,0 -41.92061,-18.55067 -42.20833,-41.54167 l -28.25,48.08333 c 8.36873,11.48347 29.92976,36.70834 71.41667,36.70834 46.50033,0 84.70833,-38.11558 84.70833,-85.58334 0,-42.62308 -33.68785,-85.041658 -87.625,-85.041658 -21.85237,0 -190.333336,0 -190.333336,0 z M 205.9329,120.40963 c -13.43617,0 -24.33333,10.8572 -24.33333,24.25 0,13.3928 10.89716,24.25 24.33333,24.25 13.43618,0 24.33334,-10.8572 24.33334,-24.25 0,-13.3928 -10.89716,-24.25 -24.33334,-24.25 z"
     /></svg>
