<?xml version="1.0" encoding="UTF-8" standalone="no"?>
<!-- Generator: Adobe Illustrator 14.0.0, SVG Export Plug-In . SVG Version: 6.00 Build 43363)  -->

<svg
   xmlns:dc="http://purl.org/dc/elements/1.1/"
   xmlns:cc="http://creativecommons.org/ns#"
   xmlns:rdf="http://www.w3.org/1999/02/22-rdf-syntax-ns#"
   xmlns:svg="http://www.w3.org/2000/svg"
   xmlns="http://www.w3.org/2000/svg"
   xmlns:sodipodi="http://sodipodi.sourceforge.net/DTD/sodipodi-0.dtd"
   xmlns:inkscape="http://www.inkscape.org/namespaces/inkscape"
   version="1.1"
   id="Layer_1"
   x="0px"
   y="0px"
   width="300"
   height="300"
   viewBox="0 0 300 300"
   enable-background="new 0 0 230 230"
   xml:space="preserve"
   inkscape:version="0.48.3.1 r9886"
   sodipodi:docname="PHO.svg"><metadata
     id="metadata31"><rdf:RDF><cc:Work
         rdf:about=""><dc:format>image/svg+xml</dc:format><dc:type
           rdf:resource="http://purl.org/dc/dcmitype/StillImage" /></cc:Work></rdf:RDF></metadata><defs
     id="defs29"><filter
       id="filter3008"
       inkscape:label="Desaturate"
       x="0"
       y="0"
       width="1"
       height="1"
       inkscape:menu="Color"
       inkscape:menu-tooltip="Render in shades of gray by reducing saturation to zero"
       color-interpolation-filters="sRGB"><feColorMatrix
         id="feColorMatrix3010"
         type="saturate"
         values="0" /></filter></defs><sodipodi:namedview
     pagecolor="#ffffff"
     bordercolor="#666666"
     borderopacity="1"
     objecttolerance="10"
     gridtolerance="10"
     guidetolerance="10"
     inkscape:pageopacity="0"
     inkscape:pageshadow="2"
     inkscape:window-width="1074"
     inkscape:window-height="648"
     id="namedview27"
     showgrid="false"
     inkscape:zoom="1.026087"
     inkscape:cx="226.57727"
     inkscape:cy="104.59882"
     inkscape:window-x="0"
     inkscape:window-y="28"
     inkscape:window-maximized="0"
     inkscape:current-layer="Layer_1" /><g
     id="g3"
     style="filter:url(#filter3008)"
     transform="translate(0,70)" /><path
     style="fill:#000000"
     d="m 270.69385,-0.0203921 c -5.24912,0 -8.48963,2.086743 -8.77496,2.311684 -1.9973,1.56251 -78.24664,60.5242341 -80.62589,62.4626521 -5.31706,-0.259664 -60.17361,-0.614437 -88.64601,49.819146 L 4.5671037,185.33894 c 4.420317,5.61447 20.4167943,32.47869 56.9900923,26.74949 l 20.94669,-3.96289 c 0,0 1.079038,5.19063 3.538292,13.2568 6.84485,22.43674 25.468152,66.5516 69.822302,78.59726 0,0 -25.20699,-44.20732 -9.81287,-77.51218 0,0 13.42702,48.11322 39.81759,50.19657 0,0 -22.57638,-25.86935 -4.43466,-66.75578 0,0 11.97962,22.83869 33.63736,22.88096 -1.80104,-2.27961 -3.25636,-5.1578 -4.71772,-8.39755 -4.84152,-10.72471 -7.3989,-25.86784 -2.83064,-40.33653 l 49.91351,1.88709 22.36201,-9.38827 13.82293,-25.05111 -10.85077,-4.85925 c 0,0 4.20104,-12.60878 -6.08586,-24.15475 0,0 -0.0121,7.5227 -8.82214,16.98381 l -6.27457,-3.16088 -5.56692,-14.48341 23.30556,-48.875607 c 0,0 2.09844,4.06895 2.64192,6.65199 0,0 4.54638,-7.40229 3.30241,-18.918066 l 4.38748,-9.01085 c 0,0 -2.14638,-30.646328 -2.40604,-35.854694 -0.0906,-1.825193 -5.62164,-11.8414851 -16.55921,-11.8414851 z m 8.4919,29.9103631 5.99151,14.860827 0,0.0471 -4.01006,7.312471 c 0,0 2.23318,11.081742 0.6133,15.191072 -0.68086,-1.804062 -1.93615,-4.051962 -2.92499,-5.472563 -0.94807,-1.360214 -1.60402,-1.934266 -1.60402,-1.934266 l -13.77575,29.674479 17.36122,-48.167953 -1.93427,-9.624155 -10.5677,7.689888 -4.3403,6.98223 c 0,0 3.51564,9.498097 1.08507,17.078157 -1.99578,-4.918509 -6.03868,-8.963673 -6.03868,-8.963673 l -36.37365,58.782825 9.9544,26.08901 12.12455,4.38748 c 0,0 5.26082,-4.80151 7.68989,-10.66205 0.41817,-1.00997 1.14282,-2.51776 1.32096,-3.53829 3.22768,4.60751 0.80201,17.92734 0.80201,17.92734 l 12.54914,4.52902 13.72858,-3.25523 -22.73943,-14.7193 11.18101,5.42538 c 3.14766,-2.82157 6.9041,-6.87202 8.72778,-13.20962 3.29713,7.33549 0.33024,17.54993 0.33024,17.54993 l 8.86932,4.10442 -10.19028,18.39912 -3.63264,-8.39755 -8.77497,13.58704 -7.21812,3.1137 -52.69696,-2.0758 c 0,0 -9.91854,22.6296 1.69838,47.13005 0,0 -24.77522,-18.17455 -19.81444,-40.90265 0,0 -27.2122,44.07108 -11.55842,81.05047 -21.89325,-19.00374 -21.7838,-67.78688 -21.79588,-69.02028 -33.2173,53.11182 -5.61409,99.87427 -5.61409,99.87427 0,0 -1.01095,-1.02178 -2.59475,-2.78346 -0.60044,-0.65785 -1.1715,-1.32489 -1.74555,-1.98144 -0.72238,-0.82662 -1.55374,-1.77459 -2.40604,-2.78346 -0.18116,-0.22083 -0.34072,-0.43977 -0.51895,-0.66048 -5.90099,-7.30734 -10.21047,-14.55858 -13.11527,-21.79588 -21.91137,-54.58821 33.70983,-104.36509 58.73565,-123.22692 6.87504,-5.17968 11.51124,-7.8786 11.51124,-7.8786 -1.27416,-9.60604 -15.61566,-12.36043 -15.61566,-12.36043 1.33455,-1.49911 2.89102,-3.00463 4.71772,-4.38749 8.54927,-6.46894 20.89952,-11.27535 20.89952,-11.27535 l 54.39534,-62.038059 17.31404,-9.671332 z m -103.93143,40.430882 -2.87781,3.39676 c 0,0 -5.21931,1.62328 -8.53908,4.01007 2.08335,0 4.70866,0.37855 4.1516,2.02862 -8.21715,-0.39101 -14.05882,1.0379 -14.05882,1.0379 0,0 12.73257,-9.7789 21.32411,-10.47335 z m 56.18808,22.03177 -16.55921,20.380557 14.48341,26.60796 -9.76569,-26.74949 11.84149,-20.239027 z M 63.821703,153.39995 c 3.731908,2.1694 -3.735304,4.3071 -5.897153,17.54993 -2.083347,12.75975 3.24919,18.40516 1.556848,20.0975 -2.256958,1.85237 -12.271741,-1.88973 -14.860827,-3.91571 1.721025,8.91159 11.245164,12.21513 6.557635,13.2568 -3.819469,1.90974 -24.156251,-5.66126 -24.154742,-5.66126 l -6.085862,-10.09593 c 0,0 38.717408,-31.92577 42.884101,-31.23133 z"
     /></svg>
