<?xml version="1.0" encoding="UTF-8" standalone="no"?>
<!-- Created with Inkscape (http://www.inkscape.org/) -->

<svg
   xmlns:dc="http://purl.org/dc/elements/1.1/"
   xmlns:cc="http://creativecommons.org/ns#"
   xmlns:rdf="http://www.w3.org/1999/02/22-rdf-syntax-ns#"
   xmlns:svg="http://www.w3.org/2000/svg"
   xmlns="http://www.w3.org/2000/svg"
   xmlns:sodipodi="http://sodipodi.sourceforge.net/DTD/sodipodi-0.dtd"
   xmlns:inkscape="http://www.inkscape.org/namespaces/inkscape"
   version="1.0"
   width="300"
   height="300"
   id="svg2610"
   inkscape:version="0.48.3.1 r9886"
   sodipodi:docname="PIT.svg">
  <metadata
     id="metadata117">
    <rdf:RDF>
      <cc:Work
         rdf:about="">
        <dc:format>image/svg+xml</dc:format>
        <dc:type
           rdf:resource="http://purl.org/dc/dcmitype/StillImage" />
      </cc:Work>
    </rdf:RDF>
  </metadata>
  <sodipodi:namedview
     pagecolor="#ffffff"
     bordercolor="#666666"
     borderopacity="1"
     objecttolerance="10"
     gridtolerance="10"
     guidetolerance="10"
     inkscape:pageopacity="0"
     inkscape:pageshadow="2"
     inkscape:window-width="1366"
     inkscape:window-height="744"
     id="namedview115"
     showgrid="false"
     showguides="true"
     inkscape:guide-bbox="true"
     fit-margin-top="0"
     fit-margin-left="0"
     fit-margin-right="0"
     fit-margin-bottom="0"
     inkscape:zoom="1.4142136"
     inkscape:cx="256.69755"
     inkscape:cy="197.24371"
     inkscape:window-x="0"
     inkscape:window-y="24"
     inkscape:window-maximized="1"
     inkscape:current-layer="svg2610" />
  <defs
     id="defs2612" />
  <path
     d="m 246.61111,113.06999 c 0,0 -1.84641,5.59704 -1.84641,5.59704 0,0 5.02683,1.67256 6.69939,2.22484 0,1.01854 -0.0293,3.0666 -0.0439,4.71061 -1.61217,-0.1484 -3.00841,-0.0285 -4.06794,0.44852 -3.59399,1.59936 -2.39904,15.52773 -1.59936,18.31728 0.79968,2.77876 0.79968,4.36037 0.3916,5.95973 -0.3916,1.60302 -0.79968,1.60302 -3.57569,1.99445 -2.80712,0.39124 -8.37378,0.39124 -8.37378,0.39124 -1.99097,-2.38569 -8.35914,-4.76772 -8.35914,-4.76772 -0.13176,-0.56837 -0.27998,-1.13309 -0.40625,-1.68518 0,0 50.35614,-87.520652 50.35614,-87.520652 0,0 -15.08964,0 -15.08964,0 1.51153,-2.514331 -1.10528,-5.638029 -1.10528,-5.638029 0,0 -0.086,-1.075819 -3.18591,-3.783207 -3.59034,-3.123881 -7.00499,-1.858482 -8.44332,-0.725569 -1.06319,0.8167 -0.6661,2.296385 -0.3788,3.053978 -0.34952,0.116201 -0.68439,0.246675 -0.98999,0.4487 -1.35049,0.902341 -2.55642,2.110463 -4.56569,4.117353 -0.18482,0.185738 -0.34586,0.362693 -0.52153,0.552091 -0.31841,-0.02855 -0.53617,0.02855 -0.53617,0.02855 0,-5.191342 -9.16066,-7.573367 -9.16066,-7.573367 -3.98193,-7.954177 -5.98937,-12.605871 -10.36474,-13.142042 -5.18787,-0.614676 -9.95668,3.590149 -9.95668,3.590149 -5.97474,-6.776432 -23.90078,-16.312039 -34.64414,-16.719565 -10.76001,-0.39124 -27.89973,8.76557 -39.44223,13.533282 -11.55878,4.783999 -15.54017,-4.372812 -17.53095,-6.367258 -1.99445,-1.990786 -5.17524,-4.780338 -11.15126,-11.151073 -5.974,-6.367257 -13.141857,-5.566661 -18.317096,-3.180975 -5.193171,2.398312 -10.368593,5.187864 -18.335214,10.350659 -7.964791,5.177068 -9.955577,10.348647 -11.94984,15.920798 -1.990785,5.566479 -7.166206,10.754343 -7.166206,10.754343 0,0 -2.457053,2.457237 -5.929354,5.931185 0,0 -46.55079442,0 -46.55079442,0 0,0 90.62824842,153.839309 90.62824842,153.839309 -0.437721,0.0293 -0.873794,0.0439 -1.352688,0.0439 0,0 -65.522093,0 -65.522093,0 0,0 -12.166137,21.89517 -12.166137,21.89517 0,0 70.901001,0 70.901001,0 0,0 7.224949,-0.0165 7.224949,-0.0165 2.995054,0 6.948079,-1.99097 10.741904,-5.23362 0,0 38.81657,65.90327 38.81657,65.90327 0,0 35.34079,-61.41261 35.34079,-61.41261 0,0 29.83142,0 29.83142,0 0,0 0,-5.88507 0,-5.88507 0,0 -5.30864,0 -7.06355,0 -0.30926,-0.93143 -0.88935,-2.7632 -1.38526,-4.304 0,0 1.09247,0 1.09247,0 0,0 5.17688,-2.38258 5.17688,-2.38258 0,-5.97656 -7.16785,-14.33754 -7.16785,-14.33754 0,0 -1.17665,-6.64266 -1.17665,-6.64266 0,0 8.86786,-15.4258 8.86786,-15.4258 1.04673,-0.92412 1.4548,-1.81529 1.4548,-1.81529 0,0 41.03995,-14.32107 47.01102,-17.5015 5.97474,-3.18664 7.17152,-13.94117 7.17152,-13.94117 7.96387,3.18098 11.5414,-5.56831 11.5414,-5.56831 0,0 2.79065,1.19184 9.97314,2.38203 7.16602,1.20812 10.74538,-2.38203 11.55604,-4.76771 0.36598,-1.10455 0.55264,-2.10516 0.53983,-2.92186 1.02842,-0.75412 5.56666,-4.12998 7.10929,-7.7344 0,0 0.85458,-2.01934 0.85458,-2.01934 0,0 -53.85863,-17.82392 -53.85863,-17.82392 z m -2.69184,-54.951654 c 1.89032,-1.904962 3.03586,-3.041535 4.17408,-3.795651 1.13273,-0.754299 6.06258,0.378797 3.03586,3.415024 -5.88689,5.859634 -11.933,5.102041 -7.20994,0.380627 z m 1.16201,6.30815 c 2.50152,3.329383 4.36439,6.948079 4.59497,11.23708 0,0 -5.87226,-10.322112 -5.87226,-10.322112 0,0 0.3916,-0.800597 0.3916,-0.800597 0.29279,-0.01061 0.58192,-0.05709 0.88569,-0.114371 z m -2.73209,3.518781 c 2.35695,4.0566 6.67194,7.718299 6.54384,12.285999 -0.39526,0.523544 -1.29376,0.142917 -1.83359,0.259118 0,0 -6.28034,-9.405315 -6.28034,-9.405315 0,0 1.57009,-3.139802 1.57009,-3.139802 z m -9.43331,12.952461 c 0,0 2.49786,0.523544 2.49786,0.523544 1.57008,3.388307 4.842,6.395988 4.31864,10.715184 0,0 -2.2252,-0.409174 -2.2252,-0.409174 -1.82993,-3.386477 -4.71025,-6.917703 -4.5913,-10.829554 z m 1.97266,13.056219 c 0,0 -0.12626,4.070872 -0.12626,4.070872 -6.28034,-0.394899 -9.55226,-8.115028 -11.13881,-13.347544 0.65511,-1.829935 3.79528,-1.306207 5.38184,-1.438512 3.26826,3.139802 4.56202,6.787229 5.88323,10.715184 z m 2.49055,-16.982344 c 0.12809,-0.927411 1.04672,-1.69763 1.96169,-1.69763 2.2252,2.743072 4.9701,6.2635 4.05513,10.057504 -3.66353,-0.654202 -3.66353,-5.623939 -6.01682,-8.359874 z m 2.35329,-12.166137 c -1.04672,5.884703 -4.72306,11.513948 -9.95484,14.378528 -1.8336,0.523544 -3.27376,0.523544 -4.04233,-1.293764 3.00658,-5.38257 6.41026,-11.122708 11.90373,-14.786054 0.78687,0.259118 1.94888,0.782663 2.09344,1.70129 z m -6.93545,-10.586538 c 2.21239,-0.536171 4.71025,0.786323 4.97376,2.603814 1.17848,4.056599 -3.40368,3.79565 -5.23361,6.540552 -4.85482,4.187073 -6.67194,9.930506 -10.22019,14.394632 -1.70001,0 -3.27192,-0.132304 -4.43393,-1.438512 1.03026,-8.506451 6.8037,-16.748293 14.91397,-22.100486 z m -82.2261,116.490342 c -0.40679,0.40991 -1.24856,0.45383 -2.20818,0.23607 -1.91924,-0.45383 -4.30145,-1.95071 -4.68207,-3.60681 -0.13048,-0.55264 -0.0446,-1.11992 0.38062,-1.67256 0,0 72.19495,-75.738245 73.70648,-77.251967 1.52433,-1.511711 6.83114,-0.378798 3.41648,3.77973 -3.41648,4.17097 -69.0835,77.007677 -70.61333,78.515537 z m 5.55568,8.50554 c 0,0 -0.65512,2.08247 -0.65512,2.08247 0,0 -2.47407,-0.3971 -2.47407,-0.3971 0,0 0.38063,-3.66353 0.38063,-3.66353 1.32304,-0.38978 1.8464,1.18031 2.74856,1.97816 z m -7.70677,11.61825 c -2.10516,-0.24887 -1.45461,-2.60582 -2.36958,-3.9124 2.09436,-3.13833 -1.04544,-8.37378 1.96224,-11.25226 2.09253,-0.39344 2.61699,2.10808 3.01225,3.27192 -0.78742,3.92704 1.5829,9.94386 -2.60491,11.89274 z m -34.04666,-22.3435 c -1.17775,1.55362 -3.00768,1.03026 -4.5785,1.4365 -1.96206,-3.02305 -4.9734,-5.62522 -4.84109,-9.55116 0.13047,-1.57081 0.78632,-3.00768 1.70129,-4.31938 4.30144,2.89331 6.13485,7.98364 7.7183,12.43404 z m -2.22484,-17.51814 c 7.4751,-2.24277 3.5186,7.83267 6.26716,11.36554 -0.37898,1.04526 -1.94796,0.65402 -2.60381,0.3949 -0.91497,-4.44967 -8.50279,-7.31425 -3.66335,-11.76044 z m -0.26095,23.52033 c 3.00933,-4.44857 7.73605,-7.44601 13.21689,-6.79089 0,0 1.19019,1.96352 1.19019,1.96352 0,0 -0.14292,1.96535 -0.14292,1.96535 -5.77399,-0.93327 -9.68401,3.38721 -14.00321,6.65547 -0.39142,-1.04855 -0.91497,-2.46858 -0.26095,-3.79345 z m 8.11137,-23.52033 c 0.14823,-0.93107 1.30987,-1.32414 1.97816,-0.67196 1.81749,2.22484 1.03483,5.49694 1.56917,8.24551 -0.79895,0.52354 -1.56917,0.52354 -2.23746,-0.13231 -1.43851,-2.09271 -2.22484,-4.97339 -1.30987,-7.44124 z m -3.14163,27.70722 c 1.3117,2.87849 6.28143,20.67039 9.81632,25.23791 0.66829,1.17848 -0.78633,1.17848 -1.70129,1.57008 -0.40753,-0.35135 -0.81487,-0.73014 -1.20813,-1.10528 -3.09332,-2.96632 -5.45046,-6.55665 -7.07855,-10.49412 -1.42607,-3.43296 -2.28376,-7.12577 -2.57142,-10.89178 0.52354,-1.43832 1.55288,-3.01024 2.74307,-4.31681 z m 3.81358,-2.09162 c 1.68519,-1.31206 4.03867,-0.91862 6.27961,-0.26534 3.91185,2.35696 5.23434,6.41209 6.54055,10.59898 -0.52355,6.52921 0.39142,11.23891 -1.43851,17.12764 -2.88069,-0.13175 -10.07544,-20.00795 -11.38165,-27.46128 z m 9.53561,-12.68144 c -1.3117,0.65694 -3.256,-0.12627 -3.256,-1.69727 0.12864,-4.07087 -1.1955,-9.02816 0.39142,-12.02505 4.71062,2.34104 1.82993,9.39269 2.86458,13.72232 z m -0.5111,7.984 c -0.39124,-2.2252 1.68885,-3.28473 3.53488,-3.66353 2.09436,0.26351 4.97157,-0.13358 5.36098,2.47041 0.77205,3.15481 -2.35165,4.85665 -4.70879,6.41392 -2.35348,-0.7887 -3.54367,-2.88031 -4.18707,-5.2208 z m 6.93563,-8.8986 c -0.93107,1.17994 -2.50188,0.51201 -3.53122,0.2646 -0.66848,-3.67963 -0.91497,-7.32687 -0.66848,-11.3692 5.90081,-0.14474 3.26863,7.30895 4.1997,11.1046 z m -1.17957,38.04342 c 2.48944,-5.21531 1.70312,-11.88854 1.70312,-18.03895 5.75606,-4.05513 4.44967,4.31682 5.36463,7.58874 -0.39124,5.10131 -1.8173,10.32395 -5.50938,13.33236 0,0 -0.1162,1.04672 -0.1162,1.04672 -2.35714,0.39161 -1.81566,-2.74856 -1.44217,-3.92887 z m 5.49877,-35.67403 c -1.83524,-2.62851 -1.3117,-6.29186 -1.17939,-9.69627 2.74837,-0.50561 1.43851,2.61809 2.61625,3.91185 -0.52372,1.97651 0.78797,5.24825 -1.43686,5.78442 z m -0.78815,12.53323 c 0,-2.07698 0.1323,-4.97011 2.35713,-5.48066 1.4387,-0.25985 1.05972,1.43833 1.58345,2.20873 -0.14475,1.84641 -0.14475,3.92521 -1.58345,4.97194 -1.04544,0.13358 -2.09253,-0.65329 -2.35713,-1.70001 z m 75.61125,-94.654837 c 0,0 0.39526,-1.570816 0.39526,-1.570816 2.30755,-0.5111 3.37257,1.760215 4.02586,3.445401 -1.32121,-0.103574 -2.67353,0.202025 -3.70745,0.902524 -0.3916,-0.798766 -0.47944,-1.919235 -0.71367,-2.777109 z m 7.5924,-44.19713 c 1.17664,2.09253 2.23618,4.058246 2.87482,6.152789 -2.87482,0.39124 -3.53177,-3.536531 -5.08538,-5.1057 -0.27632,-1.438512 1.42185,-1.570816 2.21056,-1.047089 z m -6.28217,0.407344 c 3.27192,4.042325 6.01683,8.229399 9.03073,12.284168 -0.65695,1.311697 -1.70367,0.380626 -2.22703,-0.142918 -2.73209,-3.388307 -6.41209,-6.792535 -9.55226,-10.191455 0.26534,-1.31005 1.57008,-1.949795 2.74856,-1.949795 z m -4.5785,4.565869 c 0,0 10.74355,12.296795 10.74355,12.296795 0.25985,1.55819 -1.71831,1.55819 -2.50152,1.047089 -3.40185,-4.708788 -8.11393,-7.85042 -12.16724,-11.905189 0.78505,-1.438695 2.48323,-2.353662 3.92521,-1.438695 z m -4.05879,5.234345 c 0,0 10.73257,9.144367 10.73257,9.144367 0.65328,0.931071 0.27449,2.616257 -1.04856,2.485783 -4.46321,-4.448022 -9.81211,-6.789057 -14.65411,-10.450757 0.78321,-2.617904 3.27375,-2.882513 4.9701,-1.179393 z m -7.33804,4.710618 c 5.64169,2.092714 10.47821,6.135039 15.71182,9.144367 0.91863,1.177563 -0.39161,2.616257 -1.30657,2.748378 0,0 -15.4538,-8.36152 -15.4538,-8.36152 -0.13176,-1.30639 0.13358,-2.628701 1.04855,-3.531225 z m -1.81895,6.919532 c 5.21714,1.833412 9.94386,4.973213 14.78587,7.457349 0.91497,0.784493 -0.13176,1.962056 -1.04672,2.226665 -4.98475,-2.094543 -9.29241,-5.221901 -14.52603,-6.805161 -0.79968,-0.654018 0.13176,-2.092713 0.78688,-2.878853 z m -2.75955,5.888181 c 4.5785,1.30639 8.76539,3.531224 13.09502,5.48102 -5.23362,0.142918 -10.07562,-0.523728 -13.49211,-4.303275 0,0 0.39709,-1.177745 0.39709,-1.177745 z m -13.05658,-3.518599 c 0,0 8.71964,0 8.71964,0 1.10528,0.959618 1.77687,1.890689 1.77687,1.890689 0,0 -2.16665,4.59094 -0.40808,5.579104 10.75453,5.975835 17.92604,3.985049 17.92604,3.985049 0,0 1.59753,3.577705 1.59753,3.577705 0,0 0,0 1.58473,9.49114 -1.71465,1.786932 -5.10186,5.352193 -9.52298,9.987784 -8.82578,-14.711029 -16.89396,-23.782015 -17.95166,-25.047232 -1.92143,-2.298215 -7.88135,-5.336272 -3.72209,-9.464239 z M 103.54352,79.08042 c 4.88227,-7.762949 32.66726,-31.459321 72.89161,9.957407 6.96473,7.153398 12.79472,13.956733 17.63306,20.340093 -15.78666,16.56951 -35.87751,37.69409 -45.08007,47.34956 -4.44985,-2.39832 -8.98352,-5.07698 -13.57793,-7.99883 C 100.35724,126.44242 91.984924,97.397518 103.54352,79.08042 z M 72.125557,32.513523 c 2.108633,-1.116992 4.726721,-0.259119 6.209883,1.731667 -1.483162,2.483955 -4.726721,4.478217 -4.480046,7.326877 2.369582,1.74228 6.354631,1.990786 7.224948,5.348533 0.613028,1.862141 0.234049,4.101249 -1.002438,5.584594 0,0 -2.979134,0.262596 -2.979134,0.262596 1.23667,-1.366961 1.61199,-3.490052 0.989995,-5.105518 -1.122116,-1.116809 -2.110464,-2.86458 -3.968945,-2.221357 -3.24356,0.1162 -2.501887,5.827609 -5.480838,3.590331 1.363485,-5.337919 3.111255,-10.686635 3.486575,-16.517723 z M 57.734402,53.200386 c 7.954177,7.970098 11.542496,16.719564 11.542496,16.719564 -1.58692,3.985049 -19.116046,11.937396 -19.116046,11.937396 0,0 10.363102,-19.10342 10.363102,-19.10342 0,0 -25.890647,22.302328 -25.890647,22.302328 0,0 0.39124,-10.352489 3.575875,-13.940808 3.198726,-3.577705 19.52522,-17.91506 19.52522,-17.91506 z M 8.3779526,63.248923 c 0,0 34.1343214,0 34.1343214,0 -1.656457,1.644014 -3.388124,3.373851 -5.085938,5.071664 -7.573368,7.575197 -4.799918,24.293116 -4.799918,24.293116 3.593809,-4.3891 16.342597,-16.717919 16.342597,-16.717919 0,0 -6.774784,15.527729 -6.774784,15.527729 0,0 25.495747,-15.136306 28.682029,-16.719748 3.184636,-1.597533 7.573551,-4.783815 11.950023,3.969128 4.389099,8.765388 -1.585089,15.540173 -1.585089,15.540173 -8.781491,16.705294 16.326494,53.732914 18.70852,58.109394 0,0 2.795046,4.37647 2.795046,4.37647 -2.795046,9.15736 6.38336,16.71865 6.38336,16.71865 -1.19568,1.59936 1.58143,8.35731 1.58143,8.35731 0,0 0.0447,6.26752 3.1559,13.02547 0,0 -0.14822,0.14457 -0.14822,0.14457 -0.11437,0.11711 -11.93392,12.15204 -14.24458,14.24549 -1.018541,0.93144 -2.12309,1.80615 -3.693906,2.44296 0,0 -87.4007914,-148.384457 -87.4007914,-148.384457 z M 27.276054,231.82671 c 0,0 -10.656258,0 -10.656258,0 0,0 9.189016,-16.52797 9.189016,-16.52797 0,0 10.657907,0 10.657907,0 0,0 -9.190665,16.52797 -9.190665,16.52797 z m 62.907482,-0.011 c -3.037874,0 -7.907697,0 -7.907697,0 0,0 7.469977,-16.51699 7.469977,-16.51699 6.30998,0 9.144183,-1.96169 11.531694,-4.13016 2.39832,-2.16298 13.66376,-13.57812 13.66376,-13.57812 0,0 4.89654,6.98121 4.89654,6.98121 0,0 -12.03749,13.12612 -16.59989,18.56468 -4.565866,5.43491 -10.000223,8.67938 -13.054384,8.67938 z m 49.513644,54.38383 c 0,0 -35.42809,-60.17191 -35.42809,-60.17191 0.35025,-0.3788 0.6844,-0.76857 1.0169,-1.17665 3.89922,-4.62424 14.34979,-15.97899 17.08225,-18.95629 3.99585,2.81993 7.45918,2.01842 11.44423,1.75674 5.97419,-0.39344 10.77228,-10.74538 10.77228,-10.74538 3.57587,1.58655 9.14272,-8.76484 9.14272,-8.76484 0,0 2.79065,-0.79785 2.79065,-0.79785 2.39904,-6.3517 2.79065,-11.13515 -0.39161,-14.32107 -2.93704,-2.93521 0.78321,-3.5885 0.78321,-3.5885 2.00744,1.20593 19.1338,5.58313 19.52541,6.77442 0.40807,1.18945 -2.79065,2.78882 -3.18226,4.3772 -0.39527,1.59753 0.79968,6.36451 1.99097,10.35011 1.19129,3.98194 1.19129,10.743 1.19129,10.743 0,0 -3.18226,0 -3.18226,0 0,0 0.79968,7.9657 -0.39527,9.15699 -1.20775,1.19129 -11.16443,1.59936 -11.16443,1.59936 -9.59251,0 -9.96033,9.55226 -9.96033,10.96131 -1.24802,1.92143 -3.12352,5.25009 -3.35409,8.18347 0,0 -0.1894,2.17945 -0.1894,2.17945 0,0 21.68912,0 21.68912,0 0,0 -30.18129,52.44044 -30.18129,52.44044 z m 36.04074,-62.62951 c 0,0 -1.86104,3.22983 -1.86104,3.22983 -0.31841,-0.90216 -0.75394,-2.12272 -1.16384,-3.22983 0,0 3.02488,0 3.02488,0 z m -10.64473,0 c -0.46114,1.46943 -1.00097,3.12735 -1.26082,3.98376 -1.1492,0 -1.97816,0 -2.95535,0 -0.3916,-0.66792 -1.35049,-2.35329 -2.26546,-3.98376 0,0 6.48163,0 6.48163,0 z m -9.81028,-3.76418 c -0.68439,-0.85641 0.0439,-2.55825 1.59936,-3.78247 1.56826,-1.21874 3.38538,-1.49689 4.05697,-0.62218 0.68074,0.85824 -0.0439,2.55825 -1.60302,3.76417 -1.55179,1.22057 -3.36891,1.49872 -4.05331,0.64048 z m 41.08551,10.07196 c 0,0 6.52738,0 6.52738,0 0,0 0,1.87934 0,1.87934 0,0 -52.51345,0 -52.51345,0 0.24704,-3.01207 2.70647,-6.82016 3.65072,-8.18712 0,0 2.26729,0 2.26729,0 0,0 3.40367,6.00218 3.40367,6.00218 0,0 5.59594,0 5.59594,0 0,0 1.90314,-6.00218 1.90314,-6.00218 0,0 3.35793,0 3.35793,0 0,0 2.19775,6.00218 2.19775,6.00218 0,0 16.77665,0 16.77665,0 0,0 1.71465,-6.00218 1.71465,-6.00218 0,0 3.11089,0 3.11089,0 0,0 2.00744,6.30778 2.00744,6.30778 z m -17.72456,-2.32402 c 0,0 2.29839,-3.98376 2.29839,-3.98376 0,0 8.21257,0 8.21257,0 -0.40625,1.42552 -0.88386,3.09808 -1.13273,3.98376 -1.47127,0 -5.8428,0 -9.37823,0 z m 11.6748,-29.30823 c 0,0 -0.78322,-8.10972 -0.78322,-8.10972 0,0 6.42491,-3.18592 6.42491,-3.18592 0.2873,0.0128 0.5691,0.0128 0.8436,0.0128 0,0 -6.48529,11.28283 -6.48529,11.28283 z m 20.38181,-29.20519 c -6.22361,7.09283 -25.41047,4.74136 -49.23787,-6.07794 9.18627,-10.17371 25.73236,-28.61231 39.40929,-43.88806 16.31204,25.32429 15.97716,42.92844 9.82858,49.966 z m 0.13175,-61.11707 c 4.53641,-5.07349 8.1853,-9.190845 10.36475,-11.646251 3.31402,1.685187 6.62986,1.904962 6.62986,1.904962 15.93141,5.175419 15.13356,-8.358044 15.13356,-8.358044 5.9729,1.19019 5.5813,-8.752944 5.5813,-8.752944 2.38257,0 2.38257,-4.376472 2.38257,-4.376472 1.70367,-6.22251 -1.61034,-10.813267 -3.69098,-12.968564 0.33671,-0.144747 0.65512,-0.305599 0.98817,-0.477064 0,0 19.77244,0 19.77244,0 0,0 -44.20939,76.817917 -44.20939,76.817917 -3.4604,-12.00895 -8.1121,-22.8385 -12.95228,-32.14354 z m 54.03797,21.70541 c -2.08063,-0.85788 -4.18689,-1.65664 -6.22177,-2.34104 0.7704,-1.12047 1.59753,-2.32859 2.06416,-3.02543 2.15201,0.72904 11.11869,3.68128 13.14076,4.36037 0.0293,0.91844 0.086,2.74838 0.13359,4.34792 -3.62327,-1.24911 -6.96656,-2.4554 -9.11674,-3.34182 z m 18.77879,15.48124 c -1.91594,0.45035 -3.6928,-0.0287 -3.93802,-1.10455 -0.26168,-1.06319 1.09065,-2.31065 3.01025,-2.77692 1.91777,-0.46462 3.70561,0.0285 3.95266,1.10436 0.26351,1.0632 -1.08699,2.31249 -3.02489,2.77711 z m -2.52531,-9.72519 c 0.92595,-1.28132 2.00195,-2.74837 2.56008,-3.51859 1.07417,0.36269 1.85739,0.62547 2.78882,0.93088 0.16104,0.78285 0.55264,2.76101 0.91497,4.63559 -1.7604,-0.56453 -3.92521,-1.27583 -6.26387,-2.04788 z m 10.46723,3.41686 c -0.0165,0 -0.0165,-0.0161 -0.0293,-0.0161 -0.20495,-0.0589 -0.92046,-0.2895 -1.97816,-0.63975 0,0 -1.35049,-6.88915 -1.35049,-6.88915 0,0 -5.31962,-1.76022 -5.31962,-1.76022 0,0 -3.78431,5.22172 -3.78431,5.22172 -1.03025,-0.35025 -2.07697,-0.7005 -3.11088,-1.04709 0,0 -0.18666,-6.51566 -0.18666,-6.51566 0,0 -15.93507,-5.27534 -15.93507,-5.27534 0,0 -3.25545,4.78034 -3.25545,4.78034 -1.12175,-0.31621 -2.19592,-0.58082 -3.2152,-0.77022 0,0 0.0732,-6.4529 0.0732,-6.4529 0,0 -6.19067,-2.04806 -6.19067,-2.04806 0,0 0.58009,-1.77632 0.58009,-1.77632 0,0 49.88036,16.49979 49.88036,16.49979 -1.22057,2.86458 -4.94082,5.78644 -6.17786,6.68896 z"
 />
</svg>
