<?xml version="1.0" encoding="UTF-8" standalone="no"?>
<!-- Generator: Adobe Illustrator 13.0.1, SVG Export Plug-In . SVG Version: 6.00 Build 14948)  -->

<svg
   xmlns:dc="http://purl.org/dc/elements/1.1/"
   xmlns:cc="http://creativecommons.org/ns#"
   xmlns:rdf="http://www.w3.org/1999/02/22-rdf-syntax-ns#"
   xmlns:svg="http://www.w3.org/2000/svg"
   xmlns="http://www.w3.org/2000/svg"
   xmlns:sodipodi="http://sodipodi.sourceforge.net/DTD/sodipodi-0.dtd"
   xmlns:inkscape="http://www.inkscape.org/namespaces/inkscape"
   version="1.0"
   id="Layer_1"
   x="0px"
   y="0px"
   width="300"
   height="300"
   viewBox="0 0 299.99999 299.99999"
   enable-background="new 0 0 177.654 169.835"
   xml:space="preserve"
   inkscape:version="0.48.3.1 r9886"
   sodipodi:docname="PIT.svg"><metadata
   id="metadata9"><rdf:RDF><cc:Work
       rdf:about=""><dc:format>image/svg+xml</dc:format><dc:type
         rdf:resource="http://purl.org/dc/dcmitype/StillImage" /></cc:Work></rdf:RDF></metadata><defs
   id="defs260" /><sodipodi:namedview
   pagecolor="#ffffff"
   bordercolor="#666666"
   borderopacity="1"
   objecttolerance="10"
   gridtolerance="10"
   guidetolerance="10"
   inkscape:pageopacity="0"
   inkscape:pageshadow="2"
   inkscape:window-width="1366"
   inkscape:window-height="744"
   id="namedview258"
   showgrid="false"
   inkscape:zoom="1.389584"
   inkscape:cx="254.69166"
   inkscape:cy="152.94778"
   inkscape:window-x="0"
   inkscape:window-y="24"
   inkscape:window-maximized="1"
   inkscape:current-layer="Layer_1"
   showguides="true"
   inkscape:guide-bbox="true" /><pattern
   x="-271.551"
   y="388.859"
   width="69"
   height="69"
   patternUnits="userSpaceOnUse"
   id="Polka_Dot_Pattern"
   viewBox="2.125 -70.896 69 69"
   overflow="visible" />
<g
   id="Penguins"
   transform="matrix(1.8075691,0,0,1.8075691,-11.570959,0.76777153)">
<path
   d="m 70.28125,3.125 c -4.969375,-0.142875 -9.7875,1.286999 -13.4375,4.9375 -11.681,1.095 -23.6765,2.641 -34.6875,5.5 8.396,1.825 18.01025,4.3625 26.40625,6.1875 5.231,5.84 10.816,11.66925 16.625,17.90625 -0.82125,1.231875 -1.639242,2.506185 -2.4375,3.8125 l -56.65625,0 89.21875,122.8125 11.46875,-18.34375 -40.1875,-55.28125 C 62.51675,84.10325 58.8005,79.277 56.9375,74.125 55.9645,50.27699 78.07374,38.551 95.59375,31.25 c -3.285,-2.19 -7.18475,-7.783 -5.96875,-9 1.278,-1.278 9.5565,3.71375 13.9375,8.09375 0,0 -13.54325,2.551 -17.90625,11.125 -4.363,8.574 6.25,21.21875 6.25,21.21875 l 66.90625,0 13.25,-21.21875 -48.09375,0 C 111.29575,26.74874 91.5815,12.23975 84.5625,7.71875 80.349,5.004749 75.250625,3.267875 70.28125,3.125 z m -2.875,6.3125 c 2.467625,0.086375 4.9015,1.60475 5.3125,3.71875 -2.578,0.235 -4.843,1.7785 -6,2.8125 0.548,-2.281 2.47925,-3.381 4.03125,-3.625 -1.506,-3.155001 -7.03425,-3.324252 -7.15625,1.96875 l -1.78125,0 C 62.421,10.689 64.938625,9.351125 67.40625,9.4375 z M 65.9375,11.75 c 0.438,0 0.78125,0.3765 0.78125,0.8125 0,0.437 -0.34325,0.78125 -0.78125,0.78125 -0.437,0 -0.8125,-0.34425 -0.8125,-0.78125 0,-0.437 0.3755,-0.8125 0.8125,-0.8125 z M 94.15625,65.78125 109.5625,87 l 34.03125,0 13.28125,-21.21875 -62.71875,0 z m 17.65625,24.34375 16.0625,22.0625 13.78125,-22.0625 -29.84375,0 z"
/>
	
</g>
</svg>
