<?xml version="1.0" encoding="UTF-8" standalone="no"?>
<!-- Created with Inkscape (http://www.inkscape.org/) -->

<svg
   xmlns:dc="http://purl.org/dc/elements/1.1/"
   xmlns:cc="http://creativecommons.org/ns#"
   xmlns:rdf="http://www.w3.org/1999/02/22-rdf-syntax-ns#"
   xmlns:svg="http://www.w3.org/2000/svg"
   xmlns="http://www.w3.org/2000/svg"
   xmlns:sodipodi="http://sodipodi.sourceforge.net/DTD/sodipodi-0.dtd"
   xmlns:inkscape="http://www.inkscape.org/namespaces/inkscape"
   id="svg2"
   version="1.1"
   inkscape:version="0.48.3.1 r9886"
   width="300"
   height="300"
   xml:space="preserve"
   sodipodi:docname="san_jose_sharks_logo.svg"><metadata
     id="metadata8"><rdf:RDF><cc:Work
         rdf:about=""><dc:format>image/svg+xml</dc:format><dc:type
           rdf:resource="http://purl.org/dc/dcmitype/StillImage" /><dc:title></dc:title></cc:Work></rdf:RDF></metadata><defs
     id="defs6" /><sodipodi:namedview
     pagecolor="#ffffff"
     bordercolor="#666666"
     borderopacity="1"
     objecttolerance="10"
     gridtolerance="10"
     guidetolerance="10"
     inkscape:pageopacity="0"
     inkscape:pageshadow="2"
     inkscape:window-width="1366"
     inkscape:window-height="744"
     id="namedview4"
     showgrid="false"
     inkscape:zoom="1.5455141"
     inkscape:cx="140.46747"
     inkscape:cy="107.58091"
     inkscape:window-x="0"
     inkscape:window-y="24"
     inkscape:window-maximized="1"
     inkscape:current-layer="g10" /><g
     id="g10"
     inkscape:groupmode="layer"
     inkscape:label="ink_ext_XXXXXX"><path
       style="fill:#000000;fill-opacity:1;fill-rule:nonzero"
       d="m 97.50704,25.13513 c -1.35721,0.08118 15.56303,29.739546 22.57461,49.399142 3.60217,10.095391 5.07044,17.588161 5.6499,22.599608 C 90.1153,94.755692 47.169854,86.589695 45.057955,86.18407 L 26.133284,82.659131 73.982452,158.15782 c -5.866512,0.39911 -13.471608,0.85767 -23.274595,1.24998 -24.386677,0.97498 -50.3792039,1.20298 -50.4991229,1.69997 -0.47382,1.94796 31.4326539,16.924 69.9487849,27.37452 11.624902,3.15316 20.363861,5.55339 27.524521,7.39987 l 1.67497,2.32496 0.075,0.125 9.87483,15.59973 c -5.0689,3.89247 -15.67468,12.31824 -22.54961,19.42466 -9.015843,9.33104 -16.372715,18.97077 -20.824638,24.49958 -4.448722,5.52022 -6.287091,8.74593 -6.174892,9.17484 0.057,0.22031 1.13388,1.89528 1.274977,2.24996 0.217897,0.53632 8.378755,-0.39804 14.97474,-0.57499 6.595582,-0.17421 15.291933,-0.266 15.599733,-0.69999 0.31209,-0.43202 4.88822,-12.29078 13.99975,-22.37461 5.05488,-5.58757 10.37888,-11.07053 14.34975,-14.89974 l 23.0246,36.34937 27.92452,-44.07424 c 2.04773,-0.21892 4.0735,-0.42623 6.07489,-0.64998 1.8388,1.13167 3.59849,2.16949 5.29991,3.17494 -1.946,1.00722 -2.59995,2.47496 -2.59995,2.47496 0,0 0.50599,0.38859 0.99998,1.09998 0.49599,0.70888 0.64299,1.71017 0.67499,2.02496 0.031,0.31089 2.74995,-0.05 2.74995,-0.05 0.42633,-0.1043 1.23597,-1.82946 1.89997,-3.37494 2.01482,1.12491 3.78234,2.02518 5.17491,2.62496 2e-5,0.009 -4e-5,0.0164 0,0.025 0.004,0.74656 0.0907,1.56172 0.27499,2.42495 1.65666,0.39583 3.28445,-0.80842 3.92493,-1.34997 4.67447,0.76806 10.37283,1.64355 13.69977,1.49997 3.79393,-0.159 6.04989,-1.07498 6.04989,-1.07498 0,0 5.15891,1.52497 10.22482,1.52497 5.06892,0 8.72485,-1.94996 8.72485,-1.94996 0,0 3.79194,2.27496 12.02479,2.92495 0,0 5.40791,0.43819 10.47482,0.37499 5.23391,0.11709 9.03684,-0.78319 9.62483,-1.49997 0.96099,-1.17308 -5.06991,-25.71356 -8.44985,-33.07443 -3.37594,-7.36277 -3.87493,-8.82485 -3.87493,-8.82485 0,0 -2.87495,-12.78568 -5.19991,-15.59973 -2.32096,-2.81675 -6.34989,-4.54992 -6.34989,-4.54992 0,0 -0.44499,-0.58079 -1.24998,-1.57497 3.54494,-6.1008 9.42484,-16.9587 14.52475,-29.92448 7.91886,-20.13765 11.2638,-28.7475 8.57485,-27.77452 -2.67263,0.96691 -20.75416,10.23031 -32.02444,14.97474 0.74567,-1.35183 1.26974,-2.38754 1.29997,-2.64995 l 26.52458,-41.874234 -4.17493,0.924984 -14.89974,2.89995 c -0.44785,0.08852 -34.09776,6.565872 -66.74884,9.79983 -0.54726,-2.42e-4 -1.29619,0.0291 -2.17496,0.075 -4.68173,-7.343228 -9.66294,-14.473906 -14.52475,-20.449645 -17.0797,-20.996636 -41.66577,-42.331265 -59.87396,-50.449124 -0.0309,-0.01376 -0.0535,-0.02629 -0.075,-0.025 z m 152.57235,64.098887 -24.69957,38.474333 c -10.88758,4.69257 -13.85,6.44561 -14.79974,7.69987 0,0 -0.035,0.057 -0.05,0.075 -8.86883,-7.5757 -18.45578,-14.92726 -27.79952,-21.29963 -1.03613,-1.86816 -2.08228,-3.76992 -3.19994,-5.6999 1.17043,-0.18951 0.47276,-1.36785 -0.1,-1.72497 -1.05525,-2.19879 -1.76217,-4.14627 -2.74995,-6.24989 31.62276,-3.246846 63.26976,-9.300106 65.07387,-9.649831 z m 41.77428,30.224473 c -2.68567,0.0923 -6.17489,0.62499 -6.17489,0.62499 0,0 -2.52896,3.72494 -3.12495,5.32491 -0.161,0.40799 0.67499,4.37492 0.67499,4.37492 0,0 -3.90293,7.11488 -6.59989,12.39979 -2.69195,5.28491 -7.12787,13.53276 -13.39976,23.52459 -5.65491,9.00975 -9.87483,15.79972 -9.87483,15.79972 l 1.92496,4.62492 1.82497,-1.37497 0.47499,-0.175 1.57498,0.125 c 0,0 2.88795,-3.33274 6.59988,-7.14988 3.71694,-3.81393 11.99979,-17.0647 17.2997,-24.59957 5.29091,-7.53387 10.37482,-18.67468 10.37482,-18.67468 0,0 2.61996,-0.28799 4.12493,-0.97498 1.50297,-0.68999 1.87497,-2.97495 1.87497,-2.97495 0,0 0.077,-1.86396 0.39999,-4.27492 0.36699,-2.73295 0.37499,-5.32491 0.37499,-5.32491 0,0 -4.54292,-1.20398 -7.24987,-1.27498 -0.33862,-0.008 -0.71632,-0.0132 -1.09998,0 z M 88.10721,153.4079 c 7.74752,-0.4318 16.0479,9.5379 15.77472,14.49975 -0.28299,5.12842 -14.17475,-8.94984 -14.17475,-8.94984 -2.43016,0.0836 -5.12007,0.61483 -8.474853,0.84998 l -3.674937,-5.7499 c 1.788565,-0.29103 5.15372,0.10134 9.79983,-0.57499 0.24846,-0.0361 0.50006,-0.061 0.74999,-0.075 z m 59.79896,13.39977 2.49996,3.54994 c 0,0 -1.98297,13.26377 -1.39998,18.94967 0,0 -3.08495,-9.99823 -1.09998,-22.49961 z m 6.07489,5.29991 2.49996,4.07493 c 0,0 -2.30596,12.64978 -1.72497,16.9497 0,0 -2.69995,-9.32594 -0.77499,-21.02463 z m 6.1249,5.8249 2.49995,3.52494 c 0,0 -2.75495,11.4408 -2.42495,14.84974 0,0 -2.00601,-8.17956 -0.075,-18.37468 z m 103.4732,7.72486 c -0.55133,-0.0145 -1.18398,0.0487 -1.84997,0.225 -2.66395,0.70979 -4.17393,0.96918 -4.14993,1.34998 0.016,0.38319 0.375,1.42497 0.375,1.42497 0,0 6.27389,3.73974 6.99988,3.42494 0,0 2.36295,-1.36518 2.17496,-1.67497 -0.187,-0.31719 -0.77499,-1.36678 -0.87499,-2.34996 -0.097,-0.97769 0.025,-1.67497 0.025,-1.67497 0,0 -1.04595,-0.68152 -2.69995,-0.72499 z m -77.32366,2.19996 c 0,0 0.20624,0.18571 0.3,0.275 l -0.2,0.29999 c -0.0116,-0.0662 -0.1,-0.57499 -0.1,-0.57499 z m 0.51036,0.14421 c 0.6359,0.75629 4.87889,5.7721 5.41454,6.55568 2.21796,3.25114 5.8999,9.19984 5.8999,9.19984 0,0 -4.95692,-2.26527 -6.32489,-3.02495 -1.37098,-0.75939 -2.54996,-1.62497 -2.54996,-1.62497 0,0 -2.32929,-5.68124 -2.89844,-7.33067 z m -79.60898,12.18058 c 12.50344,2.83245 19.2901,3.26863 33.37442,2.97495 0,0 0.91198,-0.032 1.82497,-0.05 4.32692,2.76526 9.20884,5.8999 13.97475,8.72485 0.72724,0.43091 1.68417,1.03636 2.52496,1.54997 -1.95289,0.007 -20.77726,0.0635 -30.72447,-0.64999 -6.96065,-0.50073 -11.22553,-0.99312 -13.62476,-1.12498 z m 65.37386,6.44989 c -0.199,0.53279 -0.54499,1.15898 -0.92498,1.54997 l -0.49999,0.52499 0.64998,0.275 c 0.35255,0.14822 3.45618,0.62787 3.91899,0.65439 l 0.40217,5.14101 c -2.62262,-1.97416 -9.70413,-7.11716 -12.52101,-7.22038 0,0 3.28194,-0.97998 8.97484,-0.92498 z m 0.99998,0.025 c 0.34488,0.0105 6.98266,0.71937 7.34312,0.73747 l -4.49323,0.53898 c -0.31649,0.0118 -3.3619,0.32952 -3.62487,0.29852 0.30199,-0.46289 0.60699,-1.02689 0.77498,-1.57497 z m 7.24988,0.72499 c 0.52088,0.0867 1.03435,0.16883 1.57497,0.27499 11.6098,2.27306 17.4197,6.94088 27.02453,12.02479 9.60383,5.08981 17.82469,8.67015 22.9996,11.04981 -3.69693,0.86328 -7.17087,0.54729 -10.12482,0.42499 -1.78297,-0.0789 -4.71692,-0.62499 -6.29989,-0.94998 1.06098,-0.81099 1.85696,-1.64297 2.22496,-2.02497 l 0.82498,-0.82494 -2.17496,0 c -3.43794,0.002 -9.42583,0.008 -12.82478,-0.325 2.03797,-1.25817 3.99293,-2.56085 4.79992,-3.49994 l 0.74999,-0.89998 -1.14998,0.075 c -4.16193,0.29409 -11.5838,0.0801 -14.72475,-0.37499 0.50899,-0.42889 1.07099,-0.87259 1.69997,-1.37498 1.63798,-1.29998 3.33195,-2.65586 3.97494,-3.62494 l 0.59998,-0.87498 -1.04998,0.125 c -3.57893,0.41799 -8.39485,0.80708 -11.2248,0.82498 1.06698,-1.18858 2.50795,-2.87415 2.87495,-4.22493 l 0.19999,-0.74998 -1.74997,0.29999 c -2.16496,0.375 -5.2379,0.91479 -7.07487,1.04998 0.96898,-1.43088 1.68097,-2.53466 1.94996,-3.17494 l 0.35,-0.84999 -2.59996,0.5 c -0.92476,0.19707 -3.66108,0.46048 -4.65796,0.59043 l 4.09106,-3.42494 z m 1.74997,3.69993 c -0.48599,0.81399 -1.20698,1.88907 -1.92497,2.92495 l -0.49999,0.74999 0.87498,0.025 c 1.60198,0.059 5.41891,-0.59379 8.19986,-1.07498 0,0 0.087,-0.0172 0.125,-0.025 -0.68899,1.28977 -2.10996,2.84484 -2.87495,3.67493 l -0.89998,0.97498 1.04998,0.05 c 2.55295,0.1007 7.73786,-0.33089 11.1748,-0.69998 -0.78698,0.75898 -1.89996,1.66486 -2.94995,2.49995 -0.97498,0.77579 -1.90896,1.50967 -2.52495,2.09997 l -0.62499,0.62499 0.82498,0.19999 c 2.29096,0.5883 9.93683,0.84489 14.64975,0.64999 -1.22098,0.96788 -3.13795,2.16516 -4.79992,3.17495 l -1.09998,0.67498 1.24998,0.225 c 2.91395,0.52069 10.15282,0.5031 14.17475,0.49999 -0.74798,0.68509 -1.48897,1.25698 -2.19996,1.72497 -1.34297,0.307 -6.00889,1.19178 -12.67478,0.44999 -2.10686,-0.23377 -4.0929,-0.59491 -5.94989,-1.04998 -0.0222,-0.0681 -0.0383,-0.14586 -0.075,-0.19999 -0.53099,-0.78199 -1.79197,-1.16478 -2.29996,-2.52496 -0.235,-0.61399 -0.399,-1.38398 -0.92499,-1.64997 0,0 -0.74362,1.12675 -1.12498,3.02495 -1.81235,-0.66152 -3.40915,-1.38622 -4.69992,-2.12497 0.12546,-0.31802 0.275,-0.64999 0.275,-0.64999 0,0 0.43199,-1.23518 0.225,-1.49997 -0.15562,-0.19765 -1.16395,0.18809 -2.59996,0.74999 -0.33546,-0.27 -0.63525,-0.54312 -0.87498,-0.79999 -1.1651,-1.24733 -3.95309,-5.3192 -7.60943,-9.03072 l 1.91541,-2.78819 c 1.2143,-0.0962 2.54433,-0.47277 3.76905,-0.73087 0,0 0.36899,-0.0821 0.72499,-0.15 z m -79.07363,9.84983 c 2.53896,-0.0399 5.7369,0.1313 9.72483,0.62499 4.39993,0.54019 7.07888,1.36798 8.69985,2.24996 -1.58397,1.34418 -3.57194,3.28514 -5.7249,5.4999 -0.83299,-0.40979 -1.72697,-0.77888 -2.59995,-1.07498 -2.66796,-0.90498 -11.6797,-1.45268 -16.74971,-1.69997 2.26285,-1.96476 4.54592,-3.88593 6.64988,-5.5999 z m 60.19896,2.84995 -20.67465,32.17444 -18.72467,-29.14949 c 0.89113,-0.73866 1.48661,-1.17005 1.69997,-1.14998 1.04765,0.0936 25.90276,-0.69083 37.69935,-1.87497 z m -41.82428,1.27502 c 0.021,0.79218 0.058,1.71097 0.075,2.52495 -1.49797,1.33989 -3.24694,3.01675 -5.04991,4.82492 -0.091,-0.72419 -0.193,-1.47697 -0.275,-2.14996 2.09297,-2.17187 3.86194,-3.93904 5.24991,-5.19991 z m -26.07455,2.39996 c 4.70732,0.21799 14.77475,0.77428 17.4997,1.69997 0.76799,0.26329 1.51997,0.55508 2.19996,0.87498 -0.26599,0.275 -0.53099,0.5469 -0.79998,0.82499 -2.35896,-1.47498 -5.8429,-2.35267 -10.42482,-2.64996 -3.61294,-0.22689 -6.52989,-0.35509 -8.87485,-0.39999 0.1328,-0.1238 0.26609,-0.2301 0.39999,-0.34999 z m -1.47497,1.29997 c 2.49606,0.0289 5.7237,0.1371 9.87483,0.4 4.90191,0.31519 7.95086,1.30897 9.82483,2.42495 -1.22698,1.29998 -2.49596,2.65105 -3.72494,3.99994 -6.84988,-0.96609 -17.4434,-0.0199 -23.69959,0.69998 0.429,-0.45199 0.86289,-0.92028 1.29998,-1.37497 1.92306,-1.98437 4.11603,-4.08193 6.42489,-6.1499 z m 21.44963,2.37496 c 0.094,0.73509 0.19199,1.48198 0.27499,2.12497 -0.24999,0.25699 -0.49799,0.51719 -0.74998,0.77498 -0.161,-0.62069 -0.346,-1.27618 -0.5,-1.87497 0.327,-0.35119 0.65799,-0.69178 0.97499,-1.02498 z m -1.72497,1.82497 c 0.14099,0.54299 0.30299,1.18908 0.47499,1.84997 -1.33898,1.37308 -2.64395,2.75386 -3.84993,4.02493 -0.085,-0.60309 -0.182,-1.27698 -0.275,-1.92497 1.27598,-1.39997 2.49696,-2.72495 3.64994,-3.94993 z m -10.12483,3.19995 c 2.02323,0.015 3.92694,0.10802 5.59991,0.29999 -2.08297,2.30116 -4.09793,4.53982 -5.7999,6.47489 l -0.1,0.15 c -0.252,0.28089 -0.54999,0.61878 -0.87499,1.02498 -2.50745,-0.70189 -6.23078,-0.99489 -11.0498,-0.84999 -5.64291,0.1769 -9.403737,0.41719 -11.999796,0.67499 1.844872,-2.13906 3.808826,-4.36092 5.874896,-6.57489 5.14882,-0.62166 12.27999,-1.24481 18.34968,-1.19997 z m 5.64991,1.64997 c 0.10899,0.71998 0.21099,1.38007 0.27499,1.89996 -2.78295,2.95426 -4.81092,5.20501 -4.87492,5.27491 -0.50599,0.55899 -1.00398,1.14029 -1.49997,1.72497 -0.12,-0.61669 -0.24499,-1.19998 -0.32499,-1.59997 0.44099,-0.55589 0.82698,-1.01598 1.14998,-1.37498 l 0.12499,-0.14999 c 1.78597,-2.03386 3.51894,-3.96473 5.14992,-5.7749 z m -16.02473,6.37489 c 4.0708,-0.0343 6.77049,0.28338 8.54985,0.72498 -0.11899,0.1481 -0.22699,0.31169 -0.34999,0.475 -3.41634,-0.65699 -9.49863,0.0231 -15.84972,0.72498 l -1.12498,0.125 c -3.493344,0.38519 -6.067099,0.75308 -7.949866,1.07498 0.637089,-0.76099 1.283878,-1.51008 1.949966,-2.29996 2.570651,-0.29919 6.52959,-0.57699 12.94978,-0.77498 0.63894,-0.0198 1.24342,-0.0451 1.82496,-0.05 z m 4.57492,1.89996 c 1.13832,-0.007 2.15517,0.0318 2.99995,0.15 -1.19127,1.62577 -2.57966,3.64874 -3.99993,5.8749 -2.12176,-0.89808 -5.21321,-1.68128 -9.62483,-1.72497 -4.985115,-0.0551 -9.533836,0.0289 -13.34977,0.19999 0.558991,-0.68708 1.111781,-1.38787 1.699971,-2.09996 1.907067,-0.35899 4.80502,-0.83208 9.024839,-1.29998 l 1.12498,-0.12499 c 4.18703,-0.46792 8.70984,-0.95294 12.12479,-0.97499 z m 4.27493,0.025 c 0.091,0.44809 0.188,0.99689 0.29999,1.54998 -0.12799,0.1519 -0.23099,0.29879 -0.34999,0.44999 -0.088,-0.51719 -0.193,-1.04918 -0.27499,-1.57497 0.10599,-0.143 0.22099,-0.284 0.32499,-0.425 z m -1.09998,1.49998 c 0.091,0.53009 0.176,1.04018 0.24999,1.49997 -1.29197,1.68508 -2.54915,3.47494 -3.74993,5.34991 -0.0731,-0.423 -0.1508,-0.87999 -0.225,-1.32498 1.29998,-2.05696 2.58605,-3.93893 3.72494,-5.5249 z m -17.72469,3.72493 c 1.26859,-0.003 2.56342,0.012 3.89993,0.025 4.15813,0.0422 7.08897,0.74999 9.09984,1.57497 -0.91398,1.45898 -1.81597,2.98905 -2.69995,4.54993 -3.15815,-0.70509 -5.66281,-0.58009 -11.399804,-0.325 l -1.74997,0.075 c -4.894015,0.216 -9.517035,0.75388 -12.949775,1.29998 l 1.774969,-2.22484 c 1.15188,-1.45888 2.412858,-3.03985 3.774935,-4.72492 2.970098,-0.1491 6.444045,-0.24005 10.249825,-0.25 z m 13.24977,2.99995 c 0.0703,0.42499 0.14999,0.88078 0.22499,1.32498 -0.76208,1.23587 -1.50428,2.51789 -2.22496,3.82493 -0.0691,-0.45425 -0.15309,-0.94498 -0.22499,-1.39998 0.71918,-1.27188 1.47687,-2.53715 2.22496,-3.74993 z"

/>




</g></svg>
