<?xml version="1.0" encoding="UTF-8" standalone="no"?>
<!-- Created with Inkscape (http://www.inkscape.org/) -->

<svg
   xmlns:dc="http://purl.org/dc/elements/1.1/"
   xmlns:cc="http://creativecommons.org/ns#"
   xmlns:rdf="http://www.w3.org/1999/02/22-rdf-syntax-ns#"
   xmlns:svg="http://www.w3.org/2000/svg"
   xmlns="http://www.w3.org/2000/svg"
   xmlns:sodipodi="http://sodipodi.sourceforge.net/DTD/sodipodi-0.dtd"
   xmlns:inkscape="http://www.inkscape.org/namespaces/inkscape"
   version="1.0"
   width="300"
   height="300"
   id="svg2"
   inkscape:version="0.48.3.1 r9886"
   sodipodi:docname="SJS.svg">
  <metadata
     id="metadata13">
    <rdf:RDF>
      <cc:Work
         rdf:about="">
        <dc:format>image/svg+xml</dc:format>
        <dc:type
           rdf:resource="http://purl.org/dc/dcmitype/StillImage" />
      </cc:Work>
    </rdf:RDF>
  </metadata>
  <sodipodi:namedview
     pagecolor="#ffffff"
     bordercolor="#666666"
     borderopacity="1"
     objecttolerance="10"
     gridtolerance="10"
     guidetolerance="10"
     inkscape:pageopacity="0"
     inkscape:pageshadow="2"
     inkscape:window-width="961"
     inkscape:window-height="605"
     id="namedview11"
     showgrid="false"
     inkscape:zoom="1.18"
     inkscape:cx="178.55655"
     inkscape:cy="154.39178"
     inkscape:window-x="9"
     inkscape:window-y="34"
     inkscape:window-maximized="0"
     inkscape:current-layer="svg2"
     showguides="true"
     inkscape:guide-bbox="true" />
  <defs
     id="defs4">
    <filter
       id="filter2990"
       inkscape:label="Desaturate"
       x="0"
       y="0"
       width="1"
       height="1"
       inkscape:menu="Color"
       inkscape:menu-tooltip="Render in shades of gray by reducing saturation to zero"
       color-interpolation-filters="sRGB">
      <feColorMatrix
         id="feColorMatrix2992"
         type="saturate"
         values="0" />
    </filter>
  </defs>
  <g
     id="layer1"
     transform="matrix(0.39444488,0,0,0.39444488,-3.3788866,-4.7123519)">
    <path
       d="m 406.46875,31.46875 c -45.68289,0.567093 -91.22786,9.922475 -133.4375,27.40625 -31.02259,12.849956 -60.21398,30.101724 -86.5,51 C 144.30269,99.856268 98.43977,94.432675 48.625,94.8125 c -12.421577,0.09471 -25.081921,0.54227 -38,1.375 C 49.646518,133.63481 81.491478,167.3981 107.1875,198 95.875268,215.7348 86.080034,234.44352 78.03125,253.875 59.983453,297.44623 50.625,344.58883 50.625,391.75 c 0,47.16117 9.358453,94.30377 27.40625,137.875 7.103455,17.14926 15.557183,33.74711 25.21875,49.59375 -0.0105,7e-5 -0.0208,-7e-5 -0.0312,0 0.31453,0.5148 0.65171,1.01815 0.96875,1.53125 1.50231,2.43137 3.0357,4.85742 4.59375,7.25 0.0741,0.11407 0.14451,0.22976 0.21875,0.34375 0.30012,0.45974 0.60409,0.91672 0.90625,1.375 0.47954,0.72902 0.9527,1.46196 1.4375,2.1875 0.37167,0.55491 0.75033,1.10353 1.125,1.65625 1.03348,1.52832 2.06831,3.05014 3.125,4.5625 0.0515,0.0735 0.10474,0.14532 0.15625,0.21875 1.04205,1.48905 2.09192,2.9643 3.15625,4.4375 0.0171,0.0237 0.0454,0.0389 0.0625,0.0625 0.9683,1.33959 1.95095,2.67379 2.9375,4 0.36454,0.48883 0.7268,0.98184 1.09375,1.46875 0.39328,0.52313 0.79139,1.04151 1.1875,1.5625 0.52738,0.69194 1.06149,1.3745 1.59375,2.0625 1.15362,1.49492 2.3231,2.99209 3.5,4.46875 1.17704,1.47682 2.36243,2.91683 3.5625,4.375 7.35049,8.93137 15.10093,17.53843 23.28125,25.71875 7.84522,7.84521 16.08469,15.2919 24.625,22.375 1.45318,1.20523 2.90304,2.41147 4.375,3.59375 1.36854,1.09921 2.74056,2.20209 4.125,3.28125 0.10031,0.0784 0.2121,0.14044 0.3125,0.21875 1.26865,0.98675 2.53078,1.96773 3.8125,2.9375 0.56856,0.43149 1.14756,0.85307 1.71875,1.28125 0.39913,0.29828 0.78714,0.60962 1.1875,0.90625 0.77717,0.5776 1.56179,1.14728 2.34375,1.71875 1.52762,1.11298 3.04889,2.22354 4.59375,3.3125 1.27813,0.90094 2.58531,1.80317 3.875,2.6875 1.21215,0.83351 2.43346,1.64975 3.65625,2.46875 1.22329,0.81933 2.4537,1.63281 3.6875,2.4375 1.22998,0.80219 2.47844,1.58749 3.71875,2.375 2.49071,1.58143 4.99964,3.13476 7.53125,4.65625 1.26593,0.76082 2.53653,1.50436 3.8125,2.25 47.24523,27.60877 101.31472,44.77393 159.0625,48.3125 0.0838,0.005 0.16623,0.0261 0.25,0.0312 1.29437,0.0784 2.57699,0.15406 3.875,0.21875 3.12106,0.15945 6.25079,0.26616 9.375,0.34375 0.91756,0.0222 1.83076,0.0472 2.75,0.0625 2.03386,0.0349 4.05954,0.0625 6.09375,0.0625 1.47379,0 2.93261,-0.0129 4.40625,-0.0312 0.68911,-0.008 1.37433,-0.0191 2.0625,-0.0312 0.51883,-0.009 1.04372,-0.0195 1.5625,-0.0312 1.63538,-0.0359 3.27629,-0.0986 4.90625,-0.15625 0.10437,-0.004 0.20814,0.004 0.3125,0 1.98462,-0.0739 3.98564,-0.17437 5.96875,-0.28125 0.052,-0.003 0.10424,0.003 0.15625,0 0.98119,-0.0521 1.9584,-0.12756 2.9375,-0.1875 2.87186,-0.17581 5.7404,-0.38219 8.59375,-0.625 1.4713,-0.1252 2.94003,-0.26339 4.40625,-0.40625 C 499.09638,745.1293 548.62139,728.53282 592.3125,703 c 1.27732,-0.74646 2.54524,-1.48833 3.8125,-2.25 1.30327,-0.78331 2.61375,-1.54448 3.90625,-2.34375 -0.0318,0.002 -0.062,-0.002 -0.0937,0 23.81906,-14.68822 45.92853,-32.11605 65.71875,-51.90625 1.33766,-1.33766 2.65262,-2.70377 3.96875,-4.0625 1.36833,0.16819 0.0397,-0.87402 1.42841,-0.72974 -0.79366,-0.80481 1.17734,-0.38325 0.41534,-1.17651 30.64594,-32.10943 55.29412,-69.89567 72.28125,-110.90625 18.0478,-43.57123 27.4375,-90.71383 27.4375,-137.875 0,-47.16117 -9.3897,-94.30377 -27.4375,-137.875 C 725.70221,210.30376 699.00423,170.31672 665.65625,136.96875 632.30827,103.62079 592.35249,76.922769 548.78125,58.875 505.21001,40.827232 458.06741,31.46875 410.90625,31.46875 c -1.47379,0 -2.96386,-0.01829 -4.4375,0 z m 1.40625,6.5625 c 46.36465,-0.311001 92.76471,8.579203 135.71875,26 42.95404,17.420797 82.43344,43.34328 115.4375,75.84375 33.00406,32.50048 59.50175,71.55525 77.53125,114.1875 18.02951,42.63224 27.56487,88.82012 27.875,135.09375 0.31013,46.27363 -8.60604,92.59848 -26.0625,135.46875 -16.68387,40.97296 -41.15544,78.75979 -71.71875,110.78125 C 622.07233,586.08006 637.41033,557.11867 592.96875,469.5 525.15772,335.80746 406.07621,165.21808 193.875,111.65625 217.97516,93.113668 244.46718,77.653266 272.5,65.84375 315.21668,47.848297 361.51035,38.342251 407.875,38.03125 z m -247.15625,79.9375 c 1.90173,0.50557 5.98817,1.66371 11.875,3.5625 -0.58323,0.51373 -1.17012,1.01374 -1.75,1.53125 -3.34931,-1.70713 -6.71897,-3.40807 -10.125,-5.09375 z m 18.375,5.71875 c 67.53847,23.13232 292.82136,119.98076 406.34375,408.78125 19.69013,50.09154 26.72454,50.5498 44.65625,84 -25.27958,-14.18124 -52.00843,-33.04236 -79.53125,-57.34375 -83.44328,-73.67648 -244.36175,-85.00507 -326.5,-78.59375 41.47495,-16.28845 143.2413,-11.25843 216.4375,9.25 52.66728,14.75653 99.60054,16.67183 55.5,-62.90625 -55.39846,-99.96483 -151.36406,-213.8109 -319.53125,-300.9375 -4.42732,-2.35036 -9.05683,-6.2641 2.625,-2.25 z m -68.125,78.84375 c 167.81802,202.61533 61.85416,264.60605 -21.75,338.4375 -1.848671,-3.9522 -3.613148,-7.95049 -5.3125,-11.96875 -18.029512,-42.63224 -27.564868,-88.82012 -27.875,-135.09375 -0.310132,-46.27363 8.606037,-92.59848 26.0625,-135.46875 7.920757,-19.45211 17.62602,-38.16754 28.875,-55.90625 z m 200,294.90625 c 183.07661,-0.80971 223.19343,122.97904 350,143.78125 -22.74109,22.74187 -48.62542,42.35122 -76.65625,58.15625 -215.93,10.88072 -139.5576,-120.63325 -474.25,-120.1875 -7.53943,-12.00706 -14.363458,-24.46136 -20.40625,-37.28125 92.52296,-31.72916 163.93984,-44.215 221.3125,-44.46875 z M 292.21875,518 C 244.53333,517.96399 186.39656,528.52355 111.25,555.4375 464.29912,532.51516 407.67573,681.98619 631.9375,652.5625 488.11948,621.92227 441.42798,518.11268 292.21875,518 z"
/>
  </g>
</svg>
