<?xml version="1.0" encoding="UTF-8" standalone="no"?>
<!-- Generator: Adobe Illustrator 13.0.2, SVG Export Plug-In . SVG Version: 6.00 Build 14948)  -->

<svg
   xmlns:dc="http://purl.org/dc/elements/1.1/"
   xmlns:cc="http://creativecommons.org/ns#"
   xmlns:rdf="http://www.w3.org/1999/02/22-rdf-syntax-ns#"
   xmlns:svg="http://www.w3.org/2000/svg"
   xmlns="http://www.w3.org/2000/svg"
   xmlns:sodipodi="http://sodipodi.sourceforge.net/DTD/sodipodi-0.dtd"
   xmlns:inkscape="http://www.inkscape.org/namespaces/inkscape"
   version="1.1"
   id="Layer_1"
   x="0px"
   y="0px"
   width="300"
   height="300"
   viewBox="0 0 300.00001 300.00001"
   enable-background="new 0 0 385.248 359.438"
   xml:space="preserve"
   inkscape:version="0.48.3.1 r9886"
   sodipodi:docname="TAM.svg"><metadata
   id="metadata256"><rdf:RDF><cc:Work
       rdf:about=""><dc:format>image/svg+xml</dc:format><dc:type
         rdf:resource="http://purl.org/dc/dcmitype/StillImage" /></cc:Work></rdf:RDF></metadata><defs
   id="defs254" /><sodipodi:namedview
   pagecolor="#ffffff"
   bordercolor="#666666"
   borderopacity="1"
   objecttolerance="10"
   gridtolerance="10"
   guidetolerance="10"
   inkscape:pageopacity="0"
   inkscape:pageshadow="2"
   inkscape:window-width="1366"
   inkscape:window-height="744"
   id="namedview252"
   showgrid="false"
   fit-margin-top="0"
   fit-margin-left="0"
   fit-margin-right="0"
   fit-margin-bottom="0"
   inkscape:zoom="0.92858646"
   inkscape:cx="340.71477"
   inkscape:cy="193.21073"
   inkscape:window-x="0"
   inkscape:window-y="24"
   inkscape:window-maximized="1"
   inkscape:current-layer="Layer_1" />
<g
   id="g236"
   transform="matrix(0.77871515,0,0,0.77871515,0.77948477,11.269678)">
<path
   d="M 368,0 224.03125,37.875 c -1.898,-0.039 -3.836,-0.0625 -5.75,-0.0625 C 100.27725,37.8125 0,118.014 0,202.625 c 0,41.522 22.373251,74.5385 57.03125,95.9375 L 3.8125,359.4375 232.90625,189.8125 171.28125,201.875 307.96875,89.5625 244.3125,98.09375 368,0 z M 208.03125,50.28125 c 0.669,0 1.331,0.02425 2,0.03125 l -93.4375,104.5 53.71875,-8.5 -105.84375,102.375 42.9375,-7.75 -30,34.3125 C 40.963251,257.996 16.4375,228.20875 16.4375,190.09375 c 0,-75.871 94.96075,-139.8125 191.59375,-139.8125 z m 109.8125,11.03125 -16.5,13.09375 c 29.457,18.531999 46.78125,46.2465 46.78125,77.6875 0,73.37 -90.6595,139.8125 -191.5625,139.8125 -10.353,0 -20.5085,-0.76375 -30.3125,-2.21875 l -34.0625,25.21875 c 21.5,7.273 45.4855,11.125 70.5625,11.125 119.782,0 222.5,-80.85275 222.5,-163.46875 0,-39.071 -24.29725,-77.587001 -67.40625,-101.25 z"
 />
</g></svg>
