<?xml version="1.0" encoding="UTF-8" standalone="no"?>
<!-- Generator: Adobe Illustrator 13.0.0, SVG Export Plug-In . SVG Version: 6.00 Build 14948)  -->

<svg
   xmlns:i="http://ns.adobe.com/AdobeIllustrator/10.0/"
   xmlns:dc="http://purl.org/dc/elements/1.1/"
   xmlns:cc="http://creativecommons.org/ns#"
   xmlns:rdf="http://www.w3.org/1999/02/22-rdf-syntax-ns#"
   xmlns:svg="http://www.w3.org/2000/svg"
   xmlns="http://www.w3.org/2000/svg"
   xmlns:sodipodi="http://sodipodi.sourceforge.net/DTD/sodipodi-0.dtd"
   xmlns:inkscape="http://www.inkscape.org/namespaces/inkscape"
   version="1.0"
   id="Layer_1"
   x="0px"
   y="0px"
   width="300"
   height="300"
   viewBox="0 0 300 300"
   enable-background="new 0 0 200 200"
   xml:space="preserve"
   inkscape:version="0.48.3.1 r9886"
   sodipodi:docname="TOR.svg"><metadata
     id="metadata41"><rdf:RDF><cc:Work
         rdf:about=""><dc:format>image/svg+xml</dc:format><dc:type
           rdf:resource="http://purl.org/dc/dcmitype/StillImage" /></cc:Work></rdf:RDF></metadata><defs
     id="defs39" /><sodipodi:namedview
     pagecolor="#ffffff"
     bordercolor="#666666"
     borderopacity="1"
     objecttolerance="10"
     gridtolerance="10"
     guidetolerance="10"
     inkscape:pageopacity="0"
     inkscape:pageshadow="2"
     inkscape:window-width="1366"
     inkscape:window-height="744"
     id="namedview37"
     showgrid="false"
     fit-margin-top="0"
     fit-margin-left="0"
     fit-margin-right="0"
     fit-margin-bottom="0"
     inkscape:zoom="1.668772"
     inkscape:cx="198.8237"
     inkscape:cy="145.89771"
     inkscape:window-x="0"
     inkscape:window-y="24"
     inkscape:window-maximized="1"
     inkscape:current-layer="Layer_1" /><switch
     id="switch3"
     transform="matrix(1.5732547,0,0,1.5732547,-7.6925931,-6.713127)"><g
       i:extraneous="self"
       id="g7"><path
   style="fill:#000000;fill-opacity:1;fill-rule:evenodd;stroke:none"
   d="m 89,0 c 0,0 -14.492,12.42125 -22.125,18.78125 -4.796,3.997 -9.13025,6.78175 -18.90625,5.59375 3.372,15.883 10.84375,46.9375 10.84375,46.9375 0,0 -15.8435,-8.91 -22.0625,-12.625 -12.076,2.045 -24.468,3.786 -36.75,5.625 2.223,10.816 6.3715,24.0165 9.4375,36.0625 1.057,4.151 2.74,9.3815 2.125,12.9375 -0.589,3.399 -3.287,4.7895 -5.25,8.0625 4.298,2.626 9.961,4.98675 16.125,8.21875 4.831,2.533 13.26175,5.94 13.96875,11.375 0.472,3.629 -1.72825,6.7425 -3.15625,9.8125 -1.387,2.982 -2.84425,5.858 -4.40625,8.75 l 49.9375,0 0,31.15625 20.65625,0 0,-31.15625 50.03125,0 c -1.813,-2.829 -3.498,-5.726 -4.875,-8.75 -1.408,-3.094 -3.3555,-6.73825 -2.8125,-10.15625 0.852,-5.349 9.308,-7.999 14,-10.5 5.854,-3.119 11.331,-6.19625 16.125,-8.40625 -1.196,-3.463 -4.637,-4.82325 -5.25,-8.40625 -0.62,-3.622 1.03075,-8.7165 2.09375,-12.9375 2.881,-11.438 6.9965,-25.04075 9.4375,-35.71875 -11.575,-2.545 -24.62025,-3.63375 -36.40625,-5.96875 -7.651,3.901 -15.27125,9.71775 -22.40625,12.96875 3.507,-15.748 7.3675,-31.69 10.9375,-47.375 -3.479,0.219 -6.3845,0.40125 -9.8125,-0.21875 C 115.055,23.0785 108.02875,15.991 104.09375,12.75 98.59375,8.2220002 89,0 89,0 z M 54.96875,84.25 c 4.898,0 8.875,3.977 8.875,8.875 0,4.898 -3.977,8.875 -8.875,8.875 -4.898,0 -8.875,-3.976 -8.875,-8.875 0,-4.898 3.977,-8.875 8.875,-8.875 z m 32.71875,0 c 4.898,0 8.875,3.977 8.875,8.875 0,4.898 -3.977,8.875 -8.875,8.875 -4.898,0 -8.84375,-3.977 -8.84375,-8.875 0,-4.898 3.94475,-8.875 8.84375,-8.875 z m 47.53125,0 c 4.897,0 8.875,3.977 8.875,8.875 0,4.898 -3.978,8.875 -8.875,8.875 -4.898,0 -8.875,-3.977 -8.875,-8.875 0,-4.898 3.977,-8.875 8.875,-8.875 z m -67,0.65625 c 5.940771,-0.04089 8.65625,0.490875 8.65625,5.46875 0,1.707 -0.915,3.054 -2.75,3.875 1.118,2.266 3.34375,7.53125 3.34375,7.53125 l -5,-0.0312 -2.8125,-7.53125 0,7.53125 -4.1875,0 0,-16.78125 c 0.981875,-0.01825 1.901318,-0.05666 2.75,-0.0625 z M 35,84.96875 l 10.5,0 0,4.03125 -3.125,0 0,12.75 -4.5625,0 0,-12.78125 -3.5,-0.03125 L 35,84.96875 z m 63.03125,0 4.8125,0 5.6875,8.375 0,-8.375 4.1875,0 0,16.78125 -4.25,0 -5.90625,-8.625 0,8.625 -4.53125,0 0,-16.78125 z m 17.3125,0 10.34375,0 0,4.1875 -3.15625,0 0,12.59375 -4.5625,0 0,-12.59375 -3.5,0 0.875,-4.1875 z m -45.65625,2.9375 0,5.25 c 1.969,-0.043 3.0925,-1.049 3.0625,-2.625 0,-1.897 -1.5455,-2.625 -3.0625,-2.625 z M 55,88.5625 c -2.441099,0 -4.40625,2.056002 -4.40625,4.59375 0,2.537748 1.965151,4.59375 4.40625,4.59375 2.441099,0 4.4375,-2.056002 4.4375,-4.59375 0,-2.537748 -1.996401,-4.59375 -4.4375,-4.59375 z m 32.75,0 c -2.441099,0 -4.4375,2.056002 -4.4375,4.59375 0,2.537748 1.996401,4.59375 4.4375,4.59375 2.441099,0 4.40625,-2.056002 4.40625,-4.59375 0,-2.537748 -1.965151,-4.59375 -4.40625,-4.59375 z m 47.4375,0 c -2.4411,0 -4.4375,2.056002 -4.4375,4.59375 0,2.537748 1.9964,4.59375 4.4375,4.59375 2.4411,0 4.40625,-2.056002 4.40625,-4.59375 0,-2.537748 -1.96515,-4.59375 -4.40625,-4.59375 z m -27.34375,17.03125 0,12.375 5.71875,0 -1.0625,4.3125 -9.125,0 c 0,-5.718 -0.0937,-16.65625 -0.0937,-16.65625 l 4.5625,-0.0312 z m -54.46875,0.0312 4.03125,0 2.8125,7.34375 2.8125,-7.34375 4.1875,0 1.84375,16.65625 -4.53125,0.0312 -0.78125,-7.78125 -3.5,7.6875 -3.6875,-7.5625 -1.125,7.625 -4.21875,0 L 53.375,105.625 z m 23.28125,0 5.625,0 c 2.035,5.551 3.8485,10.91025 5.6875,16.65625 l -4.875,0 -1.0625,-2.84375 -5.28125,0 -0.9375,2.84375 -4.625,0 c 1.868,-5.717 3.34475,-11.19525 5.46875,-16.65625 z m 38.875,0 8.75,0 0.6875,3.78125 -4.875,0 0,2.65625 3.375,0 0,3.46875 -3.375,0 0,2.875 5.34375,-0.0312 -0.6875,3.90625 -9.125,0 -0.0937,-16.65625 z M 93.9375,105.9062 c 4.246453,0.041 7.0625,0.71375 7.0625,5.375 -0.001,3.501 -1.1925,5.86825 -7.1875,5.78125 l 0.125,5.21875 -4.5625,0.0312 c 0,0 -0.09375,-10.85875 -0.09375,-16.34375 1.68475,0 3.240766,-0.0762 4.65625,-0.0625 z m -0.09375,3.03125 -0.03125,4.71875 c 4.23,0 4.17525,-4.71875 0.03125,-4.71875 z m -14.5625,1.1875 -1.5625,5.625 3.21875,0 -1.65625,-5.625 z m 37.5,16.9375 c 1.36,0 2.0015,0.1975 3.6875,0.4375 0,1.4 -0.0312,2.6625 -0.0312,4.0625 -1.747,-0.784 -6,-1.109 -6,0.875 0,1.983 6.38225,1.786 6.90625,6.25 0.576,4.91 -4.2025,6.37725 -11.0625,5.65625 l 0,-4.0625 c 0,0 6.29975,1.35475 6.34375,-0.90625 0.03,-1.57 -2.156,-1.8735 -3.875,-2.6875 -1.996,-0.946 -2.59375,-2.38675 -2.59375,-4.09375 0,-4.245 3.062,-5.53125 6.625,-5.53125 z m -58.65625,0.59375 4.53125,0 0,12.625 5.78125,0 -0.96875,3.96875 -9.34375,0 0,-16.59375 z m 12.59375,0 8.40625,0 0.84375,3.59375 -5.0625,0 0,2.84375 3.46875,0 0.03125,3.375 -3.5,0 0,2.90625 5.375,-0.0312 -1.125,3.90625 -8.4375,-0.0312 0,-16.5625 z m 16.03125,0 5.6875,0 5.5,16.59375 -4.9375,0 -0.71875,-2.59375 -5.53125,0 -0.78125,2.625 L 81.375,144.25 86.75,127.65625 z m 12.90625,0 7.8125,0 c 0.467,1.283 1.0625,3.90625 1.0625,3.90625 l -4.5625,0 0,3.1875 3.15625,0.0312 0,3.78125 -3.15625,0 0,5.6875 -4.375,0 c 0,0 0.0625,-10.99275 0.0625,-16.59375 z m -10.21875,4.375 -1.5625,5.78125 3.375,0 -1.8125,-5.78125 z"
   transform="translate(11.400998,4.9910008)"
 />
		
	</g></switch></svg>
