<?xml version="1.0" encoding="UTF-8" standalone="no"?>
<!-- Generator: Adobe Illustrator 13.0.1, SVG Export Plug-In . SVG Version: 6.00 Build 14948)  -->

<svg
   xmlns:dc="http://purl.org/dc/elements/1.1/"
   xmlns:cc="http://creativecommons.org/ns#"
   xmlns:rdf="http://www.w3.org/1999/02/22-rdf-syntax-ns#"
   xmlns:svg="http://www.w3.org/2000/svg"
   xmlns="http://www.w3.org/2000/svg"
   xmlns:sodipodi="http://sodipodi.sourceforge.net/DTD/sodipodi-0.dtd"
   xmlns:inkscape="http://www.inkscape.org/namespaces/inkscape"
   version="1.1"
   id="Layer_1"
   sodipodi:version="0.32"
   inkscape:version="0.48.3.1 r9886"
   sodipodi:docname="VAN.svg"
   inkscape:output_extension="org.inkscape.output.svg.inkscape"
   x="0px"
   y="0px"
   width="300"
   height="300"
   viewBox="0 0 300 300"
   enable-background="new 0 0 500 481.918"
   xml:space="preserve"><metadata
   id="metadata54"><rdf:RDF><cc:Work
       rdf:about=""><dc:format>image/svg+xml</dc:format><dc:type
         rdf:resource="http://purl.org/dc/dcmitype/StillImage" /></cc:Work></rdf:RDF></metadata><defs
   id="defs3">
	
	
		<inkscape:perspective
   id="perspective56"
   inkscape:persp3d-origin="250 : 160.63933 : 1"
   inkscape:vp_z="500 : 240.959 : 1"
   sodipodi:type="inkscape:persp3d"
   inkscape:vp_x="0 : 240.959 : 1"
   inkscape:vp_y="0 : 1000 : 0">
		</inkscape:perspective>
</defs><sodipodi:namedview
   id="base"
   inkscape:window-height="744"
   inkscape:window-width="1366"
   inkscape:pageshadow="2"
   inkscape:pageopacity="0.0"
   inkscape:window-x="0"
   inkscape:window-y="24"
   inkscape:current-layer="Layer_1"
   inkscape:zoom="0.95866932"
   gridtolerance="10.0"
   objecttolerance="10.0"
   guidetolerance="10.0"
   pagecolor="#ffffff"
   borderopacity="1.0"
   showgrid="false"
   bordercolor="#666666"
   inkscape:cx="583.79602"
   inkscape:cy="199.2345"
   inkscape:window-maximized="1">
	</sodipodi:namedview><path
   style="fill:#000000"
   d="m 154.92656,4.2641103 c -6.56587,0 -15.05988,1.354801 -15.05988,1.354801 0,13.9630077 -2.63468,54.6137837 -9.13018,61.6728837 -1.61602,2.002435 -13.55602,6.846103 -26.56588,11.859415 l 3.88769,2.631063 -3.96623,3.946593 c 0.80809,-0.425601 1.6043,-0.824542 2.39545,-1.217357 -0.79113,0.392545 -1.58736,0.811743 -2.39545,1.236992 l -7.48085,7.500491 -8.246612,25.741218 -10.70097,-5.59592 3.82879,9.52287 -19.12429,3.18084 10.79914,3.69134 -31.12115,23.93481 8.42333,0.66759 -11.09366,20.02749 c 16.00817,-7.23943 20.85215,-8.65895 20.85215,-8.65895 l -4.59454,-4.71235 32.25996,-12.99823 c 0,0 -2.43471,6.45765 -2.43471,18.98684 0,1.79321 0.2741,4.41422 0.88356,7.50049 1.40114,-2.62509 26.764892,-49.41857 81.130972,-52.60161 l -22.75673,17.59278 c -0.006,0.001 -0.0134,-0.001 -0.0196,0 -29.1664,5.97137 -56.985812,33.70396 -58.354612,35.06774 3.96466,19.48713 22.995022,59.68976 90.241512,59.68976 48.59313,0 86.13784,-16.98409 86.13784,-16.98409 l 17.41606,38.97506 c 0,0 -45.60691,31.59238 -114.60829,31.59238 -141.034362,0 -158.963282,-110.91694 -158.963282,-110.91694 19.46452,-52.01366 52.20452,-74.82474 73.02179,-84.44924 l -6.51875,-0.746123 -0.54977,-1.924209 C 17.435098,120.20206 1.1861379,176.40234 1.1861379,176.40234 c 0,0 16.7266401,116.7092 164.3432121,116.7092 75.50756,0 121.18594,-35.02847 121.18594,-35.02847 l -21.36265,-47.75181 c 0,0 -39.89617,18.71195 -88.7689,18.71195 -72.81021,0 -83.585312,-49.67602 -83.585312,-49.67602 0,0 41.473552,2.47886 54.722162,-1.07991 l 68.52543,-34.20381 c 46.42419,13.09154 59.78795,27.27273 59.78795,27.27273 l 21.26448,-23.93481 c 0,0 3.88768,-3.64045 3.88768,-11.85942 6.3e-4,-7.73014 -11.46907,-15.43483 -17.57313,-19.83114 C 270.91792,81.374654 200.77585,75.095604 193.01806,58.907739 189.91545,52.404067 185.94812,36.855353 180.118,17.929926 175.471,4.2603403 161.77832,4.2641103 154.92656,4.2641103 z m 5.79227,19.7918707 c 0,0 3.11863,33.4968 5.77263,36.854507 2.68855,3.371529 12.54663,7.520125 12.54663,7.520125 0,0 -12.46165,-2.549853 -16.37542,-2.297271 -5.34443,0.289653 -16.21834,3.84842 -16.21834,3.84842 0,0 9.78661,-5.6344 11.78088,-8.678579 1.94714,-3.035381 2.49362,-37.247202 2.49362,-37.247202 z m -93.991762,34.714314 10.19046,29.923425 18.04438,4.437463 7.284502,-9.797762 -35.519342,-24.563126 z m 67.563332,12.36992 c -0.003,0.0031 0.003,0.01627 0,0.0196 -0.40228,0.337404 -0.82059,0.646421 -1.25663,0.962105 0.4362,-0.31564 0.85419,-0.644336 1.25663,-0.98174 z m -5.77263,10.44571 -21.59828,34.478695 -7.59866,-18.142548 29.19694,-16.336147 z M 90.347728,94.132557 c -5.34661,1.864608 -12.54414,4.963651 -20.5969,9.935203 l 14.7261,8.40369 5.8708,-18.338893 z m -20.5969,9.935203 c -18.65648,11.518 -41.89176,33.17754 -57.31396,73.43413 2.67599,13.19772 25.75975,104.67307 153.092482,104.67307 54.94852,0 95.10513,-20.84806 107.42195,-28.11702 l -13.15531,-29.43255 c -12.18111,4.71863 -44.00361,15.3544 -83.21225,15.3544 -77.37365,0 -96.819162,-52.98849 -96.819162,-72.92361 0,-4.41767 0.29499,-8.15095 0.66758,-11.21147 l -17.78912,5.91007 2.3169,5.02651 -13.8818,5.00687 -11.97722,7.83429 24.32751,4.516 -5.02651,17.35715 10.42608,-3.1023 10.01374,25.46633 11.97722,-1.55115 3.96623,17.8873 c 0,0 22.531162,15.6106 60.691152,19.02611 50.41461,4.50375 95.56253,-12.68407 95.56253,-12.68407 0,0 -53.81504,21.09766 -102.72923,15.88454 -37.36768,-3.95586 -61.731792,-19.14392 -61.731792,-19.14392 l -0.31416,-16.1398 -14.74573,0.19635 -6.95071,-24.68094 -13.11605,6.16533 5.79227,-22.10877 -25.19144,-3.1023 5.14432,-15.43295 5.98861,-12.01649 -8.05027,0.19635 33.69331,-25.07363 -14.66719,-5.8119 23.91517,-4.59454 -8.32515,-16.80739 z M 231.50226,94.407444 c 11.87889,0 30.20553,9.408676 33.22206,17.396426 -5.19615,-5.56309 -14.33858,-10.46534 -21.26448,-10.46534 -1.47905,0 -3.02375,0.4373 -3.02375,2.27763 0,4.69476 8.32798,12.03833 38.83762,15.45258 7.71945,6.21088 16.82701,10.89402 16.82701,17.78913 0,2.10924 -0.53406,3.71129 -1.09954,4.84979 3.1114,-11.22733 -13.0807,-19.92743 -28.64717,-23.62066 -29.08525,-2.33292 -40.38877,-11.86365 -40.38877,-19.379536 0,-3.577616 3.29331,-4.30002 5.53702,-4.30002 z m -114.47085,19.595526 17.29826,14.45121 -34.77322,-4.69272 17.47496,-9.75849 z m -19.49735,5.77263 -3.063022,21.559 -37.32575,5.61555 40.388772,-27.17455 z m 157.03908,4.55527 c 10.89872,0 26.04924,10.54341 38.95543,19.43844 l -3.37719,3.80915 c -14.75217,-9.65152 -28.46935,-18.35853 -35.16591,-18.35853 -2.94554,0 -13.84049,4.19462 -22.8549,7.77538 30.23821,9.9041 45.67791,20.59344 47.77145,22.12841 l -4.4571,5.02651 c 0,0 -17.87379,-14.54341 -59.78794,-25.66268 -4.51004,2.25801 -9.3278,4.732 -14.47084,7.38269 5.14251,-2.65117 9.96175,-5.12484 14.47084,-7.38269 17.30752,-8.6858 30.07013,-14.15668 38.91616,-14.15668 z m 0.11781,7.04889 c 2.40015,0 5.91494,1.65765 7.69683,2.53289 -1.81959,0.92362 -4.30803,2.14804 -4.67308,2.258 -0.48443,0.11624 -1.26432,0.0804 -1.74749,0 -0.33804,-0.0836 -4.52433,-1.72629 -7.52013,-2.94522 0,0 3.98948,-1.84567 6.24387,-1.84567 z m -8.81603,2.82741 c 3.14723,1.1385 8.2119,3.0591 8.54114,3.35755 0.49448,0.43982 0.50485,0.69711 0.35342,0.98174 -0.19414,0.30285 -2.46173,1.37538 -4.55527,2.27763 l -11.32927,-4.00549 6.98998,-2.61143 z m 18.14255,0.4516 7.85392,4.20185 c -1.38543,0.95063 -3.4375,2.26177 -3.76988,2.33654 -0.46118,0.10995 -0.85309,0.10665 -1.31553,0.0589 -0.45993,-0.0622 -6.35256,-3.09225 -6.79364,-3.41646 -0.38516,-0.29782 -0.46527,-0.43856 -0.35343,-0.70685 0.18975,-0.26829 2.34848,-1.46743 4.37856,-2.47398 z m -6.36167,4.35892 c 0.2514,-0.0232 0.52527,-0.002 0.86393,0.0393 0.617,0.10996 6.44964,3.12414 6.83291,3.5539 0.0748,0.27458 -0.003,0.47611 -0.13745,0.76576 -0.18221,0.21488 -2.03306,1.43302 -3.75024,2.49362 l -9.11054,-4.16258 c 1.05807,-0.5925 4.019,-2.23444 4.516,-2.45435 0.29688,-0.13446 0.53399,-0.21245 0.78539,-0.23561 z m 15.70783,0.76576 7.02926,4.47673 c -0.90352,0.75963 -2.25188,1.8518 -2.59179,1.98312 -0.63397,0.22556 -1.20825,0.38468 -1.41371,0.33379 l -6.2635,-3.53426 c -0.3795,-0.51208 -0.41233,-0.66994 -0.41233,-0.72649 0.19038,-0.2419 1.96317,-1.48298 3.65207,-2.53289 z m -5.10504,4.41783 c 0.15435,5.7e-4 0.29436,0.0118 0.41233,0.0393 0.42914,0.054 6.04594,3.08989 6.40094,3.43609 0.27018,0.2419 0.33222,0.57616 0.21598,0.78539 -0.14388,0.21991 -1.75001,1.28537 -3.23974,2.258 l -8.60004,-4.02513 c 1.54063,-1.10269 3.17895,-2.24072 3.41646,-2.29727 0.34447,-0.0985 0.93102,-0.19806 1.39407,-0.19635 z m 13.62654,1.04064 6.45985,4.18221 -2.84704,2.84705 c -2.46865,-1.65372 -6.11522,-4.07367 -6.34204,-4.28039 -0.10619,-0.13948 -0.0876,-0.31808 0.11781,-0.72648 0.12943,-0.21991 1.39187,-1.17731 2.61142,-2.02239 z m -3.90732,4.14294 c 0.1272,-0.004 0.23829,0.0192 0.31416,0.0393 0.29028,0.1376 3.72558,2.44728 6.08678,4.08404 l -2.90595,3.18084 -7.75574,-4.83016 c 1.18123,-0.92928 2.81343,-2.17946 3.04339,-2.258 0.29405,-0.10367 0.83575,-0.20491 1.21736,-0.21599 z"
 />
</svg>
