<?xml version="1.0" encoding="UTF-8" standalone="no"?>
<!-- Generator: Adobe Illustrator 15.0.2, SVG Export Plug-In . SVG Version: 6.00 Build 0)  -->

<svg
   xmlns:dc="http://purl.org/dc/elements/1.1/"
   xmlns:cc="http://creativecommons.org/ns#"
   xmlns:rdf="http://www.w3.org/1999/02/22-rdf-syntax-ns#"
   xmlns:svg="http://www.w3.org/2000/svg"
   xmlns="http://www.w3.org/2000/svg"
   xmlns:sodipodi="http://sodipodi.sourceforge.net/DTD/sodipodi-0.dtd"
   xmlns:inkscape="http://www.inkscape.org/namespaces/inkscape"
   version="1.1"
   id="Layer_1"
   x="0px"
   y="0px"
   width="300"
   height="300"
   viewBox="0 0 300 299.99999"
   enable-background="new 0 0 2000 2000"
   xml:space="preserve"
   inkscape:version="0.48.3.1 r9886"
   sodipodi:docname="WPG.svg"><metadata
     id="metadata49"><rdf:RDF><cc:Work
         rdf:about=""><dc:format>image/svg+xml</dc:format><dc:type
           rdf:resource="http://purl.org/dc/dcmitype/StillImage" /></cc:Work></rdf:RDF></metadata><defs
     id="defs47" /><sodipodi:namedview
     pagecolor="#ffffff"
     bordercolor="#666666"
     borderopacity="1"
     objecttolerance="10"
     gridtolerance="10"
     guidetolerance="10"
     inkscape:pageopacity="0"
     inkscape:pageshadow="2"
     inkscape:window-width="1366"
     inkscape:window-height="744"
     id="namedview45"
     showgrid="false"
     fit-margin-top="0"
     fit-margin-left="0"
     fit-margin-right="0"
     fit-margin-bottom="0"
     inkscape:zoom="1.3350176"
     inkscape:cx="378.56808"
     inkscape:cy="173.7794"
     inkscape:window-x="0"
     inkscape:window-y="24"
     inkscape:window-maximized="1"
     inkscape:current-layer="Layer_1" /><path
     style="fill:#000000"
     d="m 151.02924,-0.5255456 c -82.841279,0 -149.9844895,67.1628896 -149.9844895,150.0051556 0,82.83105 67.1612705,149.99484 150.0103295,149.99484 82.84128,-3e-5 149.96898,-67.16396 149.96898,-149.99484 0,-82.842106 -67.14626,-150.0049856 -149.99482,-150.0051556 z m 0.0155,3.81806 14.50763,36.5480696 c 54.12795,7.30722 95.87041,53.65835 95.87021,109.794026 3e-5,61.206 -49.17233,110.82216 -110.37784,110.82217 -61.204169,-3e-5 -111.261309,-49.6165 -111.261309,-110.82217 0,-56.131376 41.74828,-102.484446 95.875369,-109.788856 L 151.04475,3.2925144 z m 0.0103,35.2564296 -11.25271,52.31633 -21.10013,-13.8308 c 0,0 8.49448,50.296696 8.49895,50.316866 l -22.46926,-22.42275 -0.61998,17.70054 -32.884999,-12.41001 12.19819,32.28567 0,-2.83126 -0.0827,-10.87556 0.005,0.0103 0.0827,10.86522 0,38.67151 6.66483,-3.32207 42.200249,2.82609 0,6.24634 -8.51445,12.24467 -13.52598,-2.19061 c 0,0 6.07865,-7.5311 6.26184,-8.04428 l -11.55237,-10.07474 27.33096,1.81862 -29.7799,-1.98913 12.05869,10.51907 -7.08849,8.82444 15.38594,2.5006 9.45993,-13.60864 0,-6.24634 0.0103,0 0,6.24634 -19.19367,27.59961 0,16.73442 26.45782,-13.04549 2.00461,-5.04772 9.4341,45.82717 9.55292,-46.17332 -0.0362,-0.093 0.005,-0.005 2.1751,5.49203 26.463,13.04549 0,-16.73957 -9.71308,-13.97031 15.55643,-2.51094 -7.09366,-8.82961 12.07936,-10.53456 -27.17596,1.81345 39.40514,-2.63492 6.66483,3.32208 0,-18.98701 18.10869,-15.79927 -18.10869,-0.0878 0,-0.46499 12.38935,-32.78683 -32.89531,12.41002 -0.61998,-17.70055 -22.47444,22.42792 c 0.58019,-3.48827 8.50413,-50.322036 8.50413,-50.322036 l -21.27581,13.97031 0.34617,1.61196 18.74934,-12.37386 -16.67239,22.092106 -2.10795,-9.697576 0.0155,-0.0103 -11.83135,-54.07817 z m -30.31722,41.57512 18.70802,12.29117 -2.77959,12.833676 -1.00748,11.47487 -14.87962,-36.372396 c -0.0271,-0.14119 -0.0413,-0.22732 -0.0413,-0.22732 z m 16.75507,21.492776 -0.78014,3.6269 -2.25778,25.67768 -41.91093,19.99449 0,-0.005 41.89543,-19.98932 2.26811,-25.67768 0.78531,-3.6269 z m -31.39703,6.79399 21.03813,20.9813 c 0.024,0.0109 0.0358,0.0274 0.0568,0.0362 l 3.37375,3.32725 -25.82234,12.32735 -30.715049,-32.21851 31.459029,11.83653 0.60965,-16.29008 z m 122.6432,4.42255 -34.31613,30.76155 -6.27733,-3.00176 9.18609,-15.87676 31.40737,-11.88303 z m -9.98692,15.6856 0,0.0103 -8.94327,22.3866 -0.005,-0.005 8.94844,-22.39176 z m -135.327029,14.95195 -17.92787,0.0878 17.92787,15.63911 0,-15.72694 z m -0.0362,1.49313 0,12.23435 -13.93931,-12.17235 13.93931,-0.062 z m 60.846279,70.50254 6.79916,15.54609 0.0258,18.95085 -6.82499,-34.49694 z"
 /></svg>
