<?xml version="1.0" encoding="UTF-8" standalone="no"?>
<!-- Created with Inkscape (http://www.inkscape.org/) -->

<svg
   xmlns:dc="http://purl.org/dc/elements/1.1/"
   xmlns:cc="http://creativecommons.org/ns#"
   xmlns:rdf="http://www.w3.org/1999/02/22-rdf-syntax-ns#"
   xmlns:svg="http://www.w3.org/2000/svg"
   xmlns="http://www.w3.org/2000/svg"
   xmlns:sodipodi="http://sodipodi.sourceforge.net/DTD/sodipodi-0.dtd"
   xmlns:inkscape="http://www.inkscape.org/namespaces/inkscape"
   width="300"
   height="300"
   id="svg3037"
   sodipodi:version="0.32"
   inkscape:version="0.48.3.1 r9886"
   sodipodi:docname="WSH.svg"
   inkscape:output_extension="org.inkscape.output.svg.inkscape"
   version="1.1">
  <metadata
     id="metadata7">
    <rdf:RDF>
      <cc:Work
         rdf:about="">
        <dc:format>image/svg+xml</dc:format>
        <dc:type
           rdf:resource="http://purl.org/dc/dcmitype/StillImage" />
      </cc:Work>
    </rdf:RDF>
  </metadata>
  <defs
     id="defs3039" />
  <sodipodi:namedview
     id="base"
     pagecolor="#ffffff"
     bordercolor="#666666"
     borderopacity="1.0"
     inkscape:pageopacity="0.0"
     inkscape:pageshadow="2"
     inkscape:zoom="1.095627"
     inkscape:cx="521.20575"
     inkscape:cy="200.1136"
     inkscape:current-layer="svg3037"
     inkscape:document-units="px"
     showgrid="false"
     inkscape:window-width="1366"
     inkscape:window-height="744"
     inkscape:window-x="0"
     inkscape:window-y="24"
     inkscape:window-maximized="1" />
  <path
     style="fill:#000000;fill-opacity:1;fill-rule:nonzero"
     d="m 4.6350665,39.944697 c -2.29588,8.277524 -4.34779,13.74313 -4.17581,22.115201 0.49873,24.342619 19.3846805,46.099702 34.9742805,59.878382 -16.974,-11.96502 -25.6752805,-21.74157 -28.1603305,-27.165371 -0.7309,-1.598773 -1.28672,-2.947169 -1.85424,-4.41701 0,0 -1.42969,8.797051 -1.26631,15.527371 0.31816,13.3489 4.68578,24.22384 15.1505005,39.11994 -0.29236,2.3294 -0.4565,4.62645 -0.42211,6.8441 0.47294,31.27064 32.63555,52.3915 46.94393,61.77785 6.60386,4.34075 11.85422,8.62928 15.90425,11.51739 13.00996,9.2832 29.607543,38.45663 29.607543,38.45663 1.33281,-4.46109 4.10092,-6.67165 5.56272,-7.58278 1.73695,-11.29457 9.49099,-29.40027 23.83376,-34.08485 0.27516,-1.3581 1.10441,-3.40392 3.2713,-4.95972 0.18918,-1.46984 6.43708,-36.27074 6.43708,-36.27074 0,0 6.26297,34.8009 6.45215,36.27074 2.16689,1.5558 2.98966,3.60162 3.25622,4.95972 14.35137,4.68458 22.10541,22.79028 23.83377,34.08485 1.47039,0.91113 4.24498,3.12169 5.57779,7.58278 0,0 16.59758,-29.17343 29.60754,-38.45663 4.05003,-2.88811 9.30039,-7.17664 15.90425,-11.51739 14.30838,-9.38635 46.45592,-30.50721 46.92885,-61.77785 0.0344,-2.21765 -0.11467,-4.5147 -0.40703,-6.8441 10.46472,-14.8875 14.82375,-25.77104 15.1505,-39.11994 0.16337,-6.73032 -1.26631,-15.527371 -1.26631,-15.527371 -0.56752,1.469841 -1.12982,2.818237 -1.86932,4.41701 -2.47645,5.423801 -11.17125,15.200351 -28.14525,27.165371 15.5896,-13.77868 34.47555,-35.535763 34.97428,-59.878382 0.17198,-8.372071 -1.87993,-13.837677 -4.17581,-22.115201 0,0 -4.97231,29.014951 -55.92869,55.446292 -16.48387,8.543981 -31.47911,17.411131 -41.04955,26.969391 -8.81375,8.81904 -14.91884,22.9151 -21.37652,47.95396 -4.03283,-9.56686 -11.02411,-26.3206 -12.15055,-29.01961 0.47293,-0.24068 0.82744,-0.42673 1.08541,-0.57285 0.47293,-0.11175 2.41617,-1.41791 7.0853,3.12055 2.02932,-2.58727 4.11775,-8.07058 4.16074,-11.5174 0.0172,-2.3122 -0.71247,-9.72 -10.02496,-11.09528 -1.46179,-2.05434 -5.4459,-5.69205 -18.24089,-5.74363 -1.52199,0 -14.85183,-0.21063 -16.41681,9.82898 -0.11178,0.76501 -10.85408,43.22037 -10.85408,43.22037 -8.89974,-25.03886 -12.1256,-37.35605 -20.93935,-46.17509 C 92.042867,112.80212 77.032547,103.93497 60.548687,95.390989 9.5837065,68.959648 4.6350665,39.944697 4.6350665,39.944697 z m 0.0905,15.436923 c 3.66308,9.171462 12.6582305,17.525929 24.2407905,25.416653 l 17.44186,42.737967 C 25.366997,107.27344 5.6713765,86.127928 4.7255165,55.38162 z M 296.18794,55.39667 c -0.94586,30.737712 -20.65656,51.87675 -41.69778,68.13954 L 271.917,80.798272 c 11.58256,-7.890724 20.59926,-16.230116 24.27094,-25.401578 z M 8.2078665,100.93863 c 5.0302905,12.52373 21.3247005,23.40613 39.0897905,33.67782 l -4.53762,-11.14051 c 22.31384,17.23409 45.47182,30.48506 57.888473,42.76811 6.42328,6.48965 11.84916,13.72185 16.67308,21.22577 -10.09497,-15.06801 -36.704073,-29.20285 -63.119533,-44.06457 l 14.89422,36.54209 C 44.383377,162.91094 9.4288965,140.42662 8.2078665,100.93863 z m 284.4675235,0 c -1.22103,39.4794 -36.17551,61.98091 -60.88841,79.00871 l 14.90929,-36.55717 c -26.41546,14.87032 -53.02456,29.00305 -63.11953,44.07965 4.82392,-7.51252 10.26487,-14.73612 16.68816,-21.22577 12.40804,-12.28305 35.56815,-25.52542 57.87339,-42.76811 l -4.55269,11.15559 c 17.76509,-10.27169 34.0681,-21.17776 39.08979,-33.6929 z m -143.45485,19.07003 c 0.30106,-0.002 0.48241,0 0.48241,0 0.6707,0.009 5.71929,0.16252 7.74861,0.61808 0.49013,0.13753 7.5657,1.1946 7.64308,4.83911 8.07426,0.21489 10.05075,4.29592 7.64309,12.93446 -3.98984,-2.99126 -5.66003,-2.39629 -7.07023,-2.09544 l -5.59287,2.78889 18.55747,45.94897 -29.35126,-38.14006 -26.14026,39.01442 14.6078,-59.87838 c 0.88782,-5.58819 9.36476,-6.01348 11.47216,-6.03005 z m 0.97989,5.60795 c -0.34386,-0.004 -0.66648,0.006 -0.96481,0.0151 -1.432,0.0427 -2.3065,0.21105 -2.3065,0.21105 1.78855,0.1805 6.31648,1.38691 6.31648,1.38691 0,0 0.48589,1.49336 2.41202,1.91454 2.20129,0.50713 3.91953,-1.38691 3.91953,-1.38691 -3.51744,-1.68755 -6.96971,-2.1107 -9.37672,-2.14067 z M 22.996557,150.83728 c 5.6408,13.46924 29.12584,24.32676 48.54189,35.07981 16.68163,9.23162 33.544713,29.58846 36.150143,32.68286 -8.091463,-7.37499 -19.387513,-14.63456 -31.778363,-21.94938 l 10.35661,25.44681 c -5.40003,-5.96532 -20.93301,-14.00149 -35.27578,-25.29606 -14.145,-11.14844 -27.2808,-25.17998 -27.9945,-45.96404 z m 254.905213,0 c -0.7223,20.78406 -13.8495,34.8156 -27.9945,45.96404 -14.34277,11.29457 -29.89082,19.33933 -35.29086,25.29606 l 10.37169,-25.43173 c -12.39085,7.31482 -23.70198,14.55072 -31.79343,21.9343 2.60543,-3.0944 19.4685,-23.45124 36.15014,-32.68286 19.41605,-10.75305 42.90756,-21.61916 48.55696,-35.07981 z"
 />
</svg>
